<svg xmlns="http://www.w3.org/2000/svg" width="127.49" height="123.36" viewBox="0 0 127.49 123.36"><path fill="#bfe1db" fill-rule="evenodd" d="M51.35,0H49.73C33.93.67,24.41,15.17,24.41,15.17S6.18,37.05,1.19,59.93s5,56.91,43.13,62a145.58,145.58,0,0,0,19,1.43c21,0,25.43-6.39,28.78-8.68,4.38-3,14.71-16.41,29.53-40.39s-1.4-37-16.33-51.48C90.91,8.83,67.18,0,51.35,0" transform="translate(0 0)"/><path fill="#d41217" fill-rule="evenodd" d="M109.91,59.18l-.24,1.17-.13.11h-3.09l-1.6,7.59c-.19.83-.24,2.08,1,2.08a3.91,3.91,0,0,0,2.45-1.31l.42.43c-1.22,1.49-3.09,3-5,3a2.33,2.33,0,0,1-2.46-2.18c0-.11,0-.23,0-.35a10.84,10.84,0,0,1,.24-1.79l1.6-7.51h-1.58l-.07-.11.45-.9,1.49-.06.61-2.9,3.41-1.15.11.11-.83,3.84,3.2-.11ZM99.76,70.63a8.56,8.56,0,0,1-4.18,1.58c-2.13,0-1.87-1.92-1.52-3.44l1.15-4.88c.21-.9.63-2.61-.7-2.61a3.57,3.57,0,0,0-2.18,1.36,5.2,5.2,0,0,0-1.47,2.85L89.48,72H86.12l2.13-10c.21-1,.19-1.81-.66-1.81a3.52,3.52,0,0,0-1.47.53l-.24-.45a8.65,8.65,0,0,1,4.18-1.57c1.71,0,2,1.27,1.71,2.53l-.24,1.06h0c1.79-2.13,3.86-3.65,5.51-3.65a1.91,1.91,0,0,1,2,1.81c0,.1,0,.2,0,.3a12,12,0,0,1-.45,2.53l-1.2,5.62c-.21,1-.19,1.81.67,1.81a3.62,3.62,0,0,0,1.46-.53ZM80.71,60.86A2.2,2.2,0,0,0,79,59.93c-2.93,0-3.76,4.9-3.76,7.21,0,1.26.35,2.46,1.23,2.46.69,0,1.59-.91,2-1.42A7.24,7.24,0,0,0,80,64.67Zm4,9.77a8.56,8.56,0,0,1-4.18,1.58c-1.7,0-2-1.28-1.7-2.53l.27-1.23h0c-1.28,1.73-3.06,3.81-4.82,3.81-2,0-2.64-2-2.64-3.68,0-4.5,3.22-9.91,8-9.91a7.37,7.37,0,0,1,2.5.46l2.24-.4.16.13-2.13,10c-.22,1-.19,1.81.66,1.81a3.52,3.52,0,0,0,1.47-.53l.24.45ZM72.35,60.46a2.17,2.17,0,0,1-1.2,1.86h-.24a1.41,1.41,0,0,0-1.22-.66,3.17,3.17,0,0,0-2.11,1,5.59,5.59,0,0,0-1.43,2.82L64.76,72H61.4l2.13-10c.22-1,.14-1.81-.71-1.81a3.52,3.52,0,0,0-1.47.53l-.24-.45a8.65,8.65,0,0,1,4.18-1.57c1.71,0,2,1.27,1.71,2.53l-.32,1.27h0c1.25-2,2.59-3.86,4-3.86a1.68,1.68,0,0,1,1.6,1.75v0Zm-16.82.4a2.18,2.18,0,0,0-1.75-.93c-2.93,0-3.76,4.9-3.76,7.21,0,1.26.35,2.46,1.22,2.46.7,0,1.6-.91,2-1.42a7.2,7.2,0,0,0,1.52-3.51l.8-3.81Zm4,9.77a8.6,8.6,0,0,1-4.19,1.58c-1.7,0-2-1.28-1.7-2.53l.27-1.23h0c-1.28,1.73-3.06,3.81-4.82,3.81-2,0-2.64-2-2.64-3.68,0-4.5,3.22-9.91,8-9.91a7.39,7.39,0,0,1,2.51.46l2.24-.4.16.13-2.13,10c-.22,1-.19,1.81.66,1.81a3.52,3.52,0,0,0,1.47-.53ZM45,70.63a8.6,8.6,0,0,1-4.19,1.58c-2.13,0-1.86-1.92-1.51-3.44l1.14-4.88c.24-1.06.53-2.61-.67-2.61a3.34,3.34,0,0,0-2.07,1.36,5.47,5.47,0,0,0-1.39,2.85L34.91,72H31.55l1.73-8.08c.24-1.09.53-2.61-.66-2.61a3.32,3.32,0,0,0-2.08,1.36,5.47,5.47,0,0,0-1.39,2.85L27.77,72H24.41l2.13-10c.21-1,.19-1.81-.66-1.81a3.52,3.52,0,0,0-1.47.53l-.24-.45a8.65,8.65,0,0,1,4.18-1.57c1.71,0,2,1.27,1.71,2.53l-.27,1.06h.05c1.71-2.13,3.73-3.65,5.33-3.65a1.91,1.91,0,0,1,2,2.11A7.55,7.55,0,0,1,37,62.32h0c1.71-2.13,3.73-3.65,5.33-3.65a1.91,1.91,0,0,1,2,2.11,12,12,0,0,1-.46,2.53L42.6,68.9c-.21,1-.18,1.81.67,1.81a3.48,3.48,0,0,0,1.46-.53l.24.45ZM18.37,64.51a47.63,47.63,0,0,1,.28-5.6l-.1.18-2.93,5.42Zm22.7,30.76v8.58c-7-4.79-21.88-17.39-22.67-38.09H15l-1,1.77c-1.19,2.26-1.47,3.51-.42,3.76l.94.22-.08.44H8.18l.08-.44.5-.22c.58-.25.89-.61,2.16-2.85L19.66,53h0a69.27,69.27,0,0,1,6.66-17.25S28.6,32,29.15,32s.34.67.34.67l-1.4,2.85c-.84,1.93-19.2,39.22,13,59.81Z" transform="translate(0 0)"/></svg>