<svg xmlns="http://www.w3.org/2000/svg" width="354" height="56.56" viewBox="0 0 354 56.56"><path d="M54.05,36.44A18.39,18.39,0,0,1,46.26,38c-2.8,0-4.8-.7-6.19-2.1-1.5-1.59-2.3-4.09-2.2-7.49H56.05v-.4c.1-1.2.2-2,.2-2.6,0-7.59-4.29-12.09-11.59-12.09-7.79,0-12.89,5.9-12.89,15Q31.77,43,45.26,43a25.81,25.81,0,0,0,9.79-1.8l.3-.1-.8-5ZM38.17,24c.7-3.79,3.1-6.09,6.39-6.09a5.9,5.9,0,0,1,4.2,1.6A6.48,6.48,0,0,1,50.36,24Z" transform="translate(0 -0.17)"/><path d="M95,13.26c-8.19,0-14,6.2-14,15.09,0,9.39,4.6,14.59,12.89,14.59,8.09,0,14.09-6.5,14.09-15.29C108,15.16,99.82,13.26,95,13.26ZM101.81,28c0,7.29-3.79,10-7.29,10-6.09,0-7.39-5.39-7.39-10,0-7.09,4-9.59,7.39-9.59C100.61,18.36,101.81,23.55,101.81,28Z" transform="translate(0 -0.17)"/><path d="M139.38,37.94V22.65c0-6.09-3-9.29-8.79-9.29a10.61,10.61,0,0,0-9.29,4.8c.1-1.4.2-3,.2-4.1v-.4h-.4c-2.9,0-6.7.3-9.79.6h-.4V18h.4c1.39.1,3.09.3,4.49.5V37.84a21.87,21.87,0,0,0-4.59.8l-.3.1v3.7h15.28v-3.8l-.3-.1a28.18,28.18,0,0,0-4.19-.7V28.65c0-6.09,3.19-10.49,7.49-10.49,3.1,0,4.3,1.6,4.3,5.89V42.44h10.59v-3.7l-.3-.1A28.92,28.92,0,0,0,139.38,37.94Z" transform="translate(0 -0.17)"/><path d="M353.7,38.64a28.69,28.69,0,0,0-4.4-.8V22.65c0-6.09-3-9.29-8.79-9.29a10.61,10.61,0,0,0-9.29,4.8c.1-1.3.2-2.7.2-3.9v-.4H331a54.93,54.93,0,0,0-9.79.4h-.4V18h.4c1.4.1,3.1.3,4.49.5V37.84a22.1,22.1,0,0,0-4.59.8l-.3.1v3.7h15.29v-3.8l-.3-.1a28.31,28.31,0,0,0-4.2-.7V28.65c0-6.09,3.2-10.49,7.49-10.49,3.1,0,4.3,1.6,4.3,5.89V42.44H354v-3.7Z" transform="translate(0 -0.17)"/><path d="M282.56,37.74V23c0-6.59-3.4-9.69-10.79-9.69a29.42,29.42,0,0,0-9.69,1.5l-.3.1v7.7a17.09,17.09,0,0,0,4-.3.44.44,0,0,1,.1-.3c.2-1.1.4-2.3.5-3.3a18,18,0,0,1,4.8-.6c4,0,5.5,1.6,5.5,5.59v1.7c-10.7.1-16.79,3.8-16.79,10,0,4.6,3.3,7.8,8.19,7.8a10.52,10.52,0,0,0,9-4.6c-.1,1.2-.1,2.4-.1,3.6v.4h.39c.7,0,1.4.1,2.2.1a57.06,57.06,0,0,0,7.3-.5h.4v-3.7h-.4C285.56,38.14,284,37.94,282.56,37.74Zm-13,.5a3.57,3.57,0,0,1-3.8-3.8c0-3.19,3.7-4.79,11-4.79v.2C276.67,33.85,274,38.24,269.57,38.24Z" transform="translate(0 -0.17)"/><path d="M251.69,32.65c-.3,1.6-.6,3.29-.8,4.79H242v-29a30.58,30.58,0,0,0,3.6-.8l.4-.1V2.87a83.08,83.08,0,0,0-14.89,1v3.7l.3.1a16.22,16.22,0,0,0,4.7,1.1V38a22.08,22.08,0,0,0-4.6.8l-.3.1v3.7h24.88V32.35h-4.29Z" transform="translate(0 -0.17)"/><path d="M25,37.74V.17s-7.1-.1-10.79.7v3.6l.3.1a16.22,16.22,0,0,0,4.69,1.1v7.79a33.72,33.72,0,0,0-4.29-.2C5.7,13.36,0,19.56,0,29.45c0,8.69,3.8,13.49,10.69,13.49a10.26,10.26,0,0,0,8.79-4.6c-.1,1.3-.2,2.7-.2,3.7v.4h.4c.7,0,1.5.1,2.3.1h0a58.66,58.66,0,0,0,7.4-.5h.39v-3.7h-.39C28,38.14,26.28,37.94,25,37.74ZM11.89,38q-5.7,0-5.7-9,0-10.78,8.4-10.79a21.21,21.21,0,0,1,4.49.5v8.89C19.08,32,16.89,38,11.89,38Z" transform="translate(0 -0.17)"/><path d="M164.06,37.34l-5.09-.2c-3.7-.2-4.4-.7-4.4-1.8a2.32,2.32,0,0,1,1.4-1.89,9.25,9.25,0,0,0,2.9.4c7.39,0,12.09-3.9,12.19-10.5a12.09,12.09,0,0,0-.8-3.59,26.66,26.66,0,0,0,5.49-.5l-.3-5.1a94.84,94.84,0,0,0-9.69.6,14.37,14.37,0,0,0-6.2-1.6c-7,0-12.28,4.5-12.28,10.89a9.16,9.16,0,0,0,3.69,7.7,5.69,5.69,0,0,0-2.7,4.69,4.69,4.69,0,0,0,1.1,3.1h0l.3.3c1.3,1.4,4.7,2.1,7.4,2.2l5.39.2c3.5.1,5.3,1.5,5.3,4.09,0,3.4-3.3,5.6-8.4,5.6-4.49,0-7.19-1.7-7.29-4.5a3.27,3.27,0,0,1,.8-2.19l-4-3a7.54,7.54,0,0,0-2.49,5.69c0,5.5,4.49,8.8,12.09,8.8,8.59,0,15.18-4.7,15.18-11C173.85,40.54,170.36,37.54,164.06,37.34Zm-4.6-19.48c3.7,0,5.9,2.1,5.9,5.79s-2.3,5.7-6,5.7c-3.89,0-6-2-6-5.7C153.27,20.16,155.67,17.86,159.46,17.86Z" transform="translate(0 -0.17)"/><path d="M64.75,7.47l.19.1a16.32,16.32,0,0,0,4.6,1.1l-.1,31.77c-.5,9.49-11.59,5.89-11.59,5.89s.9,5,1,5.5c3.2.9,9.09.7,12.49-1.6s4.3-6.09,4.2-9.29V8.47a30.78,30.78,0,0,0,3.59-.8l.3-.1V2.87a81.76,81.76,0,0,0-14.68,1Z" transform="translate(0 -0.17)"/><path d="M220.71,37.94c-.6-.4-3.19-2.3-6.69-5,2.5-3.9,4.39-9,5.89-15.29a30.58,30.58,0,0,0,3.6-.8l.4-.1v-4.7a78.66,78.66,0,0,0-14.89,1v3.6l.3.1a16.22,16.22,0,0,0,4.7,1.1,37.55,37.55,0,0,1-4.4,11.59c-7.39-6-16.08-13.79-18.38-18.88a4.07,4.07,0,0,1,3.59-5.7c3-.2,4.4,1.7,4.4,4a7.24,7.24,0,0,1-2.3,5.09l2.8,2.7c1.8-1.4,4.8-5.4,4.8-8.59,0-4.8-3.4-7.8-8.9-7.9-6.89-.1-10.79,4.2-10.69,9.1.1,2.59,2.4,6.49,5.2,9.89-1.9,1.6-6.1,4.59-7.39,8.79-1.4,4.5-.4,10,6.19,13.59s15.69,1.8,21.28-3.8c3.2,2.5,5.6,4.3,6.2,4.7h8v-3.8A22,22,0,0,0,220.71,37.94Zm-30.47-2.5c-4.8-5.49-.3-10.39,2.8-12.88a169.46,169.46,0,0,0,12.59,11.59C199.93,39.14,193.24,38.24,190.24,35.44Z" transform="translate(0 -0.17)"/><path d="M313.33,37.74V23c0-6.59-3.39-9.69-10.79-9.69a29.46,29.46,0,0,0-9.69,1.5l-.3.1v7.7a17.22,17.22,0,0,0,4-.3.44.44,0,0,1,.1-.3c.2-1.1.4-2.3.5-3.3a18,18,0,0,1,4.79-.6c4,0,5.5,1.6,5.5,5.59v1.7c-10.69.1-16.79,3.8-16.79,10,0,4.6,3.3,7.8,8.2,7.8a10.51,10.51,0,0,0,9-4.6c-.1,1.2-.1,2.4-.1,3.6v.4h.4c.7,0,1.4.1,2.2.1a56.91,56.91,0,0,0,7.29-.5h.4v-3.7h-.4C316.33,38.14,314.63,37.94,313.33,37.74Zm-13,.5a3.57,3.57,0,0,1-3.8-3.8c0-3.19,3.7-4.79,11-4.79v.2C307.44,33.85,304.74,38.24,300.35,38.24Z" transform="translate(0 -0.17)"/></svg>