<svg xmlns="http://www.w3.org/2000/svg" width="200" height="127" viewBox="0 0 92.34 19"><path d="M19.53,11.81h0a9.18,9.18,0,0,0-3.34-1.28,1.89,1.89,0,0,0-.59-.09v.68H12.45l-.4.4v3.15h-.69a2.1,2.1,0,0,0,.1.59,5.93,5.93,0,0,0,1.38,3.25h0c.2.19.39.39.49.39.59.1,1-1.18.89-3,1.18,1.77,2.26,2.76,2.75,2.56s.1-1.67-.88-3.35c1.77.89,3.15,1.28,3.35.89s-.79-1.58-2.56-2.76c1.87.1,3.15-.29,3.05-.88-.1-.1-.2-.3-.4-.5" transform="translate(-0.83)" fill="#e41819"/><path d="M9.1,8.76l.39-.39V5.12h.69a1.66,1.66,0,0,0-.1-.69C9.39,2.17,8.51.59,7.62,0c-.39,1-.2,3.15.49,5.32,0,.19.2.39.2.59l-.39-.4C6.34,3.84,4.47,2.66,3.39,2.56c.1,1.08,1.28,2.95,2.85,4.53.1.1.4.29.4.39a1.32,1.32,0,0,1-.49-.29C4,6.6,1.81,6.4.83,6.79,1.42,7.68,3,8.56,5.26,9.25a2.25,2.25,0,0,0,.79.2V8.76Z" transform="translate(-0.83)" fill="#f08a01"/><path d="M12,8.27l.4.39H15.5v.69c.39-.1.78-.19,1.28-.29a4.69,4.69,0,0,0,3.15-3.55c-1-.78-3.25-.39-4.92.1.49-1.67,1-3.84.19-4.92-1.47.2-2.66,1.18-3.64,3.05a5.87,5.87,0,0,0-.39,1.38h.68V8.27Z" transform="translate(-0.83)" fill="#e41774"/><path d="M9.59,11.62l-.39-.4H6.05v-.69H6A5.06,5.06,0,0,0,1.81,12.8a3.39,3.39,0,0,0,2.56,1,5.82,5.82,0,0,0-1.08,3.74,5,5,0,0,0,3.54-.88A2.85,2.85,0,0,0,8,19a5.06,5.06,0,0,0,2.26-4.13v-.1H9.59Z" transform="translate(-0.83)" fill="#6c1f7f"/><polygon points="24.22 2.85 25.2 2.85 25.2 9.06 28.45 9.06 28.45 9.94 24.22 9.94 24.22 2.85"/><path d="M30.66,7.88a1.56,1.56,0,0,0,2.85.68l.69.5a2.35,2.35,0,0,1-2.07,1,2.38,2.38,0,0,1-2.46-2.46,2.44,2.44,0,0,1,2.46-2.46A2.32,2.32,0,0,1,34.5,7.68V8H30.66Zm2.85-.69a1.29,1.29,0,0,0-1.38-1.38,1.5,1.5,0,0,0-1.47,1.38Z" transform="translate(-0.83)"/><rect x="34.65" y="2.36" width="0.89" height="7.58"/><path d="M38.24,2.76a.69.69,0,1,1,0,1.37.66.66,0,0,1-.69-.68.73.73,0,0,1,.69-.69m-.49,2.46h.88V9.94h-.88Z" transform="translate(-0.83)"/><path d="M40.7,7.88a1.52,1.52,0,0,0,1.57,1.37,1.5,1.5,0,0,0,1.28-.69l.69.5a2.34,2.34,0,0,1-2.06,1,2.37,2.37,0,0,1-2.46-2.46,2.43,2.43,0,0,1,2.46-2.46,2.32,2.32,0,0,1,2.36,2.56V8H40.7Zm2.85-.69a1.29,1.29,0,0,0-1.37-1.38A1.5,1.5,0,0,0,40.7,7.19Z" transform="translate(-0.83)"/><polygon points="46.47 9.15 49.12 5.91 46.56 5.91 46.56 5.22 50.21 5.22 50.21 6 47.55 9.15 50.4 9.15 50.4 9.94 46.47 9.94 46.47 9.15"/><path d="M54.38,5a2.52,2.52,0,0,1,2.56,2.46,2.46,2.46,0,0,1-2.56,2.46,2.53,2.53,0,0,1-2.56-2.46A2.67,2.67,0,0,1,54.38,5m0,4.23A1.53,1.53,0,0,0,56,7.58a1.58,1.58,0,1,0-3.15,0,1.64,1.64,0,0,0,1.57,1.67" transform="translate(-0.83)"/><path d="M58,5.22h.88v.69h0A1.54,1.54,0,0,1,60.29,5a.56.56,0,0,1,.39.1v1A.61.61,0,0,0,60.29,6c-.89,0-1.38.49-1.38,1.57V9.94H58Z" transform="translate(-0.83)"/><path d="M66.2,9.84a2.41,2.41,0,0,1-2.56,2.47,3.12,3.12,0,0,1-2.37-.89l.6-.79a2.25,2.25,0,0,0,1.67.79,1.49,1.49,0,0,0,1.67-1.67V9.16h0a1.81,1.81,0,0,1-1.67.88,2.43,2.43,0,0,1-2.46-2.46,2.37,2.37,0,0,1,2.46-2.46,2.07,2.07,0,0,1,1.67.79h0V5.22h.89V9.84Zm-4-2.26a1.58,1.58,0,1,0,3.15,0,1.58,1.58,0,1,0-3.15,0" transform="translate(-0.83)"/><path d="M72.2,9.84a2.41,2.41,0,0,1-2.56,2.47,3.11,3.11,0,0,1-2.36-.89l.59-.79a2.25,2.25,0,0,0,1.67.79,1.5,1.5,0,0,0,1.68-1.67V9.16h0a1.83,1.83,0,0,1-1.68.88,2.44,2.44,0,0,1-2.46-2.46,2.38,2.38,0,0,1,2.46-2.46,2.1,2.1,0,0,1,1.68.79h0V5.22h.88V9.84Zm-4-2.26a1.58,1.58,0,1,0,3.15,0,1.58,1.58,0,1,0-3.15,0" transform="translate(-0.83)"/><path d="M73.38,5.22h.89v.69h0A1.54,1.54,0,0,1,75.65,5a.57.57,0,0,1,.39.1l.1,1c-.2,0-.3-.09-.39-.09-.89,0-1.38.49-1.38,1.57V9.94h-.89V5.22Z" transform="translate(-0.83)"/><path d="M79.19,5a2.52,2.52,0,0,1,2.56,2.46,2.56,2.56,0,0,1-5.12,0A2.53,2.53,0,0,1,79.19,5m0,4.23a1.53,1.53,0,0,0,1.58-1.67,1.58,1.58,0,1,0-3.15,0,1.52,1.52,0,0,0,1.57,1.67" transform="translate(-0.83)"/><path d="M83.33,7.88a1.56,1.56,0,0,0,2.85.68l.79.5a2.35,2.35,0,0,1-2.07,1,2.37,2.37,0,0,1-2.46-2.46A2.43,2.43,0,0,1,84.9,5.12a2.31,2.31,0,0,1,2.36,2.56V8H83.33Zm2.85-.69A1.29,1.29,0,0,0,84.8,5.81a1.5,1.5,0,0,0-1.47,1.38Z" transform="translate(-0.83)"/><path d="M88.15,5.22H89v.69h0a2.07,2.07,0,0,1,1.67-.79,2.37,2.37,0,0,1,2.46,2.46A2.37,2.37,0,0,1,90.71,10,1.94,1.94,0,0,1,89,9.25h0V12.8h-.89ZM89,7.58a1.58,1.58,0,1,0,3.15,0,1.58,1.58,0,1,0-3.15,0" transform="translate(-0.83)"/></svg>
