<svg xmlns="http://www.w3.org/2000/svg" width="226.77" height="48.19" viewBox="0 0 226.77 48.19"><path fill="#231f20" d="M377.4,425.33l-.1.24-2.94-.08-.2-.25H374v1.8a1.9,1.9,0,0,0,1.92,1.82,1.92,1.92,0,0,0,1.64-2l.11-1.56Zm-.36,1.8a1.41,1.41,0,0,1-1.14,1,1.5,1.5,0,0,1-1.51-1.19,2.45,2.45,0,0,1,0-.66l2.7.09A3,3,0,0,1,377,427.13Z" transform="translate(-184.72 -397.59)"/><polygon fill="#231f20" points="190.48 36.28 191.06 37.43 191.18 37.35 191.12 37.05 193.81 35.86 193.95 36.03 194.18 35.92 193.68 34.89 193.52 34.96 193.52 35.27 190.88 36.43 190.64 36.26 190.48 36.28"/><path fill="#231f20" d="M376.08,432.67v.12l-.77.16a1.93,1.93,0,0,1,.54-3.43c1.38-.43,1.95.47,2.25,1.51a7.53,7.53,0,0,1,.14.87l-.73.2-.1-.15a1,1,0,0,0,.28-1,1,1,0,0,0-1.33-.68l.39,1.68.29.12.06.16-.78.2-.05-.16.11-.18L376,430.4a1.14,1.14,0,0,0-1,1.34A1.38,1.38,0,0,0,376.08,432.67Z" transform="translate(-184.72 -397.59)"/><path fill="#231f20" d="M375.5,424.56a.42.42,0,0,1,.74-.39.49.49,0,0,1-.19.6A.42.42,0,0,1,375.5,424.56Z" transform="translate(-184.72 -397.59)"/><path fill="#231f20" d="M377.82,435.27a.44.44,0,0,1,.14-.55.51.51,0,0,1,.6.22.41.41,0,0,1-.74.33Z" transform="translate(-184.72 -397.59)"/><path fill="#231f20" d="M398.24,443.15a.4.4,0,0,1,.22-.54.41.41,0,0,1,.54.2.43.43,0,0,1-.21.55A.42.42,0,0,1,398.24,443.15Z" transform="translate(-184.72 -397.59)"/><polygon fill="#231f20" points="191.62 20.28 191.03 21.43 191.17 21.48 191.42 21.27 194.02 22.61 193.97 22.82 194.2 22.92 194.67 21.91 194.5 21.83 194.26 22 191.77 20.67 191.75 20.39 191.62 20.28"/><polygon fill="#231f20" points="193.24 25.32 193.08 25.27 192.92 25.39 190.97 24.98 193.76 23.91 194.02 23.27 193.81 23.22 193.62 23.3 191 22.26 190.98 22.01 190.79 21.95 190.46 22.86 190.7 22.94 190.93 22.83 192.79 23.55 189.81 24.7 189.68 25.14 192.79 25.83 192.93 25.98 193.04 26.03 193.24 25.32"/><path fill="#231f20" d="M383.92,440.33h0a1.55,1.55,0,0,0-.39-1.24l0-.06,0,0h0v0l-.05,0a1.55,1.55,0,0,0-1.26-.34,1.86,1.86,0,0,0-1.34.79,1.65,1.65,0,0,0,.11,2.28l0,0h0a1.76,1.76,0,0,0,2.32,0A1.92,1.92,0,0,0,383.92,440.33Zm-1.13.66a1.74,1.74,0,0,1-1,.54.65.65,0,0,1-.52-.21l-.05-.05a.54.54,0,0,1-.22-.44,2,2,0,0,1,.56-1.14c.2-.2.94-1,1.51-.45l.09.08C383.71,439.87,383,440.82,382.79,441Z" transform="translate(-184.72 -397.59)"/><polygon fill="#231f20" points="203.44 47.64 204.66 47.91 204.67 47.77 204.4 47.57 204.97 44.71 205.24 44.7 205.26 44.45 204.15 44.26 204.1 44.44 204.38 44.65 203.82 47.4 203.52 47.48 203.44 47.64"/><path fill="#231f20" d="M397.4,443.92h.13l.24.75a1.72,1.72,0,0,1-1.15.73,1.65,1.65,0,0,1-2.24-1.28c-.44-1.39.45-1.94,1.5-2.25a6.07,6.07,0,0,1,.87-.14l.2.76-.15.09a1,1,0,0,0-1-.32,1.09,1.09,0,0,0-.72,1.36l1.68-.38.14-.31.16,0,.19.78-.17,0-.17-.11-1.66.4a1.1,1.1,0,0,0,1.32,1A1.07,1.07,0,0,0,397.4,443.92Z" transform="translate(-184.72 -397.59)"/><polygon fill="#231f20" points="196.51 39.41 196.38 39.52 196.4 39.72 194.97 41.17 195.6 38.27 195.2 37.71 195.06 37.85 195.03 38.06 192.69 39.68 192.46 39.56 192.32 39.69 192.92 40.47 193.13 40.31 193.15 40.06 194.76 38.9 194.1 41.99 194.41 42.35 196.7 40.08 196.89 40.04 197 39.97 196.51 39.41"/><polygon fill="#231f20" points="208.08 44.73 208.07 44.91 208.24 45.02 208.44 47.03 206.56 44.62 205.91 44.55 205.93 44.75 206.05 44.92 205.83 47.77 205.59 47.88 205.59 48.07 206.53 48.09 206.55 47.82 206.38 47.64 206.51 45.67 208.49 48.19 208.95 48.19 208.69 45.04 208.8 44.86 208.81 44.73 208.08 44.73"/><polygon fill="#231f20" points="198.18 45.43 198.27 45.24 198.54 45.26 200.42 43.11 200.33 42.88 200.48 42.71 201.06 42.96 200.97 45.09 202.18 43.69 202.12 43.58 202.22 43.5 203.06 43.85 203.05 44.06 202.9 44.13 202.52 47.04 202.73 47.28 202.68 47.45 201.68 47.01 201.74 46.8 201.92 46.76 202.19 44.47 200.43 46.57 200.08 46.45 200.32 43.81 198.89 45.53 199.01 45.77 198.96 45.9 198.18 45.43"/><path fill="#231f20" d="M405.26,439.27l.12-.06.51.6a1.71,1.71,0,0,1-.63,1.22,1.68,1.68,0,0,1-2.65,0c-1-1.05-.47-2,.32-2.72a5.67,5.67,0,0,1,.7-.55l.53.57-.08.15a1,1,0,0,0-1,1.72l1.31-1.12,0-.33.12-.12.54.54-.12.12h-.21l-1.32,1.23a1.07,1.07,0,0,0,1.64.2A1.36,1.36,0,0,0,405.26,439.27Z" transform="translate(-184.72 -397.59)"/><path fill="#231f20" d="M409.39,421.58v-.13l.78-.17a1.76,1.76,0,0,1,.75,1.15,1.71,1.71,0,0,1-1.31,2.29c-1.35.42-2-.48-2.24-1.52a7.32,7.32,0,0,1-.15-.88l.74-.19.1.15a1,1,0,0,0,1,1.7l-.37-1.68-.31-.12,0-.17.79-.21,0,.14-.12.21.42,1.7a1.12,1.12,0,0,0,1-1.35A1.35,1.35,0,0,0,409.39,421.58Z" transform="translate(-184.72 -397.59)"/><path fill="#231f20" d="M409.82,419.42l-.87.43c0-.67.17-1.42.1-1.8a1.61,1.61,0,0,0-.74-1.05l-.12.1a1.48,1.48,0,0,1,.26.55,2.24,2.24,0,0,1,0,1.23,1.15,1.15,0,0,0-1.4-.5,1.19,1.19,0,0,0-.83,1.65l.73,1.7.25-.11.06-.16,2.62-1.34.18.12.15-.05Zm-2.95,1.49c-.33-.69-.52-1.71.39-1.94.75-.2,1.2.52,1.3,1.09Z" transform="translate(-184.72 -397.59)"/><path fill="#231f20" d="M407.92,428.4v-2.71l-.22-.74.93.59a.45.45,0,0,0-.23.1,2.78,2.78,0,0,0-.12,1.11l3,0,.05-.13h.16v1.07h-.08l-.13-.25-3,.05c0,.33-.05.81.05.88a.38.38,0,0,0,.17.09l-.79.52Z" transform="translate(-184.72 -397.59)"/><polygon fill="#231f20" points="226.32 33.38 226.55 32.16 226.41 32.15 226.2 32.4 223.33 31.89 223.3 31.68 223.06 31.65 222.9 32.77 223.08 32.8 223.26 32.57 226.07 33.06 226.16 33.31 226.32 33.38"/><path fill="#231f20" d="M409.77,431.61l.13-.13.68.31a1.92,1.92,0,0,1-.13,1.45,1.77,1.77,0,0,1-2.53,1c-1.3-.59-1.16-1.67-.72-2.67a5.81,5.81,0,0,1,.43-.77l.75.28-.06.2a.92.92,0,0,0-.84.55c-.28.56.15,1.06.67,1.46a1.48,1.48,0,0,0,1.93-.36A1.27,1.27,0,0,0,409.77,431.61Z" transform="translate(-184.72 -397.59)"/><polygon fill="#231f20" points="224.06 39.17 224.68 38.08 224.55 38.07 224.28 38.23 221.63 36.77 221.68 36.56 221.45 36.46 221.04 37.47 221.21 37.55 221.46 37.4 223.93 38.79 223.95 39.05 224.06 39.17"/><path fill="#231f20" d="M406.73,439.52l1.73-2-.37-1-.25.25a2.18,2.18,0,0,1,.05.64,2.4,2.4,0,0,1-.73,1l-2.24-1.86.1-.24-.21-.13-.77,1,.21.15.25-.12,2.18,1.83-.05.25Z" transform="translate(-184.72 -397.59)"/><path fill="#231f20" d="M400.73,444.08l.93-.5-.09-.12-.25,0-.67-1.35a3.35,3.35,0,0,1,.91-.47,2.68,2.68,0,0,1,.46,0l-.34-.69a4.12,4.12,0,0,1-.28.33,3.5,3.5,0,0,1-.94.48l-.47-1a5.27,5.27,0,0,1,1.08-.6l.41-.09a1.33,1.33,0,0,1,0-.3,2.51,2.51,0,0,1,.23-.44l-2.74,1.6.06.2h.27l1.32,2.63-.06.22Z" transform="translate(-184.72 -397.59)"/><path fill="#231f20" d="M403.92,409.82l-.15-.44h-3.22v-3a2,2,0,0,0-1.51-2,8.15,8.15,0,0,0-3.11-2.27v-2.7h-1.85v-1.83h-2.74v1.83h-1.81v2.7a8,8,0,0,0-3.09,2.27,2,2,0,0,0-1.49,2v3h-3.22l-.13.44a12.3,12.3,0,0,0-.56,3.88c0,4.37,1.61,9.48,3.19,13.46,2.4,6,5.56,11.46,7.21,13.28.39.39.71.74,1.23.76h.08c.53,0,.85-.37,1.24-.76,1.69-1.82,4.88-7.26,7.28-13.28,1.59-4,3.2-9.09,3.2-13.46A12,12,0,0,0,403.92,409.82Zm-4.65-3.41v3h-2.9v-3.1c0-.39.1-.46.17-.51a2.56,2.56,0,0,1,1.45-.26C399.13,405.51,399.27,406,399.27,406.41Zm-2.11-2.12a3.09,3.09,0,0,0-1.23.36,3.14,3.14,0,0,0-1.85-1.33v-.43A7,7,0,0,1,397.16,404.29Zm-2.07,2v3.1h-4.72v-3.1c0-.89.59-1.92,2.34-1.92h0C394.49,404.36,395.09,405.39,395.09,406.28Zm-4.57-5.87h1.82v-1.82h.76v1.82H395v.8H393.1v1.85h-.76v-1.85h-1.82Zm.82,2.48v.43a3.24,3.24,0,0,0-1.81,1.33,3,3,0,0,0-1.22-.36A7,7,0,0,1,391.34,402.89Zm-5.11,3.52c0-.39.13-.9,1.25-.9a2.46,2.46,0,0,1,1.44.26c.08.05.18.12.18.51v3.1h-2.87Zm6.48,4.24h10.12a5.45,5.45,0,0,1,.14.61H398.2c-2,0-2.88.49-2.88,1.67a1.41,1.41,0,0,0,.53,1l-1.34.5a1.13,1.13,0,0,1-.37-.66,1.67,1.67,0,0,0,.31-.94c0-.73-.5-1.46-1.77-1.5h0a2.06,2.06,0,0,0-1.25.43l-.05.06a1,1,0,0,0-.86,1v.51a1.71,1.71,0,0,1,.36.07.56.56,0,0,1,.29.24.65.65,0,0,1-.27.81l-1.34-.5a1.43,1.43,0,0,0,.54-1c0-1.18-.87-1.67-2.9-1.67h-4.66a5.45,5.45,0,0,1,.14-.61Zm-9.3,10.05c-.19-.69-.35-1.34-.49-2l7.29-1.15-6.8,3.14Zm7.45-2.05-1.36,2.05h-2.94ZM383.77,422h6.14v2.95h-5.17C384.37,423.91,384.06,422.92,383.77,422Zm6.14,14c-.92-1.57-1.93-3.48-2.9-5.55h2.9Zm5.65,0v-5.55h2.9C397.49,432.49,396.48,434.4,395.56,436Zm4.53-9.29c-.34.84-.69,1.65-1.06,2.47h-4.74V438a16.47,16.47,0,0,1-1.23,1.59,3.73,3.73,0,0,1-.35.34l-.34-.34a16.47,16.47,0,0,1-1.23-1.59v-8.82h-4.68c-.37-.82-.72-1.63-1-2.47-.06-.17-.13-.32-.19-.49h5.92V422h3.15v4.22h6C400.22,426.36,400.15,426.51,400.09,426.68Zm-9.08-6,1.07-1.61v1.61Zm2.35,0v-1.61l1.07,1.61Zm7.4,4.22h-5.2V422h6.19C401.46,422.92,401.13,423.91,400.76,424.92Zm-6.16-6.27,4.34,2.05h-3Zm7.51,2.05h0l-6.85-3.14,7.33,1.15C402.45,419.36,402.29,420,402.11,420.7Zm.72-3.23-8.11-1.28a2.21,2.21,0,0,1,.16.81,2.09,2.09,0,0,1-2.1,2.1h-.14a2.06,2.06,0,0,1-2.05-2.1,2.21,2.21,0,0,1,.16-.81l-8.08,1.28a23.34,23.34,0,0,1-.34-3.8c0-.41,0-.79,0-1.18h4.83c1.33,0,1.44.14,1.5.2a.28.28,0,0,1,0,.39,1.16,1.16,0,0,0-.73,1.05v0c0,.53.46.72,1.56,1.16l1.42.56.23-.14a2,2,0,0,0,1.21-1.69,1.35,1.35,0,0,0,0-.31,1.42,1.42,0,0,0-.13-.33h0a1,1,0,0,0-.39-.42.76.76,0,0,1,.75-.51h0l.08,0h0a.56.56,0,0,1,.54.59c0,.4-.25.48-.25,1a2,2,0,0,0,1.2,1.69l.25.14,1.44-.56c1.11-.44,1.56-.63,1.56-1.16v0a1.16,1.16,0,0,0-.71-1.05.25.25,0,0,1,0-.39c.06-.06.18-.2,1.48-.2h4.94c0,.39.06.77.06,1.18A22.52,22.52,0,0,1,402.83,417.47Z" transform="translate(-184.72 -397.59)"/><path fill="#b82b22" d="M188.21,425.52c0,.94,0,2.51,0,3.11,0,.43.15.58.74.72.39.09.46.15.46.42v.36c0,.22,0,.29-.23.29l-.71,0c-.34,0-.83,0-1.38,0s-1.1,0-1.45,0l-.71,0c-.19,0-.25-.07-.25-.29v-.36c0-.27.07-.33.48-.42.59-.14.73-.29.74-.72,0-.7,0-2,0-3.11V422.6c0-1.12,0-2.42,0-3.14,0-.46-.15-.58-.74-.73-.41-.09-.48-.14-.48-.41V418c0-.21.06-.28.21-.28l.75,0c.32,0,.73,0,1.29,0,.89,0,.89,0,2.53-.05.36,0,.67,0,1,0a3.33,3.33,0,0,1,2.64.9,3.26,3.26,0,0,1,.88,2.2,3.08,3.08,0,0,1-2,3c-.39.1-.42.12-.42.21a.2.2,0,0,0,.07.11,3.8,3.8,0,0,1,.29.56,29.13,29.13,0,0,0,2.16,3.78c.49.69.72.89,1.25,1,.34.09.36.11.36.42v.3a.25.25,0,0,1-.28.26h-.15c-.38,0-1,0-1.45,0l-1,0h-.27c-.34,0-.34,0-.76-1.1-.16-.4-1.36-3-2-4.29-.3-.65-.37-.7-.79-.7h-.54c-.1,0-.19.12-.19.32Zm0-6,0,2.15v.66l0,.49c0,.36.05.43.37.43a3.57,3.57,0,0,0,2.23-.47,2.31,2.31,0,0,0,.79-1.78,2,2,0,0,0-1.41-2,6.61,6.61,0,0,0-1.52-.12c-.39,0-.46,0-.46.29Z" transform="translate(-184.72 -397.59)"/><path fill="#b82b22" d="M197.5,422.42c.05-.49.18-.64.73-.78a11.29,11.29,0,0,1,2.28-.27c2.23,0,3.28.81,3.28,2.56l-.06,3.29c0,1.8,0,1.83.21,2a1.29,1.29,0,0,0,.76.22c.36,0,.46.09.46.31v.29c0,.2,0,.23-.37.3l-2.1.36a2.29,2.29,0,0,1-.39,0,.27.27,0,0,1-.3-.26,2.49,2.49,0,0,1-.08-.72c0-.33,0-.47-.12-.47a.42.42,0,0,0-.13.07,10.62,10.62,0,0,1-1.08.78,3.58,3.58,0,0,1-1.74.46,2.12,2.12,0,0,1-2-2.27,3.54,3.54,0,0,1,.44-1.74c.14-.2.16-.21,1.1-.4l2.33-.47c1-.21,1.13-.3,1.13-.84v-.31c0-1.23-.46-1.69-1.64-1.69a5.42,5.42,0,0,0-2.44.68.53.53,0,0,1-.27.11c-.08,0-.12-.08-.12-.22v-.11Zm4.35,4.35c0-.24,0-.29-.14-.29h-.13l-.19,0a4.6,4.6,0,0,0-1.66.48,1.24,1.24,0,0,0-.75,1.15,1,1,0,0,0,1,1,2.25,2.25,0,0,0,1.51-.67,1.55,1.55,0,0,0,.35-1.22Z" transform="translate(-184.72 -397.59)"/><path fill="#b82b22" d="M213.47,416.83a.92.92,0,0,1,.2,0c.16,0,.25.11.25.33l-.12,5.49v3.22a11.83,11.83,0,0,0,.14,3.14c.16.34.29.42,1,.49.16,0,.25.07.25.2V430c0,.18,0,.24-.37.29l-2.28.44-.32,0c-.14,0-.19-.09-.21-.32l-.05-.77c0-.44,0-.46-.16-.46a.39.39,0,0,0-.16.11,8.57,8.57,0,0,1-.91.76,2.59,2.59,0,0,1-1.57.5c-1.95,0-3.34-1.8-3.34-4.31,0-2.93,1.66-4.93,4.06-4.93a4.78,4.78,0,0,1,1.62.34.17.17,0,0,0,.12.07c.07,0,.15-.14.15-.29l0-.32,0-1.93c0-.94-.05-1-.8-1.14-.34,0-.41-.09-.41-.34v-.32c0-.18.07-.23.35-.27Zm-5.53,8.92c0,2,.85,3.35,2.09,3.35s1.86-1.07,1.86-3.2a5.17,5.17,0,0,0-.39-2.37,1.63,1.63,0,0,0-1.45-.9C208.81,422.63,207.94,423.91,207.94,425.75Z" transform="translate(-184.72 -397.59)"/><path fill="#b82b22" d="M217.18,422.4c0-1.55,0-3.36-.06-3.69s-.22-.57-.72-.63-.55-.11-.55-.32v-.28c0-.17.07-.22.3-.25l2.59-.38.33-.06c.13,0,.22.13.22.31a1.29,1.29,0,0,1,0,.25c0,.43,0,.95-.06,2.41,0,1.12,0,2,0,2.5l0,.3v.13c0,.07,0,.11.09.11s.3-.2.71-.64a2.06,2.06,0,0,1,1.84-.79c2,0,3.32,1.6,3.32,4.18,0,3-1.91,5.06-4.72,5.06a6.62,6.62,0,0,1-3-.77.6.6,0,0,1-.32-.6v-.19c0-1.56,0-3.42.07-5.66Zm2.25,1.85a6.55,6.55,0,0,0-.29,2.35,6,6,0,0,0,.2,2.17,1.56,1.56,0,0,0,1.3.69c1.37,0,2.4-1.48,2.4-3.45s-.78-3.14-2-3.14A1.9,1.9,0,0,0,219.43,424.25Z" transform="translate(-184.72 -397.59)"/><path fill="#b82b22" d="M234.76,423.24a5.19,5.19,0,0,1,.64,2.53,5.25,5.25,0,0,1-1.12,3.31,4.3,4.3,0,0,1-3.53,1.53,4,4,0,0,1-4.18-4.37,5.12,5.12,0,0,1,1.29-3.55,4.57,4.57,0,0,1,6.9.55Zm-6.1,2.64c0,1.92,1,3.35,2.4,3.35s2.23-1.34,2.23-3c0-2.05-1-3.49-2.39-3.49S228.66,424,228.66,425.88Z" transform="translate(-184.72 -397.59)"/><path fill="#b82b22" d="M245.18,425.75c0,1.67,0,2.66.07,3,.08.49.25.61.92.7.29,0,.34.1.34.31V430c0,.22,0,.28-.3.31l-2.41.32-.25,0c-.21,0-.21,0-.33-1.24,0-.28-.07-.4-.18-.4s-.13.05-.37.29c-1.2,1.12-1.55,1.31-2.51,1.31a3.46,3.46,0,0,1-1.81-.48,2.11,2.11,0,0,1-.81-2c0-.14,0-.45,0-.78v-2.49c0-2.11-.06-2.27-.77-2.34-.4,0-.49-.1-.49-.29V422c0-.22,0-.25.3-.29l2.59-.25.32,0c.12,0,.17.07.17.21s0,.24,0,.4c-.07.85-.11,2-.11,2.87v1.41c0,1.61,0,1.88.32,2.28a1.26,1.26,0,0,0,1.1.47,2.11,2.11,0,0,0,1.89-1,4.69,4.69,0,0,0,.28-2.25v-.88a17.76,17.76,0,0,0-.07-1.82c-.08-.33-.25-.47-.69-.53s-.5-.08-.5-.26v-.33c0-.2.06-.25.31-.27l2.54-.27a1.52,1.52,0,0,1,.28,0c.18,0,.23.05.23.21v.48c0,.46,0,.46,0,1.25,0,.33,0,.73,0,1.18Z" transform="translate(-184.72 -397.59)"/><path fill="#b82b22" d="M255.13,416.83a1,1,0,0,1,.21,0c.16,0,.25.11.25.33l-.13,5.49v3.22a11.83,11.83,0,0,0,.14,3.14c.16.34.28.42,1,.49.16,0,.24.07.24.2V430c0,.18-.05.24-.37.29l-2.28.44-.32,0c-.14,0-.19-.09-.21-.32l-.05-.77c0-.44,0-.46-.16-.46a.39.39,0,0,0-.16.11,8.65,8.65,0,0,1-1,.76,2.59,2.59,0,0,1-1.57.5c-1.94,0-3.32-1.8-3.32-4.31,0-2.93,1.64-4.93,4-4.93a5.1,5.1,0,0,1,1.66.34.19.19,0,0,0,.12.07c.07,0,.14-.14.14-.29v-.32l0-1.93c0-.94-.05-1-.84-1.14-.34,0-.41-.09-.41-.34v-.32c0-.18.07-.23.35-.27Zm-5.57,8.92c0,2,.85,3.35,2.09,3.35s1.9-1.07,1.9-3.2a5.17,5.17,0,0,0-.39-2.37,1.71,1.71,0,0,0-1.49-.9C250.43,422.63,249.56,423.91,249.56,425.75Z" transform="translate(-184.72 -397.59)"/><path fill="#b82b22" d="M263.59,422.6c0-1.12,0-2.42,0-3.14,0-.46-.16-.58-.74-.73-.41-.09-.48-.14-.48-.41V418c0-.21.05-.28.23-.28l.73,0c.33,0,.83,0,1.38,0s1.09,0,1.44,0l.68,0c.18,0,.23.07.23.28v.37c0,.27-.07.32-.46.41-.57.15-.7.27-.71.73s0,2.2,0,3.14v1.9c0,2.08.09,2.87.4,3.44a2.9,2.9,0,0,0,2.69,1.38,2.8,2.8,0,0,0,2.91-1.72c.23-.68.26-.92.26-3.18V422.6c0-1.07,0-2.46,0-3.14,0-.46-.14-.58-.74-.73-.41-.09-.48-.14-.48-.41V418c0-.21.05-.28.23-.28l.73,0c.33,0,.68,0,1,0s.71,0,1.06,0l.72,0c.18,0,.23.07.23.28v.37c0,.27-.06.32-.47.41-.6.15-.73.27-.75.73,0,.61,0,2.15,0,3.14v1.74a14,14,0,0,1-.18,3.26c-.46,2-2.14,3-5,3-2.16,0-3.68-.7-4.34-2-.37-.76-.47-1.6-.47-4.19Z" transform="translate(-184.72 -397.59)"/><path fill="#b82b22" d="M275.37,422.07c0-.27,0-.32.24-.36l2.51-.3.3,0c.14,0,.23.12.25.34s.05,1,.05,1.09.09.38.18.38.12-.06.19-.13l.18-.2.34-.34a2.57,2.57,0,0,1,2.31-1.14,2.54,2.54,0,0,1,2.55,1.33c.16.44.16.44.16,3.07v.59c0,1.06,0,2.09,0,2.45s.13.49.66.65.55.18.55.44v.28c0,.18-.05.24-.19.24h-.13c-.46,0-1.26-.06-1.91-.06s-1.51,0-2,.06h-.12c-.15,0-.2-.07-.2-.24v-.28c0-.26,0-.27.55-.44s.64-.27.67-.65,0-1.41,0-2.45v-.59a5.58,5.58,0,0,0-.2-2,1.3,1.3,0,0,0-1.32-.76,2.17,2.17,0,0,0-1.8.92c-.3.41-.38.81-.38,2v.46c0,1.1,0,2,0,2.45s.14.49.66.65.54.18.54.44v.28c0,.17,0,.24-.2.24h-.12c-.45,0-1.25-.06-1.92-.06s-1.54,0-2,.06h-.12c-.14,0-.2-.07-.2-.24v-.28c0-.26,0-.27.55-.44s.64-.27.68-.65,0-1.35,0-2.45v-.63a15.44,15.44,0,0,0-.21-2.61c-.09-.31-.27-.42-.82-.45s-.48-.07-.48-.23Z" transform="translate(-184.72 -397.59)"/><path fill="#b82b22" d="M288.56,424.89c0-2.13,0-2.26-.77-2.34-.4,0-.49-.1-.49-.28V422c0-.2.05-.25.3-.27l2.53-.27.15,0a.36.36,0,0,1,.14,0c.15,0,.23.12.23.34,0,0,0,0,0,.71,0,.3,0,2.05,0,3.05v.89c0,1.06,0,2,0,2.45s.14.49.65.65.55.18.55.44v.28c0,.17-.05.24-.19.24h-.13c-.46,0-1.25-.06-1.93-.06s-1.52,0-2,.06h-.13c-.16,0-.19-.06-.19-.24v-.28c0-.26,0-.26.55-.44s.64-.27.67-.65,0-1.3,0-2.45Zm2.21-6.16a1.36,1.36,0,0,1-1.4,1.34,1.35,1.35,0,0,1-1.38-1.32,1.28,1.28,0,0,1,1.45-1.27A1.22,1.22,0,0,1,290.77,418.73Z" transform="translate(-184.72 -397.59)"/><path fill="#b82b22" d="M301.46,421.93c0,.25,0,.25-.33.34s-.34.28-.64,1c-.19.51-.19.51-1.72,4.24-.56,1.4-.69,1.73-.81,2.08a2.44,2.44,0,0,1-.23.55c-.05.09-.12.13-.37.17a5.83,5.83,0,0,0-.83.12.75.75,0,0,1-.2,0c-.17,0-.19,0-.39-.59s-.39-1-1.2-3.26-1.17-3.25-1.47-3.95c-.12-.31-.16-.33-.57-.47a.29.29,0,0,1-.16-.29v-.32c0-.19.08-.24.31-.24l.86,0h.91c.83,0,1.34,0,1.87-.05h.22c.17,0,.24.05.24.24v.32c0,.23,0,.23-.49.36s-.71.26-.71.51a.93.93,0,0,0,.07.36c.09.26.17.54.25.81l.44,1.42c.55,1.78.92,2.91,1,2.91a1.14,1.14,0,0,0,.07-.19l.07-.26.15-.48c.09-.29.22-.64.32-1l.52-1.4a11.59,11.59,0,0,0,.69-2.26c0-.21-.28-.41-.73-.5-.21-.06-.26-.11-.26-.27v-.32c0-.17.07-.24.21-.24a.76.76,0,0,1,.19,0c.22,0,.94,0,1.3,0a10.78,10.78,0,0,0,1.11-.05h.16c.14,0,.19.05.19.24Z" transform="translate(-184.72 -397.59)"/><path fill="#b82b22" d="M304.69,425.34c-.66,0-.73.05-.73.67a2.76,2.76,0,0,0,2.64,3,5.07,5.07,0,0,0,2.74-.92s.05-.06.07-.06.1.08.1.17a14.93,14.93,0,0,1-.2,1.59c-.05.11-.23.21-.73.41a6.31,6.31,0,0,1-2.23.41,4.14,4.14,0,0,1-4.34-4.35c0-2.8,1.86-4.89,4.43-4.89,2.09,0,3.23,1.19,3.23,3.33,0,.49-.19.64-.86.64Zm.3-.89.81-.07c.32,0,1.19-.09,1.5-.14s.38-.13.38-.37a1.82,1.82,0,0,0-.34-1,1.23,1.23,0,0,0-1-.45,1.9,1.9,0,0,0-1.45.68,2.24,2.24,0,0,0-.49,1.17c0,.15.07.2.25.2Z" transform="translate(-184.72 -397.59)"/><path fill="#b82b22" d="M311.14,422.16c0-.26.05-.32.32-.36l2.57-.39.14,0,.14,0c.13,0,.21.12.21.31v.79c0,.77,0,.9.15.9s.21-.13.34-.28l.69-.8a1.94,1.94,0,0,1,1.18-.81,3.24,3.24,0,0,1,.85-.11c.46,0,.66.12.64.4v0l-.07,1.27c0,.32-.09.44-.25.44l-.16,0a3.5,3.5,0,0,0-1-.11,2.13,2.13,0,0,0-1.5.5c-.4.42-.48.78-.48,2.57v.78l0,1.16c0,.59.06.74.3.86a3.22,3.22,0,0,0,.92.26c.54.13.56.13.56.38v.25c0,.18-.08.29-.23.29h-.08c-.51,0-1.93-.06-2.64-.06s-1.39,0-1.81.06h-.12c-.14,0-.19-.07-.19-.24v-.28c0-.26,0-.26.52-.44s.63-.27.66-.65,0-1.28,0-2.45v-.59a8.58,8.58,0,0,0-.3-2.42c-.16-.45-.42-.61-1-.63-.39,0-.44-.05-.44-.25Z" transform="translate(-184.72 -397.59)"/><path fill="#b82b22" d="M325.53,423.23c0,.28-.06.32-.25.32H325c-.18,0-.18,0-.36-.46a1.51,1.51,0,0,0-1.52-.75c-.84,0-1.41.47-1.41,1.17,0,.49.25.82.94,1.21a11.88,11.88,0,0,0,1.58.78,2.68,2.68,0,0,1,1.82,2.37c0,1.65-1.46,2.74-3.69,2.74a5.23,5.23,0,0,1-2.28-.48.41.41,0,0,1-.29-.5l.11-1.24c0-.21.1-.3.3-.3h.3c.2,0,.21,0,.32.47a1.76,1.76,0,0,0,1.74,1.08c.9,0,1.53-.49,1.53-1.19,0-.54-.28-.83-1.25-1.28-2.27-1-2.84-1.65-2.84-3,0-1.76,1.29-2.81,3.48-2.81a5,5,0,0,1,1.82.31c.28.1.35.2.35.41v.05Z" transform="translate(-184.72 -397.59)"/><path fill="#b82b22" d="M328.89,424.89c0-2.13,0-2.26-.76-2.34-.4,0-.49-.1-.49-.28V422c0-.2.05-.25.3-.27l2.51-.27.13,0a.39.39,0,0,1,.14,0c.16,0,.23.12.23.34,0,0,0,0,0,.71,0,.3,0,2.05,0,3.05v.89c0,1.06,0,2,0,2.45s.14.49.64.65.55.18.55.44v.28c0,.17-.05.24-.19.24h-.13c-.45,0-1.25-.06-1.89-.06s-1.52,0-2,.06h-.13c-.16,0-.19-.06-.19-.24v-.28c0-.26,0-.26.55-.44s.63-.27.67-.65,0-1.3,0-2.45Zm2.19-6.16a1.38,1.38,0,0,1-2.75,0,1.28,1.28,0,0,1,1.45-1.27A1.22,1.22,0,0,1,331.08,418.73Z" transform="translate(-184.72 -397.59)"/><path fill="#b82b22" d="M334.79,424c0-1.05,0-1.07-.44-1.07l-.32,0h-.46l-.27,0c-.11,0-.18-.05-.18-.11a.66.66,0,0,1,.07-.23l.22-.6c.14-.39.18-.43.35-.43l.43,0h.21c.32,0,.44-.11.44-.38,0-.09,0-.67,0-1.19,0-.29,0-.56,0-.76,0-.39.1-.54.49-.69l1.12-.39c.36-.13.36-.13.41-.13s.18.13.18.27a3.38,3.38,0,0,1-.06.53c-.05.45-.17,2-.17,2.31s.08.38.6.38h1.44a4.84,4.84,0,0,0,.89-.06h.11a.13.13,0,0,1,.14.15,4.15,4.15,0,0,1-.21.83c-.09.38-.17.45-.45.45l-.53,0-.67,0-.67,0c-.57,0-.57,0-.57.78v2.77a5.23,5.23,0,0,0,.22,2.23,1.05,1.05,0,0,0,1.06.52,5.68,5.68,0,0,0,1.43-.23.85.85,0,0,1,.23-.06c.09,0,.13.06.13.15a5.41,5.41,0,0,1-.2,1.19,5,5,0,0,1-2.17.41c-2,0-2.79-.59-2.79-2.16l0-1.07c0-.43,0-.74,0-1Z" transform="translate(-184.72 -397.59)"/><path fill="#b82b22" d="M343.62,425.34c-.65,0-.73.05-.73.67a2.76,2.76,0,0,0,2.65,3,5.1,5.1,0,0,0,2.74-.92s.05-.06.07-.06.11.08.11.17a14.93,14.93,0,0,1-.2,1.59c-.05.11-.25.21-.74.41a6.31,6.31,0,0,1-2.23.41,4.17,4.17,0,0,1-4.38-4.35c0-2.8,1.89-4.89,4.47-4.89,2.08,0,3.24,1.19,3.24,3.33,0,.49-.2.64-.87.64Zm.3-.89.83-.07c.31,0,1.18-.09,1.49-.14s.37-.13.37-.37a1.81,1.81,0,0,0-.33-1,1.21,1.21,0,0,0-1-.45,1.9,1.9,0,0,0-1.46.68,2.24,2.24,0,0,0-.49,1.17c0,.15.07.2.24.2Z" transform="translate(-184.72 -397.59)"/><path fill="#b82b22" d="M351.4,424.89c0-2.13,0-2.26-.76-2.34-.41,0-.5-.1-.5-.28V422c0-.2.05-.25.3-.27l2.53-.27.15,0a.32.32,0,0,1,.13,0c.16,0,.23.12.23.34,0,0,0,0,0,.71,0,.3,0,2.05,0,3.05v.89c0,1.06,0,2,0,2.45s.14.49.66.65.54.18.54.44v.28c0,.17-.05.24-.19.24h-.12c-.46,0-1.25-.06-1.93-.06s-1.52,0-2,.06h-.12c-.16,0-.2-.06-.2-.24v-.28c0-.26,0-.26.55-.44s.64-.27.67-.65,0-1.3,0-2.45Zm2.2-6.16a1.39,1.39,0,0,1-2.77,0,1.29,1.29,0,0,1,1.46-1.27A1.21,1.21,0,0,1,353.6,418.73Z" transform="translate(-184.72 -397.59)"/><path fill="#b82b22" d="M357.32,424c0-1.05,0-1.07-.44-1.07l-.32,0h-.46l-.26,0c-.11,0-.18-.05-.18-.11a.66.66,0,0,1,.07-.23l.21-.6c.14-.39.18-.43.36-.43l.42,0h.21c.32,0,.45-.11.45-.38,0-.09,0-.67-.06-1.19,0-.29,0-.56,0-.76,0-.39.11-.54.5-.69l1.09-.39c.35-.13.35-.13.4-.13s.18.13.18.27a4.72,4.72,0,0,1-.05.53c-.06.45-.18,2-.18,2.31s.09.38.6.38h1.45a5.63,5.63,0,0,0,.92-.06h.1a.14.14,0,0,1,.15.15,4.66,4.66,0,0,1-.22.83c-.1.38-.19.45-.48.45l-.53,0-.67,0-.67,0c-.56,0-.56,0-.56.78v2.77a5.31,5.31,0,0,0,.21,2.23,1.05,1.05,0,0,0,1.06.52,5.75,5.75,0,0,0,1.43-.23l.26-.06c.09,0,.13.06.13.15a5.41,5.41,0,0,1-.2,1.19,5.18,5.18,0,0,1-2.2.41c-2,0-2.75-.59-2.75-2.16l0-1.07c0-.43,0-.74,0-1Z" transform="translate(-184.72 -397.59)"/></svg>