<svg xmlns="http://www.w3.org/2000/svg" width="246.69" height="63.798" viewBox="0 0 185.03 47.84"><path d="M81.85,38.61h2.93V22l-2.93.44v6.7H73.29V22l-2.93.44V38.61h2.93V31.55h8.56Zm29.59,0h2.84V32l0,0c.48-.71,1.46-1.89,2.72-1.89a3.1,3.1,0,0,1,1,.18l.46-2.72a2.15,2.15,0,0,0-.83-.16c-1.63,0-2.74,1.45-3.25,2.3l-.21.35V27.41l-2.72.45Zm27.35,0h2.83V30.76c0-2.26-1-3.41-2.91-3.41a5.83,5.83,0,0,0-4.15,2.08l-.19.22V27.42l-2.72.46V38.61h2.82v-7l0,0c.83-.83,2-1.8,3-1.8s1.25,1.09,1.25,2.27v6.55Zm9.78,0h10.36V36.19h-7.41V22l-3,.44Zm17.21-1.76c-2.09,0-3-2-3-3.9s1.25-3.53,3-3.53c2.05,0,3,2,3,3.79,0,2.12-1.23,3.64-3,3.64m0-9.48a5.58,5.58,0,0,0-6,5.81,5.5,5.5,0,0,0,5.88,5.73,5.74,5.74,0,0,0,6-6,5.46,5.46,0,0,0-5.88-5.54m13.34,9.48c-2.08,0-3-2-3-3.9s1.26-3.53,3-3.53c2,0,3,2,3,3.79,0,2.12-1.24,3.64-2.95,3.64m0-9.48a5.58,5.58,0,0,0-6,5.81,5.49,5.49,0,0,0,5.87,5.73,5.74,5.74,0,0,0,6-6,5.46,5.46,0,0,0-5.88-5.54m-86.49,0c-3.16,0-5.43,2.45-5.43,5.82a5.39,5.39,0,0,0,5.66,5.72,7.36,7.36,0,0,0,4.55-1.5l-.7-1.92a5.8,5.8,0,0,1-3.34,1.29,3.12,3.12,0,0,1-3.1-2.3A4.91,4.91,0,0,1,90,32.82a5.63,5.63,0,0,1,.15-1.2.78.78,0,0,0,0-.09v0a2.33,2.33,0,0,0,.07-.25,2.3,2.3,0,0,1,2.19-1.87c1.75,0,1.82,2.21,1.82,2.23v.08L91,32.81l.89,1.48,5.43-1.66c0-3.28-1.78-5.26-4.66-5.26M56.61,37.25l.14.16a5.08,5.08,0,0,0,3.69,1.52,3.52,3.52,0,0,0,3.79-3.46c0-2-1.69-2.68-2.94-3.19l-.14-.06c-1.27-.53-1.94-.83-1.94-1.57a1.25,1.25,0,0,1,1.37-1.27,2.93,2.93,0,0,1,1.93.76l.15.18L64,28.94l-.16-.16a4.88,4.88,0,0,0-3.44-1.36A3.19,3.19,0,0,0,57,30.69c0,2.1,1.75,2.79,3,3.3s2,.86,2,1.55A1.48,1.48,0,0,1,60.32,37a3,3,0,0,1-2.19-.92L58,35.89l-1.36,1.36Zm-1.13-12.7a1.09,1.09,0,0,0-.76.3,1,1,0,0,0-.31.61,1.07,1.07,0,0,0,.44,1.06l0,0,0,0a2.08,2.08,0,0,1-.23,1,3,3,0,0,1-.55.74l1.2-.28a3.58,3.58,0,0,0,1.11-1.52,1.74,1.74,0,0,0,0-1.43,1.05,1.05,0,0,0-.79-.58l-.13,0-.07,0Zm49.1,2.84c-3.16,0-5.44,2.45-5.44,5.82a5.4,5.4,0,0,0,5.67,5.72,7.49,7.49,0,0,0,4.55-1.5l-.71-1.92a5.73,5.73,0,0,1-3.33,1.28,3.13,3.13,0,0,1-3.11-2.29,4.67,4.67,0,0,1-.28-1.66,4.6,4.6,0,0,1,.14-1.2.64.64,0,0,0,0-.09v0c0-.09,0-.16.07-.25a2.3,2.3,0,0,1,2.19-1.87c1.74,0,1.81,2.21,1.81,2.22v.09l-3.24,1.11.88,1.49,5.43-1.66c0-3.29-1.78-5.26-4.65-5.26m20.11,0c-3.16,0-5.43,2.45-5.43,5.82a5.4,5.4,0,0,0,5.66,5.72,7.5,7.5,0,0,0,4.56-1.5l-.71-1.92a5.77,5.77,0,0,1-3.34,1.28,3.12,3.12,0,0,1-3.1-2.29,4.67,4.67,0,0,1-.28-1.66,5.6,5.6,0,0,1,.14-1.2.64.64,0,0,0,0-.09v0a2.33,2.33,0,0,1,.07-.25,2.29,2.29,0,0,1,2.18-1.87c1.75,0,1.82,2.21,1.82,2.22v.09L123,32.82l.89,1.49,5.43-1.66c0-3.29-1.78-5.26-4.66-5.26" transform="translate(-0.02 -0.12)"/><path fill="#65b5d5" d="M15.18,25l4.51-4.52L14.31.35a7.09,7.09,0,0,0-1.55,13.08,1.85,1.85,0,0,1-.33,3.44h0a1.63,1.63,0,0,1-.58.05h-.18a7.08,7.08,0,0,0-6.84,5.26Z" transform="translate(-0.02 -0.12)"/><path fill="#00aed6" d="M24.71,13.52A1.87,1.87,0,0,1,22,12.43h0a1.84,1.84,0,0,1,.2-1.43A7.08,7.08,0,0,0,14.31.37l5.38,20.12,6.16,1.66,7.59-7.59a7,7,0,0,0-5-2.08A6.77,6.77,0,0,0,24.71,13.52Z" transform="translate(-0.02 -0.12)"/><path fill="#499ed6" d="M23,32.81l-6.16-1.66L2.1,45.88a7.1,7.1,0,0,0,12.11-5.19,1.85,1.85,0,0,1,3.15-1.43h0a2,2,0,0,1,.34.48,1.29,1.29,0,0,0,.09.16,7.1,7.1,0,0,0,8,3.3L23,32.81Z" transform="translate(-0.02 -0.12)"/><path fill="#008bce" d="M15.18,25,4.8,22.2a7.07,7.07,0,0,0,3.49,8.08,3.37,3.37,0,0,1,.45.32,1.85,1.85,0,0,1,0,2.61h0a1.88,1.88,0,0,1-1.34.55,7.21,7.21,0,0,0-3.83.93A7.1,7.1,0,0,0,1,44.38,7,7,0,0,0,2.1,45.85L16.82,31.13,15.18,25Z" transform="translate(-0.02 -0.12)"/><path fill="#006d68" d="M27.49,28.29,23,32.81l2.78,10.37A7.09,7.09,0,0,0,31,36.12a2,2,0,0,1,.07-.54,1.84,1.84,0,0,1,2.25-1.31h0a1.83,1.83,0,0,1,1.13.88A7,7,0,0,0,37.22,38a7.09,7.09,0,0,0,9.69-2.59,7.6,7.6,0,0,0,.7-1.71Z" transform="translate(-0.02 -0.12)"/><path fill="#4f8683" d="M44.31,25.71a7.07,7.07,0,0,0-7.23.09,1.94,1.94,0,0,1-1.52.25,1.84,1.84,0,0,1-1.31-2.25h0a2.57,2.57,0,0,1,.23-.53.51.51,0,0,0,.09-.16,7.11,7.11,0,0,0-1.6-9c.15.14.31.28.47.44l-7.59,7.59,1.66,6.16,20.12,5.38a7.1,7.1,0,0,0-3.32-8Z" transform="translate(-0.02 -0.12)"/></svg>