<svg xmlns="http://www.w3.org/2000/svg" width="463.87" height="246.3" viewBox="0 0 463.87 246.3"><path fill="#fff" d="M19.6,202a12.12,12.12,0,0,1,10.31,5.56L34.78,205a17.28,17.28,0,0,0-15.18-8.08c-10.89,0-19.6,8-19.6,19.77s8.71,19.76,19.6,19.76a17.36,17.36,0,0,0,15.18-8.08l-4.87-2.57a12.11,12.11,0,0,1-10.31,5.55c-7.74,0-13.7-6.13-13.7-14.66S11.86,202,19.6,202Zm31.91-4.47L36.33,235.76h6.3l3.09-7.91H64.46l3.09,7.91h6.31L58.67,197.54Zm-4.12,25.21,7.67-20.23,7.74,20.23Zm47.15-25.21H78.44v38.22h5.73V221H94.54c7.79,0,12.2-5.39,12.2-11.74S102.39,197.54,94.54,197.54ZM93.8,216H84.17V202.58H93.8c4.12,0,7,2.69,7,6.71S97.92,216,93.8,216Zm35-18.45h-16.1v38.22h5.73V221h10.37c7.79,0,12.2-5.39,12.2-11.74S136.6,197.54,128.75,197.54ZM128,216h-9.62V202.58H128c4.13,0,7.05,2.69,7.05,6.71S132.13,216,128,216Zm51.68-11.86a10.34,10.34,0,0,1,9,5.56l7-3.44a17.51,17.51,0,0,0-16-9.34c-11.46,0-20.34,8-20.34,19.77s8.88,19.76,20.34,19.76c8.42,0,13.23-4.64,16-9.39l-7-3.38a10.23,10.23,0,0,1-9,5.55c-6.93,0-12-5.32-12-12.54S172.75,204.13,179.68,204.13Zm33.52,3.26c-9.11,0-14.61,6.65-14.61,14.5s5.5,14.55,14.61,14.55,14.67-6.64,14.67-14.55S222.37,207.39,213.2,207.39Zm0,22.58c-4.53,0-7-3.73-7-8.08s2.52-8,7-8,7.1,3.72,7.1,8S217.72,230,213.2,230Zm53.57-22.58a11.74,11.74,0,0,0-9.51,5.05c-1-3.15-3.61-5.05-7.68-5.05a12.09,12.09,0,0,0-9.05,4.3v-3.61h-7.28v27.68h7.28V217.14a7.43,7.43,0,0,1,5.73-3.27c3,0,4.12,1.83,4.12,4.41v17.48h7.34V217.08a7.34,7.34,0,0,1,5.73-3.21c3,0,4.12,1.83,4.12,4.41v17.48h7.34v-20C274.91,210.09,271.87,207.39,266.77,207.39Zm31.11,0a10.68,10.68,0,0,0-8.54,4.19v-3.5h-7.27V246.3h7.27V232.2a10.58,10.58,0,0,0,8.54,4.24c7.11,0,12.26-5.32,12.26-14.55S305,207.39,297.88,207.39ZM295.59,230a8.35,8.35,0,0,1-6.25-3.15V217a8.16,8.16,0,0,1,6.25-3.15c4.18,0,7,3.27,7,8S299.77,230,295.59,230Zm20,5.79h7.27V197.54h-7.27Zm14.49,0h7.28V208.08h-7.28Zm3.61-39.31a4.34,4.34,0,0,0-4.35,4.3,4.36,4.36,0,0,0,8.71,0A4.31,4.31,0,0,0,333.69,196.45Zm22.69,10.94a18.16,18.16,0,0,0-12.09,4.36l2.75,4.87a11.64,11.64,0,0,1,8.08-3.27c3.67,0,6.07,1.84,6.07,4.64v3.84c-1.83-2.23-5.09-3.38-8.76-3.38-4.41,0-9.63,2.35-9.63,8.83,0,6.18,5.22,9.16,9.63,9.16a11.42,11.42,0,0,0,8.76-3.55v2.87h7.28V217.88C368.47,209.92,362.69,207.39,356.38,207.39Zm4.81,21.72a7.28,7.28,0,0,1-5.84,2.41c-2.86,0-5.21-1.49-5.21-4.07s2.35-4.18,5.21-4.18c2.35,0,4.64.8,5.84,2.4Zm31.46-21.72a12.67,12.67,0,0,0-9.68,4.3v-3.61h-7.28v27.68H383V217.14a7.86,7.86,0,0,1,6.3-3.27c3.1,0,5.1,1.32,5.1,5.16v16.73h7.28V216.22C401.65,210.83,398.73,207.39,392.65,207.39Zm29.45,6.48a6.72,6.72,0,0,1,5.85,3l4.75-4.47c-1.83-2.52-5.27-5-10.94-5-8.54,0-14.67,6-14.67,14.5s6.13,14.55,14.67,14.55c5.67,0,9.11-2.46,10.94-5L428,227a7,7,0,0,1-5.85,3c-4.41,0-7.5-3.27-7.5-8.08S417.69,213.87,422.1,213.87Zm41.77,8.76c0-9-5.61-15.24-13.86-15.24-8.43,0-14.33,6.48-14.33,14.5,0,8.88,6.36,14.55,14.78,14.55,4.3,0,8.66-1.31,11.41-3.84l-3.21-4.69a11.31,11.31,0,0,1-7.39,2.75c-4.7,0-7.51-2.93-8-6.42h20.57Zm-20.68-3.32a6.65,6.65,0,0,1,6.82-6.13,6.42,6.42,0,0,1,6.82,6.13Z" transform="translate(0)"/><path fill="#00aa91" d="M279.32,6.35l36.95,64.26a10.81,10.81,0,0,1,0,10.65h0L278.79,146.7h0a10.76,10.76,0,0,1-9.34,5.45H194.39a10.79,10.79,0,0,1-9.81-6.38L148.41,82.71a10.85,10.85,0,0,1-.8-12.1L185.13,5.35h0A10.77,10.77,0,0,1,194.49,0h75a10.75,10.75,0,0,1,9.81,6.35" transform="translate(0)"/><path fill="#fff" fill-rule="evenodd" d="M273.79.89,216,105a9.17,9.17,0,0,1-12.48,3.56l-.12-.07-57.18-33a10.92,10.92,0,0,0,2.24,7.2l36.17,63a10.79,10.79,0,0,0,9.81,6.38h75.08a10.76,10.76,0,0,0,9.34-5.45h0l37.53-65.4h0a10.86,10.86,0,0,0,0-10.65l-37-64.28A10.79,10.79,0,0,0,273.79.89" transform="translate(0)"/></svg>