<svg xmlns="http://www.w3.org/2000/svg" width="326" height="246" viewBox="0 0 229.2 149.81"><path d="M8.41,138.65a11.5,11.5,0,0,1,11.12-11.89q.33,0,.66,0a10.39,10.39,0,0,1,9.14,4.92l-2.93,1.56a7.28,7.28,0,0,0-6.16-3.35c-4.65,0-8.24,3.69-8.24,8.83s3.5,8.76,8.15,8.76a7.27,7.27,0,0,0,6.16-3.35l3,1.56a10.44,10.44,0,0,1-9.14,4.86A11.52,11.52,0,0,1,8.4,139.33C8.4,139.1,8.4,138.88,8.41,138.65Z" transform="translate(-8.4 -7.09)" fill="#fff"/><path d="M47.16,145.38H35.88L34,150.13H30.23l9.14-23h4.31l9.13,23H49.05Zm-10.28-3.07h9.28L41.5,130.13Z" transform="translate(-8.4 -7.09)" fill="#fff"/><path d="M55.57,127.14h9.69a7.07,7.07,0,0,1,0,14.14H59v8.85H55.57Zm9.24,3H59v8.07h5.79a4,4,0,0,0,.44-8.07Z" transform="translate(-8.4 -7.09)" fill="#fff"/><path d="M76.14,127.14h9.69a7.07,7.07,0,1,1,0,14.14H79.59v8.85H76.14Zm9.25,3h-5.8v8.07h5.8a4,4,0,0,0,.44-8.07Z" transform="translate(-8.4 -7.09)" fill="#fff"/><path d="M105.36,127.14h4.93v18.68H120v4.31H105.36Z" transform="translate(-8.4 -7.09)" fill="#fff"/><path d="M130.46,133.06c4.93,0,8.35,3.7,8.35,9.18v1H126.49a4.5,4.5,0,0,0,4.8,3.86,6.83,6.83,0,0,0,4.44-1.65l1.93,2.82a10.33,10.33,0,0,1-6.86,2.31,8.75,8.75,0,0,1-.28-17.49Zm-4.1,7.18h8.21a3.87,3.87,0,0,0-4-3.7h-.09A4,4,0,0,0,126.36,140.24Z" transform="translate(-8.4 -7.09)" fill="#fff"/><path d="M152,148.41a6.92,6.92,0,0,1-5.29,2.14,5.55,5.55,0,0,1-5.78-5.31V145c0-3.89,3.14-5.3,5.78-5.3a6.75,6.75,0,0,1,5.29,2v-2.32c0-1.68-1.46-2.78-3.7-2.78a7,7,0,0,0-4.92,2l-1.65-2.93a11,11,0,0,1,7.26-2.63c3.79,0,7.28,1.53,7.28,6.32v10.75h-4.37Zm0-4.34a4.4,4.4,0,0,0-3.53-1.45c-1.72,0-3.14.9-3.14,2.46s1.42,2.47,3.14,2.47A4.44,4.44,0,0,0,152,146.1Z" transform="translate(-8.4 -7.09)" fill="#fff"/><path d="M160.71,133.48h4.38v2.28a7.1,7.1,0,0,1,5.31-2.66v4.27a6.42,6.42,0,0,0-1.23-.13,5.53,5.53,0,0,0-4.1,1.89v11h-4.39Z" transform="translate(-8.4 -7.09)" fill="#fff"/><path d="M184.36,140.1c0-2.32-1.23-3.11-3.06-3.11a4.72,4.72,0,0,0-3.8,2v11.21h-4.38V133.48h4.38v2.17a7.65,7.65,0,0,1,5.83-2.59c3.69,0,5.4,2.07,5.4,5.32v11.75h-4.37Z" transform="translate(-8.4 -7.09)" fill="#fff"/><path d="M192.64,129.07a2.62,2.62,0,0,1,5.23,0v0a2.62,2.62,0,0,1-5.23,0Zm.44,4.41h4.39v16.65h-4.34Z" transform="translate(-8.4 -7.09)" fill="#fff"/><path d="M213,140.1c0-2.32-1.23-3.11-3.06-3.11a4.78,4.78,0,0,0-3.8,2v11.21h-4.43V133.48h4.39v2.17a7.66,7.66,0,0,1,5.82-2.59c3.7,0,5.42,2.07,5.42,5.32v11.75H213Z" transform="translate(-8.4 -7.09)" fill="#fff"/><path d="M223.39,151.24a6.66,6.66,0,0,0,5.21,2.07c2.1,0,4.59-.94,4.59-4.21v-1.69A6.5,6.5,0,0,1,228,150c-4.17,0-7.38-2.93-7.38-8.48s3.14-8.49,7.38-8.49a6.44,6.44,0,0,1,5.15,2.56v-2.14h4.41V149c0,6.34-4.93,7.89-9,7.89a10.11,10.11,0,0,1-7.17-2.46Zm9.85-12.31a4.74,4.74,0,0,0-3.77-1.9c-2.46,0-4.2,1.72-4.2,4.58s1.73,4.59,4.2,4.59a4.92,4.92,0,0,0,3.77-1.89Z" transform="translate(-8.4 -7.09)" fill="#fff"/><path d="M93.16,13.71C95,10.48,96,8.87,97.49,8s3.4-.89,7.13-.89h37.81c3.69,0,5.59,0,7.13.89s2.46,2.46,4.34,5.73l18.87,32.66c1.88,3.22,2.81,4.85,2.81,6.62s-.92,3.36-2.81,6.63L153.9,92.28c-1.88,3.22-2.81,4.84-4.34,5.72s-3.41.89-7.13.89H104.62c-3.69,0-5.59,0-7.13-.89S95,95.54,93.16,92.28L74.28,59.62c-1.84-3.27-2.81-4.86-2.81-6.63s.94-3.4,2.81-6.62Z" transform="translate(-8.4 -7.09)" fill="#ed2c62"/><path d="M161.51,79.1,153.9,92.28c-1.88,3.22-2.81,4.84-4.34,5.72s-3.41.89-7.13.89H104.62c-3.69,0-5.59,0-7.13-.89a5.4,5.4,0,0,1-.74-.51,2.78,2.78,0,0,1,.31-.83c12.11-20.94,24.07-30,31.89-33.83a5.11,5.11,0,0,1,4.8.25Zm-10.63-70a29.62,29.62,0,0,1,3,4.65l18.87,32.66c1.88,3.22,2.81,4.85,2.81,6.62s-.92,3.36-2.81,6.63l-8.62,14.92-27.75-16a5.09,5.09,0,0,1-2.61-4C133.22,45.79,135,31,147.13,10a2.66,2.66,0,0,1,3.61-1Z" transform="translate(-8.4 -7.09)" fill="#fff" fill-rule="evenodd"/></svg>
