<svg xmlns="http://www.w3.org/2000/svg" width="521.53" height="246.3" viewBox="0 0 521.53 246.3"><g style="isolation:isolate"><path d="M0,216.42c0-11.58,8.59-19.49,19.32-19.49a17.05,17.05,0,0,1,15,8l-4.8,2.54A12,12,0,0,0,19.32,202c-7.63,0-13.5,6-13.5,14.47s5.87,14.46,13.5,14.46a12,12,0,0,0,10.17-5.48l4.8,2.54a17.1,17.1,0,0,1-15,8C8.59,235.91,0,228,0,216.42Z" transform="translate(0)" fill="#fff"/></g><g style="isolation:isolate"><path d="M63.55,227.43H45.08l-3,7.8H35.82l15-37.68h7.06l15,37.68H66.6Zm-16.83-5h15.2l-7.63-19.94Z" transform="translate(0)" fill="#fff"/><path d="M77.34,197.55H93.21c7.74,0,12,5.31,12,11.58s-4.35,11.58-12,11.58H83v14.52H77.34Zm15.14,5H83v13.22h9.49c4.06,0,6.94-2.66,6.94-6.61S96.54,202.52,92.48,202.52Z" transform="translate(0)" fill="#fff"/><path d="M111.06,197.55h15.88c7.74,0,12,5.31,12,11.58s-4.35,11.58-12,11.58H116.71v14.52h-5.65Zm15.14,5h-9.49v13.22h9.49c4.07,0,7-2.66,7-6.61S130.27,202.52,126.2,202.52Z" transform="translate(0)" fill="#fff"/></g><g style="isolation:isolate"><path d="M182.57,228.85H166.42l-2.37,6.38h-9.16l14.58-37.68h10.05L194,235.23h-9.15Zm-13.95-7.07h11.75l-5.87-16.21Z" transform="translate(0)" fill="#fff"/><path d="M200,237c2.2,2.42,5.08,3.39,8.53,3.39s7.51-1.53,7.51-6.9v-2.76a10.61,10.61,0,0,1-8.41,4.29c-6.84,0-12-4.8-12-13.9,0-8.92,5.14-13.9,12-13.9a10.5,10.5,0,0,1,8.41,4.19v-3.51h7.23v25.42c0,10.4-8,12.94-14.74,12.94-4.69,0-8.3-1.07-11.75-4.07Zm16-20.28a7.75,7.75,0,0,0-6.15-3.11c-4.07,0-6.9,2.82-6.9,7.51s2.83,7.52,6.9,7.52a7.93,7.93,0,0,0,6.15-3.11Z" transform="translate(0)" fill="#fff"/><path d="M229.69,200.71A4.29,4.29,0,1,1,234,205,4.32,4.32,0,0,1,229.69,200.71Zm.73,7.23h7.18v27.29h-7.18Z" transform="translate(0)" fill="#fff"/><path d="M244.72,197.55h7.17v37.68h-7.17Z" transform="translate(0)" fill="#fff"/><path d="M271.38,207.26c8.13,0,13.67,6.11,13.67,15v1.58H264.77c.45,3.45,3.22,6.33,7.85,6.33a11.19,11.19,0,0,0,7.29-2.71l3.16,4.63c-2.71,2.49-7,3.79-11.24,3.79-8.3,0-14.57-5.6-14.57-14.35C257.26,213.65,263.07,207.26,271.38,207.26ZM264.66,219H278.1a6.32,6.32,0,0,0-6.72-6.05A6.56,6.56,0,0,0,264.66,219Z" transform="translate(0)" fill="#fff"/></g><g style="isolation:isolate"><path d="M304.88,197.55h8v30.62h15.93v7.06H304.88Z" transform="translate(0)" fill="#fff"/></g><g style="isolation:isolate"><path d="M346,207.26c8.14,0,13.67,6.11,13.67,15v1.58H339.4c.45,3.45,3.22,6.33,7.85,6.33a11.17,11.17,0,0,0,7.29-2.71l3.16,4.63c-2.71,2.49-7,3.79-11.24,3.79-8.3,0-14.57-5.6-14.57-14.35C331.89,213.65,337.71,207.26,346,207.26ZM339.29,219h13.44A6.32,6.32,0,0,0,346,213,6.56,6.56,0,0,0,339.29,219Z" transform="translate(0)" fill="#fff"/><path d="M381.26,232.4a11.26,11.26,0,0,1-8.64,3.51c-4.35,0-9.49-2.94-9.49-9,0-6.38,5.14-8.7,9.49-8.7,3.61,0,6.83,1.13,8.64,3.33v-3.78c0-2.77-2.37-4.58-6-4.58a11.46,11.46,0,0,0-8,3.22l-2.71-4.8a17.88,17.88,0,0,1,11.92-4.3c6.21,0,11.92,2.49,11.92,10.34v17.63h-7.18Zm0-7.11a7.16,7.16,0,0,0-5.76-2.38c-2.83,0-5.14,1.47-5.14,4.13s2.31,4,5.14,4a7.19,7.19,0,0,0,5.76-2.37Z" transform="translate(0)" fill="#fff"/><path d="M395.55,207.94h7.18v3.73a11.67,11.67,0,0,1,8.7-4.35v7a8.68,8.68,0,0,0-2-.23c-2.37,0-5.54,1.36-6.72,3.11v18h-7.18Z" transform="translate(0)" fill="#fff"/><path d="M434.31,218.73c0-3.78-2-5.08-5-5.08a7.78,7.78,0,0,0-6.22,3.22v18.36h-7.17V207.94h7.17v3.56a12.52,12.52,0,0,1,9.55-4.24c6,0,8.87,3.4,8.87,8.71v19.26h-7.17Z" transform="translate(0)" fill="#fff"/><path d="M447.86,200.71a4.3,4.3,0,1,1,4.3,4.3A4.33,4.33,0,0,1,447.86,200.71Zm.74,7.23h7.17v27.29H448.6Z" transform="translate(0)" fill="#fff"/><path d="M481.31,218.73c0-3.78-2-5.08-5-5.08a7.74,7.74,0,0,0-6.21,3.22v18.36h-7.18V207.94h7.18v3.56a12.48,12.48,0,0,1,9.54-4.24c6,0,8.87,3.4,8.87,8.71v19.26h-7.17Z" transform="translate(0)" fill="#fff"/><path d="M498.25,237c2.21,2.42,5.09,3.39,8.54,3.39s7.51-1.53,7.51-6.9v-2.76a10.64,10.64,0,0,1-8.42,4.29c-6.83,0-12-4.8-12-13.9,0-8.92,5.14-13.9,12-13.9a10.51,10.51,0,0,1,8.42,4.19v-3.51h7.23v25.42c0,10.4-8,12.94-14.74,12.94-4.69,0-8.31-1.07-11.76-4.07Zm16-20.28a7.79,7.79,0,0,0-6.16-3.11c-4.07,0-6.89,2.82-6.89,7.51s2.82,7.52,6.89,7.52a8,8,0,0,0,6.16-3.11Z" transform="translate(0)" fill="#fff"/></g><path d="M308.18,6.36l37,64.26a10.81,10.81,0,0,1,0,10.65l-37.48,65.45a10.78,10.78,0,0,1-9.34,5.45H223.24a10.78,10.78,0,0,1-9.8-6.38L177.26,82.72a10.83,10.83,0,0,1-.8-12.1L214,5.35A10.77,10.77,0,0,1,223.34,0h75a10.74,10.74,0,0,1,9.8,6.36" transform="translate(0)" fill="#79bc73"/><path d="M300,.12A10.38,10.38,0,0,0,298.38,0h-75A10.76,10.76,0,0,0,214,5.43L176.52,70.62a10.75,10.75,0,0,0-1.21,8.07,84.74,84.74,0,0,0,51.81,14.46,4.17,4.17,0,0,1,4.39,3.95v13.52a3.85,3.85,0,0,0,3.73,3.94,3.89,3.89,0,0,0,2.33-.71C255.12,101.5,298.84,67,303,28.77A64.9,64.9,0,0,0,300,.12" transform="translate(0)" fill="#fff" fill-rule="evenodd"/></svg>
