<svg xmlns="http://www.w3.org/2000/svg" width="266.14" height="236.63" viewBox="0 0 266.14 236.63"><path d="M0,217.22c0-11.54,8.61-19.42,19.41-19.42a17.13,17.13,0,0,1,15.37,8.44l-5.63,2.87a11.26,11.26,0,0,0-9.74-5.45c-7.14,0-12.66,5.68-12.66,13.56s5.52,13.56,12.66,13.56a11.15,11.15,0,0,0,9.74-5.46l5.63,2.87a17.19,17.19,0,0,1-15.37,8.44C8.61,236.63,0,228.75,0,217.22Z" transform="translate(0)" fill="#fff"/><path d="M63.58,228.75H45.8L43.05,236H35.84l14.75-37.53H58.8L73.54,236h-7.2ZM47.66,223H61.73l-7-19Z" transform="translate(0)" fill="#fff"/><path d="M77.65,198.42H94.13c7.88,0,12.27,5.4,12.27,11.76S102,221.94,94.13,221.94h-9.9v14H77.65Zm15.58,5.8h-9v11.93h9c3.72,0,6.42-2.37,6.42-6S97,204.22,93.23,204.22Z" transform="translate(0)" fill="#fff"/><path d="M111.86,198.42h16.48c7.88,0,12.27,5.4,12.27,11.76s-4.44,11.76-12.27,11.76h-9.9v14h-6.58Zm15.58,5.8h-9v11.93h9c3.72,0,6.42-2.37,6.42-6S131.16,204.22,127.44,204.22Z" transform="translate(0)" fill="#fff"/><path d="M160.25,198.42h8v30.5H184.1v7H160.25Z" transform="translate(0)" fill="#fff"/><path d="M222.31,209.68,211.73,236h-3.49l-10.58-26.27V236h-8V198.42h11.2L210,221.1l9.11-22.68h11.26V236h-8.05Z" transform="translate(0)" fill="#fff"/><path d="M239.58,224.59a16.49,16.49,0,0,0,11.93,5.06c4.39,0,6.53-2,6.53-4.16,0-2.76-3.49-3.55-7.6-4.56-6.13-1.41-14-3.09-14-11.65,0-6.24,5.4-11.42,14.24-11.42,6,0,10.91,1.8,14.63,5.23l-4.45,5.85a16.13,16.13,0,0,0-10.91-4.1c-3.44,0-5.35,1.52-5.35,3.77,0,2.42,3.43,3.2,7.48,4.16,6.19,1.46,14.07,3.32,14.07,11.82,0,6.86-4.89,12-15,12-7.21,0-12.38-2.42-15.87-6Z" transform="translate(0)" fill="#fff"/><path d="M82.56,10.93c3.08-5.33,4.63-8,7.17-9.47S95.35,0,101.51,0H164c6.16,0,9.25,0,11.78,1.46s4.09,4.14,7.17,9.47l31.22,54c3.09,5.35,4.64,8,4.64,11s-1.55,5.61-4.64,11l-31.22,54c-3.08,5.34-4.63,8-7.17,9.47s-5.62,1.47-11.78,1.47h-62.5c-6.16,0-9.25,0-11.78-1.47s-4.09-4.13-7.17-9.47l-31.22-54c-3.09-5.35-4.64-8-4.64-11s1.55-5.61,4.64-11Z" transform="translate(0)" fill="#fff"/><path d="M195.55,119.05,183,140.82c-3.08,5.34-4.63,8-7.17,9.47s-5.62,1.47-11.78,1.47h-62.5c-6.16,0-9.25,0-11.78-1.47a8,8,0,0,1-1.23-.86,4.36,4.36,0,0,1,.51-1.35c20-34.67,39.77-49.54,52.7-55.93a8.44,8.44,0,0,1,7.95.4ZM178,3.27c1.48,1.62,2.86,4,5,7.66l31.22,54c3.09,5.35,4.64,8,4.64,11s-1.55,5.61-4.64,11l-14.26,24.67L154,85a8.43,8.43,0,0,1-4.32-6.69c-.93-14.39,2.06-38.93,22.08-73.61a4.35,4.35,0,0,1,5.95-1.59Z" transform="translate(0)" fill="#ed2c62" fill-rule="evenodd"/></svg>
