<svg xmlns="http://www.w3.org/2000/svg" xmlns:xlink="http://www.w3.org/1999/xlink" width="185.07" height="194.97" viewBox="0 0 185.07 194.97"><defs><clipPath id="a" transform="translate(-10.86 -2.22)"><rect width="200" height="200" fill="none"/></clipPath></defs><g clip-path="url(#a)"><path d="M123.19,17.17c-61.6-33.1-83.59-8.73-104,48.64S18.79,145.91,50.35,179s103.77,20.37,133.73-31.51S184.8,50.26,123.19,17.17Z" transform="translate(-10.86 -2.22)" fill="#efb400" opacity="0.2" style="isolation:isolate"/><path d="M70.17,41.31H22.29V8.88a1.4,1.4,0,0,1,1.5-1.47H68.67a1.4,1.4,0,0,1,1.5,1.47Z" transform="translate(-10.86 -2.22)" fill="#303c80"/><path d="M25.29,10.36H67.18V36.89H25.29Z" transform="translate(-10.86 -2.22)" fill="#f6d573"/><path d="M70.17,39.83H22.29l-7.48,8.85v2.94H77.65V48.68Z" transform="translate(-10.86 -2.22)" fill="#abb1ba"/><path d="M25.29,41.31H67.18l3,4.42H22.29Z" transform="translate(-10.86 -2.22)" fill="#303c80"/><path d="M28.28,16.25h15V19.2h-15Zm15,5.9h-15v3h15ZM28.28,31h15V28h-15ZM49.22,19.2h15V16.25h-15Zm15,2.95h-15v3h15ZM49.22,31H59.7V28H49.22Z" transform="translate(-10.86 -2.22)" fill="#fff"/><path d="M168.78,17.82H132.34c-3.35,0-7.31,1.62-7.57,9.12h0V69.44l0-.08c.28,5.53,3.87,6.16,5.45,6.16h37a3,3,0,0,0,3-3V19.33A1.51,1.51,0,0,0,168.78,17.82Z" transform="translate(-10.86 -2.22)" fill="#8093ff"/><path d="M165.75,64.89H130.22c-2,0-2.44,1.7-2.44,3.79s.42,3.8,2.44,3.8h35.53Z" transform="translate(-10.86 -2.22)" fill="#fff"/><path d="M130.22,64.89c-1.77,0-2.31,1.3-2.41,3h37.94v-3Z" transform="translate(-10.86 -2.22)" fill="#d5d8dd"/><path d="M132.34,26.92h31.89v7.6H132.34Z" transform="translate(-10.86 -2.22)" fill="#fff"/><path d="M168.78,64.89h-3V75.52h1.51a3,3,0,0,0,3-3V63.37A1.52,1.52,0,0,1,168.78,64.89Z" transform="translate(-10.86 -2.22)" fill="#4c5fcb"/><path d="M25,131.35a4,4,0,0,0-4,4v30.58a4,4,0,0,0,4,4H57.77a4,4,0,0,0,4-4V135.35a4,4,0,0,0-4-4Zm3,17.05v-4.46H23.54v4.46Zm0,8.94v-4.47H23.54v4.47Zm0,8.93V161.8H23.54v4.47Zm0-26.8V135H23.54v4.46Zm31.26,8.93v-4.46H54.81v4.46Zm0,8.94v-4.47H54.81v4.47Zm0,8.93V161.8H54.81v4.47Zm0-26.8V135H54.81v4.46Z" transform="translate(-10.86 -2.22)" fill="#8093ff" fill-rule="evenodd"/><path d="M48.11,150.64l-11.17-6.7v13.4Z" transform="translate(-10.86 -2.22)" fill="#fff"/><path d="M123.82,124.8l33.73-1.12a3.38,3.38,0,0,1,3.49,3.26l.49,14.89-10.69-.61a4,4,0,0,0-4.22,3.77L146,155.58l-14.89.49-9.32,9.32-1.24-37.1A3.38,3.38,0,0,1,123.82,124.8Z" transform="translate(-10.86 -2.22)" fill="#f6d573" fill-rule="evenodd"/><path d="M137.72,143.92a8.06,8.06,0,0,1,.37-3,6.18,6.18,0,0,1,1.63-2.29,8.59,8.59,0,0,0,1.6-1.83,2.76,2.76,0,0,0,.36-1.47c-.05-1.53-.79-2.28-2.22-2.23a2.19,2.19,0,0,0-1.6.67,2.4,2.4,0,0,0-.58,1.74l-4,.13a5.22,5.22,0,0,1,1.56-4.13,7.89,7.89,0,0,1,9.07-.37,4.9,4.9,0,0,1,1.73,3.88,4.74,4.74,0,0,1-.44,2.2,9.05,9.05,0,0,1-1.75,2.34l-1.08,1.09a3.74,3.74,0,0,0-1.12,2.37l0,.83-3.52.12Zm-.26,4.18a2,2,0,0,1,.58-1.52,2.21,2.21,0,0,1,1.58-.64,2.28,2.28,0,0,1,1.62.53,2.11,2.11,0,0,1,.11,3,2.28,2.28,0,0,1-1.59.64,2.25,2.25,0,0,1-1.64-.54A1.93,1.93,0,0,1,137.46,148.1Z" transform="translate(-10.86 -2.22)" fill="#fff"/><path d="M44.36,67.43H106V106H44.36Z" transform="translate(-10.86 -2.22)" fill="#303c80"/><path d="M101.37,73.6V106H49V73.6ZM106,70.52H44.36V106H106Z" transform="translate(-10.86 -2.22)" opacity="0.3" style="isolation:isolate"/><path d="M102.91,70.52V106H47.44V70.52ZM106,67.43H44.36V106H106Z" transform="translate(-10.86 -2.22)" fill="#8093ff"/><path d="M109.07,110.58V107.5a3.1,3.1,0,0,0-3.08-3.09H44.36a3.1,3.1,0,0,0-3.09,3.09v3.08Z" transform="translate(-10.86 -2.22)" fill="#6178ff"/><path d="M81.64,97.33,67.47,86.23l-9.86,7.09-1.85-2.47,11.71-8.32L81,93,94,77.3l2.47,1.84Zm-14.17,7.08H56.68v-3.08H67.47L69,102.87Z" transform="translate(-10.86 -2.22)" fill="#fff"/><path d="M152.22,143.54l27.89,1.58a2.8,2.8,0,0,1,2.63,2.95L181,178.74l-7.53-7.89-22.72-1.28a2.8,2.8,0,0,1-2.63-2.95l1.16-20.45A2.79,2.79,0,0,1,152.22,143.54Z" transform="translate(-10.86 -2.22)" fill="#6178ff"/><path d="M167.51,162.47l-4.76-.27-1,2.64-3.71-.21,6.09-14.09,3.27.18,4.5,14.69-3.73-.21Zm-3.78-2.9,3.1.17-1.27-5.08Z" transform="translate(-10.86 -2.22)" fill="#fff"/></g></svg>
