<svg xmlns="http://www.w3.org/2000/svg" xmlns:xlink="http://www.w3.org/1999/xlink" width="189" height="176" viewBox="0 0 189 176"><defs><linearGradient id="a" x1="172" y1="102" x2="5" y2="102" gradientTransform="matrix(1, 0, 0, -1, 0, 202)" gradientUnits="userSpaceOnUse"><stop offset="0" stop-color="#fff" stop-opacity="0"/><stop offset="1" stop-color="#fff"/></linearGradient><mask id="b" x="5" y="-7" width="167" height="190" maskUnits="userSpaceOnUse"><g transform="translate(0 -12)"><rect x="5" y="5" width="167" height="190" fill="url(#a)"/></g></mask></defs><g mask="url(#b)"><g opacity="0.7"><rect x="11" width="155" height="34" rx="3" fill="#efb400" opacity="0.1" style="isolation:isolate"/><path d="M50,20H62a4,4,0,0,1,4,4h0a4,4,0,0,1-4,4H50a4,4,0,0,1-4-4h0A4,4,0,0,1,50,20Z" transform="translate(0 -12)" fill="#efb400" opacity="0.5" style="isolation:isolate"/><path d="M74,20h35a4,4,0,0,1,4,4h0a4,4,0,0,1-4,4H74a4,4,0,0,1-4-4h0A4,4,0,0,1,74,20Z" transform="translate(0 -12)" fill="#efb400" opacity="0.5" style="isolation:isolate"/><path d="M49,39H88a3,3,0,0,0,3-3h0a3,3,0,0,0-3-3H49a3,3,0,0,0-3,3h0A3,3,0,0,0,49,39Z" transform="translate(0 -12)" fill="#efb400" opacity="0.23" style="isolation:isolate"/><path d="M97,39h2a3,3,0,0,0,3-3h0a3,3,0,0,0-3-3H97a3,3,0,0,0-3,3h0A3,3,0,0,0,97,39Z" transform="translate(0 -12)" fill="#efb400" opacity="0.23" style="isolation:isolate"/><g opacity="0.5"><path d="M34.75,29.13a8,8,0,1,1-8-8A8,8,0,0,1,34.75,29.13Z" transform="translate(0 -12)" fill="#efb400"/></g></g><g opacity="0.7"><rect x="11" y="142" width="155" height="34" rx="3" fill="#2eb769" opacity="0.1" style="isolation:isolate"/><g opacity="0.5"><path d="M50,162H62a4,4,0,0,1,4,4h0a4,4,0,0,1-4,4H50a4,4,0,0,1-4-4h0A4,4,0,0,1,50,162Z" transform="translate(0 -12)" fill="#2eb769"/></g><g opacity="0.5"><path d="M74,162h35a4,4,0,0,1,4,4h0a4,4,0,0,1-4,4H74a4,4,0,0,1-4-4h0A4,4,0,0,1,74,162Z" transform="translate(0 -12)" fill="#2eb769"/></g><g opacity="0.3"><path d="M49,181H88a3,3,0,0,0,3-3h0a3,3,0,0,0-3-3H49a3,3,0,0,0-3,3h0A3,3,0,0,0,49,181Z" transform="translate(0 -12)" fill="#2eb769"/></g><g opacity="0.3"><path d="M97,181h2a3,3,0,0,0,3-3h0a3,3,0,0,0-3-3H97a3,3,0,0,0-3,3h0A3,3,0,0,0,97,181Z" transform="translate(0 -12)" fill="#2eb769"/></g><g opacity="0.5"><path d="M34.75,171.13a8,8,0,1,1-8-8A8,8,0,0,1,34.75,171.13Z" transform="translate(0 -12)" fill="#2eb769"/></g></g><g opacity="0.7"><rect x="11" y="41" width="155" height="34" rx="3" fill="#6a91e1" opacity="0.1" style="isolation:isolate"/><g opacity="0.5"><rect x="46" y="49" width="30" height="8" rx="4" fill="#8093ff"/></g><g opacity="0.5"><rect x="80" y="49" width="53" height="8" rx="4" fill="#8093ff"/></g><g opacity="0.3"><path d="M49,80H88a3,3,0,0,0,3-3h0a3,3,0,0,0-3-3H49a3,3,0,0,0-3,3h0A3,3,0,0,0,49,80Z" transform="translate(0 -12)" fill="#8093ff"/></g><g opacity="0.3"><path d="M98,80h18a3,3,0,0,0,3-3h0a3,3,0,0,0-3-3H98a3,3,0,0,0-3,3h0A3,3,0,0,0,98,80Z" transform="translate(0 -12)" fill="#8093ff"/></g><g opacity="0.3"><path d="M126,80h2a3,3,0,0,0,3-3h0a3,3,0,0,0-3-3h-2a3,3,0,0,0-3,3h0A3,3,0,0,0,126,80Z" transform="translate(0 -12)" fill="#8093ff"/></g><g opacity="0.5"><path d="M34.75,69.89a8,8,0,1,1-8-8A8,8,0,0,1,34.75,69.89Z" transform="translate(0 -12)" fill="#6a91e1"/></g></g><g opacity="0.7"><rect x="11" y="101" width="155" height="34" rx="3" fill="#ed2c62" opacity="0.1" style="isolation:isolate"/><g opacity="0.5"><path d="M115,121h4a4,4,0,0,1,4,4h0a4,4,0,0,1-4,4h-4a4,4,0,0,1-4-4h0A4,4,0,0,1,115,121Z" transform="translate(0 -12)" fill="#ed2c62"/></g><g opacity="0.5"><path d="M50,121h4a4,4,0,0,1,4,4h0a4,4,0,0,1-4,4H50a4,4,0,0,1-4-4h0A4,4,0,0,1,50,121Z" transform="translate(0 -12)" fill="#ed2c62"/></g><g opacity="0.5"><path d="M67,121h35a4,4,0,0,1,4,4h0a4,4,0,0,1-4,4H67a4,4,0,0,1-4-4h0A4,4,0,0,1,67,121Z" transform="translate(0 -12)" fill="#ed2c62"/></g><g opacity="0.3"><path d="M49,140H76a3,3,0,0,0,3-3h0a3,3,0,0,0-3-3H49a3,3,0,0,0-3,3h0A3,3,0,0,0,49,140Z" transform="translate(0 -12)" fill="#ed2c62"/></g><g opacity="0.3"><path d="M87,140h29a3,3,0,0,0,3-3h0a3,3,0,0,0-3-3H87a3,3,0,0,0-3,3h0A3,3,0,0,0,87,140Z" transform="translate(0 -12)" fill="#ed2c62"/></g><g opacity="0.3"><path d="M127,140h9a3,3,0,0,0,3-3h0a3,3,0,0,0-3-3h-9a3,3,0,0,0-3,3h0A3,3,0,0,0,127,140Z" transform="translate(0 -12)" fill="#ed2c62"/></g><g opacity="0.5"><path d="M34.75,129.39a8,8,0,1,1-8-8A8,8,0,0,1,34.75,129.39Z" transform="translate(0 -12)" fill="#ed2c62"/></g></g></g><rect x="30" y="69" width="159" height="42" rx="5" fill="#fff"/><path d="M71,90H86a5,5,0,0,1,5,5h0a5,5,0,0,1-5,5H71a5,5,0,0,1-5-5h0A5,5,0,0,1,71,90Z" transform="translate(0 -12)" fill="silver"/><path d="M101,90h23a5,5,0,0,1,5,5h0a5,5,0,0,1-5,5H101a5,5,0,0,1-5-5h0A5,5,0,0,1,101,90Z" transform="translate(0 -12)" fill="silver"/><path d="M138,90h5a5,5,0,0,1,5,5h0a5,5,0,0,1-5,5h-5a5,5,0,0,1-5-5h0A5,5,0,0,1,138,90Z" transform="translate(0 -12)" fill="silver"/><rect x="66" y="94" width="55" height="7" rx="3.5" fill="#eaeaea"/><rect x="142" y="94" width="30" height="7" rx="3.5" fill="#eaeaea"/><rect x="127" y="94" width="10" height="7" rx="3.5" fill="#eaeaea"/><path d="M58.62,101.89a9.52,9.52,0,1,1-9.52-9.6A9.56,9.56,0,0,1,58.62,101.89Z" transform="translate(0 -12)" fill="#7f4ccb"/><line x1="1" y1="88" x2="29" y2="88" fill="none" stroke="#40496c" stroke-linecap="round" stroke-linejoin="round" stroke-width="2" stroke-dasharray="2 4" opacity="0.2" style="isolation:isolate"/></svg>
