<svg xmlns="http://www.w3.org/2000/svg" xmlns:xlink="http://www.w3.org/1999/xlink" width="193.63" height="162.32" viewBox="0 0 193.63 162.32"><defs><clipPath id="a" transform="translate(-6.37 -18.04)"><rect width="200" height="200" fill="none"/></clipPath><mask id="b" x="0" y="0" width="193.63" height="162.32" maskUnits="userSpaceOnUse"><g transform="translate(-6.37 -18.04)"><path d="M59.76,168.48c54.36,30.27,140.13-.06,133.57-59.7-2.86-26-14.66-40.1-33.09-58.49C122.3,12.46,70.3,12.34,29.11,27.38S5.39,138.21,59.76,168.48Z" fill="#2eb769"/></g></mask></defs><g clip-path="url(#a)"><path d="M59.76,168.48c54.36,30.27,140.13-.06,133.57-59.7-2.86-26-14.66-40.1-33.09-58.49C122.3,12.46,70.3,12.34,29.11,27.38S5.39,138.21,59.76,168.48Z" transform="translate(-6.37 -18.04)" fill="#2eb769" opacity="0.1" style="isolation:isolate"/><g mask="url(#b)"><rect x="120.96" y="146.63" width="56" height="14.67" fill="#8ddcaf"/><path d="M144.67,100h38v41.33h-38Z" transform="translate(-6.37 -18.04)" fill="#bfaa6c"/><path d="M200,166H127.33c0-25.38,25-30,25-30H175S200,140.62,200,166Z" transform="translate(-6.37 -18.04)" fill="#8ddcaf"/><path d="M163.67,150.67c-5.14,0-11.67-14-11.67-14v-14h23.33v14S168.8,150.67,163.67,150.67Z" transform="translate(-6.37 -18.04)" fill="#ff9800"/><path d="M184.67,97.54c0-17.31-42-11.39-42,0v15.95a21,21,0,0,0,42,0Z" transform="translate(-6.37 -18.04)" fill="#ffb74d"/><path d="M163.67,152.67C153.4,152.67,152,136,152,136s5.83,9.52,11.67,9.52S175.33,136,175.33,136,173.93,152.67,163.67,152.67Z" transform="translate(-6.37 -18.04)" fill="#ffb74d"/><path d="M173,111.33a2.33,2.33,0,0,0-1.65.69,2.34,2.34,0,0,0,0,3.3,2.34,2.34,0,0,0,3.3,0,2.34,2.34,0,0,0-1.65-4Zm-18.67,0a2.34,2.34,0,0,0-2.33,2.34,2.33,2.33,0,0,0,4,1.65,2.34,2.34,0,0,0-1.65-4Z" transform="translate(-6.37 -18.04)" fill="#784719"/></g><path d="M163.67,75.33c-14,0-34.34,7.69-34.34,52.71l16,10.63V109.26l27.47-15.83L182,104.74v33.93l16-13.57c0-9-1.6-45.24-25.18-45.24l-2.29-4.53Z" transform="translate(-6.37 -18.04)" fill="#ffdf80"/><path d="M110.83,53H79.58a6.25,6.25,0,1,1-12.5,0H35.83a12.53,12.53,0,0,0-12.5,12.57V166.14a12.53,12.53,0,0,0,12.5,12.57h75a12.53,12.53,0,0,0,12.5-12.57V65.57A12.53,12.53,0,0,0,110.83,53Z" transform="translate(-6.37 -18.04)" fill="#303c80"/><rect x="25.96" y="44.96" width="82" height="106" fill="#fff"/><path d="M79.68,50.21a6.35,6.35,0,0,1-12.7,0H44.76V62.79a6.31,6.31,0,0,0,6.35,6.28H95.56a6.31,6.31,0,0,0,6.34-6.28V50.21Z" transform="translate(-6.37 -18.04)" fill="#dadce1"/><path d="M73.33,37.64A12.58,12.58,0,1,0,86,50.21,12.65,12.65,0,0,0,73.33,37.64Zm0,18.86a6.29,6.29,0,1,1,6.35-6.29A6.32,6.32,0,0,1,73.33,56.5Z" transform="translate(-6.37 -18.04)" fill="#dadce1"/><path d="M56.26,106.43l-2.16-2L47,111.27l-3.2-3-2.15,2.05L47,115.36Z" transform="translate(-6.37 -18.04)" fill="#8ddcaf"/><path d="M63.29,113.3h31a3,3,0,0,0,3-3h0a3,3,0,0,0-3-3h-31a3,3,0,0,0-3,3h0A3,3,0,0,0,63.29,113.3Z" transform="translate(-6.37 -18.04)" fill="#eaeaea"/><path d="M103.51,113.3h1.61a3,3,0,0,0,3-3h0a3,3,0,0,0-3-3h-1.61a3,3,0,0,0-3,3h0A3,3,0,0,0,103.51,113.3Z" transform="translate(-6.37 -18.04)" fill="#eaeaea"/><path d="M56.26,127.74l-2.16-2L47,132.57l-3.2-3-2.15,2.05L47,136.66Z" transform="translate(-6.37 -18.04)" fill="#8ddcaf"/><path d="M63.29,134.38H75.77a3,3,0,0,0,3-3h0a3,3,0,0,0-3-3H63.29a3,3,0,0,0-3,3h0A3,3,0,0,0,63.29,134.38Z" transform="translate(-6.37 -18.04)" fill="#eaeaea"/><path d="M86.12,134.38h10.3a3,3,0,0,0,3-3h0a3,3,0,0,0-3-3H86.12a3,3,0,0,0-3,3h0A3,3,0,0,0,86.12,134.38Z" transform="translate(-6.37 -18.04)" fill="#eaeaea"/><path d="M56.45,148.82l-2.16-2-7.12,6.88-3.2-3-2.16,2,5.36,5.08Z" transform="translate(-6.37 -18.04)" fill="#8ddcaf"/><path d="M63.29,155.47h8.13a3,3,0,0,0,3-3h0a3,3,0,0,0-3-3H63.29a3,3,0,0,0-3,3h0A3,3,0,0,0,63.29,155.47Z" transform="translate(-6.37 -18.04)" fill="#eaeaea"/><path d="M80.68,155.47h24.44a3,3,0,0,0,3-3h0a3,3,0,0,0-3-3H80.68a3,3,0,0,0-3,3h0A3,3,0,0,0,80.68,155.47Z" transform="translate(-6.37 -18.04)" fill="#eaeaea"/><path d="M79.33,81.5a4.5,4.5,0,1,1-4.5-4.5A4.5,4.5,0,0,1,79.33,81.5Z" transform="translate(-6.37 -18.04)" fill="#ffa726"/><path d="M74.67,75.33c-2.44,0-6,1.38-6,9.43l2.8,1.91V81.4l4.8-2.83,1.6,2v6.07l2.8-2.43c0-1.62-.28-8.1-4.4-8.1l-.4-.81Z" transform="translate(-6.37 -18.04)" fill="#ffdf80"/><path d="M83.33,92.08S81,88,74.83,88s-8.5,4.08-8.5,4.08V95h17Z" transform="translate(-6.37 -18.04)" fill="#8ddcaf"/></g></svg>
