<svg width="200" height="200" viewBox="0 0 200 200" fill="none" xmlns="http://www.w3.org/2000/svg">
<mask id="mask0" mask-type="alpha" maskUnits="userSpaceOnUse" x="5" y="5" width="167" height="190">
<rect x="5" y="5" width="167" height="190" fill="url(#paint0_linear)"/>
</mask>
<g mask="url(#mask0)">
<g opacity="0.7">
<rect opacity="0.1" x="11" y="12" width="155" height="34" rx="3" fill="#EFB400"/>
<rect opacity="0.5" x="46" y="20" width="20" height="8" rx="4" fill="#EFB400"/>
<rect opacity="0.5" x="70" y="20" width="43" height="8" rx="4" fill="#EFB400"/>
<rect opacity="0.23" width="45" height="6" rx="3" transform="matrix(1 0 0 -1 46 39)" fill="#EFB400"/>
<rect opacity="0.23" width="7.99999" height="6" rx="3" transform="matrix(1 0 0 -1 94 39)" fill="#EFB400"/>
<g opacity="0.5">
<path d="M34.75 29.1275C34.75 33.5458 31.1683 37.1275 26.75 37.1275C22.3317 37.1275 18.75 33.5458 18.75 29.1275C18.75 24.7092 22.3317 21.1275 26.75 21.1275C31.1683 21.1275 34.75 24.7092 34.75 29.1275Z" fill="#EFB400"/>
</g>
</g>
<g opacity="0.7">
<rect opacity="0.1" x="11" y="154" width="155" height="34" rx="3" fill="#2EB769"/>
<g style="mix-blend-mode:multiply" opacity="0.5">
<rect x="46" y="162" width="20" height="8" rx="4" fill="#2EB769"/>
</g>
<g style="mix-blend-mode:multiply" opacity="0.5">
<rect x="70" y="162" width="43" height="8" rx="4" fill="#2EB769"/>
</g>
<g style="mix-blend-mode:multiply" opacity="0.3">
<rect width="45" height="5.99998" rx="2.99999" transform="matrix(1 0 0 -1 46 181)" fill="#2EB769"/>
</g>
<g style="mix-blend-mode:multiply" opacity="0.3">
<rect width="7.99999" height="5.99998" rx="2.99999" transform="matrix(1 0 0 -1 94 181)" fill="#2EB769"/>
</g>
<g opacity="0.5">
<path d="M34.75 171.128C34.75 175.546 31.1683 179.128 26.75 179.128C22.3317 179.128 18.75 175.546 18.75 171.128C18.75 166.709 22.3317 163.128 26.75 163.128C31.1683 163.128 34.75 166.709 34.75 171.128Z" fill="#2EB769"/>
</g>
</g>
<g opacity="0.7">
<rect opacity="0.1" x="11" y="53" width="155" height="34" rx="3" fill="#6A91E1"/>
<g style="mix-blend-mode:multiply" opacity="0.5">
<rect x="46" y="61" width="30" height="7.99999" rx="3.99999" fill="#8093FF"/>
</g>
<g style="mix-blend-mode:multiply" opacity="0.5">
<rect x="80" y="61" width="53" height="7.99999" rx="3.99999" fill="#8093FF"/>
</g>
<g style="mix-blend-mode:multiply" opacity="0.3">
<rect width="45" height="5.99999" rx="3" transform="matrix(1 0 0 -1 46 80)" fill="#8093FF"/>
</g>
<g style="mix-blend-mode:multiply" opacity="0.3">
<rect width="24" height="5.99999" rx="3" transform="matrix(1 0 0 -1 95 80)" fill="#8093FF"/>
</g>
<g style="mix-blend-mode:multiply" opacity="0.3">
<rect width="7.99993" height="5.99999" rx="3" transform="matrix(1 0 0 -1 123 80)" fill="#8093FF"/>
</g>
<g opacity="0.5">
<path d="M34.75 69.8922C34.75 74.3105 31.1683 77.8922 26.75 77.8922C22.3317 77.8922 18.75 74.3105 18.75 69.8922C18.75 65.4739 22.3317 61.8922 26.75 61.8922C31.1683 61.8922 34.75 65.4739 34.75 69.8922Z" fill="#6A91E1"/>
</g>
</g>
<g opacity="0.7">
<rect opacity="0.1" x="11" y="113" width="155" height="34" rx="3" fill="#ED2C62"/>
<g style="mix-blend-mode:multiply" opacity="0.5">
<rect x="111" y="121" width="12" height="8" rx="4" fill="#ED2C62"/>
</g>
<g style="mix-blend-mode:multiply" opacity="0.5">
<rect x="46" y="121" width="12" height="8" rx="4" fill="#ED2C62"/>
</g>
<g style="mix-blend-mode:multiply" opacity="0.5">
<rect x="63" y="121" width="43" height="8" rx="4" fill="#ED2C62"/>
</g>
<g style="mix-blend-mode:multiply" opacity="0.3">
<rect width="33" height="6.00002" rx="3.00001" transform="matrix(1 0 0 -1 46 140)" fill="#ED2C62"/>
</g>
<g style="mix-blend-mode:multiply" opacity="0.3">
<rect width="35" height="6.00002" rx="3.00001" transform="matrix(1 0 0 -1 84 140)" fill="#ED2C62"/>
</g>
<g style="mix-blend-mode:multiply" opacity="0.3">
<rect width="14.9999" height="6.00002" rx="3.00001" transform="matrix(1 0 0 -1 124 140)" fill="#ED2C62"/>
</g>
<g opacity="0.5">
<path d="M34.75 129.386C34.75 133.804 31.1683 137.386 26.75 137.386C22.3317 137.386 18.75 133.804 18.75 129.386C18.75 124.967 22.3317 121.386 26.75 121.386C31.1683 121.386 34.75 124.967 34.75 129.386Z" fill="#ED2C62"/>
</g>
</g>
</g>
<g filter="url(#filter0_d)">
<rect x="30" y="81" width="159" height="42" rx="5" fill="white"/>
<rect x="66" y="90" width="25" height="10" rx="5" fill="#C0C0C0"/>
<rect x="96" y="90" width="33" height="10" rx="5" fill="#C0C0C0"/>
<rect x="133" y="90" width="15" height="10" rx="5" fill="#C0C0C0"/>
<rect width="55" height="7.00001" rx="3.5" transform="matrix(1 0 0 -1 66 113)" fill="#EAEAEA"/>
<rect width="30" height="7.00001" rx="3.5" transform="matrix(1 0 0 -1 142 113)" fill="#EAEAEA"/>
<rect width="10.0001" height="7.00001" rx="3.5" transform="matrix(1 0 0 -1 127 113)" fill="#EAEAEA"/>
<path d="M58.6172 101.885C58.6172 107.185 54.3552 111.481 49.0978 111.481C43.8404 111.481 39.5784 107.185 39.5784 101.885C39.5784 96.5858 43.8404 92.2896 49.0978 92.2896C54.3552 92.2896 58.6172 96.5858 58.6172 101.885Z" fill="#7F4CCB"/>
</g>
<line opacity="0.2" x1="1" y1="100" x2="29" y2="100" stroke="#40496C" stroke-width="2" stroke-linecap="round" stroke-linejoin="round" stroke-dasharray="2 4"/>
<defs>
<filter id="filter0_d" x="20" y="71" width="179" height="62" filterUnits="userSpaceOnUse" color-interpolation-filters="sRGB">
<feFlood flood-opacity="0" result="BackgroundImageFix"/>
<feColorMatrix in="SourceAlpha" type="matrix" values="0 0 0 0 0 0 0 0 0 0 0 0 0 0 0 0 0 0 127 0"/>
<feOffset/>
<feGaussianBlur stdDeviation="5"/>
<feColorMatrix type="matrix" values="0 0 0 0 0 0 0 0 0 0 0 0 0 0 0 0 0 0 0.12 0"/>
<feBlend mode="multiply" in2="BackgroundImageFix" result="effect1_dropShadow"/>
<feBlend mode="normal" in="SourceGraphic" in2="effect1_dropShadow" result="shape"/>
</filter>
<linearGradient id="paint0_linear" x1="172" y1="5" x2="5" y2="5" gradientUnits="userSpaceOnUse">
<stop stop-color="white" stop-opacity="0"/>
<stop offset="1" stop-color="white"/>
</linearGradient>
</defs>
</svg>
