<svg xmlns="http://www.w3.org/2000/svg" width="114" height="61.4" viewBox="0 0 114 61.4"><path fill="#333" d="M38.53,23.47l3.34-1.86a14.91,14.91,0,1,0-26,14.53l3.35-1.87a11.08,11.08,0,1,1,19.34-10.8Zm-9.69,1.85V21.43A7.49,7.49,0,0,0,21,28.84c0,4.3,3.5,7.34,7.8,7.34V32.29c-2.15,0-3.91-1.29-3.91-3.45A3.61,3.61,0,0,1,28.84,25.32ZM11.1,28.84A17.78,17.78,0,0,1,28.84,11.1V7.24a21.6,21.6,0,0,0-8.66,41.39l1.72-3.46A17.78,17.78,0,0,1,11.1,28.84ZM29.65,7.25v3.87A17.79,17.79,0,0,1,46.57,28h3.86A21.65,21.65,0,0,0,29.65,7.25ZM3.89,28.84A25,25,0,0,1,53.78,28h3.89a28.84,28.84,0,1,0-28.83,29.7c.66,0,1.32,0,2-.07v-3.9c-.64.05-1.3.08-2,.08A25,25,0,0,1,3.89,28.84Zm43.3,5.54V31.1H35.67V48.29H40V40.9h6.64V37.62H40V34.38Zm2.22,13.91H61V45H53.71V40.67h6.76V37.39H53.71v-3H61V31.1H49.41Zm18.87-5.81.85-1.18,4.69,7H79l-6.39-9.21,6.13-8h-5l-5.5,7.63V31.1H64V48.29h4.31Zm-32,10.14h2.05v-.54H36.26V50.79H38.4v-.54H35.65v4.58h.61ZM40.38,52h.17l.14,0h0v-.6h-.24a1,1,0,0,0-.45.12,2.74,2.74,0,0,0-.56.39v-.51H38.9v3.44h.57V52.39a1.72,1.72,0,0,1,.44-.3A1.14,1.14,0,0,1,40.38,52Zm1.42-1.77h-.66v.6h.66Zm0,4.61V51.39h-.58v3.44Zm2.69.06.31-.07.27-.1.25-.1V54h0l-.18.13a1.71,1.71,0,0,1-.27.13,1.6,1.6,0,0,1-.33.11,1.57,1.57,0,0,1-.37,0,1.11,1.11,0,0,1-.84-.32,1.29,1.29,0,0,1-.3-.92h2.38v-.31a2.33,2.33,0,0,0-.09-.7,1.29,1.29,0,0,0-.29-.48,1.06,1.06,0,0,0-.43-.29A1.62,1.62,0,0,0,44,51.3a1.48,1.48,0,0,0-1.15.49,2,2,0,0,0-.44,1.34,1.78,1.78,0,0,0,.46,1.32,1.69,1.69,0,0,0,1.27.46Zm-1.4-2.55a1,1,0,0,1,.19-.3,1.21,1.21,0,0,1,.3-.2,1.13,1.13,0,0,1,.39-.07,1,1,0,0,1,.39.07.59.59,0,0,1,.26.2.84.84,0,0,1,.15.28,1.64,1.64,0,0,1,.05.41H43A1.12,1.12,0,0,1,43.05,52.34Zm4.23,2.55a1.06,1.06,0,0,0,.25-.09,1.36,1.36,0,0,0,.24-.13l.23-.19v.35h.58V50H48v1.49a2.27,2.27,0,0,0-.4-.18,1.55,1.55,0,0,0-.45-.05,1.31,1.31,0,0,0-.56.12,1.47,1.47,0,0,0-.46.36,2,2,0,0,0-.32.57,2.34,2.34,0,0,0-.12.79,3,3,0,0,0,.09.77,1.72,1.72,0,0,0,.27.56,1.09,1.09,0,0,0,.4.34,1.14,1.14,0,0,0,.52.12A1,1,0,0,0,47.28,54.89Zm-.8-.84a1.78,1.78,0,0,1-.19-.92,1.56,1.56,0,0,1,.25-1,.83.83,0,0,1,.7-.33,1.45,1.45,0,0,1,.37,0A1.42,1.42,0,0,1,48,52v2a1.72,1.72,0,0,1-.44.28,1.06,1.06,0,0,1-.45.11A.68.68,0,0,1,46.48,54.05ZM51,51.39a1,1,0,0,0-.45.12,2.74,2.74,0,0,0-.56.39v-.51h-.57v3.44H50V52.39a1.72,1.72,0,0,1,.44-.3,1.14,1.14,0,0,1,.47-.1h.17l.14,0h0v-.6H51Zm1.28,0H51.7v3.44h.58Zm0-1.17h-.66v.6h.66ZM55.51,54h0a1.77,1.77,0,0,1-.45.3,1.25,1.25,0,0,1-.54.12.88.88,0,0,1-.73-.34,1.51,1.51,0,0,1-.27-1,1.48,1.48,0,0,1,.28-1,.89.89,0,0,1,.72-.34,1.18,1.18,0,0,1,.31,0,1.6,1.6,0,0,1,.29.11,1,1,0,0,1,.23.14.74.74,0,0,1,.16.12h0v-.65a2.3,2.3,0,0,0-.47-.19,1.91,1.91,0,0,0-.54-.08,1.71,1.71,0,0,0-.65.12,1.26,1.26,0,0,0-.51.35,1.75,1.75,0,0,0-.33.55,2.3,2.3,0,0,0-.12.79,2.39,2.39,0,0,0,.12.79,1.63,1.63,0,0,0,.33.56,1.25,1.25,0,0,0,.51.33,1.88,1.88,0,0,0,.65.11l.3,0,.26-.07.24-.09.21-.09Zm2.15-2.69a1.24,1.24,0,0,0-.53.12,2.22,2.22,0,0,0-.51.35V50H56v4.79h.58V52.26a2.21,2.21,0,0,1,.45-.3,1.06,1.06,0,0,1,.44-.11.85.85,0,0,1,.35.06.44.44,0,0,1,.19.19.72.72,0,0,1,.09.33,3.1,3.1,0,0,1,0,.44v2h.58V52.6a1.46,1.46,0,0,0-.28-1A1,1,0,0,0,57.66,51.3Zm1.76,1.8h1.73v-.55H59.42Zm5.34,1.19H62.5v-1.7h2.11V52H62.5V50.79h2.26v-.54H61.89v4.58h2.87Zm3.1.12a2.06,2.06,0,0,0,.41-1.36,2.2,2.2,0,0,0-.33-1.29A1.08,1.08,0,0,0,67,51.3a1.21,1.21,0,0,0-.58.13,1.86,1.86,0,0,0-.47.32V50h-.58v4.79h.54l0-.16a2,2,0,0,0,.39.19,1.62,1.62,0,0,0,.48.07A1.23,1.23,0,0,0,67.86,54.41Zm-.44-.32a.85.85,0,0,1-.69.32,1.52,1.52,0,0,1-.38,0,2.12,2.12,0,0,1-.38-.15v-2A1.77,1.77,0,0,1,66.4,52a1.08,1.08,0,0,1,.48-.11.65.65,0,0,1,.61.32,1.91,1.91,0,0,1,.18.93A1.57,1.57,0,0,1,67.42,54.09Zm3.81-2.41a1.17,1.17,0,0,0-.44-.29,1.6,1.6,0,0,0-.56-.09,1.45,1.45,0,0,0-1.15.49,1.92,1.92,0,0,0-.44,1.34,1.82,1.82,0,0,0,.45,1.32,1.7,1.7,0,0,0,1.28.46l.34,0,.31-.07.27-.1.25-.1V54h0l-.18.13a1.71,1.71,0,0,1-.27.13,1.28,1.28,0,0,1-.33.11,1.5,1.5,0,0,1-.37,0,1.08,1.08,0,0,1-.83-.32,1.25,1.25,0,0,1-.31-.92h2.39v-.31a2.31,2.31,0,0,0-.1-.7A1.41,1.41,0,0,0,71.23,51.68Zm-2,1a1.4,1.4,0,0,1,.09-.39.83.83,0,0,1,.2-.3,1.15,1.15,0,0,1,.29-.2,1.13,1.13,0,0,1,.39-.07,1.15,1.15,0,0,1,.4.07.73.73,0,0,1,.26.2.82.82,0,0,1,.14.28,1.64,1.64,0,0,1,.05.41Zm4.56-1.34a1,1,0,0,0-.46.12,2.72,2.72,0,0,0-.55.39v-.51h-.58v3.44h.58V52.39a1.56,1.56,0,0,1,.44-.3,1.09,1.09,0,0,1,.46-.1h.18L74,52h0v-.6h-.24Zm1.3-1H74.5v1h-.39v.48h.39v1.91a1.16,1.16,0,0,0,.27.85,1,1,0,0,0,.74.27l.31,0a1.94,1.94,0,0,0,.33-.07v-.52h0l-.19.07a.84.84,0,0,1-.27,0,.89.89,0,0,1-.32,0,.38.38,0,0,1-.17-.16.9.9,0,0,1-.07-.27c0-.09,0-.23,0-.4V51.87h1.07v-.48H75.08Zm1.25,2.7h1.73v-.55H76.33ZM82,50.25h-.74l-1.88,2.11V50.25H78.8v4.58h.61V53l.27-.3,1.67,2.13h.8l-2-2.54Zm2,1.14a1,1,0,0,0-.46.12,2.47,2.47,0,0,0-.55.39v-.51h-.58v3.44h.58V52.39a1.52,1.52,0,0,1,.43-.3A1.14,1.14,0,0,1,84,52h.17l.14,0h0v-.6h-.23Zm2.7.17a1.35,1.35,0,0,0-.44-.2,3.28,3.28,0,0,0-.6,0,4,4,0,0,0-.59,0,3.5,3.5,0,0,0-.46.11v.58h0a3.74,3.74,0,0,1,.54-.17,2.23,2.23,0,0,1,.47-.06l.33,0a.72.72,0,0,1,.27.1.45.45,0,0,1,.17.19.75.75,0,0,1,.06.33v.11c-.3,0-.58,0-.85.07a2.48,2.48,0,0,0-.68.19,1,1,0,0,0-.48.4,1.14,1.14,0,0,0-.15.6,1.27,1.27,0,0,0,.08.44,1.08,1.08,0,0,0,.56.58,1.11,1.11,0,0,0,.41.08,1.4,1.4,0,0,0,.4,0l.29-.12a1.5,1.5,0,0,0,.23-.15l.19-.15v.37h.58V52.48a1.47,1.47,0,0,0-.09-.55A.93.93,0,0,0,86.76,51.56ZM86.55,54a2,2,0,0,1-.41.3,1.18,1.18,0,0,1-.5.11.69.69,0,0,1-.48-.15.65.65,0,0,1,0-.85,1,1,0,0,1,.38-.22,2.64,2.64,0,0,1,.51-.09l.52,0Zm3-2.68a1.24,1.24,0,0,0-.53.12,2.22,2.22,0,0,0-.51.35v-.38h-.58v3.44h.58V52.26A2.93,2.93,0,0,1,89,52a1.06,1.06,0,0,1,.44-.11.85.85,0,0,1,.35.06.52.52,0,0,1,.2.19.88.88,0,0,1,.08.33,3,3,0,0,1,0,.44v2h.58V52.6a1.46,1.46,0,0,0-.29-1A1,1,0,0,0,89.56,51.3Zm4.56.09H93.4L92,52.84V50h-.58v4.79H92V53.39l.23-.22,1.28,1.66h.76l-1.6-2Zm2.78.29a1.17,1.17,0,0,0-.44-.29,1.6,1.6,0,0,0-.56-.09,1.45,1.45,0,0,0-1.15.49,1.92,1.92,0,0,0-.44,1.34,1.82,1.82,0,0,0,.45,1.32,1.7,1.7,0,0,0,1.28.46l.34,0,.31-.07.27-.1.25-.1V54h0l-.18.13a2.09,2.09,0,0,1-.26.13,2,2,0,0,1-.71.16,1.1,1.1,0,0,1-.83-.32,1.25,1.25,0,0,1-.31-.92h2.39v-.31a2,2,0,0,0-.1-.7A1.41,1.41,0,0,0,96.9,51.68Zm-2,1a1.87,1.87,0,0,1,.09-.39,1,1,0,0,1,.2-.3,1.15,1.15,0,0,1,.29-.2,1.13,1.13,0,0,1,.39-.07,1.15,1.15,0,0,1,.4.07.73.73,0,0,1,.26.2.82.82,0,0,1,.14.28,1.64,1.64,0,0,1,0,.41Zm4.6-1.43a1.25,1.25,0,0,0-.54.12,2.22,2.22,0,0,0-.51.35v-.38h-.58v3.44h.58V52.26a2.93,2.93,0,0,1,.45-.3,1.06,1.06,0,0,1,.45-.11.8.8,0,0,1,.34.06.52.52,0,0,1,.2.19.88.88,0,0,1,.08.33,3,3,0,0,1,0,.44v2h.58V52.6a1.46,1.46,0,0,0-.29-1A1,1,0,0,0,99.49,51.3Zm3.51,0a1.24,1.24,0,0,0-.53.12,2.22,2.22,0,0,0-.51.35V50h-.58v4.79H102V52.26a2.21,2.21,0,0,1,.45-.3,1.06,1.06,0,0,1,.44-.11.85.85,0,0,1,.35.06.44.44,0,0,1,.19.19.72.72,0,0,1,.09.33,3.1,3.1,0,0,1,0,.44v2h.58V52.6a1.46,1.46,0,0,0-.28-1A1,1,0,0,0,103,51.3Zm4,.26a1.27,1.27,0,0,0-.44-.2,3.25,3.25,0,0,0-.59,0,3.81,3.81,0,0,0-.59,0,3.13,3.13,0,0,0-.46.11v.58h0a3.74,3.74,0,0,1,.54-.17,2.23,2.23,0,0,1,.47-.06l.33,0a.66.66,0,0,1,.27.1.41.41,0,0,1,.18.19.75.75,0,0,1,.06.33v.11c-.31,0-.59,0-.85.07a2.67,2.67,0,0,0-.69.19,1,1,0,0,0-.47.4,1.14,1.14,0,0,0-.15.6,1.08,1.08,0,0,0,.08.44,1.1,1.1,0,0,0,.22.35,1.13,1.13,0,0,0,.34.23,1.06,1.06,0,0,0,.4.08,1.35,1.35,0,0,0,.4,0,1.88,1.88,0,0,0,.3-.12l.23-.15.19-.15v.37h.57V52.48a1.47,1.47,0,0,0-.09-.55A.85.85,0,0,0,107,51.56Zm-.2,2.42a2,2,0,0,1-.42.3,1.14,1.14,0,0,1-.49.11.7.7,0,0,1-.49-.15.57.57,0,0,1-.17-.44.54.54,0,0,1,.15-.41,1,1,0,0,1,.39-.22,2.64,2.64,0,0,1,.51-.09l.52,0Zm3.49,0a2.14,2.14,0,0,1-.44.3,1,1,0,0,1-.46.12.64.64,0,0,1-.34-.07.41.41,0,0,1-.2-.19,1.35,1.35,0,0,1-.09-.32c0-.12,0-.27,0-.45v-2h-.58v2.23a2.08,2.08,0,0,0,.08.6,1.4,1.4,0,0,0,.23.4.89.89,0,0,0,.35.23,1.16,1.16,0,0,0,.42.08,1.19,1.19,0,0,0,.54-.12,2.84,2.84,0,0,0,.51-.36v.38h.58V51.39h-.58Zm3.5-.72a1.05,1.05,0,0,0-.58-.32l-.33-.08-.29-.06a.91.91,0,0,1-.37-.18.39.39,0,0,1-.12-.32.38.38,0,0,1,.2-.36.9.9,0,0,1,.48-.12,1.52,1.52,0,0,1,.55.1,1.69,1.69,0,0,1,.49.28h0v-.62a2.2,2.2,0,0,0-.48-.18,2.36,2.36,0,0,0-.58-.07,1.42,1.42,0,0,0-.93.29.93.93,0,0,0-.35.76,1,1,0,0,0,.18.58,1.09,1.09,0,0,0,.57.35l.33.08.29.06a1,1,0,0,1,.4.18.42.42,0,0,1,.11.31.48.48,0,0,1,0,.24.53.53,0,0,1-.15.15.83.83,0,0,1-.24.08l-.29,0a1.14,1.14,0,0,1-.37-.05,1.61,1.61,0,0,1-.33-.12,1.19,1.19,0,0,1-.26-.15l-.18-.12h0v.64a2.73,2.73,0,0,0,.5.2,2.2,2.2,0,0,0,.64.09,1.68,1.68,0,0,0,.59-.08,1.44,1.44,0,0,0,.42-.23.94.94,0,0,0,.25-.34,1,1,0,0,0,.09-.42A.86.86,0,0,0,113.81,53.24ZM38.36,60.35l-1.84-3.63h-.87V61.3h.57V57.35l2,3.95h.68V56.72h-.57Zm3.81-2.2a1.13,1.13,0,0,0-.43-.29,1.66,1.66,0,0,0-.57-.09,1.47,1.47,0,0,0-1.15.5,1.94,1.94,0,0,0-.44,1.33A1.82,1.82,0,0,0,40,60.92a1.72,1.72,0,0,0,1.28.46,1.78,1.78,0,0,0,.35,0l.3-.07.27-.09.26-.1v-.64h0a1.06,1.06,0,0,1-.18.13l-.26.14-.33.11a1.58,1.58,0,0,1-.38,0,1.1,1.1,0,0,1-.83-.32,1.27,1.27,0,0,1-.3-.92h2.38v-.31a2.07,2.07,0,0,0-.1-.7A1.27,1.27,0,0,0,42.17,58.15Zm-2,1.05a1.42,1.42,0,0,1,.08-.38,1.21,1.21,0,0,1,.2-.3.83.83,0,0,1,.3-.2.88.88,0,0,1,.39-.07,1.14,1.14,0,0,1,.39.06.75.75,0,0,1,.26.2.78.78,0,0,1,.14.29,1.53,1.53,0,0,1,.06.4Zm5.07,1.23a2.14,2.14,0,0,1-.44.3,1,1,0,0,1-.46.12.85.85,0,0,1-.35-.06.46.46,0,0,1-.19-.2.75.75,0,0,1-.09-.31c0-.12,0-.27,0-.46v-2h-.58V60.1a2,2,0,0,0,.08.59,1.11,1.11,0,0,0,.23.4.92.92,0,0,0,.35.24,1.16,1.16,0,0,0,.42.07,1.19,1.19,0,0,0,.54-.12,2.41,2.41,0,0,0,.51-.36v.38h.58V57.86h-.58Zm5.61-2.37a.77.77,0,0,0-.32-.22,1.05,1.05,0,0,0-.4-.07,1,1,0,0,0-.54.15,2.48,2.48,0,0,0-.52.44.86.86,0,0,0-.35-.45,1.1,1.1,0,0,0-.55-.14,1,1,0,0,0-.49.12,2,2,0,0,0-.45.36v-.39h-.58V61.3h.58V58.74a2.61,2.61,0,0,1,.4-.3.8.8,0,0,1,.4-.12.61.61,0,0,1,.3.06.39.39,0,0,1,.18.18,1.06,1.06,0,0,1,.08.32c0,.13,0,.28,0,.44v2h.57V58.75a1.91,1.91,0,0,1,.43-.32.82.82,0,0,1,.38-.11.68.68,0,0,1,.31.06.42.42,0,0,1,.17.18.83.83,0,0,1,.08.32c0,.13,0,.28,0,.44v2h.58V59a2,2,0,0,0-.08-.59A1.22,1.22,0,0,0,50.85,58.06ZM53,56.69h-.62v.6H53Zm1.27,0h-.62v.6h.62Zm-.19,3.74a1.9,1.9,0,0,1-.44.3,1,1,0,0,1-.45.12.82.82,0,0,1-.35-.06.41.41,0,0,1-.19-.2.94.94,0,0,1-.1-.31c0-.12,0-.27,0-.46v-2h-.57V60.1a1.72,1.72,0,0,0,.08.59,1,1,0,0,0,.23.4.88.88,0,0,0,.34.24,1.25,1.25,0,0,0,.43.07,1.18,1.18,0,0,0,.53-.12,2.41,2.41,0,0,0,.51-.36v.38h.58V57.86h-.58Zm3-2.66a1.21,1.21,0,0,0-.53.12,2,2,0,0,0-.51.36v-.39h-.58V61.3h.58V58.74a1.72,1.72,0,0,1,.44-.3,1,1,0,0,1,.45-.12.8.8,0,0,1,.34.06.48.48,0,0,1,.2.2,1.12,1.12,0,0,1,.09.32c0,.14,0,.29,0,.45V61.3h.58V59.07a1.42,1.42,0,0,0-.29-1A1,1,0,0,0,57.09,57.77Zm3.4,1.62-.33-.07-.29-.07a.8.8,0,0,1-.37-.17.42.42,0,0,1-.12-.33.38.38,0,0,1,.2-.36.9.9,0,0,1,.48-.12,1.78,1.78,0,0,1,.55.1,1.83,1.83,0,0,1,.49.28h0V58a2.2,2.2,0,0,0-.48-.18,3,3,0,0,0-.58-.07,1.42,1.42,0,0,0-.93.29A1,1,0,0,0,59,59.41a1,1,0,0,0,.57.35l.33.08.29.07a.88.88,0,0,1,.4.17.43.43,0,0,1,.11.31.48.48,0,0,1-.05.24.36.36,0,0,1-.15.15.81.81,0,0,1-.24.09l-.29,0a1.5,1.5,0,0,1-.37,0l-.33-.12L59,60.58l-.18-.13h0v.65a3.69,3.69,0,0,0,.5.2,2.2,2.2,0,0,0,.64.09,2,2,0,0,0,.59-.08,1.3,1.3,0,0,0,.41-.24.8.8,0,0,0,.26-.34,1,1,0,0,0,.09-.42.88.88,0,0,0-.19-.6A1.12,1.12,0,0,0,60.49,59.39Zm1.92-2.51h-.57v1h-.4v.49h.4v1.9a1.16,1.16,0,0,0,.26.85,1,1,0,0,0,.74.27l.31,0,.33-.08v-.52h0l-.19.07a.86.86,0,0,1-.28,0,.74.74,0,0,1-.32,0,.44.44,0,0,1-.17-.16.77.77,0,0,1-.07-.27c0-.09,0-.23,0-.4V58.35h1.07v-.49H62.41Zm3.85,1.27a1.13,1.13,0,0,0-.43-.29,1.62,1.62,0,0,0-.57-.09,1.47,1.47,0,0,0-1.15.5,1.94,1.94,0,0,0-.44,1.33,1.78,1.78,0,0,0,.46,1.32,1.68,1.68,0,0,0,1.27.46,1.78,1.78,0,0,0,.35,0l.3-.07.28-.09.25-.1v-.64h0l-.17.13-.27.14a2.55,2.55,0,0,1-.33.11,1.55,1.55,0,0,1-.37,0,1.11,1.11,0,0,1-.84-.32,1.27,1.27,0,0,1-.3-.92h2.38v-.31a2.07,2.07,0,0,0-.1-.7A1.27,1.27,0,0,0,66.26,58.15Zm-2,1.05a1.12,1.12,0,0,1,.09-.38,1,1,0,0,1,.19-.3.83.83,0,0,1,.3-.2.91.91,0,0,1,.39-.07,1.07,1.07,0,0,1,.39.06.75.75,0,0,1,.26.2.78.78,0,0,1,.14.29,1.2,1.2,0,0,1,.06.4Zm4.56-1.34a1,1,0,0,0-.46.12,2.57,2.57,0,0,0-.55.4v-.52h-.58V61.3h.58V58.86a1.52,1.52,0,0,1,.43-.3,1.14,1.14,0,0,1,.47-.1h.17a.58.58,0,0,1,.14,0h0v-.61h-.23Z" transform="translate(0 0)"/></svg>