<svg xmlns="http://www.w3.org/2000/svg" width="146.8" height="50" viewBox="0 0 146.8 50"><path fill="#aaa" d="M15.16,15.4c.77-.28,3.16-1,4.81-1.33a62.67,62.67,0,0,0,10.65-3.26,18.87,18.87,0,0,0-11-4,3.82,3.82,0,0,1,.74,2,3.71,3.71,0,0,1-.76,2.55,3.08,3.08,0,0,1-2.46,1.23,3.43,3.43,0,0,1-3.28-3.3,3.82,3.82,0,0,1,.33-1.86A19,19,0,0,0,8.62,9.83,62.64,62.64,0,0,0,15.16,15.4Zm-3.93,4.94c-.46-1.53-2.74-4.71-4.75-7.51-.2-.29-.4-.56-.6-.83A18.92,18.92,0,0,0,2.05,34.36C9.8,25.19,11.63,21.66,11.23,20.34ZM32.51,12.5c-.15-.15-4,2.13-6.3,3.37-2.57,1.4-5.48,3-6.14,4-1,1.49,1.43,5.92,2.89,8.56.17.32.34.62.5.91.87,1.6,4.22,7.31,3.73,8.57-.13.33-.56.56-1.12.23-1.16-.69-7.23-8.65-9.85-12.88A128.75,128.75,0,0,1,4.09,37.53a19,19,0,1,0,28.42-25Z" transform="translate(0.03 0.23)"/><path fill="#555" d="M17.54,16.07c-1.94.69-3.52,1.48-1.08,6s9.17,14.68,10.41,15.35c1.42.76-.29-4-2-7.16s-4.78-8.32-3.41-10.33,9.94-5.47,12-7.41c1.44-1.35.19-1.2-.18-1.05-7.6,3.13-12.14,3.34-15.74,4.63" transform="translate(0.03 0.23)"/><path fill="#333" d="M15.75,9.1A2.83,2.83,0,0,0,18.53,12,2.83,2.83,0,0,0,21.1,8.92a2.83,2.83,0,0,0-2.78-2.87A2.82,2.82,0,0,0,15.75,9.1Zm23.44.7a.19.19,0,0,0-.16.1c0,.06-.13.24.42,1.16A23.9,23.9,0,0,1,6,43.44a3.48,3.48,0,0,0-1.25-.58.2.2,0,0,0-.21.12c0,.08-.11.31.9,1.16a24.25,24.25,0,0,0,34.77-33.4C39.9,10.31,39.45,9.8,39.19,9.8ZM12,4.43a23.57,23.57,0,0,1,9.67-2h1A23.89,23.89,0,0,1,35.41,6.71a3.39,3.39,0,0,0,1.24.63.21.21,0,0,0,.2-.12c0-.08.11-.3-.86-1.18A24.26,24.26,0,0,0,10.45,1.61a.33.33,0,0,0-.22.25c-.09.41.42,1.18,1.64,2.54A.1.1,0,0,0,12,4.43Zm5.33,20.41c3.94-4.76,2.79-5.92.42-7.8S10.08,11.84,5.62,5.78C3.84,3.36,3.64,5,4,6.05c1.36,3.57,8.28,11.22,9.18,14.22C14.33,24,3.42,35.9.84,38.85c-1.21,1.38-.42,2.16.64,1.4C6.29,36.82,14,28.85,17.34,24.84ZM132.83,37.58H128V34.1h3.61a.24.24,0,0,0,.23-.23V32.58a.24.24,0,0,0-.23-.23H128V29.44h4.48a.24.24,0,0,0,.23-.23V27.92a.24.24,0,0,0-.23-.23H126a.24.24,0,0,0-.23.23V39.1a.24.24,0,0,0,.23.23h6.87a.24.24,0,0,0,.23-.23V37.81A.24.24,0,0,0,132.83,37.58ZM117.07,27.52c-3.61,0-5.6,2.51-5.6,6s1.92,6.07,5.59,6.07,5.61-2.51,5.61-6S120.72,27.52,117.07,27.52Zm0,10.32c-2.53,0-3.33-2.16-3.33-4.34s.91-4.24,3.3-4.24,3.33,2.15,3.33,4.3S119.55,37.84,117.07,37.84Zm-9.3-10.15H106a.23.23,0,0,0-.22.23v4.54H101V27.92a.24.24,0,0,0-.23-.23H99a.24.24,0,0,0-.23.23V39.1a.24.24,0,0,0,.23.23h1.81a.24.24,0,0,0,.23-.23V34.2h4.71v4.9a.23.23,0,0,0,.22.23h1.82a.24.24,0,0,0,.23-.23V27.92A.24.24,0,0,0,107.77,27.69Zm-13,9.89H89.91V34.1h3.61a.24.24,0,0,0,.23-.23V32.58a.24.24,0,0,0-.23-.23H89.91V29.44h4.48a.24.24,0,0,0,.23-.23V27.92a.24.24,0,0,0-.23-.23H87.87a.24.24,0,0,0-.23.23V39.1a.24.24,0,0,0,.23.23h6.87A.24.24,0,0,0,95,39.1V37.81A.24.24,0,0,0,94.74,37.58Zm-11,0H77.83l5.68-7.9a1,1,0,0,0,.21-.58V27.92a.23.23,0,0,0-.23-.23H75.63a.24.24,0,0,0-.23.23v1.26a.23.23,0,0,0,.23.22H81L75.47,37a.9.9,0,0,0-.24.64V39.1a.23.23,0,0,0,.22.23h8.27A.24.24,0,0,0,84,39.1V37.81A.24.24,0,0,0,83.72,37.58ZM72.58,27.69H63.76a.24.24,0,0,0-.23.23v1.26a.23.23,0,0,0,.23.22H67v9.7a.23.23,0,0,0,.23.23h1.81a.24.24,0,0,0,.23-.23V29.4h3.29a.22.22,0,0,0,.23-.22V27.92A.23.23,0,0,0,72.58,27.69Zm-12.64,0H58.12a.23.23,0,0,0-.22.23V39.1a.23.23,0,0,0,.22.23h1.82a.23.23,0,0,0,.22-.23V27.92A.23.23,0,0,0,59.94,27.69ZM146.55,9h-2.39c-.45,0-.51.34-.63.7l-3,9.09-3.15-9.28c-.15-.42-.25-.51-.7-.51h-2.22a.24.24,0,0,0-.23.23V20.41a.23.23,0,0,0,.23.23h1.29a.23.23,0,0,0,.23-.23v-8.6L138.89,20c.12.35.19.61.61.61h1.41c.58,0,.58-.26.73-.72l2.87-8.11v8.6a.22.22,0,0,0,.22.23h1.82a.22.22,0,0,0,.22-.23V9.23A.23.23,0,0,0,146.55,9Zm-16.19,8V9.23a.24.24,0,0,0-.23-.23H128.8a.23.23,0,0,0-.22.23v7.15a2.34,2.34,0,0,1-.86,2.24,3.2,3.2,0,0,1-1.93.54,2.74,2.74,0,0,1-1.89-.61,2.48,2.48,0,0,1-.73-2.22V9.23a.23.23,0,0,0-.23-.23h-1.81a.24.24,0,0,0-.23.23v7.2c0,1.44.09,2.64,1.33,3.55A6.71,6.71,0,0,0,129,20,3.55,3.55,0,0,0,130.36,17Zm-28.47,3.61h1.81a.23.23,0,0,0,.23-.23V9.23A.23.23,0,0,0,103.7,9h-1.81a.24.24,0,0,0-.23.23V20.41A.23.23,0,0,0,101.89,20.64ZM96.68,9H95.39a.23.23,0,0,0-.23.23v8.39L90.05,9.35A.63.63,0,0,0,89.46,9H87.54a.23.23,0,0,0-.23.23V20.41a.23.23,0,0,0,.23.23h1.29a.22.22,0,0,0,.22-.23V11.69l5.27,8.6a.58.58,0,0,0,.57.35h1.79a.22.22,0,0,0,.22-.23V9.23A.23.23,0,0,0,96.68,9ZM80.51,20.64h1.81a.23.23,0,0,0,.23-.23V9.23A.24.24,0,0,0,82.32,9H80.51a.23.23,0,0,0-.23.23V20.41A.23.23,0,0,0,80.51,20.64Zm-10,0h6.18a.22.22,0,0,0,.22-.23V19.12a.22.22,0,0,0-.22-.22H72.55V9.23A.24.24,0,0,0,72.32,9H70.51a.23.23,0,0,0-.23.23V20.41A.23.23,0,0,0,70.51,20.64ZM66,20.71c.49,0,.7-.16.74-.36s.21-1.29.23-1.46-.09-.36-.24-.31a1,1,0,0,1-.34.05A1.81,1.81,0,0,1,65,17.86L62.53,14.1l3.79-4.71a.3.3,0,0,0,.1-.21A.2.2,0,0,0,66.2,9H64.59a.42.42,0,0,0-.38.2l-3.43,4.41a.36.36,0,0,1-.34.15h-.28V9.23A.23.23,0,0,0,59.94,9H58.12a.23.23,0,0,0-.22.23V20.41a.23.23,0,0,0,.22.23h1.82a.23.23,0,0,0,.22-.23V15.23h.27c.15,0,.24,0,.33.14L63.11,19A3.57,3.57,0,0,0,66,20.71ZM113.9,19a3.58,3.58,0,0,0,2.94,1.76c.49,0,.7-.16.73-.36s.21-1.29.24-1.46-.09-.36-.25-.31a1,1,0,0,1-.34.05,1.79,1.79,0,0,1-1.42-.77l-2.47-3.76,3.79-4.71a.3.3,0,0,0,.1-.21c0-.12-.12-.18-.23-.18h-1.6a.42.42,0,0,0-.38.2l-3.44,4.41a.34.34,0,0,1-.33.15H111V9.23a.23.23,0,0,0-.23-.23h-1.81a.24.24,0,0,0-.23.23V20.41a.24.24,0,0,0,.23.23h1.81a.23.23,0,0,0,.23-.23V15.23h.26c.16,0,.25,0,.33.14Z" transform="translate(0.03 0.23)"/></svg>