<svg xmlns="http://www.w3.org/2000/svg" width="170" height="96.22" viewBox="0 0 170 96.22"><path d="M730.06,299.7c-.1-1.51-1.08-2.26-2.94-2.26a3.54,3.54,0,0,0-2.21.65,2,2,0,0,0-.85,1.65,1.53,1.53,0,0,0,.55,1.16,8,8,0,0,0,2.59,1.15,19.52,19.52,0,0,1,3.36,1.32,4,4,0,0,1,1.41,1.34,3.68,3.68,0,0,1,.5,2,4.33,4.33,0,0,1-1.35,3.25,5.84,5.84,0,0,1-4.19,1.3,8,8,0,0,1-2.28-.29,4.88,4.88,0,0,1-1.77-.95,3.6,3.6,0,0,1-1.08-1.47,5.63,5.63,0,0,1-.32-2.09h2.18a3.62,3.62,0,0,0,.51,1.88,2.52,2.52,0,0,0,1.21.83,4.62,4.62,0,0,0,1.61.28,3.78,3.78,0,0,0,2.38-.7,2.19,2.19,0,0,0,.9-1.8,1.77,1.77,0,0,0-.38-1.17,2.55,2.55,0,0,0-1-.7c-.4-.17-1.31-.5-2.72-1a17,17,0,0,1-2.6-1.09,3.66,3.66,0,0,1-1.25-1.19,3.48,3.48,0,0,1-.47-1.89,3.72,3.72,0,0,1,1.49-3.07,6,6,0,0,1,3.83-1.17,5.63,5.63,0,0,1,3.67,1.06,3.66,3.66,0,0,1,1.3,3Z" transform="translate(-721.48 -215)" fill="#333"/><path d="M743.79,310.9h-1.93a8,8,0,0,1-.13-1.08,3.64,3.64,0,0,1-3.15,1.4,3.48,3.48,0,0,1-2.48-.86,3,3,0,0,1-.94-2.29,3.28,3.28,0,0,1,1.17-2.61c.78-.66,2.16-1,4.14-1l1.1,0v-.56a4.5,4.5,0,0,0-.12-1.27,1.11,1.11,0,0,0-.57-.61,2.65,2.65,0,0,0-1.24-.24,1.91,1.91,0,0,0-1.32.37,1.76,1.76,0,0,0-.49,1.2h-2q.27-3.12,4.06-3.12a5.31,5.31,0,0,1,2.24.4,2.4,2.4,0,0,1,1.17,1.06,4.15,4.15,0,0,1,.34,1.88v5.56A10.17,10.17,0,0,0,743.79,310.9Zm-2.22-4.16v-.89l-.86,0c-2.23,0-3.35.7-3.35,2.1a1.66,1.66,0,0,0,.49,1.3,2,2,0,0,0,1.38.45,2.46,2.46,0,0,0,1.44-.37,1.84,1.84,0,0,0,.71-.91A5.66,5.66,0,0,0,741.57,306.74Z" transform="translate(-721.48 -215)" fill="#333"/><path d="M756.33,310.9h-2.05v-6.17a5.07,5.07,0,0,0-.2-1.63,1.76,1.76,0,0,0-.69-.87,2.33,2.33,0,0,0-1.29-.33,2.79,2.79,0,0,0-1.39.35,2,2,0,0,0-.88.94,4.61,4.61,0,0,0-.26,1.74v6h-2.05v-8.57a11.65,11.65,0,0,0-.19-1.77h2.06a5.57,5.57,0,0,1,.16,1.14,3.74,3.74,0,0,1,3.09-1.45,3.54,3.54,0,0,1,2.71,1.05,4.22,4.22,0,0,1,1,3Z" transform="translate(-721.48 -215)" fill="#333"/><path d="M768.05,310.9h-1.93a6.61,6.61,0,0,1-.12-1.08,3.68,3.68,0,0,1-3.16,1.4,3.5,3.5,0,0,1-2.48-.86,3,3,0,0,1-.94-2.29,3.26,3.26,0,0,1,1.18-2.61c.78-.66,2.16-1,4.14-1l1.09,0v-.56a4.5,4.5,0,0,0-.12-1.27,1.11,1.11,0,0,0-.57-.61,2.65,2.65,0,0,0-1.24-.24,1.91,1.91,0,0,0-1.32.37,1.85,1.85,0,0,0-.49,1.2h-2q.25-3.12,4-3.12a5.33,5.33,0,0,1,2.25.4,2.37,2.37,0,0,1,1.16,1.06,4.15,4.15,0,0,1,.34,1.88v5.56A10.17,10.17,0,0,0,768.05,310.9Zm-2.22-4.16v-.89l-.85,0q-3.36,0-3.36,2.1a1.7,1.7,0,0,0,.49,1.3,2,2,0,0,0,1.39.45,2.43,2.43,0,0,0,1.43-.37,1.79,1.79,0,0,0,.71-.91A5.33,5.33,0,0,0,765.83,306.74Z" transform="translate(-721.48 -215)" fill="#333"/><path d="M788.51,310.9H785.8l-6-7.76v7.76h-2.2v-15h2.2v6.3l5.4-6.3h2.71l-5.76,6.66Z" transform="translate(-721.48 -215)" fill="#333"/><path d="M792.93,310.9h-2v-15h2Z" transform="translate(-721.48 -215)" fill="#333"/><path d="M799,298h-2v-2h2Zm0,12.93h-2V300.56h2Z" transform="translate(-721.48 -215)" fill="#333"/><path d="M811.9,310.9h-2v-6.17a5.12,5.12,0,0,0-.19-1.63,1.78,1.78,0,0,0-.7-.87,2.33,2.33,0,0,0-1.29-.33,2.79,2.79,0,0,0-1.39.35,2,2,0,0,0-.87.94,4.39,4.39,0,0,0-.27,1.74v6h-2v-8.57a10.49,10.49,0,0,0-.19-1.77H805a5,5,0,0,1,.16,1.14,3.74,3.74,0,0,1,3.09-1.45,3.54,3.54,0,0,1,2.71,1.05,4.22,4.22,0,0,1,1,3Z" transform="translate(-721.48 -215)" fill="#333"/><path d="M817.86,298h-2.05v-2h2.05Zm0,12.93h-2.05V300.56h2.05Z" transform="translate(-721.48 -215)" fill="#333"/><path d="M831.18,310.9h-2.53L824,305.53v5.37h-2.06v-15H824v8.75l4-4.13h2.36l-4.25,4.32Z" transform="translate(-721.48 -215)" fill="#333"/><path d="M842.19,306.1h-7.51a4.24,4.24,0,0,0,.83,2.73,2.6,2.6,0,0,0,2,.85,2.45,2.45,0,0,0,2.61-2.17h2a4.85,4.85,0,0,1-1.48,2.77,4.72,4.72,0,0,1-3.17.94A4.41,4.41,0,0,1,834,309.8a7,7,0,0,1,.06-8.07,4.58,4.58,0,0,1,3.59-1.48,4.17,4.17,0,0,1,3.44,1.41A7,7,0,0,1,842.19,306.1Zm-2.05-1.45a3.27,3.27,0,0,0-.76-2.12,2.42,2.42,0,0,0-1.85-.73c-1.66,0-2.58.95-2.75,2.85Z" transform="translate(-721.48 -215)" fill="#333"/><path d="M854.24,310.9h-2v-6.17a5.12,5.12,0,0,0-.19-1.63,1.78,1.78,0,0,0-.7-.87,2.33,2.33,0,0,0-1.29-.33,2.79,2.79,0,0,0-1.39.35,2,2,0,0,0-.87.94,4.39,4.39,0,0,0-.27,1.74v6h-2.05v-8.57a10.49,10.49,0,0,0-.19-1.77h2.06a5,5,0,0,1,.16,1.14,3.75,3.75,0,0,1,3.09-1.45,3.54,3.54,0,0,1,2.71,1.05,4.22,4.22,0,0,1,1,3Z" transform="translate(-721.48 -215)" fill="#333"/><path d="M876.92,310.9h-2.21l-1.64-3.84h-6.94l-1.65,3.84h-2.1l6.42-15h1.94Zm-4.64-5.74-2.65-7-2.67,7Z" transform="translate(-721.48 -215)" fill="#333"/><path d="M891.48,299.89h-2.39a2.88,2.88,0,0,0-3.15-2.45,4.12,4.12,0,0,0-3.43,1.64,7.06,7.06,0,0,0-1.27,4.46,6.32,6.32,0,0,0,1.37,4.33,4.9,4.9,0,0,0,3.86,1.54,5.92,5.92,0,0,0,2.77-.69V305h-3.3V303h5.52v7.08a12.2,12.2,0,0,1-5.1,1.11,7.32,7.32,0,0,1-5.45-2,7.52,7.52,0,0,1-2-5.51,10.62,10.62,0,0,1,.8-4.07,6,6,0,0,1,2.56-3,7.54,7.54,0,0,1,3.85-1,5.85,5.85,0,0,1,3.73,1.1A4.39,4.39,0,0,1,891.48,299.89Z" transform="translate(-721.48 -215)" fill="#333"/><path d="M739.54,215a3,3,0,0,0-.84,5.91V223h1.67v-2.09a3,3,0,0,0-.83-5.91Zm-6.5,8.56s-10.08.37-11.56,12h17.19v1.11H721.48c1.48,11.67,11.56,12,11.56,12h5.63v1.11H733s-10.08.37-11.56,12H746s10.08-.37,11.56-12H740.37v-1.11h17.22c-1.48-11.67-11.56-12-11.56-12h-5.66V235.6H746s10.08-.37,11.56-12Zm15.66,1.56a2,2,0,0,1,2,1.95,2,2,0,1,1-2-1.95Zm-10,37.48v5.85h1.7V262.6Zm-13.48,9.58c-1.58,0-3.4.84-3.4,2.65,0,3.39,5.26,1.94,5.26,3.87,0,1.13-1,1.51-1.95,1.51a1.6,1.6,0,0,1-1.75-1.64h-1.73c0,2,1.5,2.84,3.31,2.84s3.85-.66,3.85-2.79c0-1.95-1.68-2.13-3.15-2.62-.62-.19-2.12-.26-2.12-1.22s.71-1.4,1.59-1.4,1.8.37,1.73,1.48h1.73C728.68,272.89,726.83,272.18,725.19,272.18Zm9,0c-1.71,0-3.2.69-3.29,2.6h1.73a1.49,1.49,0,0,1,1.62-1.4c1.75,0,1.84.9,1.84,2.4h-1.48c-2.06,0-4.24.71-4.24,3.15,0,1.69,1.54,2.48,3,2.48a2.77,2.77,0,0,0,2.7-1.56h0c0,.4,0,.77.09,1.17,0,.21.31.11.47.11h1.09c-.05-.73-.06-1.46-.06-1.84v-4.12C737.78,272.74,736,272.18,734.24,272.18Zm10.73,0a3.1,3.1,0,0,0-2.65,1.56h0v-1.28h-1.62v8.67h1.64v-4.71c0-1.7.46-2.07.7-2.31a2.26,2.26,0,0,1,1.59-.64c1.38,0,2,.76,2,2.2v5.46h1.64v-6C748.23,272.35,745.58,272.18,745,272.18Zm9.45,0c-1.72,0-3.2.69-3.29,2.6h1.73a1.5,1.5,0,0,1,1.64-1.4c1.75,0,1.81.9,1.81,2.4h-1.47c-2.06,0-4.21.71-4.21,3.15,0,1.69,1.5,2.48,3,2.48a2.79,2.79,0,0,0,2.7-1.56h0c0,.4,0,.77.08,1.17,0,.21.32.11.48.11H758c0-.73-.08-1.46-.08-1.84v-4.12C758,272.74,756.2,272.18,754.42,272.18Zm-19.93,4.74h1.65c0,1.61-.32,3.29-2.26,3.29a1.56,1.56,0,0,1-1.73-1.62C732.15,277.33,733.49,277,734.49,276.92Zm20.18,0h1.64c0,1.61-.32,3.29-2.26,3.29a1.54,1.54,0,0,1-1.69-1.62C752.35,277.33,753.67,277,754.67,276.92Z" transform="translate(-721.48 -215)" fill="#333"/></svg>
