<svg xmlns="http://www.w3.org/2000/svg" width="210" height="50.64" viewBox="0 0 210 50.64"><path fill="#333" d="M14.88,9.32c-.86,1.3-1.49,2.38-2,3.31h-.07c-.56-1-1.19-1.9-2-3.17L4.29.18H.23V24.74H4.7v-14c0-.86,0-2.13,0-3.1h.08a21.1,21.1,0,0,0,1.68,2.54l5.36,7.71h2.05l4.85-7.52a30.34,30.34,0,0,0,1.68-2.76h.07c-.07,1-.07,2.23-.07,3.24v24.5h4.51V.18h-4.1ZM36.86,21H26.54v3.8H36.86V35.38h4.51V10.81H36.86Zm10.88,3.89h4.47V.28H47.74Zm16.4-14.43H53.81v3.81H64.14V24.84h4.51V.28H64.14ZM82.27,45.5H79.66V41.93H78.05v8.79h1.61V46.84h2.61v3.88h1.61V41.93H82.27Zm19.66-1.37a1.9,1.9,0,0,0-1.72,1.1h0c0-.33,0-.67-.05-1H98.67a8.44,8.44,0,0,1,0,1.07v5.42h1.56V46.94c0-.83.29-1.53,1.11-1.53.65,0,.9.42.9,1.42v3.89h1.56V46.54C103.85,45.23,103.41,44.13,101.93,44.13Zm6.13,0c-1.32,0-2.86.69-2.86,3.34s1.54,3.35,2.86,3.35,2.85-.63,2.85-3.35S109.39,44.13,108.06,44.13Zm0,5.58c-1,0-1.24-1.16-1.24-2.24s.23-2.23,1.24-2.23,1.24,1.14,1.24,2.23S109.07,49.71,108.06,49.71Zm-17.57-3c0-1.63-.47-2.61-2.48-2.61a4.5,4.5,0,0,0-2.05.48L86,45.87a3,3,0,0,1,1.78-.63A1.12,1.12,0,0,1,89,46.47v.24h-.32c-2,0-3.41.44-3.41,2.21a1.86,1.86,0,0,0,1.94,1.9,2.08,2.08,0,0,0,1.81-1h0a3.09,3.09,0,0,0,.09.89h1.41a7.63,7.63,0,0,1-.09-1.15ZM89,47.91c0,1.16-.34,1.85-1.27,1.85a.94.94,0,0,1-1-1c0-1,.8-1.23,2.13-1.23H89Zm6.25-3.78a1.9,1.9,0,0,0-1.73,1.1h0c0-.33,0-.67,0-1H92a8.44,8.44,0,0,1,0,1.07v5.42h1.57V46.94c0-.83.29-1.53,1.1-1.53.65,0,.9.42.9,1.42v3.89h1.56V46.54C97.19,45.23,96.75,44.13,95.28,44.13Zm19.37,5.1h0l-1.32-5h-1.61l2,6.49h1.83l2-6.49H116Zm6.29-5.1c-1.65,0-2.67,1.5-2.67,3.44,0,1.75.91,3.25,3,3.25a4.81,4.81,0,0,0,1.94-.42l-.08-1.23a2.6,2.6,0,0,1-1.7.5c-1.2,0-1.65-.67-1.65-1.77h3.76v-.31C123.54,45,122.34,44.13,120.94,44.13Zm-1.16,2.78c0-.85.35-1.72,1.16-1.72s1.09.58,1.09,1.72Zm6.58-1.5h0c0-.39,0-.79,0-1.18h-1.41a8.44,8.44,0,0,1,0,1.07v5.42h1.56V47.17c0-1.21.71-1.6,1.35-1.6a1.46,1.46,0,0,1,.44.06V44.17a2,2,0,0,0-.26,0A1.81,1.81,0,0,0,126.36,45.41Zm-39.9-9.17v-8.8H84.13L82.28,34h0l-1.81-6.57H78v8.8H79.5V28.91h0l2.11,7.33h1.14L85,28.91h0v7.33ZM100,35.13V26.79H98.4v3.89h0a1.73,1.73,0,0,0-1.67-1c-1.4,0-2.24,1.23-2.24,3.35,0,1.8.67,3.34,2.28,3.34a1.75,1.75,0,0,0,1.72-1.11h0c0,.44,0,.82,0,1H100A8.08,8.08,0,0,1,100,35.13Zm-2.79.06c-.91,0-1.15-.76-1.15-2.25,0-1.3.3-2.15,1.17-2.15s1.21.93,1.21,2.18S98.08,35.19,97.17,35.19Zm-4.27-.5a2.62,2.62,0,0,1-1.7.5c-1.21,0-1.65-.67-1.65-1.77H93.3v-.31c0-2.64-1.2-3.46-2.59-3.46-1.65,0-2.67,1.5-2.67,3.44,0,1.75.9,3.25,3,3.25A4.81,4.81,0,0,0,93,35.92Zm-2.19-4c.7,0,1.08.58,1.08,1.72H89.55C89.55,31.58,89.89,30.71,90.71,30.71ZM103.26,27h-1.61v1.54h1.61Zm0,9.25V29.75h-1.56v6.49ZM109,35.05h-2.81l2.72-4V29.75h-4.25v1.18h2.69l-2.77,4v1.35H109ZM111.91,27h-1.62v1.54h1.62Zm0,9.25V29.75h-1.56v6.49Zm1.69,0h1.56V32.46c0-.84.29-1.53,1.1-1.53.65,0,.9.42.9,1.41v3.9h1.56V32.05c0-1.3-.44-2.4-1.91-2.4a1.9,1.9,0,0,0-1.73,1.1h0c0-.33,0-.67,0-1h-1.46c0,.29,0,.67,0,1.07ZM122,27h-1.61v1.54H122Zm0,9.25V29.75h-1.57v6.49Zm21.57-6.59c-1.65,0-2.67,1.5-2.67,3.44,0,1.75.91,3.25,3,3.25a4.81,4.81,0,0,0,1.94-.42l-.08-1.23a2.6,2.6,0,0,1-1.7.5c-1.21,0-1.65-.67-1.65-1.77h3.76v-.31C146.11,30.47,144.91,29.65,143.51,29.65Zm-1.16,2.78c0-.85.34-1.72,1.16-1.72s1.08.58,1.08,1.72Zm-10.27,2.72c-1.19,0-1.77-.93-1.77-2.14,0-1.39.51-2.18,1.7-2.18a2.5,2.5,0,0,1,1.09.32l.09-1.24a4.38,4.38,0,0,0-1.36-.26c-2.18,0-3.13,1.5-3.13,3.35s.9,3.34,3,3.34a4.39,4.39,0,0,0,1.54-.27l-.09-1.23A2.47,2.47,0,0,1,132.08,35.15Zm-7,0a4.17,4.17,0,0,1-1.62-.42L123.37,36a5.17,5.17,0,0,0,1.8.32c1.41,0,2.42-.72,2.42-1.92,0-.75-.4-1.12-1.21-1.63l-.77-.49c-.45-.29-.73-.49-.73-.84s.27-.63.89-.63a3.62,3.62,0,0,1,1.38.29l.09-1.2a5,5,0,0,0-1.63-.27,2.06,2.06,0,0,0-2.24,1.84c0,1,.72,1.43,1.37,1.82l.64.38c.57.33.7.57.7.82C126.08,35,125.64,35.15,125.07,35.15Zm12.5-5.5a1.76,1.76,0,0,0-1.61.93h0V26.79h-1.56v9.45h1.56V32.46c0-.84.29-1.53,1.11-1.53.64,0,.89.42.89,1.41v3.9h1.57V32.05C139.49,30.75,139,29.65,137.57,29.65ZM155.28,31h-2.6V27.44h-1.61v8.8h1.61V32.36h2.6v3.88h1.62v-8.8h-1.62Zm30.87,4.13c-1.2,0-1.77-.93-1.77-2.14,0-1.39.51-2.18,1.7-2.18a2.46,2.46,0,0,1,1.09.32l.09-1.24a4.38,4.38,0,0,0-1.36-.26c-2.18,0-3.14,1.5-3.14,3.35s.91,3.34,3.05,3.34a4.44,4.44,0,0,0,1.54-.27l-.09-1.23A2.47,2.47,0,0,1,186.15,35.15Zm5.49-5.5a1.76,1.76,0,0,0-1.61.93h0V26.79h-1.56v9.45H190V32.46c0-.84.29-1.53,1.11-1.53.64,0,.89.42.89,1.41v3.9h1.56V32.05C193.55,30.75,193.11,29.65,191.64,29.65Zm-11.19,3.14-.77-.49c-.45-.29-.73-.49-.73-.84s.26-.63.9-.63a3.61,3.61,0,0,1,1.37.29l.08-1.2a4.82,4.82,0,0,0-1.62-.27,2.06,2.06,0,0,0-2.24,1.84c0,1,.71,1.43,1.37,1.82l.64.38c.57.33.69.57.69.82,0,.5-.43.64-1,.64a4.24,4.24,0,0,1-1.63-.42L177.44,36a5.07,5.07,0,0,0,1.8.32c1.41,0,2.42-.72,2.42-1.92C181.66,33.67,181.25,33.3,180.45,32.79Zm-11.7,2.36c-1.19,0-1.77-.93-1.77-2.14,0-1.39.52-2.18,1.7-2.18a2.42,2.42,0,0,1,1.09.32l.09-1.24a4.38,4.38,0,0,0-1.36-.26c-2.18,0-3.13,1.5-3.13,3.35s.9,3.34,3,3.34a4.35,4.35,0,0,0,1.54-.27l-.09-1.23A2.47,2.47,0,0,1,168.75,35.15Zm-7.41-5.5c-1.32,0-2.86.69-2.86,3.34s1.54,3.35,2.86,3.35,2.85-.63,2.85-3.35S162.66,29.65,161.34,29.65Zm0,5.58c-1,0-1.25-1.16-1.25-2.24s.24-2.23,1.25-2.23,1.23,1.14,1.23,2.23S162.35,35.23,161.34,35.23Zm38.87-5.48h-1.56v3.71c0,.84-.24,1.59-1.07,1.59-.66,0-.93-.41-.93-1.41V29.75h-1.57v4.18c0,1.31.45,2.41,1.92,2.41a1.88,1.88,0,0,0,1.72-1.1h0c0,.33,0,.67.05,1h1.46c0-.29,0-.67,0-1.08Zm-26-.1a1.76,1.76,0,0,0-1.61.93h0V26.79H171v9.45h1.56V32.46c0-.84.29-1.53,1.11-1.53.64,0,.89.42.89,1.41v3.9h1.57V32.05C176.16,30.75,175.71,29.65,174.24,29.65Zm27.65,6.59h1.57V26.79h-1.57Zm8.34-3.13c0-2.64-1.2-3.46-2.59-3.46-1.65,0-2.67,1.5-2.67,3.44,0,1.75.9,3.25,3,3.25a4.81,4.81,0,0,0,1.94-.42l-.07-1.23a2.62,2.62,0,0,1-1.7.5c-1.21,0-1.65-.67-1.65-1.77h3.75Zm-3.75-.68c0-.85.34-1.72,1.16-1.72s1.08.58,1.08,1.72Z" transform="translate(-0.23 -0.18)"/></svg>