<svg xmlns="http://www.w3.org/2000/svg" width="103.77" height="65.03" viewBox="0 0 103.77 65.03"><path fill="#333" d="M78.41,35.82a5.47,5.47,0,0,0,2,1.18,10.53,10.53,0,0,0,6,0,5.36,5.36,0,0,0,2-1.18A4.53,4.53,0,0,0,89.69,34a7,7,0,0,0,.38-2.28V21.67a.78.78,0,0,0-.28-.7,4.69,4.69,0,0,0-3.08,0,.56.56,0,0,0-.22.26,1.62,1.62,0,0,0,0,.44v10a3.8,3.8,0,0,1-.21,1.21,1.88,1.88,0,0,1-.9,1,3.68,3.68,0,0,1-1.86.42,4.1,4.1,0,0,1-1.3-.2,2.42,2.42,0,0,1-.93-.54,2.08,2.08,0,0,1-.52-.85,3.25,3.25,0,0,1-.16-1.08v-10a.87.87,0,0,0-.26-.7,2.82,2.82,0,0,0-1.54-.26,2.73,2.73,0,0,0-1.56.26.54.54,0,0,0-.21.26,1.62,1.62,0,0,0,0,.44V31.75A7,7,0,0,0,77.42,34,4.57,4.57,0,0,0,78.41,35.82Zm15.8,1.11a3.07,3.07,0,0,0,1.55.26,3,3,0,0,0,1.53-.26.58.58,0,0,0,.21-.28,1.09,1.09,0,0,0,0-.44V21.67a1.09,1.09,0,0,0,0-.44.49.49,0,0,0-.21-.26,2.6,2.6,0,0,0-1.53-.26,2.68,2.68,0,0,0-1.55.26.47.47,0,0,0-.2.26.82.82,0,0,0,0,.44V36.21A.89.89,0,0,0,94.21,36.93ZM60.55,23.7a1.65,1.65,0,0,0,.73.11h4v12.4a.84.84,0,0,0,.27.72,3.11,3.11,0,0,0,1.56.26,2.94,2.94,0,0,0,1.52-.26.58.58,0,0,0,.21-.28,1.09,1.09,0,0,0,0-.44V23.81H72.5a2.13,2.13,0,0,0,.66-.08.79.79,0,0,0,.39-.33,2.86,2.86,0,0,0,.24-.9,5.51,5.51,0,0,0,.1-.91,3.09,3.09,0,0,0,0-.43.55.55,0,0,0-.2-.25,1.14,1.14,0,0,0-.26-.09H61.69a2.46,2.46,0,0,0-.65.08.65.65,0,0,0-.39.34,2.32,2.32,0,0,0-.26.78,5.66,5.66,0,0,0-.09,1,1.62,1.62,0,0,0,0,.44A.43.43,0,0,0,60.55,23.7ZM2.75,18.5,6,18.26c5.33,32.87,32.49,30.4,40.54,5.79,1.09-3.33.78-4.51-1.52-5.09-1.69-.41-2.2.19-3.75,3.5-9.33,19.95-26.48,13.92-29.42-4.63l4-.28c2.21-.16,2.38-1.54,2-3.5a2.28,2.28,0,0,0-2.37-2.18l-.23,0H2.61c-1.69,0-2.6.87-2.6,3.32,0,1.23.1,3.46,2.74,3.27ZM48.71,0a4.72,4.72,0,1,0,4.71,4.73h0A4.73,4.73,0,0,0,48.71,0ZM24.24,54.65a.57.57,0,0,0-.49-.62h0a.47.47,0,0,0-.53.4v0c0,.37.35.52.64.55a.37.37,0,0,0,.39-.34ZM91,48a.8.8,0,0,0-.77.8h0a.44.44,0,0,0,.37.49.8.8,0,0,0,.75-.79C91.31,48.17,91.16,48,91,48ZM23,56.92c-.19,0-.32.1-.44.41A14.79,14.79,0,0,0,22,59.49c0,.26,0,.51.35.52s.31-.12.37-.4c.17-.68.39-1.56.51-2.23C23.25,57.08,23.2,56.93,23,56.92Zm6.86-1.85c-1.3,0-2.43,1.69-2.48,2.6a1.6,1.6,0,0,0,1.68,1.62c.43,0,.71-.06.74-.28a.27.27,0,0,0-.22-.3h0c-.8-.1-1.3-.23-1.38-.9a2.21,2.21,0,0,1,1.54-2.08c.18,0,0,.3,0,.54a.29.29,0,0,0,.26.31h0c.3,0,.45-.44.47-.67S30.33,55.08,29.9,55.07Zm-3.82,0a1.17,1.17,0,0,0-1.3,1c-.06.78.7,1.83.64,2.68a.5.5,0,0,1-.51.47c-.32,0-.43-.37-.69-.39a.39.39,0,0,0-.4.37v0c0,.46.46.62.85.65a1.3,1.3,0,0,0,1.47-1.11s0-.06,0-.09c.06-.78-.65-1.81-.59-2.6a.28.28,0,0,1,.29-.26h0c.25,0,.29.23.51.26a.38.38,0,0,0,.35-.39c.08-.3-.14-.62-.61-.66ZM50.87,53.5a19.89,19.89,0,0,1-3.42.67c-.29,0-.35-.24-.64-.26s-.32,0-.4.38c-.18,1-.83,3.21-1,4.11,0,.26,0,.3.26.31s.4-.31.45-.55c.24-.76.65-2.15.91-2.82.17-.43.29-.5.48-.56.74-.2,2.45-.24,3.29-.5.31-.09.47-.22.48-.41a.45.45,0,0,0-.34-.42Zm28.75-3c-1.07-.09-1.74.49-1.8,1.18-.09,1.16,1.69,1.78,1.63,2.6,0,.53-.89.84-1.46.8-.32,0-.62-.09-.61-.28a2.42,2.42,0,0,0,.12-.35.28.28,0,0,0-.25-.3h0a.72.72,0,0,0-.73.69c0,.56.52.84,1.22.89,1,.08,2.38-.42,2.46-1.44s-1.76-1.82-1.69-2.6c0-.36.48-.6,1-.54s.44.41.73.44a.31.31,0,0,0,.32-.3s0,0,0,0a.94.94,0,0,0-1-.8Zm-39,4.16a.24.24,0,0,0-.18-.29h0c-.3,0-.3.43-.77,1.06a13.74,13.74,0,0,1-2.37,2.79c-.11.07-.19,0-.18-.19a22.75,22.75,0,0,1,.2-2.6,6.51,6.51,0,0,0,.19-.79c0-.1,0-.41-.27-.4s-.43.18-.73.34a6.13,6.13,0,0,1-2,.49c-.16,0-.33-.19-.54-.22s-.44.08-.46.27c0,.63.63.67.58,1.3,0,.85-.84,2.28-1.81,2.2-.46,0-.65-.59-.61-1a1.94,1.94,0,0,1,.57-1.38c.26-.2.83,0,.87-.55a.43.43,0,0,0-.39-.46h0c-.76,0-1.72,1.3-1.81,2.49A1.45,1.45,0,0,0,32,59.28c1.09.08,2-1.09,2.39-2.07a4.15,4.15,0,0,0,.25-1.15c0-.22.06-.33.22-.38a5.2,5.2,0,0,1,1.3-.35c.13,0,.25,0,.27.26a28,28,0,0,1-.08,3c-.07.48,0,.58.33.59.6.14,2.26-1.3,3.61-3.69a1.78,1.78,0,0,0,.37-.87Zm49.72-3.9a.73.73,0,0,0-.65.42,16.12,16.12,0,0,1-1.31,2.14c-.29.28-.36,0-.36-.26s.22-1.3.27-2-.34-.9-.59-.93-.44.11-.7.39c-.52.56-1.3,1.76-1.84,2.36-.12.11-.24.28-.3,0s-.16-1.77-.21-2.17-.18-.47-.38-.49a.87.87,0,0,0-.65.32,31.4,31.4,0,0,0-1.3,3c-.1.21-.14.18-.13,0,0-.45.41-2.27.43-2.6s-.08-.37-.23-.37c-.51,0-.76,2.14-.87,3.62-.07,1,0,1.3.15,1.3a.55.55,0,0,0,.54-.36c.58-1.22,1.37-3.16,1.67-3.69.09-.12.19-.08.21,0,.12.43.17,1.45.27,2.3a.47.47,0,0,0,.38.5c.16,0,.34-.16.52-.41.63-.81,1.24-1.63,1.81-2.32.18-.15.37-.16.35.1,0,.58-.16,1.54-.14,2.24,0,.46.16.73.49.76a1.24,1.24,0,0,0,.92-.57c.37-.54.81-1.3,1.09-1.75s.38-.22.39.13c0,.71,0,1.93.51,2a.43.43,0,0,0,.48-.37h0a15.31,15.31,0,0,1-.27-2.13c-.13-.18.09-1-.51-1.09Zm-76,2.83a32,32,0,0,0-11.56,1.2c-.51.15-.72.31-.73.57a.29.29,0,0,0,.24.34h.07a4.45,4.45,0,0,0,1.3-.34A31.89,31.89,0,0,1,14.2,54.16a8.1,8.1,0,0,1,1.62.29c.37.13.37.19.26.56a38,38,0,0,1-2.27,5.39c-.39.75-.43.79-1,1a24.08,24.08,0,0,1-5.47.79c-.16,0-.57,0-.53-.43s.36-.49.66-.56.35-.08.35-.34-.11-.33-.37-.35A1.44,1.44,0,0,0,6,61.76a1,1,0,0,0,.88,1.18h.22A26.49,26.49,0,0,0,13,62.06c.26-.08.26,0,.1.35s.08.32.3.33c.52,0,.57-.39.73-.79a.67.67,0,0,1,.56-.46c4.52-1.3,6.6-2.88,6.7-4.29C21.55,55,17.56,53.8,14.37,53.55Zm6.14,3.72c-.09,1.22-2.6,2.6-5.36,3.35-.6.17-.57.13-.37-.34.55-1.41,1.44-3.57,2.15-5.2.13-.28.2-.35.72-.2C19,55.29,20.6,56.07,20.51,57.27ZM103.58,52c-.19,0-.29.19-.68.54a2.76,2.76,0,0,1-2.06.74,3.29,3.29,0,0,1-2.14-1.37.42.42,0,0,1,.13-.51,2.45,2.45,0,0,0,1-1.74.76.76,0,0,0-.59-.91l-.12,0a1.53,1.53,0,0,0-1.52,1.6,3.87,3.87,0,0,0,.09.9.64.64,0,0,1-.22.55,2.81,2.81,0,0,1-2.07,1c-.87,0-1.3-1-1.3-1.7,0-.45,0-.48.54-.94a4.67,4.67,0,0,0,1.88-2.91c0-.34,0-.95-.44-1-.89,0-2.07,1.45-2.73,3.69,0,.23-.09.32-.52.48a3.17,3.17,0,0,1-.86.15.34.34,0,0,0-.35.32.38.38,0,0,0,.34.42,2.22,2.22,0,0,0,.88-.24c.34-.12.47,0,.48.23.11,1,.6,2.21,1.86,2.3a3.2,3.2,0,0,0,2.6-1.3c.17-.22.27-.14.38,0a3.53,3.53,0,0,0,2.49,1.61,3.4,3.4,0,0,0,2.76-1,1.15,1.15,0,0,0,.39-.75.19.19,0,0,0-.17-.22Zm-8-5c.18,0,.23.22.1.7a1.85,1.85,0,0,1-.4.89c-.41.6-1,1.15-1.18,1.14s-.07,0-.07-.1C94.1,48.88,95.2,47,95.59,47Zm2.76,3.9c-.09,0-.12-.24-.09-.5,0-.51.41-1,.7-1s.2.14.19.32a1.69,1.69,0,0,1-.8,1.11ZM44.47,57.6c-.31,0-.52.38-.83.36a1.31,1.31,0,0,1-1.13-1.3.55.55,0,0,1,.25-.36,2.58,2.58,0,0,0,1.71-2,.67.67,0,0,0-.55-.76h-.08c-1.3-.1-2,1.3-2.2,2.21,0,.18-.26.3-.44.38s-1,.09-1,.53c0,.24.13.34.35.35a2,2,0,0,0,.84-.18c.22,0,.26,0,.35.18a2.28,2.28,0,0,0,1.82,1.52c.39,0,1.15-.11,1.19-.65A.34.34,0,0,0,44.47,57.6Zm-2-2a1.49,1.49,0,0,1,1.17-1.3.17.17,0,0,1,.16.18h0a1.75,1.75,0,0,1-1.23,1.21C42.46,55.73,42.42,55.71,42.42,55.62Zm31.67-3.76a14.83,14.83,0,0,1-2.28.45c-.37,0-.42-.26-.74-.28s-.6.22-.64.73A25.78,25.78,0,0,1,69.77,56a.39.39,0,0,0,.31.45h0c.47,0,.82-1.69,1-3.13,0-.32.13-.39.41-.39,1,0,2.85,0,2.9-.74C74.5,52,74.33,51.87,74.09,51.86ZM58.5,53.69c-.41,0-.6.68-.76,1a3.15,3.15,0,0,1-2.6,1.87.56.56,0,0,1-.45-.64,3.71,3.71,0,0,1,.69-1.68c.19-.24.62-.44.65-.81a.38.38,0,0,0-.32-.41h0C55,53,54.1,54.82,54,56.14a1.06,1.06,0,0,0,.91,1.2h0a3.46,3.46,0,0,0,1.79-.71.4.4,0,0,1,.21-.09v.12a2,2,0,0,1-.09.33,26.79,26.79,0,0,1-3.27,6.5c-.36.56-1.06.51-1.1,1,0,.27.18.47.53.49,1.11.08,3.06-4.12,5-9.1.19-.49.83-1.16.87-1.7a.43.43,0,0,0-.26-.52Zm10.39,1c0-.28.19-.57.21-.92s0-.76-.27-.78-1.13.86-1.68,1.3c-.8.65-1.3,1.06-1.87,1-.22,0-.32-.15-.3-.44,0-.65.9-1.39.94-1.94a.71.71,0,0,0-.66-.76h-.07c-1.7.22-3.7.06-3.78.93,0,.42.47,1.3.43,1.9a1.38,1.38,0,0,1-1.42,1.3c-.38,0-.9-.21-.86-.69s.17-.55.39-.53.35.1.57.11.39-.13.42-.44-.39-.43-.58-.44a1.3,1.3,0,0,0-1.45,1.13,1,1,0,0,0,0,.17,1.32,1.32,0,0,0,1.44,1.3,1.92,1.92,0,0,0,2.08-1.73V55a16.82,16.82,0,0,0-.26-1.87c0-.42,1.52-.46,2.6-.44.2,0,.29.09.27.24a16.45,16.45,0,0,0-.74,2.18.85.85,0,0,0,.71,1l.18,0c1,0,1.75-1.08,2.42-1.56a1,1,0,0,1,.27-.19c.51-.33.18,1.46.89,1.51a.55.55,0,0,0,.62-.47c.09-.49-.49-.1-.37-.79Z" transform="translate(-0.01 0.01)"/></svg>