<svg xmlns="http://www.w3.org/2000/svg" width="200" height="34.81" viewBox="0 0 200 34.81"><path fill="#333" d="M67.79,15.36c0-2.39-1-3.82-4.53-3.82a11.88,11.88,0,0,0-3.93.68l.24,2.36a7.2,7.2,0,0,1,3.25-.86c1.59,0,2.14.6,2.14,1.75v.59c-3.73,0-6.34,1.39-6.34,4,0,1.77,1.15,2.9,3.13,2.9a3.72,3.72,0,0,0,3.52-2.1l0,0a12.32,12.32,0,0,0-.11,1.86h2.67c0-.91-.06-2-.06-2.83ZM65,18.16a2.53,2.53,0,0,1-2.34,2.65,1.16,1.16,0,0,1-1.31-1.17c0-.88.67-1.74,3.65-1.74Zm14-2.8c0-2.39-1-3.82-4.53-3.82a11.92,11.92,0,0,0-3.93.68l.24,2.36A7.2,7.2,0,0,1,74,13.72c1.59,0,2.14.6,2.14,1.75v.59c-3.73,0-6.34,1.39-6.34,4,0,1.77,1.15,2.9,3.14,2.9a3.72,3.72,0,0,0,3.51-2.1l0,0a12.32,12.32,0,0,0-.11,1.86H79c0-.91-.06-2-.06-2.83Zm-2.83,2.8a2.53,2.53,0,0,1-2.34,2.65,1.15,1.15,0,0,1-1.3-1.17c0-.88.66-1.74,3.64-1.74Zm-50.15,2C28.53,15,29.62,12,30.07,9.51s-.41-8.2-6-8.2H24c-3.33,0-6.18,2.28-8.43,5.1a9,9,0,0,0-1.07-3.47C13.26.8,10.2.09,7.92.09A8.28,8.28,0,0,0,6.21.25C5.25.35.05,1.22,0,9.39v.22a26.66,26.66,0,0,0,.55,5,14.89,14.89,0,0,0,2.29,6.13v0S8.14,31,17.75,29A41.75,41.75,0,0,0,17,34.4l4.69.51A29.18,29.18,0,0,1,23.07,27,34.26,34.26,0,0,0,30,22.81l.53-4.47a39.77,39.77,0,0,1-5.35,3.49C25.4,21.29,25.67,20.75,25.94,20.19Zm-4-1.43a47.74,47.74,0,0,0-2.81,5.69c-3.9,1.22-8.25,1.61-12.11-.34C7,24,0,3.34,6.36.25,8,.07,12.79.87,10.11,16.8h0l4.39-1.24c4-11.12,9.41-12.81,11.74-13,.61.94.91,2.58.29,5.42A41.18,41.18,0,0,1,21.93,18.76ZM23.64,1.32h0Zm27.8,6.53-2.56,7.71A20.44,20.44,0,0,0,48,18.65h0a22.65,22.65,0,0,0-.81-3.14l-2.5-7.66H41.32L39,22.76h2.91l.84-6.87c.18-1.31.33-2.48.42-3.8h0a22.91,22.91,0,0,0,1,3.75l2.27,6.92h2.85l2.36-7.49a30,30,0,0,0,.82-3.18h0c.12,1,.25,2.14.47,3.55l1.06,7.12h3L54.78,7.85Zm42.65-.2-2.83.75v3.38H89.39V14h1.9v5.56c0,2.56.75,3.45,3.18,3.45a9.51,9.51,0,0,0,2.29-.29V20.41a4.94,4.94,0,0,1-1.37.18c-1,0-1.3-.4-1.3-1.81V14h2.67V11.78H94.09ZM83.86,14.8c0-.68.53-1.12,1.64-1.12a7.54,7.54,0,0,1,2,.29l.09-2.24a12.64,12.64,0,0,0-2-.19c-3.09,0-4.66,1.59-4.66,3.51,0,3.73,4.44,2.63,4.44,4.57,0,.73-.71,1.17-1.79,1.17a9.47,9.47,0,0,1-2.36-.33l-.07,2.32a15.15,15.15,0,0,0,2.3.2c3,0,4.9-1.46,4.9-3.63C88.37,15.8,83.86,16.59,83.86,14.8Zm71.79,2.35c0,2.54-.93,3.46-3.14,3.46-2.47,0-3.09-1.32-3.09-3.2V7.85h-2.87v9.74c0,2.85,1.06,5.41,5.76,5.41,3.94,0,6.19-1.94,6.19-6V7.85h-2.85Zm-18-9.5-2.83.75v3.38h-1.88V14h1.9v5.56c0,2.56.75,3.45,3.18,3.45a9.59,9.59,0,0,0,2.3-.29V20.41a5,5,0,0,1-1.37.18c-1,0-1.3-.4-1.3-1.81V14h2.67V11.78h-2.67Zm34.63.2-2.56,7.71a20.44,20.44,0,0,0-.84,3.09h0a24.21,24.21,0,0,0-.82-3.14l-2.5-7.66h-3.36l-2.29,14.91h2.91l.84-6.87c.18-1.31.33-2.48.42-3.8h.05a22.91,22.91,0,0,0,.95,3.75l2.27,6.92h2.85l2.36-7.49a30,30,0,0,0,.82-3.18h0c.11,1,.24,2.14.46,3.55l1.06,7.12h3L175.62,7.85Zm14.25,12.5c-3,0-4.35-1.81-4.35-5.06,0-2.89,1.37-5,4.15-5a10.52,10.52,0,0,1,3,.44l.31-2.61a12.61,12.61,0,0,0-3.16-.39c-5,0-7.46,3.31-7.46,8,0,3.71,1.68,7.17,6.89,7.17a11.48,11.48,0,0,0,3.84-.66l-.33-2.56A8,8,0,0,1,186.53,20.35ZM101.58,14h0a13.76,13.76,0,0,0,.2-2.21H99.06v11h2.83V18.27c0-3,1-4.37,3-3.95l.13-2.78A3.33,3.33,0,0,0,101.58,14Zm95.19,0V10.76h-2.48V14h-3.23v2.19h3.23v3.32h2.48V16.23H200V14ZM106.9,22.76h2.83v-11H106.9Zm1.42-15.82a1.71,1.71,0,1,0,0,3.42,1.71,1.71,0,1,0,0-3.42Zm19.9,4.6a3.86,3.86,0,0,0-3.6,2.05l-.05,0a10.4,10.4,0,0,0,.2-2.23V6.63h-2.83V22.76h2.83V17.45c0-1.92,1.13-3.55,2.56-3.55,1,0,1.35.68,1.35,1.83v7h2.81V15.05C131.49,13.13,130.69,11.54,128.22,11.54Zm-10.87,9c-1.88,0-2.61-1.28-2.61-3.16,0-2.07.91-3.4,2.7-3.4a5.88,5.88,0,0,1,2,.4l.28-2.45a8.43,8.43,0,0,0-2.25-.31c-3.89,0-5.68,2.63-5.68,6,0,3.73,1.9,5.32,5,5.32a8.92,8.92,0,0,0,3-.5L119.51,20A4.89,4.89,0,0,1,117.35,20.5Z" transform="translate(0 -0.09)"/></svg>