<svg xmlns="http://www.w3.org/2000/svg" width="138" height="30.18" viewBox="0 0 138 30.18"><path d="M8.39,23.36a10.32,10.32,0,0,0,4.66.55c2-.28,3.23-.49,6.89-3.22,0,0,.16.14.15.15a11.83,11.83,0,0,1-6.92,6c-.19.06-.23.28-.17.51H33.55c.07-.23,0-.45-.16-.51a11.8,11.8,0,0,1-6.92-6s.11-.17.14-.15c3.67,2.73,4.88,2.94,6.9,3.22a10.33,10.33,0,0,0,4.66-.55A7.8,7.8,0,0,0,43.3,18.5a7,7,0,0,0,0-4.37,6.21,6.21,0,0,0-1.77-2.68,12.49,12.49,0,0,0-5.44-2.54c-1.12-.29-2.22-.51-3.32-.73h0C27.16,7,25.89,6.87,23.28,2.35,20.67,6.87,19.39,7,13.76,8.19h0c-1.1.22-2.21.44-3.32.73A12.49,12.49,0,0,0,5,11.45a6.12,6.12,0,0,0-1.77,2.68,7,7,0,0,0,0,4.37A7.8,7.8,0,0,0,8.39,23.36ZM76.51,10.41c-2.68,0-3.15,2.2-3.15,5.29S73.83,21,76.51,21s3.15-2.22,3.15-5.32S79.19,10.41,76.51,10.41ZM0,0V30.18H138V0ZM45.69,29.31H.87V.87H45.69Zm17.08-7.57a15.5,15.5,0,0,1-4.44-.7V17.55h1.51c.18,2.21.66,3.37,3.09,3.37a2.57,2.57,0,0,0,2.8-2.59,2.13,2.13,0,0,0-1.46-2.18c-2.59-.91-5.94-1-5.94-4.62,0-3,2.85-4,5.42-4a14.64,14.64,0,0,1,4.15.66v3.11H66.46c-.1-1.74-.68-2.91-2.63-2.91-1.54,0-2.67.71-2.67,2.35,0,2.07,2.45,2.21,4,2.69,2.15.68,3.51,1.38,3.51,3.91C68.62,20.68,65.68,21.74,62.77,21.74Zm13.74,0c-4.17,0-5.85-1.93-5.87-6s1.71-6,5.87-6,5.85,1.93,5.86,6S80.68,21.72,76.51,21.72ZM96.37,17c-1.46-.07-1.23.84-1.23,1.36V21a16.94,16.94,0,0,0-3.41.62,10.06,10.06,0,0,1-1.56.1c-3.85,0-5.66-1.95-5.66-5.77,0-4.37,1.79-6.25,6.21-6.25a19.09,19.09,0,0,1,4.12.49v2.89H93.65c-.32-2.12-.54-2.67-2.93-2.67-3.17,0-3.54,3-3.54,5.58,0,2.28.5,5,3.36,5a2.75,2.75,0,0,0,2-.74c.12-.15.12-.34.12-2,0-1.08.29-1.45-2-1.36v-.69c1.33,0,2.29,0,3.25,0l2.45,0Zm10.51-4.27h-1.23c-.2-1.78-.2-2-2.47-2h-1.65V15h1c1,0,1.21-.68,1.27-1.62h.92c0,.66,0,1.31,0,2s0,1.33,0,2h-.92c-.09-.91-.22-1.58-1.27-1.63h-1v5.11h1.87c2,0,2-.55,2.25-2.45h1.23v3.22H97.68v-.69c1.63,0,1.36-.38,1.4-1.36V12c0-1,.23-1.38-1.4-1.38V9.92h9.2ZM119,13h-1.23c-.25-1.9-.27-2.29-2.13-2.29h-.73v8.84c0,1.2-.13,1.36,1.73,1.36v.69h-5.91v-.69c1.87,0,1.73-.16,1.73-1.36V10.69h-.72c-1.87,0-1.88.39-2.14,2.29h-1.22V9.92H119Zm6.94-2.37c-1.88,0-1.62.25-1.65,1.36v7.56c0,1.11-.23,1.36,1.65,1.36v.69h-5.75v-.69c1.88,0,1.61-.25,1.65-1.36V12c0-1.11.23-1.36-1.65-1.36V9.92h5.75Z" fill="#333" fill-rule="evenodd"/></svg>
