<svg xmlns="http://www.w3.org/2000/svg" width="156" height="39" viewBox="0 0 156 39"><path d="M29.93,23.35c-3.9,0-6.46,2.62-6.46,6.58,0,4.21,2.19,6.34,6.52,6.34a4.91,4.91,0,0,0,3.47-1.16l-.42-1a8.18,8.18,0,0,1-2.87.67c-3.17,0-5-1.89-5-5.12s1.7-5.12,4.63-5.12a2.7,2.7,0,0,1,2.8,2.13h.85V24l-.24-.06A7.75,7.75,0,0,0,29.93,23.35ZM6.83,14.27a1,1,0,0,1-.73,1l-1.22.3a4.08,4.08,0,0,0,.07.92h9.56l.18-2.87-.79-.18a2.26,2.26,0,0,1-2.13,1.77l-3.35.06-.06-3.66v-6c0-.61.18-.67.73-.67l.85-.24a3.6,3.6,0,0,0-.06-.8H5.19a3,3,0,0,0-.06.73L6.35,5A1.35,1.35,0,0,1,6.9,6.11v5.54ZM19.51,20H39V.5H19.51ZM22.92,3.85h4.75a1.76,1.76,0,0,1,0,.79l-1,.25a.48.48,0,0,0-.43.55V12a3.1,3.1,0,0,0,3.29,3.35c1.89,0,3.17-1,3.17-3.84V6.11a1.14,1.14,0,0,0-1-1.22l-.79-.25V3.91h4.63a3,3,0,0,1,.06.73l-.79.43c-.24.06-.42.18-.42.73v6a4.65,4.65,0,0,1-4.94,4.94c-2.38,0-4.94-.91-4.94-4.45V5.92A.89.89,0,0,0,24,5l-1.1-.43A3.3,3.3,0,0,1,22.92,3.85ZM0,39.5h19.5V20H0Zm2.62-4.45.61-.3a1.89,1.89,0,0,0,.85-1.28l.79-7.74a1.07,1.07,0,0,0-.42-1l-1-.3a3.25,3.25,0,0,1,.06-.73H6.65l3,7.74h.18l3.47-7.74h3a2.5,2.5,0,0,1,.06.67l-.79.3a1.25,1.25,0,0,0-.61,1.4l.61,7.8a1.25,1.25,0,0,0,.61.92l.73.42c-.18-.06-.18.43-.3.61H12.56c0-.24-.06-.55-.06-.73l.73-.24c.55-.19.61-.67.61-1.22a2.54,2.54,0,0,0-.06-.67l-.18-5.79-.06-.91h-.12L9.94,33.59H8.85l-3-7.29v.77L5.19,34c-.06.31,0,.49.18.55L7,35a3.25,3.25,0,0,1-.06.79H2.63A3,3,0,0,1,2.63,35.05Zm3.11-8.9.06.15v-.15Zm108.64-.42c-1.77,0-2.92,1.52-2.92,3.47,0,2.68,1.15,3.23,3.16,3.23a4.72,4.72,0,0,0,2.14-.49l-.19-.67a7.57,7.57,0,0,1-1.64.19c-1.34,0-2.32-.25-2.38-2.38l4.27.06v-.3C116.82,27,116.15,25.73,114.38,25.73Zm-1.83,2.74c.12-1.4.86-2.13,1.77-2.13s1.34.73,1.34,2.13Zm11.82,3c-.18,0-.18,0-.18-.19L124.13,29V27.8c0-1.28-.18-2.19-1.95-2.19a4.17,4.17,0,0,0-2.38.91v-.24c0-.37-.12-.43-.42-.43a14.06,14.06,0,0,0-1.77.24v.55h1.22v4.21c0,.24-.18.67-.43.73l-.55.24c-.06.06,0,.31,0,.49H121a1.72,1.72,0,0,0,.06-.55l-1-.18c-.19-.06-.19-.12-.19-.31V27.13a4,4,0,0,1,2-.55c1.22,0,1.41.43,1.41,1.46v2.75a.78.78,0,0,1-.31.67l-.3.24c-.06.12,0,.36,0,.55h2.86c0-.12,0-.49-.12-.61Zm17.86,0V26.22c0-.37-.19-.43-.49-.43A14.06,14.06,0,0,0,140,26v.55h1.22V29l-.06,1.64a3.23,3.23,0,0,1-1.89.92c-1,0-1-.67-1-1.4v-4c0-.36-.19-.42-.49-.42A13,13,0,0,0,136,26v.55h1v4c0,1.16.18,1.95,1.89,1.95a2.8,2.8,0,0,0,2.19-1c.12.73.49.91.91.91a3.32,3.32,0,0,0,1.65-.49l-.18-.42ZM129,31.52c-.79,0-1.21-.13-1.21-1v-4H130v-.79h-2.19V24.45h-.19l-1.89,1.7v.43h1v4c-.06,1.46.61,1.89,2.13,1.89a3.4,3.4,0,0,0,1.4-.24l-.18-.86A2.9,2.9,0,0,1,129,31.52Zm4.09-4.94v-.49c0-.36-.19-.42-.49-.42a14.06,14.06,0,0,0-1.77.24v.55h1.22v4a1,1,0,0,1-.43.91l-.54.31c0,.06.06.3.06.49h3.41a1.75,1.75,0,0,0,.06-.55l-1.22-.19c-.18,0-.18-.12-.18-.3l-.06-2.19V27.13a2.43,2.43,0,0,1,1.7-.49,2.22,2.22,0,0,1,.74.18l.18-1.15c-.12,0-.37-.06-.79-.06A2.29,2.29,0,0,0,133.09,26.58Zm-67.94-.85c-1.77,0-2.93,1.52-2.93,3.47,0,2.68,1.16,3.23,3.17,3.23a4.68,4.68,0,0,0,2.13-.49l-.18-.67a7.72,7.72,0,0,1-1.64.19c-1.35,0-2.32-.25-2.38-2.38l4.26.06v-.3C67.58,27,66.91,25.73,65.15,25.73Zm-1.83,2.74c.12-1.4.85-2.13,1.77-2.13s1.34.73,1.34,2.13Zm92.37,3.29-.91-.18c-.24,0-.24,0-.24-.25l-.07-2.19V27.92c0-1.28-.18-2.19-1.95-2.19a4.21,4.21,0,0,0-2.37.79c-.18-.49-.67-.79-1.71-.79a3.93,3.93,0,0,0-2.25.91v-.18c0-.37-.19-.43-.49-.43a14,14,0,0,0-1.77.25v.54h1.22V31a.69.69,0,0,1-.49.73l-.48.24a1.75,1.75,0,0,0,.06.49h3.11a3,3,0,0,0,.06-.67l-1-.18c-.18,0-.18-.12-.18-.31l-.06-2.13V27.25a3.89,3.89,0,0,1,1.89-.55c1.22,0,1.28.43,1.28,1.47v2.92c-.06.18-.13.43-.31.49l-.43.24c0,.12.07.37.07.55h3a3,3,0,0,0,.06-.67l-1-.18c-.13,0-.19-.06-.19-.25v-4.2a4.24,4.24,0,0,1,1.89-.49c1.22,0,1.28.43,1.28,1.46v2.75c0,.36-.12.6-.3.67l-.43.24a2,2,0,0,0,.06.55h2.93A.3.3,0,0,0,155.69,31.76Zm-95.3-.85-.73-5.43a1,1,0,0,1,.43-1l.55-.18a1.35,1.35,0,0,0-.06-.49H58.32l-2.25,5.85H56l-2.2-5.79H51.44c0,.18-.06.43-.06.49l.73.24a.52.52,0,0,1,.3.67l-.79,5.3a1.18,1.18,0,0,1-.67.92l-.37.18a1.4,1.4,0,0,0,.06.49h3.11a2.17,2.17,0,0,0,.06-.55l-1.22-.25c-.18,0-.18-.18-.18-.42l.73-4.82v-.54h.06l2.2,6,.79-.25,2.25-5.66h.07v.67l.48,4v.49c0,.42-.06.73-.48.91l-.49.18a1.35,1.35,0,0,0,.06.49h3.11c0-.18.06-.43.06-.55l-.43-.42A.7.7,0,0,1,60.39,30.91ZM83,28.53c-.73-.3-1.46-.55-1.46-1.28,0-.36.42-.79,1.16-.79a1.4,1.4,0,0,1,1.46,1.22l.42.06.19-1.65a5.1,5.1,0,0,0-1.89-.42c-1.22,0-2.26.48-2.26,1.76a2.36,2.36,0,0,0,1.89,2.14c1,.42,1.53.67,1.53,1.22s-.67.91-1.41.91a1.57,1.57,0,0,1-1.52-1.65h-.55l-.06,1.89a5.19,5.19,0,0,0,2.13.43c1.22,0,2.56-.43,2.32-1.83C85,29.44,83.91,29,83,28.53Zm-4.51-4.87a.73.73,0,1,0-.73.73A.74.74,0,0,0,78.49,23.66Zm.06,7.8c-.12,0-.18-.07-.18-.25V26.09c0-.36-.18-.42-.49-.42a14.06,14.06,0,0,0-1.77.24v.55h1.22v4.39a.88.88,0,0,1-.42.67l-.73.24c-.07.06,0,.3,0,.49h3.41a1.06,1.06,0,0,0,0-.61Zm10.6-5c.61,0,1.22.61,1.53.91a.91.91,0,0,0,.55-1c0-.79-1.41-.79-2-.79A3.21,3.21,0,0,0,86.17,29c0,2.43.61,3.41,3,3.41a3.45,3.45,0,0,0,1.95-.49l-.18-.67a7.13,7.13,0,0,1-1.46.25c-1.77,0-2.19-1-2.19-2.5C87.27,27.13,87.87,26.46,89.15,26.46Zm9.57,4.81V27.86c0-1.28-.18-2.19-2-2.19a4.39,4.39,0,0,0-2.44.91V23.72c0-.37-.18-.43-.48-.43a14.06,14.06,0,0,0-1.77.24v.55H93.3v6.77c0,.36-.18.73-.43.79l-.55.24c-.06.06,0,.31,0,.49h3.35c.07-.06.07-.49.07-.55l-1.16-.18c-.25-.12-.25-.12-.25-.43l-.06-2.13V27.13a4,4,0,0,1,2-.55c1.22,0,1.41.43,1.41,1.46v2.68c0,.43-.13.67-.31.74l-.49.24c-.06.12,0,.36,0,.55h2.93c0-.12,0-.55.06-.55L99,31.52C98.78,31.52,98.72,31.46,98.72,31.27ZM74,31.39,74,29V23.6c0-.37-.18-.43-.49-.43a13.88,13.88,0,0,0-1.76.24V24H73v1.89a3.63,3.63,0,0,0-1.28-.18c-1.71,0-3.11,1.4-3.11,3.59,0,2.44,1.28,3.11,2.5,3.11a2.43,2.43,0,0,0,1.89-1c0,.43.12,1,.67,1a4.38,4.38,0,0,0,1.7-.49l-.06-.49Zm-1-2.49L73,30.79a3.28,3.28,0,0,1-1.47.48c-1.09,0-1.76-.48-1.76-2s.36-2.86,1.89-2.86a6.1,6.1,0,0,1,1.4.18Zm35-5.12a4.07,4.07,0,0,0-4.32,4.39c0,2.74,1.46,4.2,4.39,4.2a3.53,3.53,0,0,0,2.31-.67l-.3-.73a4.87,4.87,0,0,1-1.89.42A3.06,3.06,0,0,1,104.94,28c0-2.19,1.15-3.41,3.1-3.41A1.82,1.82,0,0,1,109.93,26h.55V24.27l-.18-.07A4.69,4.69,0,0,0,108.1,23.78ZM51.68,16.1l-.73.24c0,.13.06.37.06.55h6l.25-2-.55-.06A1.64,1.64,0,0,1,55.28,16l-2,.06-.06-2.44v-4c0-.42.18-.42.48-.49L54.3,9c0-.06-.06-.3-.06-.49H51.13a1.79,1.79,0,0,0-.06.49l.73.25c.25.06.31.42.31.73v5.42C52.11,15.67,52,16,51.68,16.1Zm9.38,1a4.86,4.86,0,0,0,2.14-.49L63,15.92a7.56,7.56,0,0,1-1.64.18c-1.34,0-2.32-.24-2.38-2.38,0,0,4.27,0,4.27.06v-.3c0-1.89-.67-3.11-2.44-3.11S57.9,11.9,57.9,13.85C57.9,16.53,59.05,17.08,61.06,17.08ZM60.82,11c1,0,1.28.73,1.4,2H59.11C59.18,11.71,59.91,11,60.82,11ZM66.55,16V10.92c0-.36-.18-.43-.49-.43a14,14,0,0,0-1.77.25v.55h1.22v4.2a.88.88,0,0,1-.42.67l-.74.24V17h3.36a1.66,1.66,0,0,0,.06-.54l-1-.19C66.61,16.28,66.55,16.22,66.55,16Zm4.51,1A2.42,2.42,0,0,0,73,16c0,.43.12,1,.67,1a3.2,3.2,0,0,0,1.58-.48L75.14,16H73.92l-.06-2.38V8.3c0-.36-.18-.43-.49-.43a13.54,13.54,0,0,0-1.76.25v.49h1.21v1.88a3.59,3.59,0,0,0-1.28-.18c-1.58,0-3,1.4-3,3.6C68.56,16.34,69.84,17,71.06,17Zm.61-5.91a6,6,0,0,1,1.4.19v2.43L73,15.49a3.29,3.29,0,0,1-1.47.49c-1.09,0-1.76-.49-1.76-2S70.14,11.1,71.67,11.1ZM78.74,13c-.74-.3-1.47-.55-1.47-1.28,0-.36.43-.79,1.16-.79a1.4,1.4,0,0,1,1.46,1.22l.43.06.18-1.52a4.92,4.92,0,0,0-1.89-.43c-1.22,0-2.37.49-2.37,1.71a2.33,2.33,0,0,0,1.89,2.13c1,.43,1.52.67,1.52,1.22s-.67.91-1.4.91a1.47,1.47,0,0,1-1.53-1.52h-.54l-.07,1.89a5.38,5.38,0,0,0,2.14.42c1.22,0,2.43-.42,2.43-2C80.68,13.91,79.65,13.42,78.74,13ZM92.32,9.7c0-.42.12-.42.31-.49l.55-.06V8.67H90.07v.48l.49.19c.61.12.67.36.67.79v3.72c0,1.82-.92,2.49-2.2,2.49a2,2,0,0,1-2.19-2.25V9.7c0-.24.06-.36.3-.42l.67-.19V8.54H84.65a1.54,1.54,0,0,0-.07.49l.74.25a1.13,1.13,0,0,1,.3.67v4.2c0,2.44,1.71,3,3.35,3a3.15,3.15,0,0,0,3.35-3.36Zm8.23,6.52c-.18,0-.18,0-.18-.18l-.06-2.26V12.57c0-1.28-.19-2.2-2-2.2a4.1,4.1,0,0,0-2.38.92V11c0-.36-.12-.42-.43-.42a13.64,13.64,0,0,0-1.76.24v.55H95v4.2c0,.18-.18.61-.42.67l-.55.25c-.06.06,0,.3,0,.48H97.2a1.69,1.69,0,0,0,.06-.55l-1-.18c-.18-.06-.18-.12-.18-.3V11.77A3.94,3.94,0,0,1,98,11.23c1.1,0,1.28.42,1.28,1.46v2.74a.77.77,0,0,1-.31.67l-.3.24a1.68,1.68,0,0,0,0,.55h2.86c.06-.12.06-.49,0-.49Zm2.56-.06-.73.24V17h3.35a1.66,1.66,0,0,0,.06-.54l-1-.19c-.12,0-.18-.06-.18-.24V10.92c0-.36-.18-.43-.49-.43a13.54,13.54,0,0,0-1.76.25v.55h1.21v4.2A.88.88,0,0,1,103.11,16.16Zm3.78-4.45,2.19,5.55.79-.25,2-5.05a2,2,0,0,1,.73-1v-.49h-2.13a1.57,1.57,0,0,0-.06.55l.3.19c.25.06.31.24.31.48,0,.06,0,.25-.06.31l-1.46,3.71L108,11.1h.79a2.15,2.15,0,0,0,.07-.67h-2.62V11C106.46,11.16,106.83,11.47,106.89,11.71Zm9.2,5.37a4.85,4.85,0,0,0,2.13-.49l-.18-.67a7.72,7.72,0,0,1-1.65.18c-1.34,0-2.31-.24-2.37-2.38,0,0,4.2,0,4.26.06v-.3c0-1.89-.67-3.11-2.44-3.11s-2.92,1.53-2.92,3.48C112.92,16.53,114.08,17.08,116.09,17.08Zm-.37-6.1c1,0,1.4.73,1.4,2H114C114.08,11.71,114.81,11,115.72,11Zm4.63,4a1,1,0,0,1-.42.92l-.55.3c0,.06.06.31.06.49h3.41a1.72,1.72,0,0,0,.06-.55L121.69,16c-.18,0-.18-.12-.18-.31l-.06-2.13V11.77a2.49,2.49,0,0,1,1.71-.48,2.22,2.22,0,0,1,.73.18l.18-1.22c-.12,0-.37-.06-.79-.06a2.31,2.31,0,0,0-1.89,1v-.48c0-.37-.18-.43-.49-.43a14.06,14.06,0,0,0-1.77.24V11h1.22Zm8.78-.06c0-1.09-1-1.58-1.95-2-.73-.3-1.47-.55-1.47-1.28,0-.36.43-.79,1.16-.79a1.4,1.4,0,0,1,1.46,1.22l.43.06.18-1.52a4.88,4.88,0,0,0-1.89-.43c-1.21,0-2.25.55-2.25,1.77a2.34,2.34,0,0,0,1.89,2.13c1,.43,1.52.67,1.52,1.22s-.67.91-1.4.91a1.47,1.47,0,0,1-1.52-1.52h-.55l-.06,1.89a5.37,5.37,0,0,0,2.13.42C128,17,129.25,16.59,129.13,14.94Zm2,1.22-.73.24V17h3.35a1.66,1.66,0,0,0,.06-.54l-1-.19c-.12,0-.18-.06-.18-.24V10.92c0-.36-.18-.43-.49-.43a14,14,0,0,0-1.77.25v.55h1.22v4.2A.88.88,0,0,1,131.08,16.16Zm4.44-1c0,1.46.61,1.89,2.14,1.89a3.46,3.46,0,0,0,1.4-.25l-.18-.85a3.21,3.21,0,0,1-1,.18c-.79,0-1.22-.12-1.22-1v-3.9h2.19v-.8h-2.19V9.15h-.18l-1.89,1.71v.43h1Zm10.36,1.34-.06-.49h-1.28l-.06-2.38V12c0-1.71-1.46-1.71-2.37-1.71a6.16,6.16,0,0,0-2,.43l.19.67a4,4,0,0,1,1.52-.25c1.16,0,1.65.25,1.65,1.22v1s-.8.12-1.53.18c-1.09.12-2.25.73-2.25,2a1.38,1.38,0,0,0,1.52,1.53,3.26,3.26,0,0,0,2.26-1c0,.43.12,1,.91,1A4.94,4.94,0,0,0,145.88,16.53Zm-2.43-1a4.91,4.91,0,0,1-1.77.55c-.67,0-.92-.43-.92-.73,0-.61.43-1,1.22-1.16a7.64,7.64,0,0,1,1.47-.24Zm4.26,0a.87.87,0,0,1-.43.67l-.73.24a2.07,2.07,0,0,1,0,.61h3.35c.07-.06.07-.48.07-.54l-1-.19c-.12,0-.18-.06-.18-.24V10.92c0-.36-.19-.43-.49-.43a14,14,0,0,0-1.77.25v.55h1.22Zm4.21-.49a1,1,0,0,1-.43.92l-.55.3c0,.06.06.31.06.49h3.41a1.72,1.72,0,0,0,.06-.55L153.26,16c-.19,0-.19-.12-.19-.31L153,13.54V11.77a2.53,2.53,0,0,1,1.71-.48,2.16,2.16,0,0,1,.73.18l.18-1.22c-.12,0-.36-.06-.79-.06a2.34,2.34,0,0,0-1.89,1v-.48c0-.37-.18-.43-.49-.43a13.88,13.88,0,0,0-1.76.24V11h1.22ZM66,9.28a.8.8,0,1,0-.79-.8A.79.79,0,0,0,66,9.28Zm38,0a.8.8,0,1,0-.79-.8A.79.79,0,0,0,104,9.28Zm28,0a.8.8,0,1,0-.79-.8A.79.79,0,0,0,132,9.28Zm16.27,0a.8.8,0,1,0-.79-.8A.79.79,0,0,0,148.26,9.28Z" transform="translate(-0.01 -0.5)" fill="#333"/></svg>
