<svg xmlns="http://www.w3.org/2000/svg" width="203.53" height="35.41" viewBox="0 0 203.53 35.41"><path d="M56.17,11a4.66,4.66,0,0,0-1.49-.53,12.75,12.75,0,0,0-1.63-.11H50.34V23.47h1.53V17.56h1.21a11,11,0,0,0,1.62-.12,5.24,5.24,0,0,0,1.49-.5,2.94,2.94,0,0,0,1.11-1.13,3.54,3.54,0,0,0,.41-1.89A3.86,3.86,0,0,0,57.27,12,2.6,2.6,0,0,0,56.17,11Zm-.38,4.29a1.74,1.74,0,0,1-.7.79,2.88,2.88,0,0,1-1,.35,7.89,7.89,0,0,1-1.08.1H51.82V11.36H53a7.85,7.85,0,0,1,1.08.08,2.31,2.31,0,0,1,1,.35,1.69,1.69,0,0,1,.7.75,2.84,2.84,0,0,1,.26,1.32A3.16,3.16,0,0,1,55.79,15.25Zm9.94-.47A2.39,2.39,0,0,0,63,14.45a3.34,3.34,0,0,0-.88.75,6.07,6.07,0,0,0-.58.85c-.14.29-.27.54-.34.74h0V10.32H59.8V23.47h1.36v-4a6,6,0,0,1,.68-2.7,3.09,3.09,0,0,1,.83-1,1.85,1.85,0,0,1,1.08-.41,1.1,1.1,0,0,1,1.09.62A3.15,3.15,0,0,1,65,17.39v6H66.4V16.78a3.84,3.84,0,0,0-.16-1.12A2.29,2.29,0,0,0,65.73,14.78Zm7.06-.58A3.24,3.24,0,0,0,70,15.5,6.08,6.08,0,0,0,69.07,19q0,4.56,3.73,4.65T76.61,19a6,6,0,0,0-.93-3.53A3.29,3.29,0,0,0,72.79,14.2ZM75,20.47a6.43,6.43,0,0,1-.35,1.21,2.21,2.21,0,0,1-.69.88,2,2,0,0,1-1.2.35,1.77,1.77,0,0,1-1.11-.35,2.06,2.06,0,0,1-.61-.88,7.09,7.09,0,0,1-.41-2.62,8,8,0,0,1,.41-2.79,2.1,2.1,0,0,1,.67-1,1.73,1.73,0,0,1,1.11-.37,1.86,1.86,0,0,1,1.2.37,2.25,2.25,0,0,1,.69,1,7.22,7.22,0,0,1,.35,1.31,15.18,15.18,0,0,1,.07,1.52A12.87,12.87,0,0,1,75,20.47ZM85.24,17a3.44,3.44,0,0,0-.35-1.21,2.49,2.49,0,0,0-.9-1.08,3.27,3.27,0,0,0-1.83-.46,3.1,3.1,0,0,0-2.73,1.21,5.39,5.39,0,0,0-.83,3.22q.09,5,4.33,5a6.13,6.13,0,0,0,1.21-.12,3.75,3.75,0,0,0,1-.25v-.79a2.49,2.49,0,0,0-.69.17,3.16,3.16,0,0,1-.92.08,2.67,2.67,0,0,1-1.6-.5,3.46,3.46,0,0,1-1-1.21,5.27,5.27,0,0,1-.52-1.6,7.66,7.66,0,0,1-.17-1.59h5.1a6.92,6.92,0,0,0,0-.91ZM80.16,17a2.59,2.59,0,0,1,.37-1.21,2,2,0,0,1,.58-.59,1.71,1.71,0,0,1,.94-.24,2.19,2.19,0,0,1,1,.18,1.79,1.79,0,0,1,.53.53,2.34,2.34,0,0,1,.26.68c0,.22,0,.45,0,.67Zm13.15-2.58a2.09,2.09,0,0,0-1-.2,2.72,2.72,0,0,0-2,.77,5.35,5.35,0,0,0-1.2,1.66h0V14.45H87.81v9.07h1.37V19.58a6.26,6.26,0,0,1,.66-2.79,3.24,3.24,0,0,1,.83-1,2.1,2.1,0,0,1,1.21-.41,1.3,1.3,0,0,1,.72.19,1.33,1.33,0,0,1,.35.55,6.4,6.4,0,0,1,.15,1.51v5.87h1.36V16.57A3.19,3.19,0,0,0,93.94,15a2,2,0,0,0-.65-.59Zm4.47,9.07h1.35V14.45H97.78ZM97.68,12h1.55V10.32H97.68Zm10.84,2.41H107.1l-2,3.13-2-3.13h-1.64l2.83,4.25L101,23.52h1.49l2.35-3.69,2.41,3.69h1.64l-3.21-4.75ZM120,10.16a4,4,0,0,0-3.68,2.09,9.59,9.59,0,0,0-1.11,4.81,9.09,9.09,0,0,0,1.16,4.62,4,4,0,0,0,3.67,2.06,3.87,3.87,0,0,0,3.61-2.06,9.78,9.78,0,0,0,1-4.63,10.32,10.32,0,0,0-1-4.82,3.85,3.85,0,0,0-3.61-2.08Zm2.41,10.67a3.54,3.54,0,0,1-.94,1.38,2.35,2.35,0,0,1-1.59.55,2.2,2.2,0,0,1-1.53-.55,3.77,3.77,0,0,1-.94-1.38A8.58,8.58,0,0,1,117,19a12.69,12.69,0,0,1-.13-1.85,13.14,13.14,0,0,1,.56-4.08,3.68,3.68,0,0,1,.94-1.42,2.25,2.25,0,0,1,1.53-.53,2.41,2.41,0,0,1,1.59.53,3.47,3.47,0,0,1,.94,1.42,12.56,12.56,0,0,1,.59,4.08,10.86,10.86,0,0,1-.59,3.62Zm8.85-6.64a2.24,2.24,0,0,0-1,.19,3.44,3.44,0,0,0-1.2,1.15,5.89,5.89,0,0,0-.29.63h0V14.45h-1.35v13.1h1.38V21.87h0a4.32,4.32,0,0,0,.65,1.12,2.91,2.91,0,0,0,.69.47,2.41,2.41,0,0,0,1,.23,2.71,2.71,0,0,0,2.41-1.37,6.89,6.89,0,0,0,.73-3.27,7.37,7.37,0,0,0-.68-3.52,2.56,2.56,0,0,0-2.41-1.33Zm1.48,6.13a5,5,0,0,1-.28,1.2,2.07,2.07,0,0,1-.57.88,1.31,1.31,0,0,1-1,.37,1.24,1.24,0,0,1-1-.43,3,3,0,0,1-.67-1,8,8,0,0,1-.47-2.41,5.12,5.12,0,0,1,.62-2.57,3.06,3.06,0,0,1,.68-.88,1.23,1.23,0,0,1,.84-.31,1.59,1.59,0,0,1,1.44,1.11,7.35,7.35,0,0,1,.46,2.83,10.67,10.67,0,0,1-.09,1.26ZM137,23.47h1.46V10.32h-1.36ZM147.59,17a3.68,3.68,0,0,0-.36-1.21,2.35,2.35,0,0,0-.9-1.09,3.29,3.29,0,0,0-1.83-.46,3.13,3.13,0,0,0-2.74,1.26,5.58,5.58,0,0,0-.82,3.23c0,3.34,1.51,5,4.34,5a4.84,4.84,0,0,0,1.2-.12c.33-.06.66-.14,1-.23v-.83a2.49,2.49,0,0,0-.69.17,3.09,3.09,0,0,1-.91.08,2.66,2.66,0,0,1-1.68-.5,3.57,3.57,0,0,1-1-1.21,5,5,0,0,1-.51-1.6,7.67,7.67,0,0,1-.18-1.59h5.17V17ZM142.5,17a2.85,2.85,0,0,1,.37-1.21,1.92,1.92,0,0,1,.59-.58,1.64,1.64,0,0,1,.94-.25,2.12,2.12,0,0,1,1,.19,1.55,1.55,0,0,1,.55.53,2.31,2.31,0,0,1,.25.68q0,.33,0,.66Zm7.72,6.45h1.36v-9h-1.36ZM150.16,12h1.59V10.32h-1.56Zm9.55,4h0a3.43,3.43,0,0,0-.64-1.15,3,3,0,0,0-.68-.49A2.83,2.83,0,0,0,155,15.6a7,7,0,0,0-.76,3.37,7.76,7.76,0,0,0,.62,3.26,2.4,2.4,0,0,0,2.4,1.47,3.12,3.12,0,0,0,1.08-.23,2.39,2.39,0,0,0,.68-.59,3.51,3.51,0,0,0,.5-.65,3.76,3.76,0,0,0,.23-.55h0v1.74h1.37V10.32h-1.36Zm-.62,5.57a1.93,1.93,0,0,1-1.66,1.21,1.11,1.11,0,0,1-.84-.35,2.42,2.42,0,0,1-.54-.84,7.34,7.34,0,0,1-.38-2.5,7.8,7.8,0,0,1,.42-2.71,2.72,2.72,0,0,1,.58-.91,1.43,1.43,0,0,1,.88-.33,1.59,1.59,0,0,1,1.06.4,3.16,3.16,0,0,1,.64,1.05,6.2,6.2,0,0,1,.47,2.21,6,6,0,0,1-.63,2.83ZM164.31,12h1.54V10.32h-1.54Zm.09,11.46h1.38v-9h-1.36Zm10-9a2.25,2.25,0,0,0-1-.2,2.66,2.66,0,0,0-2,.78,5.29,5.29,0,0,0-1.21,1.65h0V14.45H168.9v9.07h1.36V19.58a6.44,6.44,0,0,1,.67-2.79,3,3,0,0,1,.83-1,2.1,2.1,0,0,1,1.21-.41,1.3,1.3,0,0,1,.72.19,1.33,1.33,0,0,1,.35.55,5.1,5.1,0,0,1,.14,1.51v5.87h1.36V16.57a3,3,0,0,0-.45-1.58,2,2,0,0,0-.63-.59Zm9.31,1.72h0a4.23,4.23,0,0,0-.65-1.2,1.94,1.94,0,0,0-.7-.54,2.47,2.47,0,0,0-1.07-.18A2.57,2.57,0,0,0,179,15.56a6,6,0,0,0-.77,3.23,6.56,6.56,0,0,0,.74,3.28,2.64,2.64,0,0,0,2.41,1.45,2.53,2.53,0,0,0,1.75-.7,2.21,2.21,0,0,0,.44-.61,1.65,1.65,0,0,0,.2-.52h0v1.79q0,.38,0,.75a3.58,3.58,0,0,1-.27,1,2,2,0,0,1-.7.91,2.41,2.41,0,0,1-1.41.39,3.56,3.56,0,0,1-1.36-.28,11.11,11.11,0,0,1-1.2-.59v1.56a7.17,7.17,0,0,0,2.3.35c2.67,0,4-1.32,4-4V14.45h-1.36Zm-.49,5.21a2.59,2.59,0,0,1-.63.88,1.48,1.48,0,0,1-1,.36,1.17,1.17,0,0,1-.88-.39,2.69,2.69,0,0,1-.63-.93,8.13,8.13,0,0,1-.31-1.2,7.26,7.26,0,0,1,.3-3.67,2.47,2.47,0,0,1,.61-.92,1.39,1.39,0,0,1,.88-.35,1.56,1.56,0,0,1,1,.33,2.37,2.37,0,0,1,.66.91,6.54,6.54,0,0,1,0,5ZM194.38,17a3.62,3.62,0,0,0-.36-1.2,2.35,2.35,0,0,0-.89-1.08,3.24,3.24,0,0,0-1.82-.46,3.1,3.1,0,0,0-2.73,1.2,5.5,5.5,0,0,0-.84,3.23c.07,3.35,1.51,5,4.34,5a6,6,0,0,0,1.2-.12,3.53,3.53,0,0,0,1-.24v-.83l-.69.17a3.12,3.12,0,0,1-.91.08,2.63,2.63,0,0,1-1.67-.5,3.54,3.54,0,0,1-1-1.21,5,5,0,0,1-.52-1.6,7.66,7.66,0,0,1-.17-1.59h5.16V17Zm-5.09.06a2.59,2.59,0,0,1,.37-1.2,1.85,1.85,0,0,1,.59-.59,1.56,1.56,0,0,1,.94-.24,2,2,0,0,1,1,.18,1.39,1.39,0,0,1,.54.45,2,2,0,0,1,.26.67c0,.22,0,.45,0,.67Zm13.8-2a2.16,2.16,0,0,0-.65-.59,2,2,0,0,0-1-.2,2.69,2.69,0,0,0-2,.78,5.63,5.63,0,0,0-1.21,1.65h0V14.45H196.9v9.07h1.36V19.58a6.14,6.14,0,0,1,.67-2.79,3,3,0,0,1,.83-1,2.1,2.1,0,0,1,1.21-.41,1.3,1.3,0,0,1,.72.19,1.24,1.24,0,0,1,.35.55,5.1,5.1,0,0,1,.14,1.51v5.87h1.35V16.57A2.94,2.94,0,0,0,203.1,15ZM19,11.48A5.27,5.27,0,0,0,15.87,10a13.42,13.42,0,0,1,6.36.31A5,5,0,0,0,20,7.91a38.33,38.33,0,0,1,4.12.52c-.42-.42-1.48-1.59-5.37-2.18a7.06,7.06,0,0,1,4.16-.43,21.48,21.48,0,0,0-6-1.47,6,6,0,0,1,5-.39,17.73,17.73,0,0,0-7.71-1.7A9.67,9.67,0,0,1,19.44,1.2c-4.61-2-9-1.73-13.9,2.82,0,0,7.14-1.95,9.84,1.77A23.23,23.23,0,0,0,1.85,9.15,10.46,10.46,0,0,1,9.36,9C3.19,11.09,0,15.66,0,17.11H0c5.93-7.42,18.07-6.18,19-5.65ZM25.11,32c.94-1.35,2.71-6,2.23-8.36a23,23,0,0,1-6.69,7,18.14,18.14,0,0,0,2.91-8c-1.45,2-5.62,4.65-7.3,5.47,2-1.83,4.82-6,5-8.21a24.59,24.59,0,0,1-7.86,4.82,27.61,27.61,0,0,0,5.84-6,7.2,7.2,0,0,1-5.55.45,8.36,8.36,0,0,0,4.35-1.88,4.56,4.56,0,0,0-3.51-1.26,4,4,0,0,1,3.1-.73A18.83,18.83,0,0,0,0,18.06c7-3.36,12.27-.88,12.27-.88a15.94,15.94,0,0,1-11.34,6,17.87,17.87,0,0,0,11.2,0c-1.89,3.46-5.35,5.19-7.64,6.14,3.47.47,4.89.95,9.93-.24-1.73,2.68-5.74,3.61-5.74,3.61C11.36,35,18.92,35,23.79,31.32a15.17,15.17,0,0,1-5.46,4.09,18.79,18.79,0,0,0,8.17-2.09c-.2.11,6.72-3.19,4.55-9.63A16.29,16.29,0,0,1,25.11,32Zm2-30.47c.45.55,3.92,8.58-3.61,9.86.78.93,3.06,3,4.17,1.93.91-.93-.44-2.59.18-3.76A1.33,1.33,0,0,1,29.7,9l.13.09c.68.41,4.9,3.3,4.93,3.29A36.19,36.19,0,0,0,31.34,11c-2.05-.64-1.76.72-1.7,1.2.12,1,.31,2.9-1.06,3.14,8.32,1.47,5.94,8.07,4.82,11.45a18.24,18.24,0,0,0-6.27-25.3Zm2.41,8.25a.46.46,0,1,0-.46.46h0A.46.46,0,0,0,29.54,9.73Z" transform="translate(0 0)" fill="#333"/></svg>
