<svg xmlns="http://www.w3.org/2000/svg" width="210" height="53.69" viewBox="0 0 210 53.69"><path d="M111.26,15.16h4.47a1,1,0,0,0,0-2.07h-3.45V1.1a1,1,0,0,0-1-1,1,1,0,0,0-1,1v13A1,1,0,0,0,111.26,15.16ZM9.31,11.73c0-.07.12,0,.16-.07s0-.05,0-.07-.2-.12-.3,0,0,0,0,0S9.21,11.74,9.31,11.73Zm5.32-5h0a2.11,2.11,0,0,0-.7-.29,2.33,2.33,0,0,0-2.85,2,2.38,2.38,0,0,0,.09.87,2.3,2.3,0,0,0,1.77,1.58l.26,0h.16l.22,0a2.36,2.36,0,0,0,1-.3,2.33,2.33,0,0,0,1.11-1.52A2.29,2.29,0,0,0,14.63,6.74ZM13.9,7l0-.23a2.37,2.37,0,0,1,.69.32,3.2,3.2,0,0,1,.27.25,1.69,1.69,0,0,0-.63.27l0,0a.35.35,0,0,0-.11.08L14,7.82v0l-.05,0,0,0-.05,0a2,2,0,0,0,0-.29A1.87,1.87,0,0,0,13.9,7ZM13.26,7a1.55,1.55,0,0,1,0-.21h.17a2,2,0,0,1,.06.37v.32a1.23,1.23,0,0,1,0,.2h-.24a5.43,5.43,0,0,1,0-.58Zm-1.18.31,0,0,0,0,0,0a1.92,1.92,0,0,1,.72-.35v.13a2.34,2.34,0,0,0,0,.79l-.12.07-.27-.19A2.62,2.62,0,0,0,12,7.35Zm-.35.39a2.31,2.31,0,0,1,.79.42,1.74,1.74,0,0,0-.1.19h0a2.34,2.34,0,0,1-.76-.44A.65.65,0,0,1,11.73,7.65Zm-.28,1.19V8.6c0-.07,0-.13,0-.18a.11.11,0,0,0,0-.05.43.43,0,0,0,0-.11l0-.06a3,3,0,0,0,.7.37l0,0,.06,0a.34.34,0,0,1,0,.1,3,3,0,0,0-.81.42A2.47,2.47,0,0,1,11.45,8.84Zm.28.85a.56.56,0,0,1-.09-.17,2.23,2.23,0,0,1,.76-.44l.06.11,0,.08A2.15,2.15,0,0,1,11.73,9.69Zm1.12.55v0a.31.31,0,0,0,0,.09.37.37,0,0,0,0,.11v0a1.9,1.9,0,0,1-.59-.28A2.45,2.45,0,0,1,12,10l.09,0,.08,0a1.49,1.49,0,0,0,.36-.19l.23-.17,0,0,.05,0,.06,0,0,.28c0,.06,0,.12,0,.18A.92.92,0,0,0,12.85,10.24Zm.64.34h-.24a2.31,2.31,0,0,1,0-.87h.25A2.09,2.09,0,0,1,13.49,10.58Zm.07-1.25a.68.68,0,0,1-.79-.95A.71.71,0,0,1,13.32,8h0a.71.71,0,0,1,.69.4.7.7,0,0,1,.05.43A.68.68,0,0,1,13.56,9.33Zm.34,1.17h0a1.83,1.83,0,0,0,0-.21,1.74,1.74,0,0,0,0-.32V9.7a.28.28,0,0,0,0-.09l0,0L14,9.54h0a2.28,2.28,0,0,0,.75.43h0A1.85,1.85,0,0,1,13.9,10.5ZM15,9.68h0a2.53,2.53,0,0,1-.77-.42l0,0s0-.07.06-.1l0,0a2.06,2.06,0,0,1,.78.42A.58.58,0,0,1,15,9.68Zm.27-1.34v.07a2,2,0,0,1,0,.24v.08s0,.06,0,.16,0,.1,0,.17l0,0a2.86,2.86,0,0,0-.82-.41v0h0a2.85,2.85,0,0,0,.64-.3l.17-.12ZM15,8a2.23,2.23,0,0,1-.66.32l0-.09a.34.34,0,0,0-.06-.12h0A2.24,2.24,0,0,1,15,7.66l.06.08.05.13Zm-1.33.47,0,0h0a.45.45,0,0,0-.29-.1h0a.41.41,0,0,0-.31.26.38.38,0,0,0,.1.41.4.4,0,0,0,.25.1h0a.4.4,0,0,0,.29-.15.39.39,0,0,0,.06-.36A.54.54,0,0,0,13.69,8.44ZM39.8,15.21a1,1,0,0,0,1.29-.71s.26-1,.65-2.42h3.9c.39,1.42.65,2.42.66,2.42a1,1,0,0,0,.5.63,1,1,0,0,0,.76.08,1.1,1.1,0,0,0,.65-.5,1,1,0,0,0,.08-.76L44.69.83a1,1,0,0,0-2,0L39.09,14A1,1,0,0,0,39.8,15.21Zm3.84-10,0-.17,1.37,5H42.32C42.76,8.39,43.25,6.61,43.64,5.16Zm19.72,10h2.7a3.75,3.75,0,0,0,3.72-3.75V3.9A3.74,3.74,0,0,0,66.06.15h-2.7a1,1,0,0,0-1,1V14.12A1,1,0,0,0,63.36,15.16Zm1-12.94h1.67A1.67,1.67,0,0,1,67.72,3.9v7.51a1.65,1.65,0,0,1-1.66,1.68H64.39ZM51.58,21.63a.49.49,0,0,0-.49.49v9a.5.5,0,0,0,1,0v-9A.49.49,0,0,0,51.58,21.63Zm59.49.37a.5.5,0,0,0-1,0l-2.48,9a.48.48,0,0,0,.34.61.5.5,0,0,0,.62-.34s.2-.76.5-1.82h3c.29,1.06.49,1.82.49,1.82a.5.5,0,0,0,1-.27Zm-1.71,6.46c.42-1.54.92-3.34,1.23-4.47.31,1.13.81,2.93,1.23,4.47Zm9.55,2.11h-2.6V22.12a.5.5,0,0,0-.5-.49.49.49,0,0,0-.5.49v9a.49.49,0,0,0,.5.49h3.1a.49.49,0,0,0,.5-.49A.5.5,0,0,0,118.91,30.57ZM134.18,6.84h-2.24a1,1,0,0,0,0,2.07h1.21V11.5a1.65,1.65,0,0,1-1.66,1.68,1.68,1.68,0,0,1-1.67-1.68V3.81a1.67,1.67,0,0,1,1.25-1.62,1.64,1.64,0,0,1,1.85.78,1.12,1.12,0,0,0,.66.49,1,1,0,0,0,.75-.1,1,1,0,0,0,.49-.64,1,1,0,0,0-.1-.79A3.72,3.72,0,0,0,130.53.18a3.77,3.77,0,0,0-2.76,3.63V11.5a3.72,3.72,0,1,0,7.44,0V7.88A1,1,0,0,0,134.18,6.84Zm-9.77-4.62a1,1,0,0,0,1-1,1,1,0,0,0-1-1h-4.47a1,1,0,0,0-1,1V14.12a1,1,0,0,0,1,1h4.47a1,1,0,0,0,0-2.07H121V8.46h3a1,1,0,0,0,0-2.07h-3V2.22Zm.9,20a.56.56,0,0,0-.08-.27.48.48,0,0,0-.41-.22h-3.73a.5.5,0,1,0,0,1h3c-.5,1.18-3.43,8.2-3.43,8.2a.41.41,0,0,0,0,.19.63.63,0,0,0,.08.28.49.49,0,0,0,.42.21h3.73a.48.48,0,0,0,.49-.49.49.49,0,0,0-.49-.5h-3c.5-1.17,3.45-8.2,3.45-8.2A.58.58,0,0,0,125.31,22.18ZM16.33,8.59a.27.27,0,0,0,0-.12A4.32,4.32,0,0,0,16.25,8a2.92,2.92,0,0,0-2.86-2.22h-.14a3,3,0,0,0-1.51.51,2.9,2.9,0,0,0-1.06,1.29.87.87,0,0,0-.07.17c0,.06,0,.12,0,.18l-.06.24a.36.36,0,0,1,0,.1,1,1,0,0,0,0,.24,1.7,1.7,0,0,0,0,.32v.06a2.2,2.2,0,0,0,0,.37l0,.13a.24.24,0,0,1,0,.08.69.69,0,0,0,0,.13,2.65,2.65,0,0,0,.43.81,3,3,0,0,0,1.82,1.1,4.38,4.38,0,0,0,.51,0,2.92,2.92,0,0,0,2.48-1.34h0a.09.09,0,0,0,0-.06,2.78,2.78,0,0,0,.35-.87s0-.06,0-.09a.77.77,0,0,0,0-.15.3.3,0,0,0,0-.13v0a.32.32,0,0,0,0-.14.13.13,0,0,0,0-.06h0A.08.08,0,0,1,16.33,8.59ZM16,9a.47.47,0,0,0,0,.17.8.8,0,0,1,0,.15,2.52,2.52,0,0,1-1.14,1.52,2.13,2.13,0,0,1-.55.27,2.6,2.6,0,0,1-1.24.1,2.49,2.49,0,0,1-1.58-.87,2.57,2.57,0,0,1-.62-1.74c0-.09,0-.18,0-.28v0a2.57,2.57,0,0,1,1.81-2,2.84,2.84,0,0,1,.76-.1h.2a.21.21,0,0,1,.11,0h.11a3.46,3.46,0,0,1,.53.14,2.51,2.51,0,0,1,1.52,1.64l0,.11a1.94,1.94,0,0,1,.07.33A2.49,2.49,0,0,1,16,9ZM98.85,21.69H97a.49.49,0,0,0-.5.49v9a.5.5,0,1,0,1,0V27.28h1.36a2.36,2.36,0,0,0,2.36-2.36v-.87A2.35,2.35,0,0,0,98.85,21.69Zm1.37,3.23a1.36,1.36,0,0,1-1.37,1.36H97.49v-3.6h1.36a1.38,1.38,0,0,1,1.37,1.37ZM98.86,5.17V3.9A3.74,3.74,0,0,0,95.14.15H92.45a1,1,0,0,0-1,1v13a1,1,0,1,0,2.06,0V8.91h1.66A3.74,3.74,0,0,0,98.86,5.17Zm-2.06,0a1.66,1.66,0,0,1-1.66,1.67H93.48V2.22h1.66A1.69,1.69,0,0,1,96.8,3.9Zm9.82,16.52h-3.11a.51.51,0,0,0-.5.5v8.88a.5.5,0,0,0,.5.49.49.49,0,0,0,.5-.49V27h2.3a.5.5,0,0,0,0-1H104V22.68h2.61a.5.5,0,0,0,0-1ZM198.93,2.22a1,1,0,0,0,1-1,1,1,0,0,0-1-1h-4.48a1,1,0,0,0-1,1V14.12a1,1,0,0,0,1,1h4.48a1,1,0,0,0,0-2.07h-3.45V8.46h3a1,1,0,0,0,0-2.07h-3V2.22Zm-55.25,0a1,1,0,0,0,1-1,1,1,0,0,0-1-1H139.2a1,1,0,0,0-1,1V14.12a1,1,0,0,0,1,1h4.48a1,1,0,0,0,0-2.07h-3.45V8.46h3a1,1,0,0,0,0-2.07h-3V2.22ZM189.28.09a1,1,0,0,0-1.15.56l-2.67,5.7L182.79.63a1.05,1.05,0,0,0-1.15-.54,1,1,0,0,0-.81,1V14.21a1,1,0,0,0,1,1,1,1,0,0,0,1-1V5.74c.85,1.82,1.64,3.49,1.64,3.49a1,1,0,0,0,.93.59,1.08,1.08,0,0,0,.94-.59s.77-1.68,1.63-3.51v8.49a1,1,0,0,0,1,1,1,1,0,0,0,1-1V1.09A1,1,0,0,0,189.28.09ZM210,5.17V3.9A3.74,3.74,0,0,0,206.28.15h-2.69a1,1,0,0,0-1,1v13a1,1,0,1,0,2.06,0V8.91h1.31L208,14.56a1,1,0,0,0,.53.59,1,1,0,0,0,.79,0,1,1,0,0,0,.58-.53,1,1,0,0,0,0-.79l-2-5.34A3.78,3.78,0,0,0,210,5.17Zm-2.06,0a1.65,1.65,0,0,1-1.66,1.67h-1.66V2.22h1.66a1.67,1.67,0,0,1,1.66,1.68Zm-56.3,1.32L155,1.71a1,1,0,0,0-.23-1.46,1,1,0,0,0-1.44.24l-4,5.62v-5a1,1,0,0,0-2.06,0V14.21a1,1,0,1,0,2.06,0V9.67l.89-1.25,3,6.23a1,1,0,0,0,.58.55,1,1,0,0,0,.34.06,1,1,0,0,0,.45-.11,1.05,1.05,0,0,0,.48-1.39ZM162.27.83a1,1,0,0,0-1-.77,1.06,1.06,0,0,0-1,.77l-3.6,13.11a1,1,0,0,0,2,.56l.66-2.42h3.89c.39,1.42.66,2.42.66,2.42a1,1,0,0,0,.5.63,1,1,0,0,0,.48.12.9.9,0,0,0,.28,0,1,1,0,0,0,.65-.5,1,1,0,0,0,.08-.76ZM159.91,10c.4-1.49.85-3.12,1.22-4.49l.15-.53,1.37,5ZM176.69.09a1,1,0,0,0-1.16.56l-2.66,5.7L170.19.63a1,1,0,0,0-1.14-.54,1,1,0,0,0-.81,1V14.21a1,1,0,0,0,1,1,1,1,0,0,0,1-1V5.74l1.63,3.49a1,1,0,0,0,.94.59,1.06,1.06,0,0,0,.93-.59s.78-1.68,1.64-3.51v8.49a1,1,0,0,0,1,1,1,1,0,0,0,1-1V1.09A1,1,0,0,0,176.69.09ZM106.78,2.22a1,1,0,0,0,1-1,1,1,0,0,0-1-1h-4.47a1,1,0,0,0-1,1V14.12a1,1,0,0,0,1,1,1,1,0,0,0,1-1V8.46h3a1,1,0,0,0,0-2.07h-3V2.22ZM48.67,22.68a.5.5,0,0,0,0-1H45.56a.49.49,0,0,0-.5.49v8.89a.49.49,0,0,0,.5.49h3.11a.48.48,0,0,0,.49-.49.49.49,0,0,0-.49-.5H46.06V27h2.3a.5.5,0,0,0,0-1h-2.3V22.68Zm8.38-8a1.08,1.08,0,0,0,.91.57.85.85,0,0,0,.23,0,1,1,0,0,0,.81-1V1.09a1,1,0,0,0-2.06,0V9.68c-1.75-3.63-4.33-9-4.33-9A1.06,1.06,0,0,0,51.46.09a1,1,0,0,0-.81,1V14.21a1,1,0,1,0,2.06,0V5.63c1.74,3.64,4.33,9,4.33,9Zm-14.91,7a.49.49,0,0,0-.49.49V26H38.91V22.12a.48.48,0,0,0-.49-.49.49.49,0,0,0-.5.49v9a.5.5,0,0,0,.5.5.49.49,0,0,0,.49-.5V27h2.74v4.16a.5.5,0,1,0,1,0v-9A.49.49,0,0,0,42.14,21.63Zm51.62,5H90a.5.5,0,0,0,0,1h3.73a.5.5,0,0,0,0-1ZM17.6,1.49A.67.67,0,0,0,17.33,1h0a.67.67,0,0,0-.35.25l-.12.12-.16,0a.43.43,0,0,0-.43.18h0c0,.07.06.09.09.11h0a.24.24,0,0,1,.13.21s0,.06-.07.08a.17.17,0,0,1-.1,0s0-.06,0-.11a.25.25,0,0,0,0-.12v0h0c-.18,0-.28.15-.36.27l0,.07a.7.7,0,0,0-.53.36h0v0a.61.61,0,0,0,.26.34l0,.06a.28.28,0,0,0,0,.2V3h0a.26.26,0,0,0,.09,0h0l.19.06s.12.08.11.16a.33.33,0,0,1-.15.18.66.66,0,0,1-.68-.12A.28.28,0,0,1,15,3.05s.06-.06.13-.07h.08V3a.31.31,0,0,0-.11-.31.8.8,0,0,0-.26-.56l0,0a.1.1,0,0,0-.1,0,.71.71,0,0,0-.31.31s0,0-.09,0a.15.15,0,0,0-.11,0c-.06,0-.17.13-.16.24v0h0a.29.29,0,0,1,.13.12v.1a.3.3,0,0,1-.2.17c-.2,0-.44,0-.54-.15s0-.13,0-.17.13,0,.22,0h0a.31.31,0,0,0,.11-.25v0a.85.85,0,0,0,.33-.35h0a.73.73,0,0,0-.32-.47.44.44,0,0,0,0-.2h0s0,0,0,0-.07-.09-.13,0h0a.15.15,0,0,1-.13.1h0l-.06,0h0a.12.12,0,0,1,0-.1c0-.05.08-.05.15,0h.1V1.16a.44.44,0,0,0-.26-.34.71.71,0,0,0-.35-.51h0a1,1,0,0,0-.45.41s0,0-.06,0a.21.21,0,0,0-.08,0,.46.46,0,0,0-.39.27V1l0,.05h0a.25.25,0,0,1,.24,0,.22.22,0,0,1,0,.14l0,0s-.05.06-.07.06h0c-.07,0-.14,0-.2-.09l0,0,0,0a.64.64,0,0,0-.16.33h0a.89.89,0,0,0-.41.21h0a1,1,0,0,0,.19.46l0,0a.27.27,0,0,0-.09.27v0h0l.12,0a.28.28,0,0,1,.2,0,.2.2,0,0,1,.09.13l0,.08a.51.51,0,0,1-.4.19h0c-.16,0-.26-.07-.29-.17a.2.2,0,0,1,0-.21h0l.06,0s.07,0,.09,0a.08.08,0,0,0,0-.07.26.26,0,0,0-.17-.18.06.06,0,0,0-.05,0h0A1.18,1.18,0,0,0,11,1.76l0,0,0,0a1.25,1.25,0,0,0-.29.49h-.17a.4.4,0,0,0-.29.27v0h.18s.06,0,.06.08a.28.28,0,0,1-.12.18.49.49,0,0,1-.47,0,.22.22,0,0,1-.09-.17.2.2,0,0,1,.1-.13.37.37,0,0,1,.24.05h0l0,0a.3.3,0,0,0,0-.24.2.2,0,0,1,0-.07l.08-.08a1.2,1.2,0,0,0,.26-.29c.09-.14,0-.26-.09-.35l0-.07-.06-.06,0,0a.42.42,0,0,0,0-.31A.28.28,0,0,0,10,.88h0v0a.45.45,0,0,1-.19.25h0a.12.12,0,0,1-.1,0A.13.13,0,0,1,9.6,1c0-.08.12-.13.19-.16h.06s.08,0,.1,0,0-.06,0-.09A.48.48,0,0,0,9.46.53a1.88,1.88,0,0,0-.29-.4l-.05,0A.32.32,0,0,0,9,0h0a.13.13,0,0,0-.1.06,1.56,1.56,0,0,0-.33.4h0a.24.24,0,0,1-.06.11.53.53,0,0,0-.37.07L8,.69a.21.21,0,0,0-.11.17v0H8A.33.33,0,0,1,8.28,1a.22.22,0,0,1,0,.14.13.13,0,0,1-.15.08A.34.34,0,0,1,7.94,1V1H7.85a.73.73,0,0,0-.19.42l-.12.07a.46.46,0,0,0-.24.32h0a1.08,1.08,0,0,0,.39.38v0a.43.43,0,0,0-.06.3v0l0,0a.41.41,0,0,1,.19-.09h0a.35.35,0,0,1,.24.13.14.14,0,0,0,0,.06s0,.08,0,.11h0c0,.13-.16.22-.39.26h0a.35.35,0,0,1-.34-.15.32.32,0,0,1,0-.27.43.43,0,0,1,0-.07.21.21,0,0,0,.06-.1v0h0a.4.4,0,0,0-.35-.14,1.33,1.33,0,0,0-.25-.41l-.08,0,0,0a1.52,1.52,0,0,0-.2.33.06.06,0,0,1,0,0s0,0,0,.06a.31.31,0,0,0-.28.13v0h0v0a.07.07,0,0,0,0,.1h0a.2.2,0,0,1,.17.12c0,.1,0,.17-.11.26h0A.42.42,0,0,1,6,3H6c-.06,0-.11-.08-.12-.13a.33.33,0,0,1,.05-.22.26.26,0,0,1,.21-.07h.1v0a.31.31,0,0,0,0-.21h0l0,0s0,0,0-.07l0,0c.08-.13.2-.31.08-.47A.59.59,0,0,0,6,1.5H6a.52.52,0,0,0-.23-.31s-.14-.07-.19,0h0s-.06,0-.08,0a.2.2,0,0,1-.08-.13A.18.18,0,0,1,5.52,1h0a.06.06,0,0,0,.08,0h0v0A.27.27,0,0,0,5.45.7a.39.39,0,0,0-.21,0l0-.06a.87.87,0,0,0-.36-.3h0a1.1,1.1,0,0,0-.33.48.14.14,0,0,0,0,.06.2.2,0,0,1,0,.08.34.34,0,0,0-.36.11H4A.27.27,0,0,0,4,1.34v0H4a.37.37,0,0,1,.25.12v0s0,.06,0,.08a.12.12,0,0,1-.14.07A.33.33,0,0,1,4,1.54H4s-.08,0-.1,0,0,0,0,0a.19.19,0,0,0,0,.16v.06a.76.76,0,0,0-.34.35h0v0a.86.86,0,0,0,.44.44.17.17,0,0,1,0,.05s0,0,0,.06a.08.08,0,0,1,0,0,.25.25,0,0,0,0,.15l0,0H4a.45.45,0,0,1,.39,0h0c.05,0,.07.05.07.08s-.17.18-.31.24h0a.51.51,0,0,1-.43-.09A.24.24,0,0,1,3.61,3a.09.09,0,0,1,.09-.06h0v0a.25.25,0,0,0,0-.12v0h0a.31.31,0,0,0-.28-.16h0A.71.71,0,0,0,3,2.2H3a.67.67,0,0,0-.22.47l-.06,0a.42.42,0,0,0-.3.34v0h.1a.28.28,0,0,1,.13.17.25.25,0,0,1-.12.22.63.63,0,0,1-.56,0,.39.39,0,0,1-.11-.21.21.21,0,0,1,.08-.17c.09-.07.19,0,.29,0l.06,0v0a.39.39,0,0,0,0-.4,1.1,1.1,0,0,0,.23-.37h0c0-.15-.12-.24-.24-.32L2.21,2a.61.61,0,0,1-.14-.07.45.45,0,0,0-.2-.28h0a.42.42,0,0,0-.24-.05h0v0a.29.29,0,0,1,0,.27c-.08.06-.14.12-.23.1a.27.27,0,0,1-.12-.09.14.14,0,0,1,0-.13v0a.36.36,0,0,1,.17-.16h.13v0a.06.06,0,0,0,0-.06v0a.38.38,0,0,0-.38-.18.24.24,0,0,0-.09,0l0,0A.79.79,0,0,0,.55,1h0a.87.87,0,0,0-.25.38s0,0-.06,0-.08,0-.1.05A.32.32,0,0,0,0,1.71v0H.05a.14.14,0,0,1,.09,0h0a1,1,0,0,1,.11.64.57.57,0,0,0,0,.13s0,.07,0,.11A.65.65,0,0,0,.25,3a1.16,1.16,0,0,0,.66.8A.44.44,0,0,1,1.05,4a.83.83,0,0,1-.13.14L.8,4.28v0L1,4.57l0,.11c0,.07,0,.08-.11.11l-.09,0h0l0,0S.74,4.92.75,5A.37.37,0,0,0,1,5.32c0,.31,0,2.44,0,4.51s0,3.76,0,4A5.6,5.6,0,0,0,1.09,15a7.69,7.69,0,0,0,1.84,4.09,8,8,0,0,0,4.23,2.48l.1,0a6.35,6.35,0,0,0,1.16.15,3,3,0,0,0,.42,0h.31a2,2,0,0,0,.35,0l.26,0h0a8.14,8.14,0,0,0,2.77-.85,7.87,7.87,0,0,0,3.89-4.65,7.56,7.56,0,0,0,.33-2c0-.25,0-.51,0-.76s0-.56,0-.84,0-.68,0-1c0-.1,0-.19,0-.29l0-.05c0-.45,0-.85,0-1.28s0-.64,0-1V8.77c0-.54,0-1.1,0-1.64,0-.37,0-.76,0-1.14,0-.14,0-.3,0-.46V5.27h0A.4.4,0,0,0,17,5a.18.18,0,0,0,0-.14c0-.13-.16-.16-.26-.19s-.1,0-.11,0,0,0,0,0a.56.56,0,0,0,.05-.08s0-.08.07-.09h0a.12.12,0,0,1,0,0,.21.21,0,0,0,.09-.15h0L16.68,4a.58.58,0,0,1,.19-.4,1.21,1.21,0,0,0,.61-.77,1.49,1.49,0,0,1,.2-.9l0,0a.26.26,0,0,0,.07-.11h0A.39.39,0,0,0,17.6,1.49ZM3.54,13c0,.25,0,2,0,2.19-.39.38-.81.77-1.26,1.15a.77.77,0,0,0-.13.12,1.12,1.12,0,0,1-.16.13H2a7.34,7.34,0,0,1-.48-2.16c0-.08,0-2.69,0-4.09H3.53a6.94,6.94,0,0,1,0,.78Zm.53,1.68V13.28c0-.16,0-.32,0-.48s0-.52,0-.79v-.66a3.85,3.85,0,0,0,0-.48,2.53,2.53,0,0,1,0-.28v0a1.16,1.16,0,0,1,0-.17v0A1.78,1.78,0,0,0,4,10V9.82l-2,0H1.45V8.73H4v0s0-.85,0-1.11V7.5a1.34,1.34,0,0,1,0-.2,1.34,1.34,0,0,0,0-.21.31.31,0,0,0,0-.1.25.25,0,0,1,0-.08V6c0-.24,0-.49,0-.74a1.15,1.15,0,0,1,0-.19V4.72c.24,0,.5-.06.74-.08l.39,0h.06V5c0,.2,0,.4,0,.46,0,.32,0,2,0,2.49V8.7h.21c.47,0,1,0,1.52,0h.9l-.06.15c0,.08-.07.16-.11.25s-.19.46-.29.66c-.21,0-.48,0-.75,0A6.11,6.11,0,0,0,6,9.8h-.8v0s0,1.54,0,2.16v.38c0,.31,0,.7,0,.88l-.15.21a4.94,4.94,0,0,1-.35.45l-.19.21-.12.17ZM3.58,5.05h0l0,.68v1.9c0,.12,0,.24,0,.35a1.93,1.93,0,0,1,0,.24h0l-2.06,0c0-.31,0-2.66,0-3h0a.76.76,0,0,1,.2-.06L2.14,5l.28,0L3,4.89l.62-.1s0,.1,0,.15,0,0,0,.06A0,0,0,0,0,3.58,5.05Zm5.93,5.63c.07,0,.13,0,.19,0a.07.07,0,0,1,.05,0l0,.09s.05,0,.08,0l.08,0c0,.08-.11.16,0,.25s.08.15.16.11a.79.79,0,0,1,.16-.08s0,0,0,0,0,0,0,0,0-.08.06-.08,0,.1.07.13h.13s0,.06-.07.09,0,0,0,0h0a2.1,2.1,0,0,0-.27.24.84.84,0,0,1-.31-.05,5.73,5.73,0,0,0-.58-.07c-.05,0-.13,0-.16,0s0,0,0-.08S9,11,9,11s-.05,0,0-.07,0-.06-.05-.08.16-.08.21-.07,0,.14.08.19,0,0,0,0,.11.07.17,0a.19.19,0,0,0,.14-.19S9.54,10.69,9.51,10.68ZM9,11.45l.06-.13a4.49,4.49,0,0,1,.66.06l.07,0,.29.07c0,.09.1.17,0,.27s-.1.09-.07.14.07,0,.11,0a.12.12,0,0,1,.14,0s0,0,0,.08-.11.15-.1.23.09-.09.15-.1,0,0,.07,0,0,.12,0,.15-.06.36,0,.49v.1c-.11,0-.14-.16-.26-.1s.1.2,0,.31a.08.08,0,0,0,0,.1c.06.15.28.18.26.37a.25.25,0,0,1,0,.12.63.63,0,0,0-.26-.25c-.06-.05,0-.13-.09-.18s0,.13,0,.18.24.22.28.4a.19.19,0,0,1,0,.15.27.27,0,0,1-.12-.14s0-.14-.07-.15a.26.26,0,0,0-.09.23.31.31,0,0,1,0,.32l0,0c-.08-.12,0-.31-.17-.38s0,0,0,.06a.5.5,0,0,1,0,.32c-.08.09,0,.21,0,.32a.25.25,0,0,1-.14.16H9.47l.07-.15v-.13c-.07-.12-.17-.25-.09-.39s.2-.2.2-.34-.14.09-.19.15c-.26.28-.35.63-.59.92a.27.27,0,0,1-.29.1c-.08-.07-.07-.19-.11-.27s-.12.12-.2.17a.62.62,0,0,1-.26.12.23.23,0,0,1-.18-.13s0-.07,0-.11.24.13.37,0a.3.3,0,0,0,.2-.18.14.14,0,0,0,0-.09s0,0,0,0a.3.3,0,0,1-.24.18c-.11,0-.27-.11-.38,0s-.07.1-.13.1a.46.46,0,0,1,.09-.2s-.05,0-.07,0a.65.65,0,0,1-.37.24c0-.17.12-.32.17-.49s.13-.26.27-.27,0,0,0,0a.16.16,0,0,0-.12,0l-.07.05c-.24.27-.3.72-.69.85a.88.88,0,0,1-.91-.13.12.12,0,0,1,0-.09c.2,0,.35.29.59.2a.9.9,0,0,0,.7-.55l.19-.41c-.05,0-.1,0-.15.05s-.37.41-.66.32c0,0,0,0,0-.06A.77.77,0,0,0,6.85,14c.1-.08.22-.18.18-.33s0,0-.07,0-.2.23-.35.19a.25.25,0,0,1-.12,0l.21-.11c0-.08.11-.14.14-.23s-.17.12-.28.07a.57.57,0,0,0,.21-.25s0-.06,0-.08-.12.09-.18.11a.09.09,0,0,1-.1,0,.1.1,0,0,0,0-.09l-.07,0c.05-.05.06-.14.14-.16a.78.78,0,0,1,.22,0c.08,0,.06-.12.07-.19s0-.27-.08-.34a.08.08,0,0,0,0-.09l0,0,0,0s0,0,0,0,0,0-.05,0l0,0,0,0-.06,0s0,0,0,0v-.12s0,0-.05,0,0,0,0,0l.07,0h.07s0,0,0,0l0-.05s0,0,.05,0l0,0,0,0,0,0h.05A.18.18,0,0,0,7,12.29c0-.08,0-.17,0-.23S7,12,7,12,7,12,7,12s-.06,0-.09.06,0,0-.07,0,0,0-.07,0l0,0c0-.06.13-.1.1-.16s0-.08,0-.1,0,0,.06,0,.15,0,.17.07-.06.08-.06.18.12.15.19.17a.38.38,0,0,0,.15,0l0-.06a.17.17,0,0,0,0-.1c0-.05,0-.06,0-.08s.13-.11.12-.17,0,0,.07.06,0,.08,0,.13.08,0,.09.08l-.09.12a.83.83,0,0,0,.08.12.23.23,0,0,1,0,.19c-.17.1-.16.35-.12.54s.07.19.17.22-.11.23-.2.3,0,0,0,0,0,0,0,0a.46.46,0,0,0,.32-.4s0,.08.1.09h.26c.15,0,.28-.17.45-.13s0,0,.07,0l.22,0s0-.07,0-.12,0-.11-.06-.11a.3.3,0,0,1-.25-.07c0-.06-.06-.15,0-.16s.08,0,.12,0,.21,0,.33,0c-.07.1-.24,0-.29.11a1,1,0,0,0,.43,0,.19.19,0,0,0,.09-.11.42.42,0,0,0-.16-.38c.1,0,.15.12.19.21l0,0c0,.06-.07.12,0,.12s.11-.13.13-.23a.21.21,0,0,0-.12-.18s-.05,0-.08,0a0,0,0,0,0,0,0s0,0,0,.05-.08-.06-.12-.09A3.39,3.39,0,0,0,8.89,12c-.08,0-.14,0-.21,0s-.06-.15,0-.19.09.07.14,0,0-.06,0-.09a.14.14,0,0,0-.11-.07c-.05,0-.07,0-.09,0a0,0,0,0,1,0-.07s.08,0,.14-.06S8.92,11.53,9,11.45ZM5.72,12.59V10.33H7.1A19.45,19.45,0,0,1,6,12.17l-.08.12C5.86,12.39,5.8,12.49,5.72,12.59Zm3.13-.22a.51.51,0,0,1,.37.08c-.16.09-.32,0-.49,0s-.52-.07-.56-.35a.69.69,0,0,1,0-.32s0,.07,0,.1a.35.35,0,0,0,.12.32A3.85,3.85,0,0,1,8.85,12.37Zm-.16-.29v0s.09,0,.07,0,0,0,0,0A.07.07,0,0,1,8.69,12.08Zm.16,0s.1,0,.13,0,0,.05-.06.05-.06,0-.08,0S8.82,12.07,8.85,12.06Zm.19.08s.07,0,.07,0h0S9.07,12.15,9,12.14ZM8.8,5h0c0,.06,0,.11,0,.17a1.84,1.84,0,0,1,0,.33c0,.28-.08.54-.12.77,0,0,0,.11,0,.16s-.05.24-.08.36A8.67,8.67,0,0,1,8,8.23H5.74V4.74a.69.69,0,0,1,0-.2h0a1.33,1.33,0,0,0,.32,0l.51,0,.58,0h0l.36,0,.4,0h.83A3.72,3.72,0,0,1,8.8,5Zm4.6,11.47-.05,0s0-.05,0-.09.11-.1.08-.17a.2.2,0,0,0-.13-.09c-.22,0-.36.27-.55.38a1,1,0,0,1-.52.25c-.13,0-.15.15-.19.26s-.14-.27-.23-.11-.06.22-.08.32a.23.23,0,0,1-.08-.11c0-.06-.06-.15-.14-.16a.76.76,0,0,0-.15,0c-.06,0-.13,0-.15.1s.12.37.09.59-.07.29-.1.44a.25.25,0,0,0,.06.14c.1.1.22,0,.34,0a.78.78,0,0,0,.29-.25c.18-.08.32.13.52,0s.09-.06.14-.06l0,.08s.07.05.12,0-.14.13-.22.17a.53.53,0,0,0-.33-.05l-.15,0c-.05.09-.14.09-.2.16s0,0,0,0a.49.49,0,0,0,.21,0,.36.36,0,0,1-.07.17c-.06.1-.18.07-.24.16a.06.06,0,0,0,.06,0c.14,0,.21-.19.35-.18s.16,0,.21,0-.1.14-.18.18.06,0,.09.08-.25,0-.37,0-.12,0-.12.07.05,0,.07,0,.2.07.31.1.05.05,0,.08-.23,0-.36-.06-.07.05-.1.09.18.13.18.26a.43.43,0,0,1,0,.16s-.1,0-.12,0v.05c-.07,0-.11-.07-.14-.12s-.09-.2-.2-.2,0,.17,0,.25.18.17.14.29-.16-.16-.22-.24-.05,0-.06,0-.06.22-.12.3a.28.28,0,0,0-.12-.23.51.51,0,0,0-.22,0s0-.1,0-.14a.11.11,0,0,0,0-.1c-.06,0-.08.1-.09.15s-.07.26-.09.39,0,.13-.1.15-.16,0-.2.08h0c0,.08.09.1.08.19s-.18,0-.23.1h-.06c0-.07.09-.13,0-.17s-.05,0-.05,0,.13-.05.17-.12h0l0,0c0-.08.05-.23,0-.29a.38.38,0,0,0-.26-.05s-.07.05-.07.1a.21.21,0,0,1,0,.19s-.1,0-.15,0l-.16.06s0-.06,0-.09.12-.05.1-.12a.17.17,0,0,1-.06-.06,1,1,0,0,0,.28-.13c0-.06.07-.1,0-.17s-.07-.07-.07-.13a.1.1,0,0,0-.09,0s0,.07-.06.07,0,0-.06,0,0-.06,0-.07,0-.09.05-.11,0-.06,0-.09a.17.17,0,0,0-.12,0h0s.06,0,.1,0,.07,0,.09,0,0-.13.13-.12,0,.08,0,.12.11.11.18.13.14,0,.18,0a.21.21,0,0,0,.1-.16c.05,0,.11-.05.1-.13a4,4,0,0,0-.21-.67s0,0-.06,0,.06-.15,0-.16,0,.17-.13.19l-.32.07c.06-.17.28-.17.36-.33A.53.53,0,0,0,10,17.5c.07-.11.23-.08.27-.21s0-.27,0-.39,0-.1-.06-.13-.07.11-.12.14-.06.05-.08.08h0a1.19,1.19,0,0,1-.4.21.83.83,0,0,1-.32.17c-.11.09-.27.13-.35.26,0-.06,0-.14,0-.19s0,0-.07.07c-.05.2,0,.39-.09.56,0,0,0,0,0,0s0-.34-.07-.48c0,0,0,.1,0,.15a2.48,2.48,0,0,0,0,.72.14.14,0,0,0,.08.09.55.55,0,0,0-.21.51c0,.09,0,.22-.07.28a.23.23,0,0,1,0-.24c0-.05.08-.11,0-.14a.22.22,0,0,0-.08.13c-.06.12-.05.27-.18.35h0a.56.56,0,0,1,.07-.4s.06,0,0-.07,0,0-.06,0a4.25,4.25,0,0,0-.21.43.25.25,0,0,1-.11.15c-.06-.06,0-.16,0-.24s.09-.13,0-.19-.14.11-.23.17a.15.15,0,0,1-.13.07c0-.11.15-.19,0-.27s-.12.08-.18.1-.09-.06-.15,0a1.52,1.52,0,0,1-.2.06c-.06,0-.08.05-.13.07a.22.22,0,0,0,0,.16s0,0,0,0l-.11-.06c-.12,0-.15.17-.23.18s0-.1,0-.16h0c0-.06,0-.12,0-.16h.1a.25.25,0,0,0,.11-.19.19.19,0,0,0-.06-.19c-.06-.05-.13-.09-.2-.05h0c-.07,0-.15.05-.21,0s0-.11-.06-.12-.15,0-.21,0,.17,0,.16-.1a.34.34,0,0,1,.12-.12c.09,0,.08.09.14.12a.25.25,0,0,0,.22-.16c0-.07.08-.16,0-.22s-.19,0-.2-.06a.15.15,0,0,0,.07-.05s0,0,0-.06l0-.09h0s0,0,0,0,0,0,0,0a.37.37,0,0,1,.18,0,.13.13,0,0,1,0,.12s0,.07,0,.11a.32.32,0,0,0,.18.14c0,.08.09,0,.13,0s.12-.18.23-.23.41,0,.57-.16,0-.16,0-.24a.21.21,0,0,1-.06-.25c.05-.12.2-.14.26-.26s-.07-.13,0-.22a.07.07,0,0,0-.08,0c0,.09-.12,0-.15.1a.47.47,0,0,1-.31,0c0-.05-.07-.07-.07-.14a.07.07,0,0,1,.07-.06h0c-.05,0,0,.07,0,.1s.1,0,.15,0,.32-.25.49-.13.11-.05.13,0,.07,0,.1-.05a.4.4,0,0,1,.28-.21c.13,0,.28,0,.4,0a.39.39,0,0,1,.15,0,1.68,1.68,0,0,0,.06.24.2.2,0,0,0,.13.08s0-.08,0-.12a.31.31,0,0,0-.07-.21s0-.06.06-.05h0a.34.34,0,0,0,.15.29s0,0,.07,0-.11-.15-.1-.25-.05-.12,0-.12h0c0,.07,0,.17.08.21s.06.06.1,0,0-.1,0-.14a.28.28,0,0,0-.06-.18l0,0s.14,0,.23,0a1.15,1.15,0,0,0-.25-.37c-.24-.17-.57-.21-.7-.51a.14.14,0,0,0-.17,0c-.12.1-.17.25-.3.34s-.08-.17-.19-.12-.13.28-.19.41a.2.2,0,0,1-.12.13s0-.1,0-.16.14-.22,0-.33-.09-.06-.13,0-.16.28-.27.41a.13.13,0,0,1,0-.07c0-.1.07-.22-.05-.28s-.15.17-.21.27a.31.31,0,0,1-.09.14s0,0,0,0,.15-.2,0-.26-.32.11-.37.28a.78.78,0,0,1-.11.2c0-.08,0-.19,0-.25s0-.06,0-.07-.17.22-.32.23,0-.17,0-.26-.17,0-.18-.06a0,0,0,0,0-.06,0,.81.81,0,0,1-.27.38s0-.05-.1,0a.68.68,0,0,0,.11-.25c-.06,0-.11,0-.16,0a1.21,1.21,0,0,0,0-.14.52.52,0,0,0-.51-.07s-.07,0-.08.08,0,.09,0,.12a.17.17,0,0,1-.17,0,.23.23,0,0,0-.12.08h0s0,0,0,.06,0,0,0-.06,0,0,0,0,0-.05,0-.08h0c0-.08-.07-.13,0-.17A.18.18,0,0,0,5,15.81c0-.08,0-.19-.13-.23s-.07.16-.17.15a.17.17,0,0,1-.07-.1s0,0,0-.06a.19.19,0,0,0-.16-.13h0s.07,0,.09-.06.08.05.14,0,.06-.09.14-.09,0,.07,0,.09a.19.19,0,0,0,.17.06.49.49,0,0,0,.17-.15.49.49,0,0,0,0-.12h0a.12.12,0,0,0,0-.08S5,15.12,5,15s0,0,0,0,.16-.05.16-.15v0a.16.16,0,0,1,.09,0,.13.13,0,0,0,.08.1s.09-.05.11,0,0,.14,0,.2a.14.14,0,0,0,.06.08.6.6,0,0,0,.43.14,1.35,1.35,0,0,1,.49-.07c.33,0,.62-.18.95-.22a1,1,0,0,0,.41-.28l.1.1c.09,0,.17.09.26,0a.48.48,0,0,0,.27-.17s0,.08.07.12a.28.28,0,0,0,.25.12A.39.39,0,0,0,9,14.84c0-.22.25-.35.3-.56a.2.2,0,0,1,.06-.07c0,.09.14.2.07.31s-.11.12,0,.18l.15,0a1,1,0,0,0,.23-.07c.08.18.3.22.44.37a3.76,3.76,0,0,1,1,1.56.59.59,0,0,0,.39-.05.43.43,0,0,0,.24-.3,3.46,3.46,0,0,0-.65-1.57,3.17,3.17,0,0,1-.3-1.2c-.06-.36.11-.65,0-1a1.84,1.84,0,0,0-.07-.3c.08,0,.17.18.23.05a1.43,1.43,0,0,0,0-.46,3.37,3.37,0,0,0-.1-.34c.09,0,.13.13.17.22a1.29,1.29,0,0,1,.07.73c0,.07,0,.14,0,.19s.12-.14.22-.14a1.53,1.53,0,0,0-.22.9c0,.06,0,.14,0,.21a1.29,1.29,0,0,0,.15.55.1.1,0,0,0,.09,0c.1-.13.08-.3.18-.43a.2.2,0,0,1,.13-.14.29.29,0,0,1,0,.18,1,1,0,0,0-.15.48.59.59,0,0,0,.18.59s0,0,.07,0,0-.22.1-.31.19-.21.21-.35a.34.34,0,0,1,.09-.08c0,.22-.17.42-.22.64a2.14,2.14,0,0,0,0,.62.28.28,0,0,0,.12.18s.06,0,0,0a.88.88,0,0,1,.06-.29c.08-.13.23-.18.33-.3-.05.22-.25.36-.27.59a.86.86,0,0,0,0,.39.06.06,0,0,0,.08,0c.07,0,.11-.09.17-.15s.23-.11.32-.21c0,.17-.18.24-.27.35s-.18.36-.36.47-.08.08-.06.14.12.06.19.08c.32-.1.52-.49.86-.57a.29.29,0,0,1,.28.18C13.52,16.3,13.46,16.36,13.4,16.43Zm3-3.87v0c0,.19,0,.38,0,.56s0,.45,0,.69a1.41,1.41,0,0,0,0,.21,1.14,1.14,0,0,1,0,.27,5.16,5.16,0,0,1-.11.93c0,.17-.08.35-.12.5h0a1,1,0,0,1-.05.17L16,16l0,.06a3,3,0,0,1-.15.42,3.86,3.86,0,0,1-.38-.3c-.1-.08-.19-.17-.29-.24L15,15.83l-.17-.14a.1.1,0,0,0,0,0l0,0h0a2.48,2.48,0,0,0-.26-.23l0-.05a.38.38,0,0,0-.09-.09l-.35-.34-.14-.15v0h0l-.13-.12-.06-.07a1.45,1.45,0,0,0-.17-.18h0l-.09-.07-.08-.09a.57.57,0,0,0-.13-.14l-.08-.1-.27-.32a.08.08,0,0,0-.05-.05h0v0l0,0s-.06,0-.06-.06v0h0a.06.06,0,0,0,0-.05l0-.07-.05-.06a.07.07,0,0,0,0-.05l0,0L12.45,13h0L12.41,13a1,1,0,0,1-.18-.26,4.5,4.5,0,0,1-.31-.43l-.15-.2,0-.08a5.29,5.29,0,0,1-.32-.5l0-.05-.06-.1-.06-.1v0a.36.36,0,0,1-.05-.09.41.41,0,0,0-.07-.11,1,1,0,0,0-.09-.17.41.41,0,0,0,0-.09l-.06-.13c0-.07-.07-.14-.1-.23a1,1,0,0,1-.12-.23.73.73,0,0,1-.05-.12c-.11-.22-.3-.68-.41-.93A1,1,0,0,0,10.19,9a1,1,0,0,1-.08-.22A1.8,1.8,0,0,0,10,8.55a.14.14,0,0,0,0-.06l0-.05h0c0-.11-.35-1.1-.47-1.5l0-.09a.36.36,0,0,1,0-.1h0s-.1-.47-.13-.64V6a1.1,1.1,0,0,1,0-.16,1.91,1.91,0,0,0,0-.21,1,1,0,0,1,0-.17s0-.11,0-.16S9.17,5,9.14,4.81s0-.26,0-.38v0h.42a2.75,2.75,0,0,0,.41,0h.32l.91,0a1.79,1.79,0,0,1,.34,0l.28,0a4.55,4.55,0,0,1,.53,0l.26,0c.6,0,1.22.13,1.82.21l.3,0h.06l.21,0c.48.08.9.17,1.39.27,0,.21,0,.66,0,.67a5.61,5.61,0,0,1,0,.58V9.48c0,1.17,0,2.63,0,3Zm.73-9.79a1,1,0,0,1-.46.5,1,1,0,0,0-.35.73v.14l.12.13-.27.37A37.67,37.67,0,0,0,1.46,4.7a.74.74,0,0,0-.17-.37l0,0,.07-.09.06-.1V4a1,1,0,0,0-.25-.5l-.08-.06C.83,3.28.65,3.09.63,2.92a.53.53,0,0,1,0-.12s0-.07,0-.1,0-.08,0-.12a.62.62,0,0,0,0-.13,1.71,1.71,0,0,0,0-.32.91.91,0,0,0-.12-.47.36.36,0,0,0,.07-.1h0l0,.06.08.05,0,.05v.11a.46.46,0,0,0,.13.32.67.67,0,0,0,.27.18.62.62,0,0,0,.41,0,.57.57,0,0,0,.13-.08l.05,0,.06,0a.64.64,0,0,0,.22.11l.05,0s0,.07-.05.12l-.19.18,0,.05a.38.38,0,0,0-.17.08.59.59,0,0,0-.2.24,1,1,0,0,0-.05.2v.09a.9.9,0,0,0,.23.44,1,1,0,0,0,1,.06A.62.62,0,0,0,3,3.22.43.43,0,0,0,3,3L3,3v0a.14.14,0,1,1,.27,0,.74.74,0,0,0,.12.49.91.91,0,0,0,.8.23l.06,0,.13,0,.15-.07a.7.7,0,0,0,.31-.39V3a.52.52,0,0,0-.12-.3l-.06,0-.06-.05a.67.67,0,0,0-.28-.1l-.07-.18-.14-.05L4,2.19,4,2.13l.11,0a.63.63,0,0,0,.48-.32.43.43,0,0,0,0-.32l0-.11a.56.56,0,0,0,.18-.26l0-.05,0-.12L5,1.05a.54.54,0,0,0,.08.33l.06.07.07.07a.44.44,0,0,0,.37.08l.08.17h0l.3.11H6l0,.08a.25.25,0,0,0-.09.11.5.5,0,0,0,0,.13.49.49,0,0,0-.22.18.52.52,0,0,0-.11.25,1.23,1.23,0,0,0,0,.2.59.59,0,0,0,.17.34l.13.1.06,0a.84.84,0,0,0,.77-.08l.11-.09A.56.56,0,0,0,6.8,3a.5.5,0,0,0,.06-.39h0a.14.14,0,0,1,0-.06.08.08,0,1,1,.16,0,0,0,0,0,1,0,0H7a.78.78,0,0,0,.06.45.75.75,0,0,0,.69.36h0a.83.83,0,0,0,.73-.51.5.5,0,0,0,0-.32V2.53l0-.11h0a.92.92,0,0,0-.43-.32L8,2,7.9,1.87a.54.54,0,0,1-.12-.09L8,1.66H8v0l.08,0h0a.58.58,0,0,0,.5-.3l0-.07s0-.1,0-.16a.52.52,0,0,0,0-.17L8.75.82,8.81.74A.34.34,0,0,0,8.87.62.71.71,0,0,1,9,.48a1.05,1.05,0,0,1,.15.24l.1.2a.54.54,0,0,0,.23.58.54.54,0,0,0,.38.06l.07,0a.3.3,0,0,1,.08.08l.08.07.06.08s0,0,0,.05L9.91,2l-.12.12v.05H9.73a.59.59,0,0,0-.33.46.64.64,0,0,0,.24.51.92.92,0,0,0,.89,0,.77.77,0,0,0,.32-.47V2.56h0s0,0,0-.05a.06.06,0,0,1,.12,0,0,0,0,0,1,0,0h0a.62.62,0,0,0,0,.39.66.66,0,0,0,.64.44h0a.94.94,0,0,0,.71-.33l.15-.3,0-.12a.52.52,0,0,0-.32-.39l0,0,0-.07,0,0S11.94,2,11.92,2L12,2l.08,0,.19-.18v0h.09a.45.45,0,0,0,.28-.13l.06-.06.09-.14,0-.09V1.2a.49.49,0,0,0,0-.12A.39.39,0,0,0,13,.9l.09-.11s0,.07,0,.12l0,.17h0l0,.06a.49.49,0,0,0-.05.27l0,.1,0,.08h0a.68.68,0,0,0,.24.2l.08,0h.06l.14.1a.94.94,0,0,1,.14.12l-.14.11-.11.08,0,.09a.42.42,0,0,0-.25.12.43.43,0,0,0-.19.33.57.57,0,0,0,0,.28.73.73,0,0,0,.51.39,2.28,2.28,0,0,0,.46,0A.75.75,0,0,0,14.6,3h0V2.65a.12.12,0,1,1,.24,0,.13.13,0,0,1-.06.11.49.49,0,0,0-.1.13.72.72,0,0,0,.12.66,1.07,1.07,0,0,0,1.14.22.81.81,0,0,0,.35-.41l0-.07A.63.63,0,0,0,16,2.74h0l0-.14-.22-.15,0,0,.12,0,.12,0h0l.08-.11h0a.37.37,0,0,0,.23.07h.11l.07,0a1,1,0,0,0,.21-.14.44.44,0,0,0,.12-.31V1.77H17l.12-.11a.89.89,0,0,0,.14-.13h0l0,.2v0l.06,0A1.8,1.8,0,0,0,17.1,2.77ZM36.89,13.09H33.44V1.1a1,1,0,1,0-2.06,0v13a1,1,0,0,0,1,1h4.48a1,1,0,0,0,0-2.07Zm22.46,8.54a.49.49,0,0,0-.5.49V29c-1.16-2.39-3.4-7-3.4-7a.51.51,0,0,0-.56-.27.49.49,0,0,0-.39.48v9a.5.5,0,0,0,1,0V24.3l3.4,7.05a.5.5,0,0,0,.56.26.49.49,0,0,0,.39-.48v-9A.49.49,0,0,0,59.35,21.63Zm-25.84.06H31.65a.49.49,0,0,0-.5.49v9a.5.5,0,0,0,.5.5.49.49,0,0,0,.49-.5V27.28h1.28l1.49,4a.5.5,0,1,0,.93-.34l-1.43-3.85a2.37,2.37,0,0,0,1.46-2.19v-.87A2.36,2.36,0,0,0,33.51,21.69Zm1.37,3.23a1.36,1.36,0,0,1-1.37,1.36H32.14v-3.6h1.37a1.37,1.37,0,0,1,1.37,1.37Zm45-3.29a.49.49,0,0,0-.5.49V29c-1.17-2.39-3.4-7-3.4-7a.51.51,0,0,0-.56-.27.49.49,0,0,0-.39.48v9a.49.49,0,0,0,.5.49.48.48,0,0,0,.49-.49V24.3c1.15,2.39,3.41,7.05,3.41,7.05a.49.49,0,0,0,.55.26.48.48,0,0,0,.39-.48v-9A.48.48,0,0,0,79.85,21.63Zm5.28.06H83.26a.49.49,0,0,0-.5.49v8.89a.49.49,0,0,0,.5.49h1.87a2.36,2.36,0,0,0,2.36-2.36V24.05A2.36,2.36,0,0,0,85.13,21.69Zm1.36,7.51a1.36,1.36,0,0,1-1.36,1.37H83.76V22.68h1.37a1.36,1.36,0,0,1,1.36,1.37ZM84,5a1.7,1.7,0,0,1-.45-1.31,1.64,1.64,0,0,1,2-1.5A1.64,1.64,0,0,1,86.68,3a1,1,0,0,0,.62.5,1,1,0,0,0,.77-.1,1.07,1.07,0,0,0,.5-.64,1,1,0,0,0-.11-.79A3.82,3.82,0,0,0,86,.13a3.74,3.74,0,0,0-4.46,3.4,3.71,3.71,0,0,0,1,2.89l3.59,3.71a1.81,1.81,0,0,1,.5,1.39h0a1.77,1.77,0,0,1-3.3.78,1,1,0,0,0-1.42-.39,1.07,1.07,0,0,0-.38,1.42,3.89,3.89,0,0,0,2.56,1.84,3.77,3.77,0,0,0,3.08-.71,3.87,3.87,0,0,0,.44-5.76ZM70.76,22a.5.5,0,0,0-1,0l-2.49,9a.5.5,0,0,0,1,.27s.2-.76.49-1.82h3c.29,1.06.49,1.82.49,1.82a.5.5,0,0,0,1-.27Zm-1.71,6.46c.42-1.54.92-3.34,1.23-4.47.31,1.13.81,2.93,1.23,4.47Zm-3.18,2.11H63.26V22.12a.5.5,0,0,0-1,0v9a.49.49,0,0,0,.5.49h3.1a.5.5,0,0,0,.5-.49A.51.51,0,0,0,65.87,30.57ZM79.36,14.12a1,1,0,0,0-1-1H74.89V8.46h3a1,1,0,0,0,0-2.07h-3V2.22h3.45a1,1,0,0,0,1-1,1,1,0,0,0-1-1H73.86a1,1,0,0,0-1,1V14.12a1,1,0,0,0,1,1h4.48A1,1,0,0,0,79.36,14.12ZM23.88.24a.9.9,0,0,0-.9.91V52.79a.91.91,0,0,0,1.81,0V1.15A.91.91,0,0,0,23.88.24Z" transform="translate(0 0)" fill="#333"/></svg>
