<svg xmlns="http://www.w3.org/2000/svg" width="158.87" height="73.71" viewBox="0 0 158.87 73.71"><path d="M0,71H35.48V0H0ZM12.13,60.24c0,1.36-2.23.09-4.37-.05-1.78-.11-2.27.34-2.27.34l.32-1.75c0-.11.41-.38,1.59-.38a6.64,6.64,0,0,1,2.5.38v.94a.37.37,0,0,0,.27.39c0-.08.24-.62,1.92-.63Zm-2-7.15a10.5,10.5,0,0,0-1.86-.79h0A.43.43,0,0,0,8.63,52a.34.34,0,0,0-.15-.36,1.84,1.84,0,0,1,1.14-.53c1.13,0,2.09,1.54,2.55,1.54a.27.27,0,0,0,.2-.12h0c0,.46-.25.5-.38.5a.37.37,0,0,1-.21-.06h0V53a2.14,2.14,0,0,1-.57,1.14c.26.27.91.72,1.09.49s.41-.7.86-.23h0c-.26,0-.46.17-.39.43.38-.28.88-.24.88.44m0,0a.46.46,0,0,0-.65-.1l0,0a.5.5,0,0,1,.47.54.49.49,0,0,1-.16.33h0c0-.35-.24-.4-.43-.4-.35,0-.62.32-.89,0-.1.45-.6.41-.72.38h0a.48.48,0,0,0,.28-.39c0-.29-.54-.66-.79-.66s-.27.19-.56.19A.62.62,0,0,1,9.63,55h0s.47.1.62-.5.17-1.1-.1-1.34Zm-3.28,4h-.05V57.51c0-.53,3.61-.85,7.46-.85s7.48.32,7.48.85v1.83s0,.08,0,0c-.45-.52-4-.71-7.42-.71S10.81,58.83,10.33,59.34Zm12-4.87h0c.46-.47.79.13.86.22.19.24.84-.21,1.09-.48a2.05,2.05,0,0,1-.56-1.14V53h0a.43.43,0,0,1-.22.06c-.12,0-.37,0-.37-.5h0a.23.23,0,0,0,.2.12c.46,0,1.42-1.54,2.56-1.54a1.89,1.89,0,0,1,1.14.53.34.34,0,0,0-.15.36.42.42,0,0,0,.33.34h0a10.4,10.4,0,0,0-1.85.79c-.28.24-.23.7-.06,1.33s.49.52.61.5h0a.59.59,0,0,1-.49.26c-.29,0-.39-.19-.55-.19s-.8.37-.8.66a.53.53,0,0,0,.29.39h0s-.63.07-.74-.38c-.28.35-.54,0-.9,0a.4.4,0,0,0-.42.37v0h0a.53.53,0,0,1,0-.72.56.56,0,0,1,.32-.15.45.45,0,0,0-.64,0l0,0m-.05,0c0-.68.51-.72.87-.44.06-.22-.14-.39-.39-.39Zm5.9,4.9c-2.14.13-4.36,1.4-4.36,0v-.8c1.68,0,1.93.54,1.92.62a.38.38,0,0,0,.27-.39v-.9a6.79,6.79,0,0,1,2.49-.38c1.23,0,1.59.27,1.63.38l.33,1.8S29.54,60.09,27.8,60.2ZM26.35,42.93c0-.21.32-.53,1.18-.42.4.06.68-.06.55-.29a.07.07,0,0,1,.09,0,.34.34,0,0,1-.13.54.78.78,0,0,0-.42.64c0,.09.09.1.11,0a1.08,1.08,0,0,1,1.44-.53l.15.08a.7.7,0,0,1-.62.58.3.3,0,0,1-.28-.28c0-.07-.05-.07-.06,0a.47.47,0,0,0,.39.55.49.49,0,0,0,.4-.12,1.4,1.4,0,0,1,.24,1.4c-.1.43.11.85.51.66h0a.48.48,0,0,1-.53.43.54.54,0,0,1-.27-.11c-.06.08-.64.8.26,1.12,0,0,0,0,0,.08a.79.79,0,0,1-1-.24,1,1,0,0,0,.18,1.19,1.3,1.3,0,0,1-.86.47,1.07,1.07,0,0,1-.55-.56,1,1,0,0,0,0,.65c-1.34.13-1.82-1-2.87-.79h0A2.16,2.16,0,0,1,26,45.85c1.28-.25.93-.8.93-.8a1.42,1.42,0,0,0-.85.21c-.09-.15.05-.34.05-.34a.84.84,0,0,1-.08-.27,1.48,1.48,0,0,0,.8-.14c.09-.36-.16-.87-1.07-.32a.78.78,0,0,1-.21-.52c-.07,0-.11-.14-.11-.18A4.24,4.24,0,0,1,26.35,42.93Zm-2.1,1.26c0-.08.06,0,.08,0,.05.21.29.32.56.32a8.58,8.58,0,0,1,.91-.11c.05,0,.36,0,.36.06s-.15,0-.36.08c-.5.08-.69.33-1,.33a.49.49,0,0,1-.54-.44A.5.5,0,0,1,24.25,44.19ZM17.16,36a.53.53,0,0,1,.27.08c.12.08.18.07.21,0a.19.19,0,0,0,0-.21.61.61,0,0,1-.08-.27.25.25,0,0,1,.19-.28.24.24,0,0,1,.28.19.14.14,0,0,1,0,.09.44.44,0,0,1-.09.27c-.08.11-.06.17,0,.21a.19.19,0,0,0,.22,0,.5.5,0,0,1,.27-.08.24.24,0,0,1,.28.19.25.25,0,0,1-.2.28h-.08a.5.5,0,0,1-.27-.08c-.11-.08-.18-.07-.22,0a3.78,3.78,0,0,0,.07.74.54.54,0,0,1,.47.47c0,.39-.41.61-.66.75-.24-.14-.66-.36-.66-.75a.6.6,0,0,1,.48-.47,3.12,3.12,0,0,0,.06-.74.25.25,0,0,0-.21,0,.61.61,0,0,1-.27.08.25.25,0,0,1-.28-.2.24.24,0,0,1,.19-.27h0Zm1.11,3a.48.48,0,1,1-.48-.47.47.47,0,0,1,.48.47Zm-4.35.1c.43,0,.37.28.73.28h.09s-.09.32-.27.32-.23-.23-.4-.23-.17.07-.17.3a2.12,2.12,0,0,0,.64,1.31.37.37,0,0,1,.31-.17.51.51,0,0,1,.33.72.63.63,0,0,0,.29.1.36.36,0,0,0,.39-.32.14.14,0,0,0,0-.09c0-.79-1-1.42-1-2.38a.88.88,0,0,1,.88-.91h.07c.69,0,.56.62,1.16.62H17s-.11.39-.42.39-.42-.56-.71-.56c-.11,0-.27.06-.27.44A3.6,3.6,0,0,0,16,40.15a.42.42,0,0,1,.3-.13.48.48,0,0,1,.44.53h0a.67.67,0,0,1-.2.48.71.71,0,0,0,.51.35c.41,0,.59-.24.59-.49s-.5-.38-.5-.8a.41.41,0,0,1,.36-.39.54.54,0,0,1,.32.13.61.61,0,0,1,.32-.13.42.42,0,0,1,.38.44v0c0,.43-.51.52-.51.79s.19.49.6.49c.21,0,.36-.15.51-.35a.66.66,0,0,1-.2-.48.49.49,0,0,1,.44-.54.43.43,0,0,1,.3.13,3.36,3.36,0,0,0,.32-1.29c0-.38-.15-.44-.27-.44-.29,0-.38.56-.71.56a.44.44,0,0,1-.41-.39s0,0,.05,0c.6,0,.47-.63,1.15-.63a.88.88,0,0,1,.95.81.28.28,0,0,1,0,.09c0,1-1,1.64-1,2.38a.38.38,0,0,0,.32.41h.07a.63.63,0,0,0,.29-.1.53.53,0,0,1,0-.25.42.42,0,0,1,.38-.47.37.37,0,0,1,.31.17,2.13,2.13,0,0,0,.65-1.31c0-.24-.11-.3-.18-.3s-.17.23-.4.23-.27-.2-.27-.32.05,0,.09,0c.36,0,.3-.28.73-.28.14,0,.63.08.63.79,0,1-1.29,1.36-1,2.16-.54-.08-.54.46-.55,1.42a9.86,9.86,0,0,0-3-.37,9.83,9.83,0,0,0-3,.37c0-1,0-1.5-.55-1.42.29-.79-1-1.11-1-2.16,0-.71.49-.79.63-.79ZM11.2,44.19s.06-.08.08,0a.48.48,0,0,1-.28.63.5.5,0,0,1-.24,0c-.34,0-.54-.24-1-.33-.22,0-.37,0-.37-.07s.32-.07.37-.07c.3,0,.61.07.91.12A.55.55,0,0,0,11.2,44.19ZM5.64,45.77c.39.2.6-.23.5-.65a1.4,1.4,0,0,1,.21-1.43A.5.5,0,0,0,7,43.63a.5.5,0,0,0,.11-.37c0-.07-.06-.07-.06,0a.32.32,0,0,1-.29.28A.7.7,0,0,1,6.18,43a1.07,1.07,0,0,1,1.5.29l.09.16a.06.06,0,1,0,.11,0,.83.83,0,0,0-.41-.65c-.35-.18-.23-.44-.14-.53s.11,0,.09,0c-.14.23.16.34.56.29.85-.11,1.14.2,1.18.42.18.05.9.45.9.6a.23.23,0,0,1-.11.19.63.63,0,0,1-.2.5c-.91-.54-1.16,0-1.07.34,0,0,.16.13.8.13A1.29,1.29,0,0,1,9.4,45a.31.31,0,0,1,0,.33,1.5,1.5,0,0,0-.85-.21s-.35.53.93.79A2.16,2.16,0,0,1,11.22,48h0c-1.05-.2-1.52.88-2.87.8a1,1,0,0,0,0-.65,1.17,1.17,0,0,1-.54.56,1.41,1.41,0,0,1-.87-.48,1,1,0,0,0,.18-1.18.81.81,0,0,1-1,.24c-.06,0-.06-.07,0-.08.89-.3.31-1,.25-1.12A.49.49,0,0,1,5.7,46a.59.59,0,0,1-.1-.26s0,0,0,0Zm-3.18.89s0-.08.06,0a.71.71,0,0,0,.7.49h1.2a1.31,1.31,0,0,1,1.45,1.18s0,.08,0,.12c0,1.1-1.4,1.59-1.4,2.69,0,.26.13.7.85.7a2.38,2.38,0,0,0,.79-.17s.33-2,1.27-2.63A2.59,2.59,0,0,0,9.6,49c.84-.45,1.23-.79,2-.24a13.8,13.8,0,0,0,1.46,1l.18,0V45.38a.3.3,0,0,0-.35.24v.11c0,.11.14.18-.1.53m-.05,0c0-.08,0-.23-.17-.23a3.81,3.81,0,0,0-1.08.79,1.75,1.75,0,0,0-.88-1c.35-.06,1.85-.42,1.85-1.08,0-.22.26-.27.42-.25,0,0,.24-.6.71-.3m0,0c-.21.05-.29.26-.3.49.17,0,.53-.16,1.05-.27v1.4h.62v-1.5a17,17,0,0,1,2.85-.27,16.47,16.47,0,0,1,4.52.66.44.44,0,0,0-.3-.48V44.2c.46-.3.7.28.71.3.17,0,.41,0,.41.26,0,.66,1.51,1,1.85,1.08a1.86,1.86,0,0,0-.89,1A3.86,3.86,0,0,0,23,46.07c-.11,0-.16.15-.17.23s0,.05-.05,0c-.23-.35-.12-.43-.1-.53a.3.3,0,0,0-.23-.35.21.21,0,0,0-.11,0v4.39l.17,0c.08,0,.72-.53,1.46-1s1.13-.21,2,.25a2.6,2.6,0,0,0,2.2,0,4.77,4.77,0,0,1,1.27,2.63,2.49,2.49,0,0,0,.8.17c.72,0,.86-.44.86-.7,0-1.11-1.4-1.59-1.4-2.69A1.31,1.31,0,0,1,31,47.17a1,1,0,0,1,.17,0h1.2a.71.71,0,0,0,.69-.49c0-.06.08,0,.06,0s0,.24,0,.52a.65.65,0,0,1-.61.71.28.28,0,0,1-.13,0,1,1,0,0,1-.51-.11s-.07,0,0,.05a.86.86,0,0,1,.14.79h0a1.22,1.22,0,0,0-1.16-.91.67.67,0,0,0-.73.61,1.09,1.09,0,0,0,0,.18c0,.89,1.59,1.55,1.59,2.78s-1.31,1.52-2.07,1.32c0,1.25,1.46,1.68,1.51.8,0,0,0-.05.06,0,.17.44.1.83-.45.95,0,0,0,0,0,.05.56.35.27,1.73.23,2.13a.48.48,0,0,0,.59.5c.05,0,0,0,0,.05a.62.62,0,0,1-.88.08l0,0c-.38.12-.14.45.11.62v.06s-.65,0-.75-.42a.63.63,0,0,1-.73.15c-.12-.06-.67-.26-.73.37,0,0,0,0-.05,0a.52.52,0,0,1,0-.73.56.56,0,0,1,.32-.17.43.43,0,0,0-.6,0l-.06.07h0c0-.67.51-.73.87-.44,0-.07.13-.44-.41-.43h0a.51.51,0,0,1,.72,0,.3.3,0,0,1,.08.08c.18.23.64.14.69.13-.17-2.4-2.2-1.6-2.51-2.74h0c-.08.28-.79.32-.91-.22h0c.6.59,1.94-1.27.11-2.77a2.64,2.64,0,0,0-3.49-.16.22.22,0,0,0,.15.27s0,0,0,.05a.4.4,0,0,1-.46-.09c-.34.23-.05.52.09.6s0,0,0,.06a.54.54,0,0,1-.57-.45h-.05v1.3c0,1.89-2.18,2.15-4.57,3.75-2.38-1.59-4.57-1.86-4.57-3.75V50.94h0a.54.54,0,0,1-.58.44s0,0,0-.05.42-.38.08-.61a.38.38,0,0,1-.45.1c-.05,0,0,0,0,0a.22.22,0,0,0,.16-.27,2.66,2.66,0,0,0-3.49.15C7.06,52.16,8.4,54,9,53.42H9a.51.51,0,0,1-.9.23h0c-.29,1.16-2.35.36-2.49,2.66,0,0,.5.09.68-.13A.52.52,0,0,1,7,56l.14.11h0c-.54,0-.42.37-.4.44.35-.29.9-.24.86.44,0,0,0,0,0,0a.44.44,0,0,0-.6-.13l-.06.05a.52.52,0,0,1,.3,1s-.05,0-.05,0c0-.63-.61-.42-.72-.37a.63.63,0,0,1-.73-.15c-.11.47-.71.42-.8.42s0,0,0-.06c.27-.17.5-.5.11-.62a.62.62,0,0,1-.88,0l0,0V57s.64.08.59-.5c0-.4-.32-1.78.23-2.13,0,0,0,0,0-.05-.55-.12-.63-.51-.45-.95,0-.06.06-.05.06,0,0,.89,1.47.46,1.52-.8-.8.19-2.08-.07-2.08-1.32S5.5,49.37,5.5,48.48a.68.68,0,0,0-.56-.78.5.5,0,0,0-.17,0,1.22,1.22,0,0,0-1.16.91h0a.9.9,0,0,1,.14-.79s0-.07-.05-.05a.93.93,0,0,1-.49.11.66.66,0,0,1-.78-.52.41.41,0,0,1,0-.19c0-.3.12-.41.09-.5Zm-4.33-.75c0-.22-.23-.27-.74-.24a.41.41,0,0,0,.74.22Zm17.83-.24c-.51,0-.73,0-.75.24.25.25.64.21.75-.26ZM14.65,47.5l-.25.34c-.06.07.21.26.26.2l.33-.46s1.06.57,1.32.73a1.21,1.21,0,0,1,.24-.6c-.34-.08-1-.3-1-.3a.5.5,0,0,1-.21.1.68.68,0,0,1-.32-.26h0s.17.07.2,0l.13-.18.3.14.14-.2-.25-.08,1.21-1.66a1.21,1.21,0,0,0,0-.38,1.14,1.14,0,0,0-.35.13L15.16,46.7,15,46.49l-.15.2.23.24-.12.16a.44.44,0,0,0-.56.11h0c.07,0,.36-.07.36.12a.36.36,0,0,0-.47.18h0S14.56,47.41,14.65,47.5Zm3.11,7.39h.62V53.22h-.62ZM13.9,49.78l.41.18v-.05l.34.1c-.09.09-.06.23-.07.29h0a.39.39,0,0,1,.34-.19h0a.38.38,0,0,0-.22.44h0a.58.58,0,0,1,.31-.2v.48a.63.63,0,0,0,.78-.43s0-.08,0-.11l-.41-.1A2.83,2.83,0,0,1,17,49.66a1.58,1.58,0,0,1,1.42,1.49.9.9,0,0,1-.14.48c-.16.23-.28.18-.33.12h0c.07.3.46.28.5.13s0,0,0,0c.21.73,1.09,0,1.55.87,0,0-.24.13-.38,0s-.4,0-.44.12h0a.31.31,0,0,1,.4.16c-.21-.09-.51,0-.37.38h0a.22.22,0,0,1,.26-.17l.07,0a.28.28,0,0,0-.15.36.26.26,0,0,0,.15.16h0c0-.19.06-.32.19-.32a.34.34,0,0,0,.36-.22c.13.22.38.13.5.09h0c-.17,0-.38-.16-.2-.28a.37.37,0,0,0,.47-.2h0s-.37.19-.45-.14-.08-.58-.26-.65c.2-.09.26-.24.11-.46h0c0,.49-1,.09-1.07-.6.72.18,1.44,0,1.44-.72S20,49.33,20,49a.3.3,0,0,1,.29-.3h0a.82.82,0,0,1,.66.6h0c.09-.14.11-.36,0-.43s0,0,0,0,.6,0,.6-.37v-.26c0-.06-.07-.06-.1,0a.32.32,0,0,1-.35.28c-.23,0-.62-.12-.89-.12a.66.66,0,0,0-.69.61v0c0,.6.62.7.62,1.27,0,.41-.58.55-1,.15a3.46,3.46,0,0,0-.48-1.25c-1.1.35-1.31-.35-1.91-.35s-1.15.9-1.66,1l.07-.52h0v-.44s-.12.28-.13.33,0,0,0,0-.16-.39-.16-.39v.42h0l-.26-.38s.06.29.1.46h0L14.35,49l.19.46h0l-.39-.27.27.39h0L14,49.45l.31.31h0Zm3.57-3.32c.28-.19.65-.15.58.2,0,0-.06.08-.4.08a.83.83,0,0,0,0,.15.17.17,0,0,0,0,.19.93.93,0,0,1,.47-.11c.06.17,0,.4-.49.47s-.94.27-1,.94a2.07,2.07,0,0,1,1.15.37A1.39,1.39,0,0,0,19,48.63.44.44,0,0,1,19,48a.37.37,0,0,0,.48.17l.06,0m0,0a.44.44,0,0,1-.21-.6l0-.06c.14.2.45,0,.48-.12h0c-.21.06-.3-.16-.3-.32a1.48,1.48,0,0,0-.12-1,1.24,1.24,0,0,1,.58-.3s0,0,0-.06-.54,0-.61-.07a5.43,5.43,0,0,0-.09-.56l-.5.25a2.34,2.34,0,0,0-.41-.46c-.15-.1-.05,0,0,0a1.24,1.24,0,0,1,.08.63c-.43,0-.57.13-.6.25s-.51.25-.51.34a.17.17,0,0,0,.06.1.32.32,0,0,0,.07.3Zm-1.29-2.18c-.14.26-.31.28-.45.13S18,45.9,18.27,45.91Zm2.92-.27h-.62v1.71h.62Zm-4.37,6.58c0-.76.4-.89,1.29-1.23h0a.29.29,0,0,1-.17-.51.91.91,0,0,0-.5-.19c-.66,0-1.18.74-1.27.84s-.26.27-.37.13h0c0,.3.24.31.34.25h0a2.48,2.48,0,0,0,.17.85s-.32.29-.52.29-.16-.26-.36-.26a.3.3,0,0,0-.2.1h0c.16,0,.25.11.21.25-.2-.17-.48-.13-.48.23h0a.25.25,0,0,1,.36,0h0a.28.28,0,0,0-.27.29.31.31,0,0,0,.09.2h0a.22.22,0,0,1,.22-.23h0c.21,0,.34.18.5,0,0,.24.31.23.42.23h0a.3.3,0,0,1-.16-.23c0-.16.33-.35.43-.35s.14.09.32.09a.33.33,0,0,0,.26-.13h0c-.23,0-.36-.23-.36-.62Zm-.14-5.77h0a.33.33,0,0,0,.19.42l.1,0c.26,0,.28-.19.7-.25v-.06a1.14,1.14,0,0,0-.45,0C16.89,46.69,16.74,46.57,16.68,46.45ZM73.12,43v1.58c0,1.07.42,1.54,1.3,1.54s1.15-.34,1.19-1l-.11,0a1.37,1.37,0,0,1-.8.29c-.41,0-.67-.31-.67-1.2V41.47h1.43l.07-.6H74.08l0-1h-.36l-1.19,1.18v.36h.61ZM57.86,47.77c0,.28-.31.5-.58.6v.18a2.64,2.64,0,0,0,.79.1,4.45,4.45,0,0,0,1.41-.2v-.22l-.7-.13V45.94a1.86,1.86,0,0,0,.7.14c1.4,0,2.68-1.06,2.68-3.1a2,2,0,0,0-2-2.32,2.18,2.18,0,0,0-1.42.56v-.5h-.26a5.33,5.33,0,0,0-1.32.19v.25l.72.29Zm.92-6.12a2,2,0,0,1,1-.25c.74,0,1.44.61,1.44,1.83,0,1.58-.79,2.23-1.75,2.23a3.33,3.33,0,0,1-.7-.07Zm6.57-1c-1.15,0-2.3,1-2.31,3a2.32,2.32,0,0,0,2.11,2.51h.17c1.17,0,1.89-.46,1.89-1a1.4,1.4,0,0,0,0-.29,2.88,2.88,0,0,1-1.59.48c-.9,0-1.58-.71-1.58-2H67.2v-.7a1.84,1.84,0,0,0-1.62-2,1.23,1.23,0,0,0-.27,0ZM64,42.84a1.51,1.51,0,0,1,1.24-1.59c.66,0,1.12.51,1.12,1.59Zm-9.53,3.27a1.84,1.84,0,0,0,2-1.59c0-.65-.29-1.06-1.1-1.37l-.62-.26c-.66-.25-.86-.47-.86-.86s.33-.69,1-.69a2.43,2.43,0,0,1,1.25.42,1.76,1.76,0,0,0,.06-.46c0-.42-.36-.68-1.23-.68a1.75,1.75,0,0,0-1.92,1.57v0a1.44,1.44,0,0,0,1,1.36l.55.24c.72.3.94.54.94.92s-.32.69-.94.69a2.24,2.24,0,0,1-1.58-.69.74.74,0,0,0-.08.44c0,.64.48.94,1.45.94Zm-6.78-.94c0,.27-.3.49-.58.6V46a2.59,2.59,0,0,0,.79.09,3.35,3.35,0,0,0,1.33-.18v-.21l-.62-.16V41.8a2.05,2.05,0,0,1,1.13-.34c.65,0,1.1.41,1.1,1.49V45a.68.68,0,0,1-.4.73V46a2.23,2.23,0,0,0,.72.09,3,3,0,0,0,1.16-.18v-.2l-.58-.16V42.42c0-1.14-.62-1.72-1.54-1.72a2.39,2.39,0,0,0-1.63.61v-.59h-.26a5.4,5.4,0,0,0-1.32.19v.25l.72.29Zm-3.17-.27a.8.8,0,0,1-.65.84V46a4,4,0,0,0,1,.11,4.51,4.51,0,0,0,1.26-.18v-.24l-.69-.18V40a.72.72,0,0,1,.63-.79V39a4.22,4.22,0,0,0-1-.08,4.92,4.92,0,0,0-1.27.17v.25l.7.17Zm36.79,1.21c1.17,0,1.9-.46,1.9-1a.93.93,0,0,0,0-.29,2.86,2.86,0,0,1-1.55.48c-.91,0-1.63-.71-1.63-2h3.24v-.7a1.83,1.83,0,0,0-1.6-2,1.51,1.51,0,0,0-.3,0c-1.14,0-2.3,1-2.3,3a2.32,2.32,0,0,0,2.11,2.51h.18Zm-.07-4.87c.65,0,1.12.52,1.12,1.59H80a1.53,1.53,0,0,1,1.28-1.59Zm9,2.72a1.92,1.92,0,0,0-1.15-1.7l-1.1-.59a1.21,1.21,0,0,1-.79-1.11,1.17,1.17,0,0,1,1.28-1.05h0c.73,0,1,.22,1.18.89l0,.23h.33l.1-1.59a3.92,3.92,0,0,0-1.55-.26,2.11,2.11,0,0,0-2.29,1.92h0a1.83,1.83,0,0,0,1,1.7l1,.62c.68.4,1,.8,1,1.23,0,.67-.62,1.15-1.44,1.15s-1.19-.26-1.35-.87l-.08-.28h-.31v1.59a4.9,4.9,0,0,0,1.7.24A2.39,2.39,0,0,0,90.33,44Zm8.46,2.11.41,0,1.52-5.76h0l1.55,5.81.43,0,1.8-6.05a1.23,1.23,0,0,1,.55-.8V39a2.46,2.46,0,0,0-.72-.11,3.78,3.78,0,0,0-1.15.18v.24l.67.2-1.21,4.77h0l-1.06-4.46c-.08-.32,0-.5.2-.58V39a3,3,0,0,0-.89-.1,4.33,4.33,0,0,0-1.19.17v.25l.58.18L99.1,44.28h0l-1.2-4.43c-.1-.35,0-.55.34-.63V39a4,4,0,0,0-2.1.08v.24l.6.18ZM77.32,39.71a.63.63,0,0,0,.62-.66v0a.56.56,0,0,0-.54-.59h0a.62.62,0,0,0-.63.61v0a.59.59,0,0,0,.56.63h0Zm18.37,4.6h-.35l0,.17a1,1,0,0,1-1.14.79h-2l3.46-6.1-.1-.24H91.3l-.13,1.63h.36l.08-.23a.9.9,0,0,1,.89-.75h1.93L91,45.66l.09.27h4.51Zm-18.83.86c0,.27-.27.49-.58.6h0V46a2.69,2.69,0,0,0,.8.09,3.43,3.43,0,0,0,1.27-.18v-.2l-.61-.16V41.3l.05-.59h-.35a5.34,5.34,0,0,0-1.32.2v.24l.7.3Zm-6.61.95c1,0,1.59-.4,1.59-.92a.57.57,0,0,0-.06-.28,2.19,2.19,0,0,1-1.26.45c-.85,0-1.58-.66-1.58-2s.64-2,1.39-2a2,2,0,0,1,1.28.5,1.37,1.37,0,0,0,.14-.57c0-.36-.29-.65-1.19-.65A2.65,2.65,0,0,0,68,43.59a2.34,2.34,0,0,0,2.11,2.53h.16Zm73.17,8.07a1,1,0,0,0-.93-1.14h-.26c-1,0-2.31,1.18-2.31,3.64,0,1.32.65,1.92,1.59,1.92s1.59-.44,1.59-1a.36.36,0,0,0-.11-.26,1.72,1.72,0,0,1-1.2.56c-.64,0-1-.32-1-1.66,1.31,0,2.63-.79,2.63-2.09Zm-2.58,1.58c0-1.26.69-2.09,1.17-2.09.32,0,.53.2.53.71,0,.84-.7,1.38-1.69,1.38Zm-86,10.95a1,1,0,0,0-.91-1.14,1.13,1.13,0,0,0-.26,0c-1.06,0-2.31,1.17-2.31,3.64,0,1.31.63,1.92,1.59,1.92s1.58-.44,1.58-1a.38.38,0,0,0-.1-.27,1.67,1.67,0,0,1-1.2.55c-.64,0-1-.32-1-1.65C53.54,68.77,54.85,68,54.85,66.72Zm-2.59,1.59c0-1.26.7-2.11,1.18-2.11s.52.2.52.73c0,.79-.69,1.33-1.7,1.33ZM76.2,52a.67.67,0,0,0,.61-.68.49.49,0,0,0-.46-.52h0a.65.65,0,0,0-.62.67.48.48,0,0,0,.43.53ZM58.1,65.62c-.34,0-.63.21-.92.69l-.58,1h0l.33-1.59a1,1,0,0,0-.46-.08,2.75,2.75,0,0,0-1.06.18V66l.67.2L55.54,71h.91l.09-1.59c.1-2,.79-2.79,1.48-2.79a1,1,0,0,1,.34,0,1.43,1.43,0,0,0,.12-.58C58.47,65.77,58.35,65.62,58.1,65.62ZM76.51,53.16a1.46,1.46,0,0,0-.5-.06,2.93,2.93,0,0,0-1.1.19v.21l.66.19-.06.66-.35,2.24C75.11,57,75,57.73,75,58a.48.48,0,0,0,.43.51h.1a2,2,0,0,0,.79-.16v-.18a.57.57,0,0,1-.44-.63A6.06,6.06,0,0,1,76,56.4Zm-14,.53a1.79,1.79,0,0,1,1.2.54.9.9,0,0,0,.2-.57c0-.36-.39-.59-1.2-.59A1.58,1.58,0,0,0,61,54.52a1.47,1.47,0,0,0,.65,1.24l.39.36c.54.48.68.72.68,1.08a.93.93,0,0,1-.94.8,1.51,1.51,0,0,1-1.08-.46.73.73,0,0,0-.17.47c0,.4.31.62,1,.62a1.87,1.87,0,0,0,2-1.58,1.61,1.61,0,0,0-.71-1.28l-.41-.38c-.55-.49-.68-.68-.68-1A.71.71,0,0,1,62.53,53.69ZM51.76,64.17V64a1.54,1.54,0,0,0-.64-.11,3.49,3.49,0,0,0-1.06.16v.22l.58.17L49,69.79h0l-.43-5.9-1,.06L45.72,69.6h0l-.52-5.11a.34.34,0,0,1,.27-.32V64a2.29,2.29,0,0,0-.86-.11,2.46,2.46,0,0,0-.93.16v.22l.55.18.89,6.61h.73l1.93-6.16h0l.5,6.2h.79l2.34-6.52A.53.53,0,0,1,51.76,64.17Zm19.16,2.55a1.06,1.06,0,0,0-1.18-1.14c-1,0-2.3,1.17-2.32,3.64,0,1.31.64,1.92,1.59,1.92s1.59-.44,1.59-1a.39.39,0,0,0-.11-.27,1.67,1.67,0,0,1-1.2.55c-.63,0-1-.32-1-1.65C69.6,68.77,70.92,68,70.92,66.72Zm-2.58,1.59c0-1.26.69-2.11,1.18-2.11.31,0,.52.2.52.73,0,.79-.7,1.33-1.73,1.33ZM52,51.5a.48.48,0,0,0,.44.53h.07a.67.67,0,0,0,.62-.68.5.5,0,0,0-.48-.52h0A.67.67,0,0,0,52,51.5Zm2.77,3.37h0l.35-1.65a1.33,1.33,0,0,0-.45-.08,2.88,2.88,0,0,0-1.09.19v.2l.67.2-.55,4.77h.94l.06-1.86c0-1.59.92-2.76,1.54-2.76.27,0,.49.17.49.66a9.29,9.29,0,0,1-.12,1.06l-.18,1.29a11.12,11.12,0,0,0-.13,1.16.49.49,0,0,0,.46.51h.08a1.78,1.78,0,0,0,.88-.2v-.19c-.34-.07-.52-.21-.52-.57a7.07,7.07,0,0,1,0-.92l.2-1.18a13.15,13.15,0,0,0,.16-1.39c0-.67-.39-1-.87-1C56,53.09,55.23,53.75,54.73,54.87Zm4.55-3.37a.48.48,0,0,0,.43.53h.07a.68.68,0,0,0,.62-.68.5.5,0,0,0-.49-.52h0A.66.66,0,0,0,59.28,51.5Zm88.29,6.09c0-.23.06-.66.09-.92l.2-1.18A13.15,13.15,0,0,0,148,54.1c0-.67-.38-1-.86-1-.75,0-1.48.66-2,1.78h0l.34-1.65a1.11,1.11,0,0,0-.44-.08,2.73,2.73,0,0,0-1.09.19v.2l.67.2-.55,4.77H145l.06-1.86c0-1.59.92-2.76,1.54-2.76.26,0,.48.17.48.66a7,7,0,0,1-.11,1.12l-.2,1.27a9,9,0,0,0-.14,1.16.5.5,0,0,0,.46.51h.08a1.84,1.84,0,0,0,.89-.2V58.2C147.74,58.09,147.57,58,147.57,57.59ZM66,53.22l.18-.9h-.16a4.92,4.92,0,0,0-1.48,1.32v.14h.62l-.15.71a18.82,18.82,0,0,0-.35,2.7c0,.87.39,1.35,1.12,1.35a1.06,1.06,0,0,0,1-.53v-.19a1.33,1.33,0,0,1-.45.08c-.48,0-.84-.32-.84-1s.11-1.26.21-1.89l.19-1.12h.3c.7,0,1-.2,1-.68a4.08,4.08,0,0,1-.85.08ZM62.8,69.1c0,1.34.52,2,1,2s1.27-.7,1.7-1.74h0l-.21,1.93c-.16,1.27-.8,1.87-1.59,1.87-.62,0-1-.29-1-.72a1,1,0,0,1,.29-.72,1.07,1.07,0,0,0-1.09,1c0,.58.59,1,1.59,1,1.45,0,2.68-1.07,2.68-3.58a15.09,15.09,0,0,1,.17-2.22l.43-2.12a6.16,6.16,0,0,0-1.28-.17C64,65.57,62.8,67,62.8,69.1ZM65.58,68c-.23,1.59-.9,2.33-1.36,2.32-.28,0-.57-.39-.57-1.34,0-1.89.8-2.8,1.59-2.8a2.51,2.51,0,0,1,.55.06Zm92.76-10.41a7,7,0,0,1,.09-.92l.2-1.18a13.15,13.15,0,0,0,.16-1.39c0-.67-.38-1-.87-1-.75,0-1.48.66-2,1.78h0l.36-1.68a1.16,1.16,0,0,0-.45-.08,2.73,2.73,0,0,0-1.09.19v.2l.67.2-.55,4.77h.94l.06-1.86c0-1.59.92-2.76,1.54-2.76.26,0,.48.17.48.66a7,7,0,0,1-.11,1.12l-.2,1.26a9.4,9.4,0,0,0-.14,1.16.5.5,0,0,0,.46.52H158a1.78,1.78,0,0,0,.88-.2v-.19C158.52,58.09,158.34,58,158.34,57.59Zm-55.51-1c0,1.31.72,2,1.59,2,1.09,0,2.38-1.37,2.38-3.7,0-1.26-.63-1.85-1.52-1.85C104.05,53,102.83,54.31,102.83,56.62Zm2.2-2.93c.48,0,.84.43.84,1.41,0,2-.74,2.87-1.26,2.87s-.91-.47-.91-1.73c0-1.55.73-2.55,1.33-2.55ZM76.74,69.9a1.69,1.69,0,0,1-1.2.55c-.62,0-1-.32-1-1.66,1.31,0,2.64-.79,2.64-2.09a1,1,0,0,0-.93-1.14,1.13,1.13,0,0,0-.26,0c-1.05,0-2.31,1.17-2.32,3.64,0,1.31.65,1.91,1.59,1.91s1.59-.44,1.59-1A.33.33,0,0,0,76.74,69.9Zm-.95-3.72c.32,0,.53.2.53.72,0,.84-.71,1.39-1.71,1.39,0-1.29.7-2.13,1.18-2.13ZM62.45,70.69a1.58,1.58,0,0,1-.71-.59L60.37,68l.47-.32c.8-.55,1.51-1.37,1.51-1.79,0-.22-.2-.36-.74-.36a4.18,4.18,0,0,1-1.24,1.92l-.62.49h0l.64-4.84a2.07,2.07,0,0,0-.5-.06,3.06,3.06,0,0,0-1.12.18v.21l.68.19L59,68.06l-.44,2.87h.95l.2-2.62h0l1.13,2.09c.3.53.59.7.92.7a1.25,1.25,0,0,0,.68-.17ZM154.2,54.17a1,1,0,0,0-.92-1.14H153c-1.06,0-2.31,1.18-2.32,3.64,0,1.32.64,1.92,1.59,1.92s1.59-.44,1.59-1a.46.46,0,0,0-.11-.27,1.7,1.7,0,0,1-1.2.56c-.64,0-1-.32-1-1.65,1.3,0,2.62-.78,2.62-2.08Zm-2.59,1.59c0-1.26.69-2.1,1.18-2.1.32,0,.52.2.52.72,0,.85-.7,1.39-1.7,1.39ZM59.1,54.35l-.32,2.24A11.68,11.68,0,0,0,58.63,58a.48.48,0,0,0,.41.51h.12a2,2,0,0,0,.79-.16v-.18a.57.57,0,0,1-.43-.63,9.48,9.48,0,0,1,0-1.19l.49-3.24a1.61,1.61,0,0,0-.49-.06,2.93,2.93,0,0,0-1.1.19v.21l.66.2Zm21.62-.16a1,1,0,0,0-.93-1.14h-.25c-1.06,0-2.31,1.18-2.32,3.64,0,1.32.64,1.92,1.59,1.92s1.59-.44,1.59-1a.36.36,0,0,0-.11-.26,1.72,1.72,0,0,1-1.2.56c-.63,0-1-.32-1-1.66A2.37,2.37,0,0,0,80.72,54.19Zm-2.59,1.58c0-1.26.7-2.09,1.19-2.09.32,0,.52.2.52.71,0,.84-.71,1.38-1.71,1.38ZM52.78,53.16a1.38,1.38,0,0,0-.49-.06,3,3,0,0,0-1.11.19v.21l.66.19-.05.66-.36,2.24A14.35,14.35,0,0,0,51.3,58a.46.46,0,0,0,.4.51h.12a2,2,0,0,0,.79-.16v-.18a.57.57,0,0,1-.43-.63,9.57,9.57,0,0,1,.11-1.19Zm16.15,5.45c.89,0,1.59-.44,1.59-1a.36.36,0,0,0-.11-.26,1.72,1.72,0,0,1-1.2.56c-.63,0-1-.32-1-1.66,1.31,0,2.64-.79,2.64-2.09a1,1,0,0,0-.93-1.14h-.25c-1.06,0-2.32,1.18-2.32,3.64C67.36,58,68,58.61,68.93,58.61Zm.53-4.94c.32,0,.52.2.52.71,0,.85-.7,1.39-1.7,1.39C68.31,54.5,69,53.67,69.46,53.67Zm13.26-.17.47.19.45,4.94h.21a2.23,2.23,0,0,0,.59-.41,8.22,8.22,0,0,0,2.14-4.47c0-.48-.25-.66-.6-.66a1.45,1.45,0,0,0-.68.16v.18a.61.61,0,0,1,.4.6,6.42,6.42,0,0,1-1.38,3.64h0l-.24-4.51a1.76,1.76,0,0,0-.46-.06,2.47,2.47,0,0,0-.89.17ZM45.06,58.36v-.22L44.48,58l1.06-5.18h0l1.08,5.76H47l2-5.77h0L49,57.67a.54.54,0,0,1-.35.57v.19a3.57,3.57,0,0,0,1,.11,2.52,2.52,0,0,0,.9-.17v-.21L49.92,58l-.25-6.09.51-.13v-.27a6.19,6.19,0,0,0-1-.08h-.28L47,56.65h0l-1-5.24h-.36a4.78,4.78,0,0,0-1.13.13v.26l.59.13-1.38,5.89a.62.62,0,0,1-.38.41h0v.18a2.36,2.36,0,0,0,.79.11A2.09,2.09,0,0,0,45.06,58.36ZM99.6,66.72a1,1,0,0,0-.92-1.14,1.13,1.13,0,0,0-.26,0c-1.06,0-2.31,1.17-2.32,3.64,0,1.31.64,1.92,1.59,1.92s1.59-.44,1.59-1a.39.39,0,0,0-.11-.27,1.65,1.65,0,0,1-1.19.55c-.64,0-1-.32-1-1.65C98.28,68.77,99.6,68,99.6,66.72ZM97,68.31c0-1.26.7-2.11,1.18-2.11.32,0,.52.2.52.73,0,.79-.69,1.33-1.7,1.33Zm4.77-2.61a1.67,1.67,0,0,0-.5-.06,3,3,0,0,0-1.1.18V66l.66.21,0,.65-.38,2.21a14.15,14.15,0,0,0-.14,1.46.46.46,0,0,0,.4.5h.13a2.14,2.14,0,0,0,.79-.16v-.21a.56.56,0,0,1-.45-.62c0-.28,0-.86.09-1.18Zm-7,4.41a7.45,7.45,0,0,1,.08-.94l.2-1.16a10.77,10.77,0,0,0,.17-1.39c0-.61-.33-1-.87-1-.72,0-1.4.61-1.85,1.59h0l.58-4a2.07,2.07,0,0,0-.5-.06,3.08,3.08,0,0,0-1.13.18v.21l.68.19-.35,3.75-.46,3.49h.92l.14-2.1c.1-1.59.91-2.51,1.46-2.51.29,0,.49.17.49.65a8.33,8.33,0,0,1-.11,1.12L94,69.31c-.07.4-.11.81-.14,1.21a.49.49,0,0,0,.45.51h.09a1.9,1.9,0,0,0,.88-.21v-.18c-.39-.08-.55-.22-.55-.58Zm6.79-6.75A.68.68,0,0,0,101,64a.5.5,0,0,0,.44.53h.06a.67.67,0,0,0,.62-.69.5.5,0,0,0-.42-.56h-.09Zm-6.27-5.77c0-.31,0-.62.09-.92l.2-1.18a13.15,13.15,0,0,0,.16-1.39c0-.67-.38-1-.87-1-.74,0-1.47.66-2,1.78h0l.35-1.68a1.11,1.11,0,0,0-.44-.08,2.74,2.74,0,0,0-1.1.19v.2l.68.2-.56,4.77h.94l.06-1.86c.05-1.59.92-2.76,1.54-2.76.27,0,.49.17.49.66a8.33,8.33,0,0,1-.11,1.12l-.25,1.26a7.49,7.49,0,0,0-.13,1.16.47.47,0,0,0,.44.51h.09a1.8,1.8,0,0,0,.88-.2v-.19C95.45,58.09,95.31,58,95.31,57.59Zm-22,5.5a1.78,1.78,0,0,0-.51-.06,3,3,0,0,0-1.1.18v.21l.7.19-.8,5.47c-.05.41-.13,1.13-.13,1.44A.49.49,0,0,0,72,71a2,2,0,0,0,.84-.16v-.18a.58.58,0,0,1-.5-.62,9.85,9.85,0,0,1,.09-1.21Zm12.45,3.63a1.06,1.06,0,0,0-1.18-1.14c-1.06,0-2.31,1.17-2.32,3.64,0,1.31.64,1.92,1.59,1.92s1.59-.44,1.59-1a.39.39,0,0,0-.11-.27,1.69,1.69,0,0,1-1.2.55c-.63,0-1-.32-1-1.65C84.46,68.77,85.78,68,85.78,66.72Zm-2.59,1.59c0-1.26.7-2.11,1.19-2.11.32,0,.52.2.52.73,0,.79-.71,1.33-1.71,1.33Zm-5.56.85c0,1.33.52,2,1,2s1.28-.7,1.7-1.74h0l-.2,1.94c-.16,1.27-.8,1.87-1.59,1.87-.62,0-1-.3-1-.73a.94.94,0,0,1,.29-.71,1.06,1.06,0,0,0-1.09.94c0,.59.58,1,1.59,1,1.46,0,2.69-1.07,2.69-3.58a16.57,16.57,0,0,1,.16-2.22l.43-2.12a4.94,4.94,0,0,0-1.28-.17c-1.47-.05-2.7,1.38-2.7,3.48Zm2.77-1.11c-.22,1.59-.9,2.33-1.37,2.32-.27,0-.55-.39-.55-1.33,0-1.89.79-2.8,1.58-2.8a2.09,2.09,0,0,1,.56.05ZM90.93,53.31a5.06,5.06,0,0,0-1.22-.17c-1.5,0-2.8,1.31-2.8,3.57,0,1.27.49,1.94,1,1.94s1.27-.68,1.71-1.78h0l-.25,1.65a1.7,1.7,0,0,0,.46.07,3,3,0,0,0,1-.16V58.2c-.39-.07-.53-.19-.53-.9a13.31,13.31,0,0,1,.26-2.07ZM89.71,55.6c-.26,1.51-.89,2.25-1.39,2.25-.26,0-.54-.4-.54-1.34,0-1.86.8-2.8,1.66-2.8a2.76,2.76,0,0,1,.57.06Zm.21,14.48c0-.23.06-.66.09-.91l.2-1.19a12.67,12.67,0,0,0,.16-1.38c0-.67-.39-1-.86-1-.75,0-1.48.66-2,1.78h0l.36-1.67a1,1,0,0,0-.45-.08,2.92,2.92,0,0,0-1.1.18V66l.68.2L86.46,71h.91l.08-1.87c0-1.59.93-2.75,1.54-2.75.26,0,.49.16.49.66a10.36,10.36,0,0,1-.11,1.12l-.21,1.26A11.66,11.66,0,0,0,89,70.56a.48.48,0,0,0,.45.5h.09a2,2,0,0,0,.89-.21v-.16c-.35-.11-.53-.25-.53-.62Zm8.85-16.81a1.76,1.76,0,0,0,.67,1.38l.73.69c.79.71.94,1,.94,1.52A1.21,1.21,0,0,1,99.84,58h-.07c-.73,0-1-.19-1.12-.79V57h-.36l-.14,1.43a4.36,4.36,0,0,0,1.52.24,2.26,2.26,0,0,0,2.38-2.08c0-.59-.25-1-1-1.73l-.73-.65c-.52-.47-.66-.7-.66-1.1A1.09,1.09,0,0,1,100.7,52h.17c.66,0,1,.26,1,.8V53h.31l.14-1.38a3,3,0,0,0-1.42-.26,2,2,0,0,0-2.18,1.87v.07Zm36.29,0a5,5,0,0,0-1.21-.18c-1.51,0-2.8,1.31-2.8,3.57,0,1.27.48,1.94,1,1.94s1.27-.68,1.7-1.78h0l-.26,1.65a1.85,1.85,0,0,0,.46.08,2.93,2.93,0,0,0,1-.17v-.23c-.38-.06-.52-.19-.52-.9a13,13,0,0,1,.25-2.06Zm-1.25,2.33c-.25,1.51-.89,2.25-1.37,2.25-.27,0-.56-.4-.56-1.34,0-1.86.8-2.8,1.66-2.8a2.86,2.86,0,0,1,.58.06ZM126.51,53h.34l.08-.16c.28-.56.54-.76,1-.76h1.59l-3.64,6.18v.23h4.22l.26-1.5H130l-.08.21a1,1,0,0,1-1,.71h-1.82l3.62-6.18v-.24h-4Zm-55,5.5h.92l.08-1.59c.1-2,.8-2.79,1.48-2.79a1,1,0,0,1,.34,0,1.47,1.47,0,0,0,.12-.58c0-.24-.12-.4-.35-.4a1.28,1.28,0,0,0-.93.7l-.58,1h0l.33-1.59a1.21,1.21,0,0,0-.46-.08,2.81,2.81,0,0,0-1.07.19v.2l.67.2Zm52.55-4.27a1,1,0,0,0-.91-1.14h-.26c-1.06,0-2.31,1.18-2.31,3.64,0,1.32.63,1.92,1.59,1.92s1.58-.44,1.58-1a.4.4,0,0,0-.1-.26,1.72,1.72,0,0,1-1.2.56c-.64,0-1-.32-1-1.66A2.38,2.38,0,0,0,124.08,54.19Zm-2.58,1.58c0-1.26.7-2.09,1.18-2.09.32,0,.52.2.52.71,0,.84-.7,1.38-1.67,1.38Zm17.41,1.86-1.39-2.13.48-.32c.79-.54,1.51-1.36,1.51-1.78,0-.22-.2-.37-.74-.37a4.11,4.11,0,0,1-1.2,1.93l-.62.48h0l.64-4.83a2.07,2.07,0,0,0-.5-.06,3.28,3.28,0,0,0-1.12.17v.21l.69.21-.47,4.46-.44,2.87h.95l.18-2.66h0L138,57.9c.28.54.58.69.91.69a1.24,1.24,0,0,0,.68-.15v-.22a1.6,1.6,0,0,1-.7-.59Zm-26.2-6.8a.68.68,0,0,0-.62.68.48.48,0,0,0,.43.53h.08a.68.68,0,0,0,.62-.68.51.51,0,0,0-.48-.53Zm7.51-.22a2.2,2.2,0,0,0-.5-.06,3.22,3.22,0,0,0-1.11.17v.21l.7.21-.79,5.45a11.69,11.69,0,0,0-.14,1.44.49.49,0,0,0,.44.53h.11a2.06,2.06,0,0,0,.85-.15v-.19a.59.59,0,0,1-.5-.62,8.25,8.25,0,0,1,.09-1.22Zm-10.39,2.45c-1.16,0-2.3,1.17-2.3,3.6,0,1.33.6,2,1.38,2,1,0,1.49-.49,1.49-1a.43.43,0,0,0-.11-.3,1.58,1.58,0,0,1-1.12.67c-.39,0-.79-.44-.79-1.46,0-1.92.7-2.78,1.22-2.78a1.14,1.14,0,0,1,.94.64,1.34,1.34,0,0,0,.26-.79C110.79,53.3,110.49,53.06,109.83,53.06Zm3.08.1a1.38,1.38,0,0,0-.49-.06,3,3,0,0,0-1.11.19v.21l.66.19,0,.66-.36,2.24c0,.43-.15,1.14-.14,1.45a.47.47,0,0,0,.41.51H112a2,2,0,0,0,.79-.16v-.18a.57.57,0,0,1-.44-.63,11.49,11.49,0,0,1,.09-1.18Zm4.7.11a5,5,0,0,0-1.21-.18c-1.51,0-2.8,1.31-2.8,3.57,0,1.27.48,1.94,1,1.94s1.27-.68,1.7-1.78h0l-.26,1.65a1.85,1.85,0,0,0,.46.08,2.93,2.93,0,0,0,1-.17v-.23c-.38-.06-.52-.19-.52-.9a13,13,0,0,1,.25-2.06Zm-1.25,2.33c-.26,1.51-.89,2.25-1.37,2.25-.27,0-.56-.4-.56-1.34,0-1.86.8-2.8,1.66-2.8a2.93,2.93,0,0,1,.58.06Zm-9.49,7.5a1.75,1.75,0,0,0-.51-.07,3.32,3.32,0,0,0-1.16.19v.2l.73.2-.32,2h-.42c-1.48,0-2.74,1.36-2.74,3.57,0,1.29.51,1.94,1,1.95s1.32-.8,1.72-1.8h0L104.89,71a1.24,1.24,0,0,0,.46.08,3,3,0,0,0,1-.16v-.23c-.37-.06-.52-.18-.52-.9s.12-1.4.23-2.1Zm-1.66,5c-.24,1.53-.92,2.25-1.37,2.25-.28,0-.54-.42-.54-1.33,0-2,.79-2.81,1.69-2.81a2.24,2.24,0,0,1,.52.06Z" fill="#333"/></svg>
