<svg xmlns="http://www.w3.org/2000/svg" width="111.95" height="50" viewBox="0 0 111.95 50"><path fill="#333" d="M19.59,8.18c.84-2.9,4.45-4.24,6.76-4.24h3.33L30.44,0H26.35C22.11,0,17.1,2.5,15.83,7.13c-.3,1.09-.83,3.57-1.49,6.66H10.83l-.76,3.71h3.48c-1.21,6-2.63,13.13-3.63,18H8.83a8,8,0,0,0-6.61,2.81A10.91,10.91,0,0,0,0,44.78C0,48,2.06,50,5.73,50c2.64,0,5.46-1.24,6.4-5.83.45-2.27.45-2.21,1.3-6.34h97l.48-2.33h-97C15.62,27,18.71,11.34,19.59,8.18ZM8.28,43.45c-.52,2.5-.94,3.94-2.43,3.94-1.09,0-1.87-1-1.87-2.67a11.24,11.24,0,0,1,1.2-4.85,3.47,3.47,0,0,1,3-2.06H9.4C8.7,41.27,8.43,42.58,8.28,43.45Zm38.2-22.1A5.4,5.4,0,0,1,48,21.1c1.12,0,1.55.52,1.55,1.22a3.93,3.93,0,0,1-.06.48l-1.76,8.55h3.52L53,23a5.25,5.25,0,0,0,.12-1c0-1.85-1.3-3.09-4.61-3.09a14.06,14.06,0,0,0-5.21.91L40.9,31.33h3.55ZM28.5,27c0,2.83,1.83,4.55,5,4.55a10.81,10.81,0,0,0,4.73-.9l2.25-10.84a9.32,9.32,0,0,0-4.28-.91,7.14,7.14,0,0,0-5.79,2.46A9.65,9.65,0,0,0,28.5,27Zm4.55-4.24a3,3,0,0,1,2.61-1.81,2.16,2.16,0,0,1,1,.2l-1.61,8a3,3,0,0,1-1.18.21C32.59,29.32,32,28.48,32,27A9.81,9.81,0,0,1,33.05,22.74ZM25.5,21.32a3.4,3.4,0,0,1,2.33.09L29,18.91a10.45,10.45,0,0,0-1.48,0,13.46,13.46,0,0,0-5.25.91L19.89,31.33h3.55Zm79.59,7.76h0a3.34,3.34,0,0,1-2-.58l-1.3,2.13a6.42,6.42,0,0,0,3.4.9c3.63,0,5.52-2.21,5.52-4.55,0-2.75-3.46-2.57-3.46-4.27A1.67,1.67,0,0,1,109,21.13h0a3,3,0,0,1,1.75.52L112,19.77a5.7,5.7,0,0,0-3.33-.91c-3.13,0-4.89,2.16-4.89,4.27,0,2.83,3.25,2.5,3.25,4.22A1.86,1.86,0,0,1,105.09,29.08ZM94.6,31.58h0a12.87,12.87,0,0,0,5.13-.91l2.4-11.56H98.58l-2,9.82a3.94,3.94,0,0,1-1.48.25c-1.09,0-1.43-.49-1.43-1.12a1.91,1.91,0,0,1,.1-.58l1.72-8.33H91.91l-1.67,8.09a6.23,6.23,0,0,0-.12,1.22c0,2.11,1.48,3.11,4.48,3.11Zm-35.77,0a4.78,4.78,0,0,0,3-.91l-.31-2.19a3.19,3.19,0,0,1-1.67.49c-1,0-1.55-.8-1.55-2.3a8.63,8.63,0,0,1,1-3.79,2.78,2.78,0,0,1,2.4-1.67A2.17,2.17,0,0,1,63,21.6l1.11-1.85a4.77,4.77,0,0,0-2.94-.91,5.71,5.71,0,0,0-4.7,2.58,10,10,0,0,0-1.67,5.4c-.05,2.92,1.68,4.75,4,4.75Zm25.74,0a4.76,4.76,0,0,0,3-.91l-.31-2.19a3.18,3.18,0,0,1-1.66.49c-1,0-1.58-.84-1.58-2.31a8.52,8.52,0,0,1,1-3.8,2.79,2.79,0,0,1,2.39-1.67,2.25,2.25,0,0,1,1.28.39l1.11-1.85a4.68,4.68,0,0,0-2.94-.9,5.67,5.67,0,0,0-4.69,2.57,10.08,10.08,0,0,0-1.67,5.4c0,2.94,1.72,4.77,4.09,4.77Zm-9.83-4.23a1.86,1.86,0,0,1-1.91,1.73,3.39,3.39,0,0,1-2-.58L69.5,30.63a6.41,6.41,0,0,0,3.39.9c3.64,0,5.52-2.21,5.52-4.55,0-2.75-3.45-2.57-3.45-4.27a1.67,1.67,0,0,1,1.75-1.58h0a3.1,3.1,0,0,1,1.76.52l1.2-1.88a5.68,5.68,0,0,0-3.33-.91c-3.12,0-4.88,2.16-4.88,4.27C71.5,26,74.74,25.65,74.74,27.35Zm-7.42,4,2.5-12.23h-3.5l-2.5,12.23ZM79.66,48h1.17V43H79.66Zm0-5.83h1.17v-1h-1.2ZM77,48h1.15V41.08H77Zm-4.25-1.54-2-5.12H69.41L72.17,48h1L76,41.33H74.71Zm-6.42-1.57-.89-.46c-.24.45-.48.88-.72,1.27l-1.15-1.15c.83-.33,1.45-.83,1.45-1.73h0a1.67,1.67,0,0,0-1.72-1.61h0a1.74,1.74,0,0,0-1.9,1.55s0,.08,0,.12h0a2.07,2.07,0,0,0,.55,1.39,2,2,0,0,0-1.42,1.88h0a2,2,0,0,0,2,1.92h.15a2.94,2.94,0,0,0,2-.87h0l.91.83.84-.61-1.06-1.06a11.16,11.16,0,0,0,.91-1.43Zm-3.89-2a.75.75,0,0,1,.66-.83h.18a.73.73,0,0,1,.76.69v.07c0,.48-.37.79-1,1.07a1.42,1.42,0,0,1-.51-1Zm.34,4.17a1,1,0,0,1-1.11-.86.37.37,0,0,1,0-.11h0A1.23,1.23,0,0,1,62.48,45L64,46.56a1.74,1.74,0,0,1-1.24.59ZM55.18,45c-.57-.18-1.11-.33-1.11-.7h0c0-.3.24-.52.69-.52a2.71,2.71,0,0,1,1.42.5l.46-.84a3.47,3.47,0,0,0-1.85-.57A1.66,1.66,0,0,0,53,44.4v0h0c0,1,.83,1.26,1.58,1.48.58.18,1.12.3,1.12.69h0c0,.34-.3.55-.83.55a2.82,2.82,0,0,1-1.67-.61l-.52.79a3.22,3.22,0,0,0,2.13.7c1,0,1.85-.52,1.85-1.58h0C56.73,45.57,55.92,45.24,55.18,45Zm47.25-2.09a1.79,1.79,0,0,0-1.58.83V43H99.73V48h1.15V45.21a1.1,1.1,0,0,1,1-1.23H102c.67,0,1.06.42,1.06,1.2V48h1.16V44.84a1.73,1.73,0,0,0-1.52-1.92A1.22,1.22,0,0,0,102.43,42.91ZM91.67,48h1.16v-7H91.67ZM89.09,41.6H87.94V43H87.3v1h.64v2.67c0,1.09.58,1.48,1.46,1.46a2.18,2.18,0,0,0,1-.25v-1a1.71,1.71,0,0,1-.73.18c-.37,0-.61-.18-.61-.64V44h1.37V43H89.08Zm-4.57,1.28A2.5,2.5,0,0,0,82,45.37a.66.66,0,0,0,0,.14,2.49,2.49,0,0,0,2.39,2.6h.16a2.51,2.51,0,0,0,2.1-.94l-.67-.6a1.78,1.78,0,0,1-1.37.6,1.4,1.4,0,0,1-1.45-1.27h3.7a1.93,1.93,0,0,0,0-.34,2.37,2.37,0,0,0-2.37-2.69Zm-1.34,2.27a1.29,1.29,0,1,1,2.58,0ZM96.13,43a4.3,4.3,0,0,0-1.91.42l.3.91a3.48,3.48,0,0,1,1.42-.3c.84,0,1.25.36,1.25,1.06v.09a4.41,4.41,0,0,0-1.4-.22c-1.15,0-2,.52-2,1.67h0a1.62,1.62,0,0,0,1.67,1.56h.12a2,2,0,0,0,1.67-.72v.63h1.11v-3A1.93,1.93,0,0,0,96.61,43a1.6,1.6,0,0,0-.49,0Zm1.09,3.21c0,.64-.58,1.06-1.34,1.06-.54,0-1-.24-1-.72h0c0-.49.42-.84,1.15-.84a3.05,3.05,0,0,1,1.15.22Zm-49.37-.35a1.12,1.12,0,0,1-1,1.24h-.15c-.67,0-1.06-.43-1.06-1.21V43H44.51v3.19a1.67,1.67,0,0,0,1.4,1.9,2.17,2.17,0,0,0,.36,0,1.8,1.8,0,0,0,1.58-.88V48H49V43H47.85Zm-6.28-2.91a1.82,1.82,0,0,0-1.58.84V41.08H38.88v7H40V45.21A1.1,1.1,0,0,1,41,44a.55.55,0,0,1,.18,0c.66,0,1,.42,1,1.2V48h1.15V44.84a1.73,1.73,0,0,0-1.52-1.92h-.24Zm-5.25-1.3H35.18V43h-.65v1h.65v2.67a1.27,1.27,0,0,0,1.09,1.43,1.08,1.08,0,0,0,.4,0,2.06,2.06,0,0,0,1-.24v-.94a1.63,1.63,0,0,1-.72.18c-.37,0-.61-.18-.61-.64V44h1.36V43h-1.4Zm14.17.6h1.24v-1.1H50.48Zm0,5.84h1.18v-5H50.52Zm58.89-4.28a2.17,2.17,0,0,0-1.73-.83,2.39,2.39,0,0,0-2.35,2.45,1.09,1.09,0,0,0,0,.18,2.38,2.38,0,0,0,2.16,2.58h.18a2.06,2.06,0,0,0,1.73-1v.84h1.15v-7h-1.15Zm-1.46,3.34a1.5,1.5,0,0,1-1.46-1.53.19.19,0,0,1,0-.08h0a1.46,1.46,0,0,1,1.33-1.6h.12a1.52,1.52,0,0,1,1.46,1.58v.09a1.5,1.5,0,0,1-1.44,1.55h0ZM20.38,45.3H22v1.24a2.65,2.65,0,0,1-1.61.52,2.22,2.22,0,0,1-2.28-2.17,1.34,1.34,0,0,1,0-.2h0a2.24,2.24,0,0,1,2.13-2.36h0a2.71,2.71,0,0,1,1.88.72l.73-.87a3.52,3.52,0,0,0-2.54-.92A3.39,3.39,0,0,0,17,44.62v.1A3.24,3.24,0,0,0,20,48.12c.13,0,.25,0,.38,0a4.2,4.2,0,0,0,2.79-1V44.27H20.38ZM26.72,43a4.37,4.37,0,0,0-1.92.42l.31.91a3.48,3.48,0,0,1,1.42-.3c.84,0,1.25.36,1.25,1.06v.09a4.41,4.41,0,0,0-1.4-.22c-1.15,0-2,.52-2,1.67h0A1.61,1.61,0,0,0,26,48.16h.12a2,2,0,0,0,1.67-.72v.63H29v-3A2,2,0,0,0,27.23,43,2.18,2.18,0,0,0,26.72,43Zm1.09,3.21c0,.64-.58,1.06-1.34,1.06-.54,0-1-.24-1-.72h0c0-.49.43-.84,1.15-.84a3.07,3.07,0,0,1,1.16.22ZM32.29,45c-.57-.18-1.12-.33-1.12-.7h0c0-.3.25-.52.7-.52a2.71,2.71,0,0,1,1.42.5l.46-.84a3.47,3.47,0,0,0-1.85-.57,1.66,1.66,0,0,0-1.79,1.53v0h0c0,1,.83,1.26,1.57,1.48.58.18,1.13.3,1.13.69h0c0,.34-.3.55-.79.55a2.82,2.82,0,0,1-1.67-.61l-.52.79a3.18,3.18,0,0,0,2.09.7c1.06,0,1.89-.52,1.89-1.58h0C33.84,45.57,33,45.24,32.29,45ZM70.93,13.8h-3.5l-.76,3.7h3.51Zm-52.6,0c-.24,1.12-.49,2.36-.75,3.67h3.51l.73-3.67Z" transform="translate(0 0)"/></svg>