<svg xmlns="http://www.w3.org/2000/svg" width="134" height="62.23" viewBox="0 0 134 62.23"><path d="M36.93,11.72h2.19c.64,0,.64,0,.64-.63V.56c0-.3,0-.33-.35-.33H37.92c-.49,0-.5,0-.5.52l.09,6.52a2.67,2.67,0,0,1-.06.33,3,3,0,0,1-.17-.3C36.28,5,35,2.82,33.88.6a.56.56,0,0,0-.59-.38c-.79,0-1.57,0-2.36,0-.13,0-.26,0-.44.05v11c0,.46,0,.47.46.48h1.4c.45,0,.47,0,.48-.47V11c0-2.06,0-4.13,0-6.19V4.37h.12c.1.24.19.48.31.71l3.23,6.37A.48.48,0,0,0,36.93,11.72Zm59.69,0a.23.23,0,0,0,.23-.24c0-.13,0-.25,0-.37,0-1.2,0-2.4,0-3.6,0-.18,0-.37,0-.58H101v4.53c0,.16.07.26.24.26h1.94c.17,0,.26-.08.26-.25a2.09,2.09,0,0,0,0-.25V.72c0-.14,0-.29,0-.49-.81,0-1.58,0-2.41,0V4.59a21.06,21.06,0,0,1-4.13,0c0-.16,0-.34,0-.51,0-1.14,0-2.29,0-3.43,0-.35,0-.4-.31-.4-.65,0-1.3,0-1.94,0,0,0-.1,0-.14.05-.1.48-.08,11.09,0,11.43Zm-45.51-.4c.27-.1.3-.27.3-.51V6.05a3.65,3.65,0,0,0,0-.42h-2c-.32,0-.35,0-.36.35V7.55c0,.52,0,1,0,1.57,0,.23-.08.37-.32.39a11.07,11.07,0,0,1-1.15.06,2.81,2.81,0,0,1-2.64-2.12A4.89,4.89,0,0,1,44.79,5,3.1,3.1,0,0,1,47.43,2.4a6.67,6.67,0,0,1,3.13.31l.48.16A20.68,20.68,0,0,0,51.4.55l-.24-.1A9.51,9.51,0,0,0,46.79.18a5.46,5.46,0,0,0-4.31,3.51A7.13,7.13,0,0,0,42.21,8a4.66,4.66,0,0,0,3.95,3.82A9.5,9.5,0,0,0,51.11,11.31Zm-24.68.41h1.94a2.81,2.81,0,0,0,.36,0c-.05-.17-.09-.32-.14-.46q-1.35-4.07-2.72-8.14c-.28-.85-.57-1.69-.85-2.54C25,.36,24.91.22,24.7.22H22.3a.27.27,0,0,0-.28.2c0,.1-.07.2-.1.31L20.36,5.57l-1.8,5.61a3.84,3.84,0,0,0-.11.46,1.27,1.27,0,0,0,.16.06h2a.31.31,0,0,0,.32-.26c.15-.51.31-1,.47-1.5s.12-.38.48-.38H25c.33,0,.34,0,.45.35L26,11.38C26.07,11.71,26.08,11.71,26.43,11.72Zm-4.3-4.23,1.28-4.2c.45,1.41.88,2.8,1.31,4.18A9,9,0,0,1,22.13,7.49ZM18.56.3c-.06,0-.09-.06-.13-.06h-2.1A.28.28,0,0,0,16,.47c-.08.29-.18.58-.27.87C15.07,3.69,14.22,6,13.65,8.4a1.48,1.48,0,0,1-.13.31c-.08-.21-.12-.31-.15-.41C12.59,5.72,11.82,3.14,11,.56c-.1-.33-.11-.33-.47-.34H8.63a1.77,1.77,0,0,0-.29.05c0,.12,0,.23.07.33l3.48,10.75c.11.36.11.36.49.36h2.06c.48,0,.48,0,.63-.47Q16.77,6,18.47.65A3.58,3.58,0,0,0,18.56.3ZM1.05,11.72H6.34c.13,0,.26,0,.39,0V9.52H3.15a9.32,9.32,0,0,1,0-2.65l.43,0H6.22c.19,0,.32-.06.32-.28,0-.53,0-1.07,0-1.61,0,0,0-.09-.08-.17H3.51c-.4,0-.43,0-.44-.41,0-.54,0-1.08,0-1.61a2.84,2.84,0,0,1,0-.38l.48,0H6.29c.15,0,.29,0,.45,0v-2C6.28.19,1,.2.68.29c-.09.36-.08,11,0,11.4C.81,11.7.93,11.72,1.05,11.72Zm53.2-.06c.58.1,5.71.07,6,0V9.55l-.45,0H57.15l-.46,0V6.88l.51,0h2.44a4.52,4.52,0,0,0,.49,0c0-.37,0-.68,0-1a3.21,3.21,0,0,0-.07-1H58.37a13.67,13.67,0,0,1-1.69,0V2.36H60.3a14.34,14.34,0,0,0,0-2.08,60.14,60.14,0,0,0-6,0c0,.11,0,.23,0,.35V11.28C54.21,11.41,54.24,11.54,54.25,11.66Zm58.17,0V9.55l-.46,0h-2.68l-.46,0V6.88l.51,0h2.4l.46,0a6,6,0,0,0,0-2h-2.87c-.15,0-.31,0-.48,0V2.36c1.23,0,2.41,0,3.6,0V.25l-.51,0h-5.24c-.27,0-.3.05-.32.32a1.47,1.47,0,0,0,0,.21v10.7a.23.23,0,0,0,.25.26H112ZM77.2,6.44c.4.2.83.36,1.24.55a7.89,7.89,0,0,1,.92.46,1.11,1.11,0,0,1,.56,1.19,1.16,1.16,0,0,1-.85,1,2.5,2.5,0,0,1-1.18.11c-.52-.08-1-.19-1.54-.29l-.35,0-.12,2.27c.16,0,.28.09.41.11.34.05.68.11,1,.14a6.57,6.57,0,0,0,2.53-.23A3.69,3.69,0,0,0,82.57,8a2.87,2.87,0,0,0-1.47-2.6c-.38-.22-.79-.39-1.19-.58s-.77-.36-1.14-.57a1.09,1.09,0,0,1,.34-2.06,4.24,4.24,0,0,1,1.18,0c.45,0,.9.13,1.4.21,0-.66.08-1.27.11-1.89,0-.2-.06-.29-.27-.33a7.84,7.84,0,0,0-3.2,0,3.39,3.39,0,0,0-2.79,3.6A2.91,2.91,0,0,0,77.2,6.44Zm39-.05c.49.25,1,.44,1.5.67a3.89,3.89,0,0,1,.83.45,1.17,1.17,0,0,1-.25,2.05,2.24,2.24,0,0,1-1.17.17c-.54-.07-1.08-.18-1.62-.28l-.4-.09L115,11.64a1.41,1.41,0,0,0,.3.11,8.41,8.41,0,0,0,3,.09,3.76,3.76,0,0,0,3.36-4.28,2.58,2.58,0,0,0-1-1.83,5.71,5.71,0,0,0-.91-.56c-.41-.21-.84-.37-1.24-.57a4,4,0,0,1-.84-.51,1,1,0,0,1-.32-1.15,1.15,1.15,0,0,1,1-.75,4.92,4.92,0,0,1,2.09.12l.42.07.12-2.14a7.59,7.59,0,0,0-3.67,0,3.38,3.38,0,0,0-2.58,4A2.76,2.76,0,0,0,116.19,6.39ZM91.62,11.55c.34-.1.36-.11.32-.45s-.09-.82-.14-1.23c0-.21-.06-.43-.09-.67l-.36.1a5.09,5.09,0,0,1-2.12.2,2.37,2.37,0,0,1-2-1.49,5,5,0,0,1-.31-1.19,5.35,5.35,0,0,1,.3-2.8,2.46,2.46,0,0,1,2.4-1.58c.56,0,1.12.13,1.67.19l.35.05L91.94.47,91.8.38,91.56.32A8.21,8.21,0,0,0,89.14.16a4.87,4.87,0,0,0-4.36,3,8.09,8.09,0,0,0-.58,3.47,6.9,6.9,0,0,0,.34,2.07,4.2,4.2,0,0,0,3.2,3,8.23,8.23,0,0,0,1.31.16A7.23,7.23,0,0,0,91.62,11.55Zm-22.92.07V9.51a5,5,0,0,0-.51,0H65.88c-.16,0-.31,0-.51-.05V.82c0-.18,0-.37-.05-.57H63c-.1.36-.1,11.05,0,11.4A47.37,47.37,0,0,0,68.7,11.62ZM51.88,25.8a2.1,2.1,0,0,0,1,0V18.17l.07,0,.18.31c.22.43.43.86.67,1.28.83,1.44,1.68,2.87,2.52,4.31l.9,1.53c.07.1.19.25.29.25.45,0,.9,0,1.38,0,0-.23,0-.4,0-.58V17a1.22,1.22,0,0,0,0-.33c0-.07-.1-.19-.16-.19a1.72,1.72,0,0,0-.92.07V17c0,2.22.06,4.43.08,6.65,0,.14.05.29-.08.44a2,2,0,0,1-.16-.22q-1.44-2.52-2.89-5c-.41-.72-.84-1.43-1.26-2.14-.08-.13-.15-.27-.33-.27H52.06a.19.19,0,0,0-.21.2v8.72C51.85,25.52,51.87,25.65,51.88,25.8ZM31.81,16.92l.06,6.85c0,.1,0,.21,0,.41a3.87,3.87,0,0,1-.23-.35c-.63-1.1-1.24-2.2-1.87-3.3s-1.45-2.47-2.19-3.7c-.08-.13-.2-.3-.33-.32a4.54,4.54,0,0,0-1.38,0v9.32h1c0-.18,0-.34,0-.5,0-2.24,0-4.48-.07-6.73,0-.12,0-.25,0-.38a.49.49,0,0,1,.21.18c.6,1.07,1.19,2.15,1.8,3.21.75,1.31,1.52,2.61,2.29,3.91.08.13.19.3.3.31a4.63,4.63,0,0,0,1.39,0V16.49l-.58,0C31.85,16.47,31.8,16.51,31.81,16.92Zm8.17,14c0,.19,0,.34,0,.49q0,3.41.08,6.81c0,.1,0,.2,0,.3a6.58,6.58,0,0,1-.55-.9c-1.18-2-2.35-4-3.54-6.06-.47-.8-.22-.66-1.18-.67A1.32,1.32,0,0,0,34,31v9.27h1a5.53,5.53,0,0,0,0-.56q0-3.42,0-6.86c0-.08,0-.16.06-.35.25.48.44.88.65,1.26l2.16,3.71L39.36,40c.07.11.17.28.27.28a7.84,7.84,0,0,0,1.37,0c.1-.66.06-9,0-9.33Zm-33.91.2A4.07,4.07,0,0,0,.68,32.89a6.27,6.27,0,0,0-.07,5.54,3.09,3.09,0,0,0,2.17,1.8,4.83,4.83,0,0,0,1.31.14,3.82,3.82,0,0,0,3.49-2.09,6.08,6.08,0,0,0,.67-3.13A5.89,5.89,0,0,0,8,33.51,3.56,3.56,0,0,0,6.07,31.11Zm.65,6.33a2.77,2.77,0,0,1-2,1.82,2.54,2.54,0,0,1-3-1.42A5.55,5.55,0,0,1,1.26,35a4.25,4.25,0,0,1,.52-1.81,2.71,2.71,0,0,1,3.16-1.35,2.5,2.5,0,0,1,1.62,1.36,5.47,5.47,0,0,1,.49,2.32A5.13,5.13,0,0,1,6.72,37.44ZM50,37.3a2,2,0,0,0-1.35-1.85l-.47-.17.47-.26a2.25,2.25,0,0,0,1.15-2.25A2,2,0,0,0,48.11,31a1.91,1.91,0,0,0-.33-.06,17.22,17.22,0,0,0-3.29,0,.59.59,0,0,0-.14.06c-.08.44-.07,9,0,9.3l.27,0c.69,0,1.37,0,2.06,0a6.38,6.38,0,0,0,1-.1A2.68,2.68,0,0,0,50,37.3Zm-4.5-5.51a6.84,6.84,0,0,1,2.26.12,1.51,1.51,0,0,1,.38,2.52,2.55,2.55,0,0,1-.6.35,4.57,4.57,0,0,1-2,.15A19.08,19.08,0,0,1,45.47,31.79Zm2.47,7.26a2.19,2.19,0,0,1-.82.26,13.08,13.08,0,0,1-1.4,0,.9.9,0,0,1-.28-.09v-3.3a2.28,2.28,0,0,1,1-.08,6.53,6.53,0,0,1,1.25.21,1.36,1.36,0,0,1,1.06,1.23A1.64,1.64,0,0,1,47.94,39.05Zm-26.3-7.92a5.22,5.22,0,0,0-1.74-.3c-.87,0-1.74,0-2.6.05a1.55,1.55,0,0,0-.31.06v9.32c.8,0,1.54,0,2.28,0a6.74,6.74,0,0,0,1.27-.11A4.13,4.13,0,0,0,24,37.11a6.33,6.33,0,0,0-.1-3.73A3.37,3.37,0,0,0,21.64,31.13Zm1.18,5.78a3.07,3.07,0,0,1-2.56,2.33,5.7,5.7,0,0,1-1.89,0c-.2,0-.29-.12-.28-.32s0-.14,0-.21q0-3.19,0-6.39c0-.15,0-.3,0-.49A8.13,8.13,0,0,1,20,31.8a3.08,3.08,0,0,1,.53.08,2.82,2.82,0,0,1,2.31,2.29A5.53,5.53,0,0,1,22.82,36.91ZM71.1,11.71h1.74a1.09,1.09,0,0,0,.26,0c.1-.34.1-11,0-11.45H71.19c-.45,0-.46,0-.47.46V11.33C70.73,11.67,70.76,11.71,71.1,11.71ZM67.68,39.32,67,38.46l-.62-.82c-.22-.28-.44-.57-.64-.86a3.18,3.18,0,0,1-.62-.91l.42-.07a2.58,2.58,0,0,0,2.16-3.42,1.75,1.75,0,0,0-.94-1.15,3.51,3.51,0,0,0-.89-.32,15.4,15.4,0,0,0-3-.07.92.92,0,0,0-.25.09c-.1.55-.07,9,0,9.33.27,0,.56,0,.84,0,.07,0,.15-.11.18-.18a.93.93,0,0,0,0-.29V36.44c0-.13,0-.26,0-.38a.7.7,0,0,1,.32.25l1,1.34L66.76,40c.1.14.18.28.38.28h1.25C68.11,39.89,67.89,39.61,67.68,39.32Zm-3.9-4.22V31.82a4.7,4.7,0,0,1,1.4,0l.2,0A1.39,1.39,0,0,1,66.63,33a1.69,1.69,0,0,1-.72,1.84A3.07,3.07,0,0,1,63.78,35.1ZM13.69,25.85h.75a2.64,2.64,0,0,0,.3-.05c-.29-.4-.55-.75-.82-1.1l-.79-1.05c-.27-.35-.54-.7-.8-1.06a9.42,9.42,0,0,1-.79-1.08l.68-.15a2.45,2.45,0,0,0,2-2.17,2.17,2.17,0,0,0-1.64-2.59,4.2,4.2,0,0,0-.93-.15c-.75,0-1.51,0-2.27,0a2.11,2.11,0,0,0-.33,0v9.28a1.55,1.55,0,0,0,1.09,0v-.48c0-1.06,0-2.12,0-3.18,0-.14-.06-.3.14-.44l.27.35c.86,1.19,1.73,2.38,2.58,3.59A.57.57,0,0,0,13.69,25.85Zm-3.2-5.11c-.29,0-.32,0-.33-.35s0-.91,0-1.36h0c0-.43,0-.85,0-1.28s0-.37.36-.36a9.58,9.58,0,0,1,1.31.06,1.33,1.33,0,0,1,1.22,1.16,1.65,1.65,0,0,1-.62,1.73,2,2,0,0,1-1.07.39A8.42,8.42,0,0,1,10.49,20.74Zm52.57,5.1a.22.22,0,0,0,.23-.24c0-.11,0-.22,0-.33V22.05a4.36,4.36,0,0,1,.05-.52,3.37,3.37,0,0,1,.36-.05h3.93a3.77,3.77,0,0,1,.39.06v4.27H69.1c.08-.62.05-9,0-9.29a1.71,1.71,0,0,0-1,0v1.91c0,.66,0,1.31,0,2H63.34c0-.18,0-.36,0-.53V17c0-.15,0-.3,0-.46h-1c-.1.47-.08,9,0,9.34ZM77.33,36c0-.13,0-.27,0-.42H76.22v3.14c0,.41,0,.42-.42.52a4.72,4.72,0,0,1-1.63.12,2.94,2.94,0,0,1-2.56-1.7,4.78,4.78,0,0,1-.26-3.31,3.28,3.28,0,0,1,3.31-2.57,6.08,6.08,0,0,1,2,.34l.38.1.17-1a3.34,3.34,0,0,0-.41-.14A7.26,7.26,0,0,0,74,30.8a4.34,4.34,0,0,0-3.73,3.08,5.89,5.89,0,0,0-.08,3.5,3.81,3.81,0,0,0,3.2,2.9A7.63,7.63,0,0,0,76.94,40c.39-.12.39-.13.39-.55C77.34,38.28,77.34,37.13,77.33,36ZM17.24,25.51c.17-.49.33-1,.5-1.48s.13-.38.52-.38h3.1c.42,0,.43,0,.57.42s.33,1,.51,1.48c0,.11.13.26.21.27a2.62,2.62,0,0,0,1.11-.05c-.06-.21-.12-.39-.18-.57C22.81,23,22,20.79,21.26,18.58c-.21-.59-.41-1.19-.63-1.79-.11-.32-.12-.32-.47-.33h-.54c-.38,0-.38,0-.52.38L19,17c-.95,2.75-1.91,5.5-2.86,8.26-.06.16-.11.33-.19.59h.77C17.12,25.84,17.13,25.84,17.24,25.51Zm2.52-7.61h.07l0,0c.51,1.54,1,3.07,1.54,4.6,0,0,0,.08,0,.12a16.18,16.18,0,0,1-3.19,0C18.68,21,19.34,19.5,19.76,17.9Zm51.42,8h.68c.44,0,.44,0,.58-.42l.48-1.4c.13-.38.13-.38.52-.38h3.13c.4,0,.4,0,.53.38l.51,1.52c0,.15.1.29.3.29h1c-.06-.2-.09-.34-.14-.48l-2.15-6.15-.84-2.41c-.12-.33-.13-.33-.47-.34h-.71a.3.3,0,0,0-.31.22l-.1.31c-1,2.81-2,5.61-2.92,8.42C71.27,25.52,71.24,25.64,71.18,25.85Zm3.83-8c.19.6.35,1.13.52,1.65s.37,1.07.56,1.6l.54,1.58a15.45,15.45,0,0,1-3.26,0C73.91,21.05,74.44,19.47,75,17.8Zm-73.28,8V21.67c0-.13-.05-.3.14-.43l.58.75,2.7,3.55a.65.65,0,0,0,.62.31c.26,0,.52,0,.78,0a1.28,1.28,0,0,0,.31-.08C5.56,24.16,4.3,22.6,3,21l1-1.15.93-1.11.92-1.11c.3-.37.62-.71.93-1.17a7.35,7.35,0,0,1-.83,0,.86.86,0,0,0-.83.41c-1,1.24-2,2.47-3,3.7-.09.11-.14.27-.37.27,0-.17,0-.31,0-.46V16.94c0-.14,0-.29,0-.44h-1c-.1.58-.07,9,0,9.32A2.19,2.19,0,0,0,1.73,25.76ZM38.52,21l3.78-4.54h-.63c-.91,0-.64-.12-1.22.59-1,1.17-1.88,2.34-2.82,3.51-.09.11-.16.26-.39.28v-4.3a1.8,1.8,0,0,0-1.08,0,1.2,1.2,0,0,0,0,.23v8.79a1,1,0,0,0,0,.17s0,0,0,0l.06.05a2.1,2.1,0,0,0,1-.05c0-1.51,0-3,.08-4.51a1.58,1.58,0,0,1,.32.31l2.65,3.48c.2.26.37.6.64.73a2.22,2.22,0,0,0,1,.06c.14,0,.3.05.45-.1l-1.89-2.35Zm48.07-4.53a.75.75,0,0,0-.24.07V17c0,1.7,0,3.41,0,5.11a7.59,7.59,0,0,1-.07,1.07,1.85,1.85,0,0,1-1.42,1.73,3.71,3.71,0,0,1-1.59,0,1.75,1.75,0,0,1-1.5-1.5,4.54,4.54,0,0,1-.07-.82c0-1.88,0-3.77,0-5.65v-.48a2.06,2.06,0,0,0-1.1,0c0,.17,0,.34,0,.5v5.49c0,.27,0,.55,0,.82a2.54,2.54,0,0,0,2,2.5,5.09,5.09,0,0,0,2.57,0,2.79,2.79,0,0,0,2.06-2,5.33,5.33,0,0,0,.19-1.59c0-1.67,0-3.33,0-5C87.42,16.42,87.62,16.44,86.59,16.47ZM53.64,31.14c0-.16-.08-.26-.25-.26h-.84c0,.22,0,.38,0,.54,0,1.71,0,3.41,0,5.12,0,.45,0,.91.06,1.36a2.53,2.53,0,0,0,2.07,2.37,5.92,5.92,0,0,0,2,.07,2.84,2.84,0,0,0,2.62-2.27,5.78,5.78,0,0,0,.15-1.38c0-1.78,0-3.55,0-5.33,0-.13,0-.27,0-.48H58.8c-.45,0-.47,0-.48.45v5.21a5.37,5.37,0,0,1-.19,1.59,1.65,1.65,0,0,1-1.34,1.2,5.71,5.71,0,0,1-1.43.05,1.71,1.71,0,0,1-1.62-1.51,6.41,6.41,0,0,1-.09-1.24c0-1.7,0-3.41,0-5.11ZM29,31.84h1.12a6.46,6.46,0,0,0,1.08,0,1.45,1.45,0,0,0,0-.88,32.62,32.62,0,0,0-4.45,0c0,.11,0,.23,0,.35v8.5c0,.44,0,.44.44.44H31c.18,0,.25-.09.24-.26v-.71c-1.14,0-2.26,0-3.43,0,0-1.14,0-2.23,0-3.35H31V35H27.87a11.57,11.57,0,0,1,0-3.11ZM46.22,17.42h2.36a3.59,3.59,0,0,0,.46-.05v-.85a31.49,31.49,0,0,0-4.46,0v9.24a29.81,29.81,0,0,0,4.46,0v-.87h-3.3a18.22,18.22,0,0,1,0-3.39h3.11a1.61,1.61,0,0,0,0-.9c-1.05-.06-2.09,0-3.11,0a16.47,16.47,0,0,1,0-3.07A3.57,3.57,0,0,1,46.22,17.42ZM93.93,21c-.31-.17-.65-.3-1-.45s-.75-.35-1.1-.55a1.34,1.34,0,0,1-.66-.86,1.43,1.43,0,0,1,1.1-1.76,3.46,3.46,0,0,1,1.36-.06l1,.17,0-1a1.2,1.2,0,0,0-.15-.08,5.76,5.76,0,0,0-2.58,0,2.5,2.5,0,0,0-2,2.83A2.06,2.06,0,0,0,91.15,21c.44.24.92.42,1.37.65a7.82,7.82,0,0,1,1,.54,1.3,1.3,0,0,1,.56,1,1.53,1.53,0,0,1-1.19,1.62,3.78,3.78,0,0,1-1.64,0c-.32,0-.64-.13-1-.2a2.87,2.87,0,0,0,0,1.05l.28.09a6.52,6.52,0,0,0,2,.12,3.29,3.29,0,0,0,1.94-.82A2.52,2.52,0,0,0,93.93,21Zm-36.2,28.2c-.3-.2-.3-.21-.57,0q-1.81,1.5-3.62,3l-.25.16a1.85,1.85,0,0,1,0-.25c.37-1.45.75-2.9,1.12-4.35.19-.75.19-.75-.47-1.16l-.15-.06-3.95,4.67.6.42.65-.78.64-.81c.21-.25.42-.51.62-.77s.42-.55.65-.8a3.23,3.23,0,0,1,.66-.74L52.41,53c.11.09.19.16.28.22.38.27.38.27.73,0l3.53-3,.21-.13c-.06.18-.08.28-.12.37-.58,1.29-1.16,2.58-1.73,3.88-.26.58-.25.61.33.89,0,0,0,0,.1,0,.81-1.85,1.65-3.73,2.46-5.63Zm52.6-3.69.31,1c.11.36.22.71.32,1.07s.2.68.31,1,.22.71.32,1.06a9.36,9.36,0,0,1,.33,1l-4.27-3.17-.4.29c-.36.28-.36.28-.15.7l2.4,4.75c.06.12.14.23.22.37l.57-.44-.61-1.14-.59-1.09c-.2-.38-.41-.75-.6-1.13A4.9,4.9,0,0,1,108,48.8c1.39,1.05,2.79,2.05,4.19,3.08l.64-.51c-.52-1.7-1-3.39-1.57-5.07l.07,0c1.15,1.2,2.26,2.44,3.44,3.63l.6-.46c-1.43-1.52-2.82-3-4.23-4.46ZM11.79,39.24V30.92a2.64,2.64,0,0,0-1.12,0v4.65c0,.78,0,1.56,0,2.35a21.45,21.45,0,0,0,0,2.27,34,34,0,0,0,4.3,0,2.39,2.39,0,0,0-.06-.95Zm92.42,14.11A2,2,0,0,0,104,53a1,1,0,0,0-1.39-.47,1.6,1.6,0,0,0-1,1.27,2.29,2.29,0,0,1-.09.28l-.11,0a1,1,0,0,0-.13-.22,1,1,0,0,0-1.14-.22,1.57,1.57,0,0,0-1,1.1l-.14.55-.37-.85-.58.29c.59,1.41,1.15,2.78,1.74,4.15l.62-.28c-.07-.18-.11-.32-.17-.46-.22-.54-.45-1.07-.66-1.6a2.17,2.17,0,0,1-.15-1.33,1.17,1.17,0,0,1,.67-.89.64.64,0,0,1,.81.2,2.86,2.86,0,0,1,.3.54c.32.75.63,1.5.94,2.24l.2.4.58-.27c0-.12-.06-.21-.1-.3-.23-.57-.49-1.14-.7-1.72a4.09,4.09,0,0,1-.21-1,1.27,1.27,0,0,1,.53-1.11.68.68,0,0,1,1.06.19,3.55,3.55,0,0,1,.28.55c.3.72.6,1.44.91,2.16a3.36,3.36,0,0,0,.19.38l.58-.3a1.49,1.49,0,0,0-.08-.23C105,55.15,104.59,54.25,104.21,53.35Zm25-23.25a2.11,2.11,0,0,0-.47-2.33,3.25,3.25,0,0,0-1.69-.9,1.39,1.39,0,0,0-1.51.51,1.74,1.74,0,0,0-.1,2,2.26,2.26,0,0,1,.12.28l-.78-.4-.29.63,6,2.88.26-.68-1.93-1C129,30.73,129.11,30.42,129.22,30.1Zm-1,.73c-.55-.28-1.07-.51-1.57-.8a1.8,1.8,0,0,1-.89-1.09,1,1,0,0,1,1-1.31,2.62,2.62,0,0,1,1.76,1,1.24,1.24,0,0,1,.24,1.2A2.61,2.61,0,0,1,128.18,30.83ZM80,57.6a1.6,1.6,0,0,0-1.68.63,1.24,1.24,0,0,1-.14.18l-.06,0,.14-2.91a.82.82,0,0,0-.7,0l-.29,6.65.66.05c0-.15,0-.26.05-.36,0-.55,0-1.1.07-1.65a2.68,2.68,0,0,1,.38-1.38,1.21,1.21,0,0,1,.82-.57.74.74,0,0,1,.94.63,2.5,2.5,0,0,1,0,.61l-.09,2.31c0,.16,0,.32,0,.51h.63a4.66,4.66,0,0,0,.06-.47c0-.77.07-1.54.1-2.31a6.77,6.77,0,0,0,0-.78A1.1,1.1,0,0,0,80,57.6Zm53.26-45.82a.88.88,0,0,0,.54-.92v-.3l-2.5,1.62-.63-.67-.56-.6a2.92,2.92,0,0,0-.62-.59,4.07,4.07,0,0,1,0,.41.69.69,0,0,0,.24.69c.43.41.84.84,1.25,1.27.06.07.11.16.21.31-1.37-.06-2.66-.28-4-.35a3,3,0,0,0,0,.34c0,.11,0,.22,0,.38l6.33.64.06-.72L131.44,13l0-.09.32-.23C132.25,12.41,132.76,12.06,133.29,11.78ZM59.12,53A3.2,3.2,0,0,0,58,55.44a1.36,1.36,0,0,0,.27.89,3.25,3.25,0,0,0,2.36,1.2l.16-.51c-.17,0-.29-.06-.41-.1a5.08,5.08,0,0,1-.92-.34,1.43,1.43,0,0,1-.37-2.24l2.57,1.25A2.19,2.19,0,0,0,62,54.08,1.8,1.8,0,0,0,59.12,53Zm2,1.84-1.91-1a1.2,1.2,0,0,1,.94-.72,1,1,0,0,1,1,.53A1.06,1.06,0,0,1,61.16,54.82ZM86.07,58.4A1.4,1.4,0,0,0,85,57.53a1.82,1.82,0,0,0-2.08,1A3.25,3.25,0,0,0,83,61.36a1.48,1.48,0,0,0,1.08.81A3.35,3.35,0,0,0,85.92,62c.38-.13.41-.26.21-.63a9.15,9.15,0,0,1-1.13.25,1.39,1.39,0,0,1-1.54-1.78l.73-.07,1.77-.1c.32,0,.39-.08.34-.4A3.8,3.8,0,0,0,86.07,58.4Zm-.54.8-2.09.14A1.17,1.17,0,0,1,84,58.2a1,1,0,0,1,1.09,0A1,1,0,0,1,85.53,59.2Zm39.77-23a3.68,3.68,0,0,1-.17.44,5.73,5.73,0,0,1-.54,1,1.28,1.28,0,0,1-2.06-.09c.51-.82,1-1.64,1.59-2.51a7.3,7.3,0,0,0-.78-.45,1.44,1.44,0,0,0-1.73.39,2,2,0,0,0-.1,2.71,3.41,3.41,0,0,0,1.37,1,1.59,1.59,0,0,0,2-.44,4.05,4.05,0,0,0,.82-1.46C125.79,36.38,125.78,36.38,125.3,36.2Zm-3.49-.7a1,1,0,0,1,1.47-.1c-.35.62-.75,1.22-1.15,1.82A1.19,1.19,0,0,1,121.81,35.5ZM91.56,58.44a5.84,5.84,0,0,0-.22-1,1,1,0,0,0-1.18-.7,1.6,1.6,0,0,0-1.38,1c0,.08-.1.16-.19.32l-.15-.89-.62.11c.21,1.52.45,3,.72,4.49l.67-.13c-.1-.62-.19-1.2-.29-1.78a3,3,0,0,1,0-1.59,1.27,1.27,0,0,1,.66-.76.75.75,0,0,1,1.13.5,2.09,2.09,0,0,1,.08.36l.42,2.56a2.6,2.6,0,0,0,.11.34l.61-.12c0-.18,0-.31,0-.45C91.81,60,91.69,59.19,91.56,58.44ZM130.63,16a6.4,6.4,0,0,0-1-.12,1,1,0,0,0-.89.57,1.86,1.86,0,0,0,.22,2l.25.31-.87-.16-.1.67,4.22.91.13-.7-.44-.12L130.6,19a2.12,2.12,0,0,1-1.17-.64,1.25,1.25,0,0,1-.29-1.19.65.65,0,0,1,.68-.55,2.76,2.76,0,0,1,.57.06l2.34.5a2.88,2.88,0,0,0,.33,0l.12-.65-.42-.12Zm-64,39.25a1.59,1.59,0,0,0-1.92-.06l-.36.24.29-.88L64,54.3c-.48,1.45-1,2.85-1.41,4.29l.63.24c0-.14.09-.23.12-.31.19-.58.36-1.16.58-1.72a4.93,4.93,0,0,1,.5-.9,1.28,1.28,0,0,1,.75-.48.86.86,0,0,1,1.09,1,2.91,2.91,0,0,1-.12.39l-.75,2.28c0,.14-.08.28-.13.45l.61.22a1.34,1.34,0,0,0,.12-.25c.31-.93.62-1.86.92-2.79a1.87,1.87,0,0,0,.11-.48A1.1,1.1,0,0,0,66.62,55.22Zm60.9-33.32.46.18,1.52.52a2.2,2.2,0,0,1,.93.6,1.37,1.37,0,0,1,.39,1.05.78.78,0,0,1-1,.78l-.4-.11-2.1-.73-.43-.13-.2.64a.66.66,0,0,0,.17.1c.94.32,1.87.65,2.81,1a1.63,1.63,0,0,0,.44.08,1,1,0,0,0,1-.6,1.77,1.77,0,0,0-.12-1.95,3.08,3.08,0,0,1-.15-.28l.81.27.21-.64-4.12-1.42Zm-7.29,21.94-.2-.14-.17.21c-.47.59-.71.61-1.27.09l0,0c-.51-.5-1-1-1.52-1.51a2.31,2.31,0,0,1-.18-.23l.8-.93-.4-.38-.82.92-1.15-1.1c-.43.53-.43.58,0,1,.22.21.43.43.65.66l-.57.7.36.41.6-.72c.17.16.29.26.39.37.51.5,1,1,1.53,1.51a3.37,3.37,0,0,0,.55.43.66.66,0,0,0,.74,0,2.87,2.87,0,0,0,.9-1Zm2.17-3.09c-.4.59-.65.63-1.2.2l-.1-.08c-.53-.44-1-.89-1.57-1.34-.07-.06-.13-.13-.23-.23l.74-1-.4-.31-.78,1-1.24-1c-.38.57-.37.62.09,1l.32.27.35.34-.52.74.37.33.61-.7c.14.11.26.2.37.3.54.45,1.06.91,1.61,1.36a4.88,4.88,0,0,0,.65.43.62.62,0,0,0,.7-.08A2.61,2.61,0,0,0,123,40.8l-.41-.32ZM133.87,6.42l-.48,0c0,.24,0,.45,0,.65a.54.54,0,0,1-.5.56,1.37,1.37,0,0,1-.29,0h-2.1a4.09,4.09,0,0,1-.41,0V6.36l-.51,0c0,.35,0,.65,0,1s-.05.32-.35.33h-.7l-.59,0,.18.71h1.11c.29,0,.33.06.34.35s0,.38,0,.59H130l.08-.89a3.37,3.37,0,0,1,.4,0c.4,0,.8,0,1.2,0s1,0,1.56,0a.67.67,0,0,0,.61-.48A2.28,2.28,0,0,0,133.87,6.42Zm-62.8,50a2.79,2.79,0,0,0-1.37-.19,1.16,1.16,0,0,0-1,.86,1.12,1.12,0,0,0,.46,1.34c.25.19.53.34.78.54a.63.63,0,0,1,.26.76.67.67,0,0,1-.7.46,5.28,5.28,0,0,1-.88-.18,3.3,3.3,0,0,1-.45-.17l-.14.56a3,3,0,0,0,2,.32,1.2,1.2,0,0,0,.94-.9,1.11,1.11,0,0,0-.42-1.25l-.58-.4a2.6,2.6,0,0,1-.43-.38.63.63,0,0,1,.45-1,2.56,2.56,0,0,1,.77.11,3.9,3.9,0,0,1,.5.19A1,1,0,0,0,71.3,57C71.4,56.61,71.39,56.58,71.07,56.45Zm1.69,2.09a3.85,3.85,0,0,0-.18,1.87,1.5,1.5,0,0,0,.42.84,2.4,2.4,0,0,0,2.39.43v-.46h-.84a1.2,1.2,0,0,1-1.24-1.15,2.69,2.69,0,0,1,.34-1.71A1.16,1.16,0,0,1,75,57.77c.27,0,.54.15.83.23a1.76,1.76,0,0,0,.09-.2c0-.1,0-.21.07-.36-.26-.08-.5-.18-.75-.24A2,2,0,0,0,72.76,58.54ZM121.4,31.25,127,34.57l.35-.65-5.58-3.31ZM95.48,55.54a32.68,32.68,0,0,0,1.32,4.33l.58-.2c-.43-1.47-.84-2.9-1.3-4.34Zm18.43-11,2.94,3.33.5-.52L114.41,44Zm-.67-.78a.5.5,0,0,0,.06-1,.51.51,0,0,0-.5.5A.47.47,0,0,0,113.24,43.74ZM95.84,54.11a.46.46,0,0,0-.44-.49.53.53,0,0,0-.51.49.48.48,0,0,0,.46.48A.46.46,0,0,0,95.84,54.11Z" fill="#333"/></svg>
