<svg xmlns="http://www.w3.org/2000/svg" width="48" height="48" viewBox="0 0 48 48"><path fill="#ebb300" d="M21.56,30.44H20v6.29h1.56A1.35,1.35,0,0,0,23,35.18V32A1.35,1.35,0,0,0,21.56,30.44Zm.49,4.78c0,.45-.19.61-.5.61H21V31.34h.56c.31,0,.5.16.5.61ZM10.29,36.73h1v-2.6h1.27v-.9H11.28V31.34H12.9v-.9H10.29Zm4-8c2.64,0,4-1.56,4-4.29V23c0-1.73-.54-3-1.88-3.59,1.29-.54,1.88-1.68,1.88-3.52v-.44c0-2.73-1.37-4.29-4-4.29s-4,1.56-4,4.29v.93h2.54v-1.1c0-1.22.53-1.68,1.39-1.68s1.39.41,1.39,1.95h0v.95c0,1.37-.61,1.81-1.61,1.81H13v2.44h.9c1.22,0,1.76.59,1.76,2.18v1.34c0,1.52-.54,1.93-1.39,1.93s-1.39-.46-1.39-1.68V23H10.29v1.42C10.29,27.12,11.65,28.68,14.29,28.68Zm-.91,8h2.7v-.9H14.37V34h1.36v-.9H14.37V31.34h1.71v-.9h-2.7Zm3.31,0h2.7v-.9H17.68V34H19v-.9H17.68V31.34h1.71v-.9h-2.7ZM26,33.38a1.24,1.24,0,0,0,.64-1.27v-.23c0-1-.44-1.44-1.47-1.44H23.67v6.29h1.55a1.34,1.34,0,0,0,1.51-1.49v-.51A1.27,1.27,0,0,0,26,33.38Zm-1.33-2h.47c.35,0,.51.19.51.64v.35c0,.51-.23.67-.6.67h-.38Zm1.08,3.87c0,.47-.18.62-.52.62h-.56V33.9h.44c.45,0,.64.18.64.76Zm7.9-24c-2.64,0-4.08,1.56-4.08,4.29v8.9c0,2.73,1.44,4.29,4.08,4.29s4.07-1.56,4.07-4.29v-8.9C37.71,12.76,36.27,11.2,33.64,11.2ZM35,24.56c0,1.22-.54,1.68-1.39,1.68s-1.4-.46-1.4-1.68V15.32c0-1.22.54-1.68,1.4-1.68S35,14.1,35,15.32Zm1.69,5.88-1.29,2.74V30.44h-1v6.29h1V34.8l.31-.58,1,2.51h1l-1.37-3.49,1.37-2.8Zm-4.36-.08c-1,0-1.47.58-1.47,1.59v3.27c0,1,.5,1.58,1.47,1.58a1.38,1.38,0,0,0,1.48-1.58v-.84H32.9v.9c0,.45-.2.62-.51.62s-.51-.17-.51-.62v-3.4c0-.45.19-.62.51-.62s.51.17.51.62v.68h.94V32A1.39,1.39,0,0,0,32.36,30.36Zm-4.27-9.1c0-2.52-1-3.91-3-3.91a2.55,2.55,0,0,0-2.49,1.52V15.74c0-1.64.54-2.1,1.49-2.1s1.39.46,1.39,1.68v.61H28v-.44c0-2.73-1.37-4.29-4-4.29-2.79,0-4.11,1.56-4.11,4.44h0v8.75c0,2.73,1.44,4.29,4.08,4.29s4.08-1.56,4.08-4.29Zm-2.69,3.3c0,1.22-.53,1.66-1.39,1.66s-1.39-.44-1.39-1.66V21.48c0-1.22.54-1.69,1.39-1.69s1.39.47,1.39,1.69Zm2.66,5.88-1,6.29H28l.17-1.14h1.21l.17,1.14h1l-1-6.29Zm.2,4.3.48-3.19.48,3.19ZM24,0A24,24,0,1,0,48,24,24,24,0,0,0,24,0Zm0,45.8A21.8,21.8,0,1,1,45.83,24,21.84,21.84,0,0,1,24,45.8Z" class="hover-fill-dark"/></svg>