<svg xmlns="http://www.w3.org/2000/svg" width="17" height="17" viewBox="0 0 17 17"><path fill="#ffcd1a" d="M16,6H13v8.75A2.23,2.23,0,0,0,15,17v0h.25A1.75,1.75,0,0,0,17,15.25V7A1,1,0,0,0,16,6Z" class="hover-fill-light" transform="translate(0 -4)"/><path fill="#ebb300" d="M13,14.75V5a1,1,0,0,0-1-1H1A1,1,0,0,0,0,5v9a3,3,0,0,0,3,3H15v0A2.23,2.23,0,0,1,13,14.75Zm-6.95-.53H1.27V8.91H6.05Zm4.78,0H7.11V13.16h3.72Zm1.06-2.13H7.11V11h4.78Zm0-2.12H7.11V8.91h4.78Zm0-2.13H1.27V6.78H11.89Z" class="hover-fill-dark" transform="translate(0 -4)"/></svg>