<svg xmlns="http://www.w3.org/2000/svg" width="44.32" height="43.45" viewBox="0 0 44.32 43.45"><path fill="#79c5d6" d="M40.34,34.27l0-.05-.41.57ZM30.88,7V6.61L35,6.23v.19q1.3-.15,2.79-.27A21.73,21.73,0,0,0,7.66,6a68.57,68.57,0,0,1,10,1Zm6.87-.82h0v0Zm.79.82V7l.34.38ZM42.23,31l.1-.21c-.09.2-.19.39-.28.59Zm.2-.43c.07-.16.15-.33.22-.5-.09.21-.18.42-.28.62Zm1.89-8.88v0Zm-3.2-11.37c-.32-.51-.65-1-1-1.48C40.47,9.36,40.8,9.85,41.12,10.36Zm0,0a22.11,22.11,0,0,1,1.46,2.82A22.11,22.11,0,0,0,41.12,10.36Zm-2.45,26,0,0,0,0ZM24.54,37.56a3.67,3.67,0,0,1-3.12-1.22H6.53a21.72,21.72,0,0,0,32.14,0h-11A3.68,3.68,0,0,1,24.54,37.56Z" class="hover-fill-dark" transform="translate(0 0)"/><path fill="#ced5d8" d="M24.28,33.94S18.46,31.05,4.62,31L3.7,32.45l-.26.4-.88,1.41H40.34l.47-.69.06-.09.18-.29.08-.13c.06-.09.11-.19.17-.29l.08-.12.17-.31.06-.11.18-.32.05-.09c.06-.12.12-.23.17-.35l0-.06.18-.38C29.84,31.36,24.28,33.94,24.28,33.94Zm-21.73.32Z" transform="translate(0 0)"/><path fill="#f2f2f2" d="M4.31,6.23l.27-.34H4.31ZM17.64,7a68.57,68.57,0,0,0-10-1c-1,0-2,0-3.08-.06v3.7L4.6,31h0c13.84,0,19.66,2.93,19.66,2.93V8.82A27.62,27.62,0,0,0,17.64,7Z" transform="translate(0 0)"/><path fill="#79888c" d="M30.88,6.61V23.74l2-1,2.09,1V6.23Z" transform="translate(0 0)"/><path fill="#e6e6e6" d="M44.32,21.71v-.53c0-.07,0-.13,0-.19s0-.24,0-.36,0-.14,0-.22,0-.21,0-.31a2,2,0,0,0,0-.25c0-.09,0-.19,0-.29l0-.25,0-.28a2.34,2.34,0,0,0,0-.26l0-.27c0-.09,0-.17-.05-.26A2.34,2.34,0,0,0,44,18a2.56,2.56,0,0,0,0-.27c0-.08,0-.16,0-.25l-.06-.27A2,2,0,0,1,43.8,17c0-.09,0-.19-.07-.28s0-.15,0-.22,0-.2-.08-.29,0-.14-.05-.21l-.09-.3-.06-.2-.09-.3L43.25,15c0-.11-.07-.21-.1-.32l-.06-.15L43,14.16s0-.08,0-.13-.09-.23-.14-.35l0-.09-.16-.39v0a22.27,22.27,0,0,0-2.46-4.3h0l-.3-.39h0l-.29-.37v0l-.31-.37h0l-.32-.36h0L38.54,7l-.39-.41h0c-.14-.13-.27-.27-.4-.4q-1.48.12-2.79.27V23.74l-2.09-1-2,1V7a30.65,30.65,0,0,0-6.6,1.8V33.94s5.56-2.58,17.95-2.9c.07-.14.13-.28.2-.43s.15-.33.22-.5l0-.06.18-.44s0-.07,0-.11l.15-.41s0-.08.05-.13.09-.25.13-.38,0-.11.05-.16l.12-.37a1.54,1.54,0,0,1,0-.17c0-.12.07-.24.1-.36s0-.12.05-.18l.09-.35c0-.07,0-.13,0-.19s.05-.23.08-.35,0-.14,0-.2,0-.23.07-.34,0-.15,0-.22l.06-.33c0-.08,0-.15,0-.22s0-.23,0-.34l0-.22c0-.11,0-.23,0-.34a1.79,1.79,0,0,0,0-.23c0-.11,0-.22,0-.34a1.64,1.64,0,0,1,0-.22c0-.12,0-.24,0-.36s0-.14,0-.21,0-.27,0-.4a1.09,1.09,0,0,1,0-.18v-.59ZM4.58,7V5.89h0l-.27.34L3.74,7,2.48,8.57v4.91l0,16.59v4.18h0v0l.88-1.41.26-.41L4.6,31h0l0-21.42Z" transform="translate(0 0)"/><path fill="#bac0c2" d="M8.42,16l.65,0,.61,0,.6,0,.6,0,.62.05.65.06.71.08.76.1V9.55l-.8-.1L12,9.37l-.65-.06-.61-.05-.58,0-.58,0L9,9.16l-.63,0H7V16H8.42ZM21.55,11,21,10.81l-.59-.13-.6-.13-.61-.12-.64-.11-.66-.12-.71-.11L16.4,10l-.81-.12v1l.8.13.75.12.7.11.66.11.62.12.61.12.6.12.59.13.59.15.57.17v-1Zm-.69,2.79-.6-.13-.6-.13-.6-.11-.61-.11-.64-.12L17.13,13l-.73-.12-.79-.13v1l.79.13.73.12.67.11.62.11.61.11.59.12.59.12.61.13.62.15.65.17v-1l-.62-.17Zm-.12,2.94-.61-.13-.59-.12L19,16.32l-.59-.11-.61-.11L17.11,16l-.71-.12-.78-.13v1l.77.13.7.13.64.11.6.11.58.11.58.11.58.12.62.13.66.15.73.16V17l-.7-.17Zm-.19,3-.72-.15-.68-.14-.67-.12-.65-.13L17.19,19l-.63-.11-.64-.11-.65-.11-.66-.12L14,18.48l-.62-.09-.63-.08-.65-.07-.66-.06-.68-.05-.71,0-.73,0-.75,0H7v1h.81l.79,0c.25,0,.51,0,.76,0l.73,0,.71.05.69.05.67.06.64.07.62.08.61.08.6.1.65.11.65.1.64.11.64.12.65.11.65.12.67.13.69.14.71.15.74.16.79.18V20l-.8-.18Zm0,2.93-.71-.15-.69-.14-.68-.13-.66-.12-.65-.12-.64-.11-.65-.11-.64-.11-.65-.1L14,21.42l-.58-.07-.62-.08-.64-.07-.67-.06-.69-.06-.72,0-.75,0-.78,0-.8,0H7v1H7.8l.8,0,.78,0,.76,0,.73.05.7.06.66.06.64.07.61.07.58.08.55.08.64.1.65.11.64.11.65.11.65.11.67.13.68.13.69.14.72.15.73.16.76.18v-1l-.77-.18Zm-5.22,2-.69-.11-.55-.08-.55-.07L13,24.24l-.59-.07-.59-.05-.62-.06-.64,0-.66,0-.69,0-.72,0-.75,0H7v1h.77l.75,0,.73,0,.7,0,.67,0,.64.05.62.06.6.05.58.07.56.06.54.07.53.08.69.1.73.11.78.13v-1l-.77-.13Z" transform="translate(0 0)"/><path fill="#435159" d="M30.88,7V7H17.64a27.62,27.62,0,0,1,6.64,1.85A30.65,30.65,0,0,1,30.88,7Z" transform="translate(0 0)"/><path fill="#435159" d="M3.44,32.85l.26-.4L4.62,31h0l-.9,1.43Z" transform="translate(0 0)"/><path fill="#435159" d="M4.85,34.26H2.56v0h0V30.07l0-16.59V8.57L3.74,7H0V36.34H21.42a3.67,3.67,0,0,0,3.12,1.22,3.68,3.68,0,0,0,3.13-1.22h11l.41-.46.09-.11c.11-.12.21-.25.31-.37a1.13,1.13,0,0,0,.1-.13c.11-.13.22-.27.32-.41l.06-.07.38-.52Z" transform="translate(0 0)"/></svg>