<svg xmlns="http://www.w3.org/2000/svg" width="42.02" height="37.05" viewBox="0 0 42.02 37.05"><path d="M8.75,2.67C9.51,1.37,9.88.72,10.5.36A5.84,5.84,0,0,1,13.38,0H28.64a5.8,5.8,0,0,1,2.87.36c.62.36,1,1,1.75,2.31l7.62,13.18c.76,1.31,1.14,2,1.14,2.67s-.38,1.37-1.14,2.68L33.26,34.38c-.75,1.3-1.13,1.95-1.75,2.31a5.8,5.8,0,0,1-2.87.36H13.38a5.84,5.84,0,0,1-2.88-.36c-.62-.36-1-1-1.75-2.31L1.13,21.2A5.92,5.92,0,0,1,0,18.52a5.93,5.93,0,0,1,1.13-2.67Z" transform="translate(0 0)" fill="#ec677a" class="hover-fill-dark"/><path d="M26.3,5.89c-3,0-7.82,2.65-12.19,9.76-2.41,3.91-3.45,7.81-3.45,10a3.06,3.06,0,0,0,.23,1.15c.69,1.84,4.6,4.36,8,4.36,2.61,0,5.38-1.52,7.64-3.26.62-.47,1.19-.95,1.72-1.43.35-.32.68-.64,1-.94v-.11a1.28,1.28,0,0,0-.25-.6,1,1,0,0,0-.78-.44c-.12,0-.12,0-.23.12a15.7,15.7,0,0,1-8.48,3.2c-2.42,0-3.33-1.38-3.33-3.22,0-2.53,1.59-6,2.75-7.69C21.93,12,25.86,9,27,9a.24.24,0,0,1,.22.23.52.52,0,0,1,0,.21,5.83,5.83,0,0,1-.53,1.06c0,.09-.11.2-.19.35l-.47.74-.37.58-.38.59c-.24.39-.46.75-.6,1a1,1,0,0,0-.09.18.63.63,0,0,0-.08.23c0,.57,2.75,2.29,3.56,2.29,1.06,0,3.33-5.4,3.33-6.89S28.59,5.89,26.3,5.89Z" transform="translate(0 0)" fill="#fff"/></svg>
