<svg xmlns="http://www.w3.org/2000/svg" width="42.02" height="37.05" viewBox="0 0 42.02 37.05"><path fill="#2d344d" d="M8.75,2.67C9.51,1.37,9.88.72,10.5.36A5.84,5.84,0,0,1,13.38,0H28.64a5.8,5.8,0,0,1,2.87.36c.62.36,1,1,1.75,2.31l7.62,13.18c.76,1.31,1.14,2,1.14,2.67s-.38,1.37-1.14,2.68L33.26,34.38c-.75,1.3-1.13,1.95-1.75,2.31a5.8,5.8,0,0,1-2.87.36H13.38a5.84,5.84,0,0,1-2.88-.36c-.62-.36-1-1-1.75-2.31L1.13,21.2A5.92,5.92,0,0,1,0,18.52a5.93,5.93,0,0,1,1.13-2.67Z" transform="translate(0 0)"/><path fill="#79bc73" fill-rule="evenodd" d="M30.45.05c-.46,0-1,0-1.81,0H13.38A5.84,5.84,0,0,0,10.5.36c-.62.36-1,1-1.75,2.31L1.13,15.85A5.93,5.93,0,0,0,0,18.52,3,3,0,0,0,.41,19.9,21,21,0,0,0,12.46,23a1,1,0,0,1,1.08,1v3.31a.94.94,0,0,0,1.49.8c4.34-3.05,15.14-11.56,16.15-21a14.75,14.75,0,0,0,.12-1.89A16.18,16.18,0,0,0,30.45.05Z" class="hover-fill-dark" transform="translate(0 0)"/></svg>