<svg xmlns="http://www.w3.org/2000/svg" width="42.11" height="37.14" viewBox="0 0 42.11 37.14"><path fill="#2d344d" d="M8.73,2.64c.75-1.3,1.13-2,1.75-2.31A5.84,5.84,0,0,1,13.36,0h15.3a5.84,5.84,0,0,1,2.88.36c.62.35,1,1,1.75,2.31l7.64,13.21c.76,1.31,1.14,2,1.14,2.68a5.81,5.81,0,0,1-1.14,2.68L33.29,34.42c-.75,1.31-1.13,2-1.75,2.32a5.84,5.84,0,0,1-2.88.36H13.36a5.84,5.84,0,0,1-2.88-.36c-.62-.36-1-1-1.75-2.32L1.09,21.21A5.81,5.81,0,0,1,0,18.53c0-.72.38-1.37,1.14-2.68Z" transform="translate(0.05 0.05)"/><path fill="#efb400" fill-rule="evenodd" d="M25.77,0H13.36a5.84,5.84,0,0,0-2.88.36c-.62.36-1,1-1.75,2.32L1.09,15.84A5.81,5.81,0,0,0,0,18.52c0,.72.38,1.37,1.14,2.68L7.3,31.94,10.72,26a.37.37,0,0,1,.5-.13l9.1,5.25a2.86,2.86,0,1,0,2.86-4.95l-9.1-5.25a.35.35,0,0,1-.13-.5l4.73-8.2a.37.37,0,0,1,.5-.13l9.1,5.25a2.86,2.86,0,1,0,2.85-4.95L22,7.16a.37.37,0,0,1-.13-.5Z" class="hover-fill-dark" transform="translate(0.05 0.05)"/></svg>