<svg xmlns="http://www.w3.org/2000/svg" width="42.02" height="37.27" viewBox="0 0 42.02 37.27"><path d="M32.6,1.56,41.66,17.3a2.66,2.66,0,0,1,0,2.62h0l-9.18,16h0a2.62,2.62,0,0,1-2.28,1.32H11.81a2.62,2.62,0,0,1-2.4-1.57L.55,20.24a2.65,2.65,0,0,1-.2-3l9.18-16h0A2.61,2.61,0,0,1,11.83,0H30.2a2.62,2.62,0,0,1,2.4,1.57" transform="translate(0.01 0.01)" fill="#00aa91" class="hover-fill-dark"/><path d="M31.25.21,17.09,25.7a2.27,2.27,0,0,1-3.06.88,0,0,0,0,1,0,0L0,18.48a2.83,2.83,0,0,0,.54,1.76L9.4,35.67a2.64,2.64,0,0,0,2.4,1.57H30.19a2.63,2.63,0,0,0,2.28-1.33h0l9.18-16h0a2.61,2.61,0,0,0,0-2.62L32.59,1.53A2.77,2.77,0,0,0,31.25.21" transform="translate(0.01 0.01)" fill="#fff" fill-rule="evenodd"/></svg>
