<svg xmlns="http://www.w3.org/2000/svg" width="42.02" height="37.05" viewBox="0 0 42.02 37.05"><path d="M8.75,2.67C9.51,1.37,9.88.72,10.5.36A5.84,5.84,0,0,1,13.38,0H28.64a5.8,5.8,0,0,1,2.87.36c.62.36,1,1,1.75,2.31l7.62,13.18c.76,1.31,1.14,2,1.14,2.67s-.38,1.37-1.14,2.68L33.26,34.38c-.75,1.3-1.13,1.95-1.75,2.31a5.8,5.8,0,0,1-2.87.36H13.38a5.84,5.84,0,0,1-2.88-.36c-.62-.36-1-1-1.75-2.31L1.13,21.2A5.92,5.92,0,0,1,0,18.52a5.93,5.93,0,0,1,1.13-2.67Z" transform="translate(0 0)" fill="#2d344d"/><path d="M31.13.19,16.82,25.93a2.25,2.25,0,0,1-3.11.86L0,18.9a8.2,8.2,0,0,0,1.09,2.3L8.75,34.38c.76,1.3,1.13,1.95,1.75,2.31a5.84,5.84,0,0,0,2.88.36H28.64a5.8,5.8,0,0,0,2.87-.36c.62-.36,1-1,1.75-2.31L40.88,21.2c.76-1.31,1.14-2,1.14-2.68s-.38-1.36-1.14-2.67h0L33.26,2.67C32.51,1.37,32.13.72,31.51.36A1.84,1.84,0,0,0,31.13.19Z" transform="translate(0 0)" fill="#00aa91" fill-rule="evenodd" class="hover-fill-dark"/></svg>
