<svg xmlns="http://www.w3.org/2000/svg" width="47.02" height="43.45" viewBox="0 0 47.02 43.45"><circle cx="21.72" cy="21.73" r="21.72" fill="#79c5d6" class="hover-fill-dark"/><path fill="#435159" d="M36.49,18.93l-6,1.82-5.21,1.58-11.19-3.4-11-3.33,22.12-4.94h0L2.94,15.6v2.09l10.45,3.16L10.87,31.16l14.56,4.16,14.41-4.17L37.31,20.77,43,19V17h-.24Zm3.29,12.22-9.32,2.67v-11l6.84-2.07ZM43.87,16.7v2.09l3.63-1.1V15.6Z" transform="translate(-0.49 0)"/><path fill="#79888c" d="M30.46,22.84v11l9.32-2.67L37.3,20.77ZM43.87,16.6v.1l3.64-1.1L25.25,10.66h0L3.11,15.6l11,3.33,11.19,3.4,5.21-1.58,6-1.82,6.3-1.9-15-.16a5.1,5.1,0,0,1-2.43.5c-1.56,0-2.83-.46-2.83-1s1.27-1,2.83-1A4.3,4.3,0,0,1,28,16l15.16.16a.4.4,0,0,1,.31-.15.42.42,0,0,1,.42.42v.18Z" transform="translate(-0.49 0)"/><path fill="#ced5d8" d="M45.06,26.35a.57.57,0,0,0-.27-.48.61.61,0,0,1-.42.19H42.74a.52.52,0,0,1-.34-.14.56.56,0,0,0-.19.43l-.58,6a.56.56,0,0,0,.58.56h2.85a.56.56,0,0,0,.57-.56ZM27.75,16.87l15,.16H43v4.74a1.53,1.53,0,0,0-.66,2.31.63.63,0,0,1,.37-.12h1.63a.64.64,0,0,1,.45.17,1.49,1.49,0,0,0,.33-.94,1.55,1.55,0,0,0-1.28-1.52V16.42a.42.42,0,0,0-.42-.42.4.4,0,0,0-.31.15L28,16a.52.52,0,0,1,.18.36C28.16,16.54,28,16.72,27.75,16.87Z" transform="translate(-0.49 0)"/><path fill="#afb8ba" d="M44.82,24.13a.64.64,0,0,0-.45-.17H42.74a.63.63,0,0,0-.37.12.51.51,0,0,0-.17.4v.95a.72.72,0,0,0,.2.49.52.52,0,0,0,.34.14h1.63a.61.61,0,0,0,.42-.19.64.64,0,0,0,.2-.44v-.95A.47.47,0,0,0,44.82,24.13Zm-19.5-8.8c-1.56,0-2.83.45-2.83,1s1.27,1,2.83,1a5.1,5.1,0,0,0,2.43-.5c.26-.15.41-.33.41-.52A.52.52,0,0,0,28,16,4.3,4.3,0,0,0,25.32,15.33Z" transform="translate(-0.49 0)"/></svg>