<svg xmlns="http://www.w3.org/2000/svg" width="42" height="37.25" viewBox="0 0 42 37.25"><path d="M32.69,1.56l9.05,15.73a2.64,2.64,0,0,1,0,2.61l-9.17,16a2.65,2.65,0,0,1-2.29,1.33H11.9a2.62,2.62,0,0,1-2.4-1.56L.64,20.25a2.66,2.66,0,0,1-.2-3l9.19-16A2.62,2.62,0,0,1,11.92,0H30.29a2.62,2.62,0,0,1,2.4,1.56" transform="translate(-0.08 0)" fill="#79bc73" class="hover-fill-dark"/><path d="M30.68,0a2.56,2.56,0,0,0-.39,0H11.92A2.63,2.63,0,0,0,9.64,1.33l-9.18,16a2.66,2.66,0,0,0-.3,2A20.73,20.73,0,0,0,12.85,22.8a1,1,0,0,1,1.07,1v3.31a1,1,0,0,0,.92,1,1,1,0,0,0,.57-.18c4.29-3,15-11.46,16-20.83a14.56,14.56,0,0,0,.12-1.87A16.06,16.06,0,0,0,30.68,0" transform="translate(-0.08 0)" fill="#fff" fill-rule="evenodd" /></svg>
