<svg xmlns="http://www.w3.org/2000/svg" width="42.02" height="37.05" viewBox="0 0 42.02 37.05"><path fill="#2d344d" d="M8.75,2.67C9.51,1.37,9.88.72,10.5.36A5.84,5.84,0,0,1,13.38,0H28.64a5.84,5.84,0,0,1,2.88.36c.62.36,1,1,1.75,2.31l7.62,13.18A5.93,5.93,0,0,1,42,18.52a5.92,5.92,0,0,1-1.13,2.68L33.27,34.38c-.76,1.3-1.13,1.95-1.75,2.31a5.84,5.84,0,0,1-2.88.36H13.38a5.84,5.84,0,0,1-2.88-.36c-.62-.36-1-1-1.75-2.31L1.13,21.2A5.92,5.92,0,0,1,0,18.52a5.93,5.93,0,0,1,1.13-2.67Z" transform="translate(0 0)"/><path fill="#ed2c62" fill-rule="evenodd" d="M36.34,29.06l-3.07,5.32c-.76,1.3-1.13,1.95-1.75,2.31a5.84,5.84,0,0,1-2.88.36H13.38a5.84,5.84,0,0,1-2.88-.36,1.94,1.94,0,0,1-.29-.21,1.1,1.1,0,0,1,.12-.33C15.22,27.69,20,24.06,23.2,22.5a2,2,0,0,1,1.94.1ZM32.05.8a11.62,11.62,0,0,1,1.22,1.87l7.62,13.18A5.93,5.93,0,0,1,42,18.52a5.92,5.92,0,0,1-1.13,2.68l-3.48,6L26.2,20.75a2,2,0,0,1-1.05-1.63c-.23-3.51.5-9.5,5.39-18A1.06,1.06,0,0,1,32,.76Z" class="hover-fill-dark" transform="translate(0 0)"/></svg>