<svg xmlns="http://www.w3.org/2000/svg" width="42.17" height="48" viewBox="0 0 42.17 48"><path fill="#5fc474" d="M2.92,36.51l8.51,4.92V31.6L2.92,26.69ZM34.19,33l-9,5.2V48l9-5.2s0,0,0-.08Zm-31.27-9,8.51,4.92V18.46L2.92,13.54ZM13.81,42.8l9,5.2V38.17l-9-5.2Zm22.76-1.37,8.51-4.92V26.59L36.57,31.5Zm0-23v10.3l8.51-4.92V13.54ZM32.51,4.91,24,0,15.49,4.91,24,9.83Zm2.38,1.38L26.37,11.2l9,5.2,8.51-4.91Zm-21.78,0-9,5.2,8.51,4.91,9-5.2ZM24,25.71l-9,5.2,9,5.2,9-5.2ZM13.81,28.86l9-5.2V13.26l-9,5.2Zm20.38-10.4-9-5.2v10.4l9,5.2Z" class="hover-fill-dark" transform="translate(-2.92)"/></svg>