<svg xmlns="http://www.w3.org/2000/svg" width="48" height="43.45" viewBox="0 0 48 43.45"><path d="M47.54,22.36,37.3,4.11a3.17,3.17,0,0,0-2.75-1.83h-21a3,3,0,0,0-2.63,1.57h0L.42,22.49A3,3,0,0,0,.68,25.9l10.11,18a3.17,3.17,0,0,0,2.76,1.83h21a3,3,0,0,0,2.62-1.57h0l10.5-18.64h0A3.33,3.33,0,0,0,47.54,22.36Zm-16-1.44c-.92,0-4.07-2-4.07-2.63,0-.39,2.1-3.41,2.49-4.2a4,4,0,0,0,.66-1.44.29.29,0,0,0-.26-.27c-1.32,0-5.78,3.42-9.32,8.93-1.32,2-3.15,5.91-3.15,8.79,0,2.1,1.05,3.68,3.8,3.68A18,18,0,0,0,31.4,30.1c.13-.13.13-.13.26-.13.79,0,1.18.92,1.18,1.18v.13C30.08,34,25.36,37.72,21,37.72c-3.81,0-8.27-2.89-9.06-5a3.32,3.32,0,0,1-.26-1.31c0-2.5,1.18-7,3.94-11.42,5-8.14,10.5-11.16,13.91-11.16,2.62,0,5.64,2.36,5.77,4.2S32.71,20.92,31.53,20.92Z" class="hover-fill-dark" transform="translate(0 -2.28)" fill="#ec677a"></path></svg>
