<svg xmlns="http://www.w3.org/2000/svg" width="42.02" height="37.05" viewBox="0 0 42.02 37.05"><path d="M8.75,2.67C9.51,1.37,9.88.72,10.5.36A5.84,5.84,0,0,1,13.38,0H28.64a5.84,5.84,0,0,1,2.88.36c.62.36,1,1,1.75,2.31l7.62,13.18A5.93,5.93,0,0,1,42,18.52a5.92,5.92,0,0,1-1.13,2.68L33.27,34.38c-.76,1.3-1.13,1.95-1.75,2.31a5.84,5.84,0,0,1-2.88.36H13.38a5.84,5.84,0,0,1-2.88-.36c-.62-.36-1-1-1.75-2.31L1.13,21.2A5.92,5.92,0,0,1,0,18.52a5.93,5.93,0,0,1,1.13-2.67Z" transform="translate(0 0)" fill="#2d344d"/><path d="M31.79,36.49l-.27.19a6,6,0,0,1-2.88.35H19.58l-5.27-3a3.29,3.29,0,0,1,3.29-5.7ZM38.57,25.2l-3.3,5.7L20.89,22.6a3.29,3.29,0,0,1,3.29-5.7ZM37,9.09l3.9,6.74A5.92,5.92,0,0,1,42,18.51a2.37,2.37,0,0,1-.22,1L27.48,11.2a3.29,3.29,0,1,1,3.29-5.7Z" transform="translate(0 0)" fill="#009cff" fill-rule="evenodd" class="hover-fill-dark"/></svg>
