<svg width="17" height="17"><path d="M12.73,3.44V.78H0V14.13a2.1,2.1,0,0,0,2.09,2.09h8.55a2.1,2.1,0,0,0,2.09-2.09v-.78a5.18,5.18,0,0,1-1.93.37,5.33,5.33,0,0,1-5.05-3.66H2.92V9h2.6a4.21,4.21,0,0,1,0-.62,4.61,4.61,0,0,1,.07-.84H2.92v-1h2.9a5.15,5.15,0,0,1,.84-1.46H2.92V4H7.79a5.27,5.27,0,0,1,3-.94A5.18,5.18,0,0,1,12.73,3.44Z" transform="translate(0 -0.78)" fill="#FFCD1A" class="hover-fill-light"></path><path d="M17,13.41l-2.64-2.64a4.28,4.28,0,1,0-3.56,1.9,4.18,4.18,0,0,0,2.55-.85L16,14.44Zm-9.43-5a3.23,3.23,0,1,1,3.23,3.23A3.24,3.24,0,0,1,7.57,8.4Z" transform="translate(0 -0.78)" fill="#ebb300" class="hover-fill-dark"></path></svg>
