<svg xmlns="http://www.w3.org/2000/svg" width="49.72" height="49.31" viewBox="0 0 49.72 49.31"><path fill="#282827" d="M19.94.41c-3.68.06-6.37,1.16-8,3.31C10,6.27,9.65,10.14,10.88,15.22a3.26,3.26,0,0,0-.66,2.5c.26,2.19,1.14,3.1,1.84,3.47a10,10,0,0,0,2.22,4.59v.47a28.78,28.78,0,0,1-.09,3c-.62,1.41-2.65,2.23-5,3.16C5.28,34,.43,35.87.06,41.94L0,43H26.28a6.21,6.21,0,0,1-1.44-2H2.19C3,37,6.5,35.63,9.94,34.28c2.74-1.08,5.33-2.09,6.18-4.4l.07-.26a33.22,33.22,0,0,0,.09-3.37V24.72l-.53-.28A7.94,7.94,0,0,1,14,20.31l-.09-.81L13,19.44c-.13,0-.62-.37-.81-1.94a1.16,1.16,0,0,1,.28-1.09l.66-.41L13,15.28c-1.22-4.67-1-8.24.56-10.34C14.77,3.3,17,2.43,20,2.38c1.88,0,3.27.49,3.72,1.28l.25.4.47.06a3.82,3.82,0,0,1,2.9,1.76c1.54,2.47.64,7-.12,9.34L27,16l.65.44s.38.28.29,1.09c-.19,1.57-.69,1.93-.82,1.94l-.84.06-.06.81a8.32,8.32,0,0,1-1.75,4.13l-.53.28v1.53A30.6,30.6,0,0,0,24,29.62l.06.26a4.64,4.64,0,0,0,1.1,1.65,11.14,11.14,0,0,1,1.12-1.72,2.61,2.61,0,0,1-.31-.53,28.45,28.45,0,0,1-.06-3v-.47a10.17,10.17,0,0,0,2.15-4.59c.71-.37,1.58-1.28,1.85-3.47a3.25,3.25,0,0,0-.63-2.47c.58-2,1.77-7.14-.28-10.44a5.65,5.65,0,0,0-3.88-2.59C24.18,1,22.37.41,19.94.41ZM36,26a10,10,0,1,0,6.31,17.75l6,6,1.44-1.44-6-6A10,10,0,0,0,36,26Zm0,2a8,8,0,1,1-8,8A8,8,0,0,1,36,28Z" transform="translate(0 -0.41)"/></svg>