<svg xmlns="http://www.w3.org/2000/svg" xmlns:xlink="http://www.w3.org/1999/xlink" width="46" height="52" viewBox="0 0 46 52"><defs><linearGradient id="a" x1="768.94" x2="768.94" y1="-698.57" y2="-721.57" gradientTransform="matrix(0.37, 0, 0, -0.37, -241.12, -216.56)" gradientUnits="userSpaceOnUse"><stop offset="0" stop-color="#d9f7ee"/><stop offset="1" stop-color="#2df19b"/></linearGradient><linearGradient id="b" x1="723.25" x2="723.25" y1="-597.45" y2="-630.08" xlink:href="#a"/><linearGradient id="c" x1="734" x2="734" y1="-583.34" y2="-748.14" gradientTransform="matrix(0.37, 0, 0, -0.37, -241.12, -216.56)" gradientUnits="userSpaceOnUse"><stop offset="0" stop-color="#7de3c3"/><stop offset="1" stop-color="#0ba360"/></linearGradient><linearGradient id="d" x1="723.25" x2="723.25" y1="-583.34" y2="-748.14" xlink:href="#c"/></defs><path fill="url(#a)" d="M43.38,51.93A2,2,0,0,1,42,51.35l-2.78-2.8,1.41-1.41,2.79,2.79,6.06-5.86,1.39,1.43-6,5.86A2,2,0,0,1,43.38,51.93Z" transform="translate(-9 -6)"/><path fill="url(#b)" d="M32,17H24V11a4,4,0,0,1,8,0Z" transform="translate(-9 -6)"/><path fill="url(#c)" d="M47,38.2V13a3,3,0,0,0-3-3H32.9a5,5,0,0,0-9.8,0H12a3,3,0,0,0-3,3V51a3,3,0,0,0,3,3H37v0A10,10,0,1,0,47,38.2ZM45,13V38a10.12,10.12,0,0,0-2,.2V14H33V12H44A1,1,0,0,1,45,13ZM25,11a3,3,0,0,1,6,0v5H25Zm8,7V16h8V38.84A10,10,0,0,0,35,48H15V16h8v2ZM12,52a1,1,0,0,1-1-1V13a1,1,0,0,1,1-1H23v2H13V50H35.2a9.72,9.72,0,0,0,.64,2Zm33,4a8,8,0,1,1,8-8A8,8,0,0,1,45,56Z" transform="translate(-9 -6)"/><path fill="url(#d)" d="M22,41H34v2H22Z" transform="translate(-9 -6)"/><path fill="url(#d)" d="M23,29a5,5,0,0,0,.21,1.35A8.13,8.13,0,0,0,20,36.75V39H36V36.75a8,8,0,0,0-3.21-6.4A5,5,0,0,0,33,29V27a5,5,0,0,0-10,0Zm11,7.75V37H22v-.13a6.25,6.25,0,0,1,2.15-4.71,4.94,4.94,0,0,0,7.7,0A6,6,0,0,1,34,36.75ZM25,27a3,3,0,0,1,6,0v2a3,3,0,0,1-6,0Z" transform="translate(-9 -6)"/></svg>