<svg xmlns="http://www.w3.org/2000/svg" width="47.05" height="43.5" viewBox="0 0 47.05 43.5"><path fill="#ec677a" d="M35.82,21.4l6.46-6.46h0l.1-.1A21.75,21.75,0,1,0,8,38.56V12H9.51V10.39h1.56V8.82H29l6.83,6.83Zm7.67-.08L35.82,29v9.34A21.69,21.69,0,0,0,43.5,21.75C43.5,21.61,43.5,21.47,43.49,21.32Z" transform="translate(0 0)"/><path fill="#f2f2f2" d="M32.69,24.53l1.38-1.42,1.71-1.71V15.65H29v-2H17.07V12.38H29V8.82H11.07V40.7a21.73,21.73,0,0,0,21.61-.15,15,15,0,0,0,1.42-.9c.42-.31,1.16-.85,1.71-1.31V29l-1.74,1.71-1.42,1.42-2.73,2.73h0l-.16-.16V35L25.9,36h0l-.63.17-.7.19h0L24.93,35h0l.48-1.81H17.07V32H25.8l.21-.78h.31l-.16-.15h0Zm-2.84-4.3V21.5H17.07V20.23ZM28,16.3v1.28H17.07V16.3Zm-12.66,17H14.07V32h1.28Zm0-3.92H14.07v-1.3h1.28Zm0-3.93H14.07V24.16h1.28Zm0-3.93H14.07V20.23h1.28Zm0-3.92H14.07V16.3h1.28Zm0-3.93H14.07V12.38h1.28ZM25,29.38H17.07v-1.3h8Zm-8-3.93V24.16h12.8v1.27Z" transform="translate(0 0)"/><path fill="#bac0c2" d="M29,12.38H17.07v1.27H29ZM14.07,13.65h1.28V12.38H14.07ZM28,16.3H17.07v1.28h11ZM14.07,17.58h1.28V16.3H14.07Zm3,2.65V21.5h12.8V20.23Zm-3,1.27h1.28V20.23H14.07Zm3,3.93h12.8V24.16H17.07Zm-3,0h1.28V24.16H14.07Zm11,2.65h-8v1.28h8Zm-11,1.28h1.28V28.08H14.07Zm3,3.92h8.39L25.78,32H17.07Zm-3,0h1.28V32H14.07Z" transform="translate(0 0)"/><path fill="#435159" d="M8,38.56q.75.61,1.56,1.17V12H8Zm17-3.47h0l-.36,1.33h0l.7-.19.63-.17h0ZM46.07,18.74l-1-1-1.7,1.7L35.82,27l-1.75,1.72-4.45,4.45-.72.72.83.83.16.16h0l2.73-2.73,1.45-1.44L35.82,29l7.67-7.68,2.86-2.86ZM26.3,31.24l.77.76.07.07h0L27.07,32Z" transform="translate(0 0)"/><path fill="#afb8ba" d="M42.28,14.94,35.82,21.4l-1.75,1.71-1.42,1.42-6.53,6.53h0l.16.15.79.79.07.07.74-.75,4.82-4.81,1.37-1.42,1.71-1.7,7-7,.44-.44-.79-.79Zm3.59-.33.15.14h0Z" transform="translate(0 0)"/><path fill="#79888c" d="M9.51,39.73c.51.35,1,.67,1.57,1V10.4H9.51ZM29,8.82v6.83h6.83Zm15.08,7.9-.78-.78-.44.44-7,7-1.78,1.71-1.42,1.43-4.78,4.81-.74.75,1.2,1.2.61.61.72-.72,4.41-4.45L35.82,27l7.56-7.56,1.7-1.7Z" transform="translate(0 0)"/><path fill="#ced5d8" d="M28.94,33.89l-.61-.61-1.2-1.2L27.07,32l-.76-.77H26l-.21.78-.34,1.27L25,35.09l1,1,3.86-1v-.31ZM24.6,36.42l.7-.19Zm22.31-20.5a2.18,2.18,0,0,0-.5-.77l-.39-.4-.15-.14a2.18,2.18,0,0,0-.77-.5,2.37,2.37,0,0,0-2.54.55l-.18.18-.1.1.2.21.79.79.78.78,1,1,1,1,.27-.28A2.37,2.37,0,0,0,46.91,15.92Z" transform="translate(0 0)"/></svg>