<svg xmlns="http://www.w3.org/2000/svg" width="44" height="49.81" viewBox="0 0 44 49.81"><path d="M25,0c-2.45,0-4.52,1.36-7.59,2.94A52.79,52.79,0,0,1,3.78,7.84L3,8v.78C3,24.13,8.37,34.37,13.75,40.72a35.46,35.46,0,0,0,10.84,8.87l.44.22.44-.22S47,38.47,47,8.81V8l-.78-.19a52.79,52.79,0,0,1-13.63-4.9C29.52,1.36,27.45,0,25,0Zm0,2c1.64,0,3.55,1.11,6.69,2.72A56.19,56.19,0,0,0,44.94,9.56c-.37,27.12-18.69,37.29-20,38a31.68,31.68,0,0,1-9.72-8.09C10.22,33.5,5.25,24,5.06,9.56A56.19,56.19,0,0,0,18.31,4.72C21.45,3.11,23.36,2,25,2Zm7.69,12.62-.53.85L24,28.09l-5.37-4.84-.72-.66-1.35,1.47.75.69,6.19,5.63.88.78.65-1,8.78-13.63.54-.84Z" transform="translate(-3)" fill="#282827"/></svg>
