<svg xmlns="http://www.w3.org/2000/svg" width="46.03" height="46.03" viewBox="0 0 46.03 46.03"><path fill="#282827" d="M25,2h-.17A23,23,0,0,0,2,24.8a1.21,1.21,0,0,0,0,.38A23,23,0,0,0,24.8,48a1.21,1.21,0,0,0,.38,0A23,23,0,0,0,48,25.2a1.08,1.08,0,0,0,0-.4,23.14,23.14,0,0,0-3.05-11.3,1,1,0,0,0-1.36-.39,1,1,0,0,0-.4,1.35l0,0A21.17,21.17,0,0,1,46,24H44a1,1,0,0,0,0,2h2A20.91,20.91,0,0,1,26,46V44a1,1,0,0,0-1-1h0a1,1,0,0,0-1,1v2A20.91,20.91,0,0,1,4,26H6a1,1,0,0,0,0-2H4A20.92,20.92,0,0,1,24,4V6a1,1,0,0,0,2,0V4A21.4,21.4,0,0,1,37.87,8.38a1,1,0,0,0,1.21-1.59h0A23.28,23.28,0,0,0,25.2,2,.78.78,0,0,0,25,2ZM47,4a1,1,0,0,0-.78.33L25,27.55l-8.26-8.26a1,1,0,1,0-1.45,1.39l0,0L25,30.45,47.74,5.68a1,1,0,0,0-.05-1.42A1,1,0,0,0,47,4Z" transform="translate(-1.99 -1.99)"/></svg>