<svg xmlns="http://www.w3.org/2000/svg" xmlns:xlink="http://www.w3.org/1999/xlink" width="54" height="54" viewBox="0 0 54 54"><defs><linearGradient id="a" x1="734" x2="734" y1="-622.09" y2="-714.38" gradientTransform="matrix(0.37, 0, 0, -0.37, -241.12, -216.56)" gradientUnits="userSpaceOnUse"><stop offset="0" stop-color="#eaee83"/><stop offset="1" stop-color="#fdc599"/></linearGradient><linearGradient id="b" x1="734" x2="734" y1="-594.77" y2="-744.59" gradientTransform="matrix(0.37, 0, 0, -0.37, -241.12, -216.56)" gradientUnits="userSpaceOnUse"><stop offset="0" stop-color="#d9e021"/><stop offset="1" stop-color="#fb872b"/></linearGradient></defs><path fill="url(#a)" d="M32,49A17,17,0,1,1,49,32,17,17,0,0,1,32,49Zm0-32A15,15,0,1,0,47,32,15,15,0,0,0,32,17Z" transform="translate(-5 -5)"/><path fill="url(#b)" d="M25.61,26H24.39a2,2,0,0,0-2,1.77L21,38h2l.41-3h3.14L27,38h2L27.59,27.77A2,2,0,0,0,25.61,26Zm-1.9,7,.68-5h1.22l.69,5ZM59,30.42A3.47,3.47,0,0,0,56,27.2l-2.91-.48-.21,0a1.47,1.47,0,0,1-1.19-1,21.06,21.06,0,0,0-1.29-3.13A1.49,1.49,0,0,1,50.56,21c.54-.77,1.25-1.75,1.83-2.55A3.48,3.48,0,0,0,52.17,14,29.06,29.06,0,0,0,50,11.82a3.48,3.48,0,0,0-4.35-.21L43,13.45a1.5,1.5,0,0,1-1.58.12,19.15,19.15,0,0,0-3.12-1.3,1.49,1.49,0,0,1-1-1.2C37.16,10.14,37,9,36.81,8A3.48,3.48,0,0,0,33.56,5a27.41,27.41,0,0,0-3.14,0A3.48,3.48,0,0,0,27.2,8c-.15.92-.33,2-.48,2.91l0,.21a1.5,1.5,0,0,1-1,1.19,21.06,21.06,0,0,0-3.13,1.29A1.49,1.49,0,0,1,21,13.44c-.77-.54-1.74-1.25-2.55-1.83a3.47,3.47,0,0,0-4.37.22,29.06,29.06,0,0,0-2.22,2.22,3.49,3.49,0,0,0-.21,4.35L13.45,21a1.5,1.5,0,0,1,.12,1.58,19,19,0,0,0-1.3,3.11,1.48,1.48,0,0,1-1.2,1L8,27.19A3.48,3.48,0,0,0,5,30.44a25.12,25.12,0,0,0,0,3.13A3.47,3.47,0,0,0,8,36.8l2.91.48.21,0a1.47,1.47,0,0,1,1.19,1,21,21,0,0,0,1.29,3.12A1.5,1.5,0,0,1,13.44,43c-.54.77-1.25,1.74-1.83,2.55A3.48,3.48,0,0,0,11.83,50a31,31,0,0,0,2.22,2.22,3.49,3.49,0,0,0,4.35.21c.81-.59,1.8-1.29,2.56-1.85a1.5,1.5,0,0,1,1.58-.11,20.08,20.08,0,0,0,3.12,1.3,1.49,1.49,0,0,1,1,1.2c.16.93.35,2.11.51,3.1A3.48,3.48,0,0,0,30.44,59c.5,0,1,0,1.5,0s1.1,0,1.64,0A3.47,3.47,0,0,0,36.8,56l.48-2.91,0-.21a1.5,1.5,0,0,1,1-1.19,20,20,0,0,0,3.13-1.28,1.51,1.51,0,0,1,1.57.11l2.55,1.84A3.49,3.49,0,0,0,50,52.17,29.06,29.06,0,0,0,52.18,50a3.49,3.49,0,0,0,.21-4.35L50.55,43a1.49,1.49,0,0,1-.12-1.57,19.15,19.15,0,0,0,1.3-3.12,1.49,1.49,0,0,1,1.2-1L56,36.8A3.47,3.47,0,0,0,59,33.56,25.28,25.28,0,0,0,59,30.42Zm-2,3a1.52,1.52,0,0,1-1.26,1.39l-3.11.5a3.49,3.49,0,0,0-2.77,2.4,17.76,17.76,0,0,1-1.17,2.8,3.46,3.46,0,0,0,.27,3.67l1.83,2.56a1.46,1.46,0,0,1-.08,1.85,28.43,28.43,0,0,1-2,2.06,1.5,1.5,0,0,1-1.87.09c-.81-.59-1.79-1.3-2.56-1.84a3.47,3.47,0,0,0-3.65-.27,18.2,18.2,0,0,1-2.8,1.16,3.45,3.45,0,0,0-2.41,2.78l0,.21c-.14.89-.32,2-.47,2.9A1.5,1.5,0,0,1,33.45,57a25.5,25.5,0,0,1-2.9,0,1.48,1.48,0,0,1-1.38-1.25c-.16-1-.35-2.19-.51-3.11a3.5,3.5,0,0,0-2.4-2.78,17.73,17.73,0,0,1-2.8-1.16,3.48,3.48,0,0,0-3.66.26l-2.57,1.84a1.49,1.49,0,0,1-1.85-.08,28.43,28.43,0,0,1-2.06-2,1.5,1.5,0,0,1-.09-1.87c.59-.81,1.3-1.79,1.84-2.56a3.47,3.47,0,0,0,.27-3.65,17.3,17.3,0,0,1-1.15-2.81,3.48,3.48,0,0,0-2.78-2.4l-.21,0-2.9-.48a1.48,1.48,0,0,1-1.25-1.37,25.47,25.47,0,0,1,0-2.9A1.5,1.5,0,0,1,8.3,29.16l3.11-.5a3.5,3.5,0,0,0,2.77-2.4,17.73,17.73,0,0,1,1.16-2.8,3.48,3.48,0,0,0-.26-3.67c-.55-.76-1.26-1.74-1.84-2.56a1.49,1.49,0,0,1,.08-1.85,28.43,28.43,0,0,1,2-2.06,1.5,1.5,0,0,1,1.87-.09l2.56,1.84a3.48,3.48,0,0,0,3.66.27,17.8,17.8,0,0,1,2.8-1.16,3.48,3.48,0,0,0,2.41-2.78l0-.21c.15-.89.32-2,.48-2.9A1.49,1.49,0,0,1,30.55,7a25.5,25.5,0,0,1,2.9,0,1.5,1.5,0,0,1,1.39,1.25c.16,1,.35,2.19.51,3.11a3.48,3.48,0,0,0,2.39,2.78,17.34,17.34,0,0,1,2.8,1.16,3.48,3.48,0,0,0,3.67-.26c.76-.56,1.74-1.26,2.56-1.84a1.49,1.49,0,0,1,1.85.08,26.54,26.54,0,0,1,2.06,2,1.5,1.5,0,0,1,.09,1.87c-.59.81-1.29,1.79-1.84,2.56a3.47,3.47,0,0,0-.27,3.65,18.3,18.3,0,0,1,1.16,2.81,3.47,3.47,0,0,0,2.78,2.4l.21,0,2.9.48A1.49,1.49,0,0,1,57,30.55,25.47,25.47,0,0,1,57,33.45ZM36,26H31V38h2V34h3a3,3,0,0,0,3-3V29A3,3,0,0,0,36,26Zm1,5a1,1,0,0,1-1,1H33V28h3a1,1,0,0,1,1,1Zm4,7h2V26H41Z" transform="translate(-5 -5)"/></svg>