<svg xmlns="http://www.w3.org/2000/svg" xmlns:xlink="http://www.w3.org/1999/xlink" width="52" height="52" viewBox="0 0 52 52"><defs><linearGradient id="a" x1="681.1" x2="681.1" y1="-593.2" y2="-741.01" gradientTransform="matrix(0.37, 0, 0, -0.37, -241.12, -216.56)" gradientUnits="userSpaceOnUse"><stop offset="0" stop-color="#00c6ff"/><stop offset="1" stop-color="#0072ff"/></linearGradient><linearGradient id="b" x1="668.4" x2="668.4" y1="-593.2" y2="-741.01" xlink:href="#a"/><linearGradient id="c" x1="668.39" x2="668.39" y1="-593.2" y2="-741.01" xlink:href="#a"/><linearGradient id="d" x1="681.05" x2="681.05" y1="-593.2" y2="-741.01" xlink:href="#a"/><linearGradient id="e" x1="704.02" x2="704.02" y1="-593.2" y2="-741.01" xlink:href="#a"/><linearGradient id="f" x1="704.09" x2="704.09" y1="-593.2" y2="-741.01" xlink:href="#a"/><linearGradient id="g" x1="764.63" x2="764.63" y1="-593.2" y2="-741.01" xlink:href="#a"/><linearGradient id="h" x1="733.79" x2="733.79" y1="-637.54" y2="-703.57" gradientTransform="matrix(0.37, 0, 0, -0.37, -241.12, -216.56)" gradientUnits="userSpaceOnUse"><stop offset="0" stop-color="#70dfff"/><stop offset="1" stop-color="#70afff"/></linearGradient></defs><path fill="url(#a)" d="M9.8,45.77a26.29,26.29,0,0,0,3.61,4.54l1.42-1.41a24.43,24.43,0,0,1-3.33-4.19Z" transform="translate(-6 -6)"/><path fill="url(#b)" d="M6,34.91a25.93,25.93,0,0,0,1.29,5.64l1.89-.66A23.71,23.71,0,0,1,8,34.68Z" transform="translate(-6 -6)"/><path fill="url(#c)" d="M9.17,24.13l-1.89-.66A25.55,25.55,0,0,0,6,29.12l2,.22A24.3,24.3,0,0,1,9.17,24.13Z" transform="translate(-6 -6)"/><path fill="url(#d)" d="M14.81,15.11l-1.42-1.4a25.4,25.4,0,0,0-3.6,4.54l1.69,1.06A24.89,24.89,0,0,1,14.81,15.11Z" transform="translate(-6 -6)"/><path fill="url(#e)" d="M23.79,9.4l-.68-1.88a26.2,26.2,0,0,0-5.21,2.55L19,11.76A24.11,24.11,0,0,1,23.79,9.4Z" transform="translate(-6 -6)"/><path fill="url(#f)" d="M17.93,53.94a25.93,25.93,0,0,0,5.21,2.55l.68-1.88A25,25,0,0,1,19,52.25Z" transform="translate(-6 -6)"/><path fill="url(#g)" d="M31.92,6a27.07,27.07,0,0,0-3.12.18l.24,2A25.15,25.15,0,0,1,31.92,8a24,24,0,1,1,0,48A25.15,25.15,0,0,1,29,55.83l-.24,2a27.07,27.07,0,0,0,3.12.18,26,26,0,1,0,0-52Z" transform="translate(-6 -6)"/><path fill="url(#h)" d="M27.91,41.94a4,4,0,0,1-2.84-1.17l-7.61-7.59,2.84-2.82,7.61,7.58L43.54,22.36l2.84,2.82L30.75,40.77A4,4,0,0,1,27.91,41.94Z" transform="translate(-6 -6)"/></svg>