<svg xmlns="http://www.w3.org/2000/svg" xmlns:xlink="http://www.w3.org/1999/xlink" width="52" height="42" viewBox="0 0 52 42"><defs><linearGradient id="a" x1="734" x2="734" y1="-708.76" y2="-723.55" gradientTransform="matrix(0.37, 0, 0, -0.37, -241.12, -216.56)" gradientUnits="userSpaceOnUse"><stop offset="0" stop-color="#fff"/><stop offset="1" stop-color="#ffe1ea"/></linearGradient><linearGradient id="b" x1="734" x2="734" y1="-611.56" y2="-723.57" gradientTransform="matrix(0.37, 0, 0, -0.37, -241.12, -216.56)" gradientUnits="userSpaceOnUse"><stop offset="0" stop-color="#ffe29f"/><stop offset="1" stop-color="#ff719a"/></linearGradient><linearGradient id="c" x1="707.13" x2="707.13" y1="-611.56" y2="-723.57" xlink:href="#b"/><linearGradient id="d" x1="701.75" x2="701.75" y1="-611.56" y2="-723.57" xlink:href="#b"/><linearGradient id="e" x1="767.2" x2="767.2" y1="-611.56" y2="-723.57" xlink:href="#b"/></defs><path fill="url(#a)" d="M8,48H56v3H8Z" transform="translate(-6 -11)"/><path fill="url(#b)" d="M55,11H9a3,3,0,0,0-3,3V50a3,3,0,0,0,3,3H55a3,3,0,0,0,3-3V14A3,3,0,0,0,55,11Zm0,40H9a1,1,0,0,1-1-1V48.82A3,3,0,0,0,9,49H55a3,3,0,0,0,1-.18V50A1,1,0,0,1,55,51Zm0-4H9a1,1,0,0,1-1-1V14a1,1,0,0,1,1-1H55a1,1,0,0,1,1,1V46A1,1,0,0,1,55,47Z" transform="translate(-6 -11)"/><path fill="url(#c)" d="M12,20H32v2H12Z" transform="translate(-6 -11)"/><path fill="url(#d)" d="M12,24H28v2H12Z" transform="translate(-6 -11)"/><path fill="url(#e)" d="M48,18.56A5.93,5.93,0,0,0,44,17a6,6,0,1,0,6,6,5.87,5.87,0,0,0-.73-2.86l1.44-1.43-1.42-1.42ZM48,23a4,4,0,1,1-1.4-3L44,22.59l-1.29-1.3-1.42,1.42L44,25.41l3.75-3.75A4,4,0,0,1,48,23Z" transform="translate(-6 -11)"/><path fill="url(#c)" d="M12,34H32v2H12Z" transform="translate(-6 -11)"/><path fill="url(#d)" d="M12,38H28v2H12Z" transform="translate(-6 -11)"/><path fill="url(#e)" d="M49.29,31.29,48,32.56A5.93,5.93,0,0,0,44,31a6,6,0,1,0,6,6,5.87,5.87,0,0,0-.73-2.86l1.44-1.43ZM48,37a4,4,0,1,1-1.4-3L44,36.59l-1.29-1.3-1.42,1.42L44,39.41l3.75-3.75A4,4,0,0,1,48,37Z" transform="translate(-6 -11)"/></svg>