<svg xmlns="http://www.w3.org/2000/svg" xmlns:xlink="http://www.w3.org/1999/xlink" width="48.61" height="43.44" viewBox="0 0 48.61 43.44"><defs><clipPath id="clip-path" transform="translate(-3.03 -0.01)"><path fill="none" d="M24.88,0A21.58,21.58,0,0,0,12.15,4.13H0V41.42H15.72A21.72,21.72,0,1,0,24.88,0Z"/></clipPath></defs><circle cx="21.86" cy="21.72" r="21.72" fill="#79c5d6"/><g clip-path="url(#clip-path)"><path fill="#435159" d="M51.63,8.32H3V37H24.27a4,4,0,0,0,3.05,1.18A4,4,0,0,0,30.37,37H51.63Z" transform="translate(-3.03 -0.01)"/><polyline fill="#ced5d8" points="2.83 34.91 45.46 34.92 43.37 31.35 5.12 31.33"/><path fill="#f2f2f2" d="M7.64,31.74c13.68,0,19.41,2.87,19.41,2.87V10.1S21.32,7.24,7.64,7.24Z" transform="translate(-3.03 -0.01)"/><path fill="#e6e6e6" d="M47,31.74c-13.83,0-20,2.87-20,2.87V10.1S33.2,7.24,47,7.24Z" transform="translate(-3.03 -0.01)"/><path fill="#79888c" d="M35.38,23.72l2,.93V7.57l-3.91.37V24.65Z" transform="translate(-3.03 -0.01)"/><polygon fill="#e6e6e6" points="4.81 7.23 2.77 9.84 2.83 34.93 4.83 31.74 4.81 7.23"/><polygon fill="#e6e6e6" points="43.65 7.24 45.53 10.14 45.53 34.92 43.59 31.74 43.65 7.24"/><path fill="#bac0c2" d="M16.66,17.53c-1.31-.19-2.28-.26-3.25-.32s-1.94-.09-3.23-.09V10.41c1.29,0,2.2,0,3.14.09s1.89.14,3.27.32l0,3.36Z" transform="translate(-3.03 -0.01)"/><path fill="#bac0c2" d="M24.92,13.34A22.47,22.47,0,0,0,22,12.67c-1-.19-2.1-.37-3.45-.57v-1c1.36.21,2.48.39,3.5.58a18.2,18.2,0,0,1,2.84.68Z" transform="translate(-3.03 -0.01)"/><path fill="#bac0c2" d="M24.92,16.21c-1.07-.29-2-.49-3-.67s-2-.35-3.34-.57V14c1.35.21,2.39.39,3.37.57s1.94.38,3,.67Z" transform="translate(-3.03 -0.01)"/><path fill="#bac0c2" d="M24.92,19.07c-1.24-.29-2.15-.48-3.09-.65s-1.87-.35-3.21-.58v-1c1.35.22,2.31.39,3.26.57s1.87.37,3.05.66Z" transform="translate(-3.03 -0.01)"/><path fill="#bac0c2" d="M24.92,22c-1.92-.44-3.45-.73-5-1s-3-.52-4.52-.69a50.66,50.66,0,0,0-5.24-.26v-1a50.19,50.19,0,0,1,5.21.26c1.55.16,3,.43,4.55.7s3,.55,5,1Z" transform="translate(-3.03 -0.01)"/><path fill="#bac0c2" d="M24.92,24.87c-1.84-.45-3.44-.75-5-1s-2.88-.49-4.41-.65a52.09,52.09,0,0,0-5.34-.29v-1a51.47,51.47,0,0,1,5.31.29c1.53.16,2.9.39,4.44.66s3.12.56,5,1Z" transform="translate(-3.03 -0.01)"/><path fill="#bac0c2" d="M19.83,26.68c-1.95-.33-3.13-.49-4.59-.63s-3.16-.27-5.06-.27v-1c1.9,0,3.57.12,5,.26s2.69.32,4.63.65Z" transform="translate(-3.03 -0.01)"/></g></svg>