<svg xmlns="http://www.w3.org/2000/svg" width="17" height="17" viewBox="0 0 17 17"><circle cx="8.5" cy="8.5" r="8.5" fill="#ebb300" class="hover-fill-dark"/><path d="M12.9,11.5h1.25a4.25,4.25,0,0,1-1.8,1.86A6.79,6.79,0,0,1,9,14.13a7.78,7.78,0,0,1-3.34-.65,4.44,4.44,0,0,1-2.1-1.93,5.82,5.82,0,0,1-.68-2.77,6.28,6.28,0,0,1,.78-3.07A5.09,5.09,0,0,1,5.76,3.58a6.46,6.46,0,0,1,3.09-.71,5.85,5.85,0,0,1,2.63.57,4,4,0,0,1,1.75,1.63,4.54,4.54,0,0,1,.61,2.31,4.35,4.35,0,0,1-.92,2.7,3.55,3.55,0,0,1-3,1.53,1.31,1.31,0,0,1-.73-.17.89.89,0,0,1-.33-.5,2.2,2.2,0,0,1-1.59.67,2.18,2.18,0,0,1-1.62-.67,2.51,2.51,0,0,1-.64-1.79,4.36,4.36,0,0,1,.78-2.51,2.79,2.79,0,0,1,2.4-1.38,1.69,1.69,0,0,1,1.54.79l.15-.65h1.54l-.88,4.2a2.8,2.8,0,0,0-.08.52.34.34,0,0,0,.06.22.21.21,0,0,0,.16.07,1.32,1.32,0,0,0,.73-.34,3.2,3.2,0,0,0,1-1.19,3.57,3.57,0,0,0,.37-1.56,3.15,3.15,0,0,0-1-2.41,4.12,4.12,0,0,0-2.91-1,5.25,5.25,0,0,0-2.69.65A4.15,4.15,0,0,0,4.47,6.41a5.69,5.69,0,0,0-.55,2.45,4.19,4.19,0,0,0,.62,2.25,3.63,3.63,0,0,0,1.75,1.48,6.71,6.71,0,0,0,2.58.47,6.65,6.65,0,0,0,2.41-.39A3.73,3.73,0,0,0,12.9,11.5ZM6.57,9.09a1.65,1.65,0,0,0,.3,1.09.94.94,0,0,0,.75.36,1.29,1.29,0,0,0,.63-.17A1.58,1.58,0,0,0,8.68,10a3,3,0,0,0,.54-1,4.13,4.13,0,0,0,.23-1.28,1.51,1.51,0,0,0-.31-1,1,1,0,0,0-.78-.36,1.37,1.37,0,0,0-.93.39,2.4,2.4,0,0,0-.64,1.11A4.35,4.35,0,0,0,6.57,9.09Z" fill="#fff"/></svg>
