<svg xmlns="http://www.w3.org/2000/svg" width="43.52" height="43.5" viewBox="0 0 43.52 43.5"><g><path d="M41.41,10.15V29.58h0l1.18,1.6a21.76,21.76,0,0,0-1.2-21ZM23,0A21.73,21.73,0,0,0,6.56,7.52h32.9A21.71,21.71,0,0,0,23,0ZM3.4,31.17l1.17-1.59h0V10.18a21.78,21.78,0,0,0-1.19,21ZM23,43.5a21.73,21.73,0,0,0,17.91-9.41H5.1A21.73,21.73,0,0,0,23,43.5Z" transform="translate(-1.24)" fill="#f9b8a0" class="hover-fill-dark"/><path d="M22.14,17.8a1.58,1.58,0,0,0-.36,1.1c0,.73.3,1.09.89,1.09a.83.83,0,0,0,.71-.33,2,2,0,0,0,.29-1.07l.07-1.14a2.71,2.71,0,0,0-.6-.06A1.27,1.27,0,0,0,22.14,17.8ZM6.74,9.94V27.16H39V9.94Zm20.1,9.68a2.31,2.31,0,0,1-.67,1,1.59,1.59,0,0,1-1,.35,1.2,1.2,0,0,1-.68-.19,1,1,0,0,1-.42-.48H24a1.75,1.75,0,0,1-1.42.67,1.92,1.92,0,0,1-1.44-.55,2.06,2.06,0,0,1-.53-1.51,2.33,2.33,0,0,1,.69-1.76,2.49,2.49,0,0,1,1.81-.67,5.85,5.85,0,0,1,1,.09,5,5,0,0,1,.89.2l-.12,2.53q0,.72.39.72c.22,0,.4-.16.53-.48a3.47,3.47,0,0,0,.19-1.27,3.07,3.07,0,0,0-.34-1.47,2.29,2.29,0,0,0-1-1,2.93,2.93,0,0,0-1.43-.34,3.63,3.63,0,0,0-1.82.43,2.83,2.83,0,0,0-1.18,1.24A4,4,0,0,0,19.78,19a3,3,0,0,0,.76,2.19,2.41,2.41,0,0,0,.91.56,4,4,0,0,0,1.3.2A6.78,6.78,0,0,0,24,21.83l.38-.08a7.84,7.84,0,0,0,.91-.27v1a6.31,6.31,0,0,1-2.46.47,4.28,4.28,0,0,1-3.06-1l-.16-.16A3.83,3.83,0,0,1,18.63,19a4.85,4.85,0,0,1,.56-2.32,4.07,4.07,0,0,1,1.6-1.64,4.78,4.78,0,0,1,2.39-.59,4.37,4.37,0,0,1,2,.47,3.26,3.26,0,0,1,1.38,1.32,4,4,0,0,1,.49,2A3.79,3.79,0,0,1,26.84,19.62Z" transform="translate(-1.24)" fill="#f2f2f2"/><polygon points="41.38 31.18 40.19 29.58 3.33 29.58 2.16 31.17 0 34.09 43.52 34.09 41.38 31.18" fill="#b2bbbf"/><path d="M40,7.52H6A1.49,1.49,0,0,0,4.59,9.06V29.58H41.41V9.06A1.49,1.49,0,0,0,40,7.52ZM39,27.16H6.74V9.94H39ZM19.73,21.91a4.28,4.28,0,0,0,3.06,1,6.31,6.31,0,0,0,2.46-.47v-1a7.84,7.84,0,0,1-.91.27l-.38.08a6.78,6.78,0,0,1-1.21.12,4,4,0,0,1-1.3-.2,2.41,2.41,0,0,1-.91-.56A3,3,0,0,1,19.78,19a4,4,0,0,1,.41-1.87,2.83,2.83,0,0,1,1.18-1.24,3.63,3.63,0,0,1,1.82-.43,2.93,2.93,0,0,1,1.43.34,2.29,2.29,0,0,1,1,1,3.07,3.07,0,0,1,.34,1.47,3.47,3.47,0,0,1-.19,1.27c-.13.32-.31.48-.53.48s-.39-.24-.39-.72L25,16.74a5,5,0,0,0-.89-.2,5.85,5.85,0,0,0-1-.09,2.49,2.49,0,0,0-1.81.67,2.33,2.33,0,0,0-.69,1.76,2.06,2.06,0,0,0,.53,1.51,1.92,1.92,0,0,0,1.44.55A1.75,1.75,0,0,0,24,20.27h.09a1,1,0,0,0,.42.48,1.2,1.2,0,0,0,.68.19,1.59,1.59,0,0,0,1-.35,2.31,2.31,0,0,0,.67-1,3.79,3.79,0,0,0,.24-1.37,4,4,0,0,0-.49-2A3.26,3.26,0,0,0,25.21,15a4.37,4.37,0,0,0-2-.47,4.78,4.78,0,0,0-2.39.59,4.07,4.07,0,0,0-1.6,1.64A4.85,4.85,0,0,0,18.63,19a3.83,3.83,0,0,0,.94,2.72Zm3.94-3.32a2,2,0,0,1-.29,1.07.83.83,0,0,1-.71.33c-.59,0-.89-.36-.89-1.09a1.58,1.58,0,0,1,.36-1.1,1.27,1.27,0,0,1,1-.41,2.71,2.71,0,0,1,.6.06Z" transform="translate(-1.24)" fill="#ced5d8"/></g></svg>
