<svg xmlns="http://www.w3.org/2000/svg" width="17" height="17"><path fill="#ebb300" d="M15.82,1.21H14.57V2.76a1.69,1.69,0,0,1-1.79,1.49,1.75,1.75,0,0,1-1.85-1.49V1.21H6.07V2.76A1.72,1.72,0,0,1,4.25,4.25,1.72,1.72,0,0,1,2.43,2.76V1.21H1.18A1.16,1.16,0,0,0,0,2.33V15.9A1.14,1.14,0,0,0,1.18,17H15.82A1.14,1.14,0,0,0,17,15.89V2.33A1.16,1.16,0,0,0,15.82,1.21Zm-.64,13.51a.47.47,0,0,1-.49.45H2.3a.48.48,0,0,1-.48-.46V5.93a.49.49,0,0,1,.51-.47H14.68a.49.49,0,0,1,.5.46ZM4.25,3.64A1.21,1.21,0,0,0,5.46,2.43V1.21A1.21,1.21,0,0,0,3,1.21V2.43A1.21,1.21,0,0,0,4.25,3.64Zm8.5,0A1.21,1.21,0,0,0,14,2.43V1.21a1.21,1.21,0,0,0-2.42,0V2.43A1.21,1.21,0,0,0,12.75,3.64Z" class="hover-fill-dark"/><path fill="#FFCD1A" d="M4,9.05l.62.78.71-.57.45-.42,0,.64v4.14H7V7.47H6Zm6.37,3.47v0l.79-.75a12.07,12.07,0,0,0,1.1-1.11,3,3,0,0,0,.46-.77,2.06,2.06,0,0,0,.15-.79,1.58,1.58,0,0,0-.24-.87,1.67,1.67,0,0,0-.69-.59,2.32,2.32,0,0,0-1-.21,3.24,3.24,0,0,0-.79.09,3.35,3.35,0,0,0-.65.24,4.59,4.59,0,0,0-.75.55l.71.84a3.43,3.43,0,0,1,.7-.47,1.52,1.52,0,0,1,.69-.16.81.81,0,0,1,.55.18.71.71,0,0,1,.2.55,1.36,1.36,0,0,1-.09.48,2.13,2.13,0,0,1-.3.5c-.15.18-.44.51-.9,1L8.73,12.71v.91H13v-1.1Z" class="hover-fill-light"/></svg>