<svg xmlns="http://www.w3.org/2000/svg" width="228.2" height="227.6" viewBox="0 0 228.2 227.6"><circle cx="67.4" cy="67.4" r="66.4" fill="#fff"/><path d="M228.2,192.5l25.3-25.2L134.6,119.9,182,238.8l25.2-25.2,65.9,65.2,21-21Zm-58.5-65.6a40.51,40.51,0,0,0,.7-7,35.8,35.8,0,1,0-35.8,35.8,32.6,32.6,0,0,0,7-.7l-3.3-8.3a24,24,0,0,1-3.7.3,27.1,27.1,0,1,1,27.1-27.1,23.08,23.08,0,0,1-.3,3.7Zm-35.1,53a60.11,60.11,0,1,1,57.8-44l8.1,3.2a68.05,68.05,0,0,0,2.8-19.2,68.7,68.7,0,1,0-68.7,68.7,67.53,67.53,0,0,0,19.2-2.8l-3.2-8.1A60.58,60.58,0,0,1,134.6,179.9Z" transform="translate(-65.9 -51.2)" fill="#b2bbbf"/></svg>
