<?xml version="1.0" encoding="utf-8"?>
<!-- Generator: Adobe Illustrator 21.0.0, SVG Export Plug-In . SVG Version: 6.00 Build 0)  -->
<svg version="1.1" id="Layer_5" xmlns="http://www.w3.org/2000/svg" xmlns:xlink="http://www.w3.org/1999/xlink" x="0px" y="0px"
	 viewBox="0 0 360 330" style="enable-background:new 0 0 360 330;" xml:space="preserve">
<style type="text/css">
	.st0{fill:#B2BBBF;}
	.st1{fill:#FFFFFF;}
</style>
<g>
	<path class="st0" d="M270.5,161C270.5,58.3,180,57.7,180,57.7S89.5,58.3,89.5,161s0,111.3,0,111.3l51.4-31.8
		c11.5,6.7,24.8,10.5,39.1,10.5s27.6-3.8,39.1-10.5l51.4,31.8C270.5,272.3,270.5,263.7,270.5,161z"/>
	<path class="st1" d="M123.5,156.4c0,0,45,3.6,63-19c0,0,29,27.6,51.7,27.6c0,0,9.7,75.3-58.2,75.3S123.5,156.4,123.5,156.4z"/>
	<ellipse class="st0" cx="180.7" cy="214.3" rx="15.4" ry="10.2"/>
	<path class="st0" d="M184.2,210.3c16.7,0,40.7-8.6,54-45.3l4,10.7c0,0-8.2,34.5-54,42.6L184.2,210.3z"/>
</g>
</svg>
