<svg xmlns="http://www.w3.org/2000/svg" width="52" height="52" viewBox="0 0 52 52"><circle cx="26" cy="26" r="26" fill="#fff"/><path d="M15.09,22V30H14V22Z"/><path d="M22.56,29.78a5.2,5.2,0,0,1-2.13.38,3.78,3.78,0,0,1-4-4.09,4,4,0,0,1,4.22-4.24,4.22,4.22,0,0,1,1.92.36l-.25.85a3.8,3.8,0,0,0-1.63-.34A3,3,0,0,0,17.54,26a2.94,2.94,0,0,0,3.1,3.25A4.26,4.26,0,0,0,22.35,29Z"/><path d="M30.53,25.92c0,2.78-1.69,4.25-3.76,4.25s-3.63-1.65-3.63-4.1,1.59-4.24,3.75-4.24S30.53,23.52,30.53,25.92Zm-6.27.13c0,1.73.93,3.27,2.57,3.27S29.42,27.8,29.42,26c0-1.6-.84-3.28-2.57-3.28S24.26,24.27,24.26,26.05Z"/><path d="M31.89,30V22H33l2.59,4.09a23,23,0,0,1,1.45,2.62h0C37,27.58,37,26.6,37,25.34V22h1V30H36.9l-2.57-4.1a26.34,26.34,0,0,1-1.51-2.7h0c.06,1,.08,2,.08,3.34V30Z"/></svg>
