<svg xmlns="http://www.w3.org/2000/svg" width="165.3" height="149.4" viewBox="0 0 165.3 149.4"><path fill="#b2bbbf" d="M256.1,90.3H103.8c-3.5,0-6.4,3.1-6.5,6.9V206.5a6.71,6.71,0,0,0,6.5,6.9h29.3v26.3l30.2-26.3h92.8a6.71,6.71,0,0,0,6.5-6.9V97.2A6.71,6.71,0,0,0,256.1,90.3ZM183.3,181a7.27,7.27,0,0,1-5.4,1.9,7.36,7.36,0,0,1-5.5-1.9,7.09,7.09,0,0,1-2-5.3c0-2.4.6-4.2,1.9-5.4a7.85,7.85,0,0,1,5.6-1.8,7.52,7.52,0,0,1,5.5,1.9,6.89,6.89,0,0,1,1.9,5.3A7.24,7.24,0,0,1,183.3,181Zm14.2-38.6c-1.4,2.3-4.1,4.8-8.1,7.6a26.29,26.29,0,0,0-5.2,4.6,7.11,7.11,0,0,0-1.1,4.1v2.5H171.8v-3.1a14.62,14.62,0,0,1,1.7-7.1,24,24,0,0,1,6.4-6.4,25.11,25.11,0,0,0,5.9-5.2,7.75,7.75,0,0,0,1.4-4.5,5,5,0,0,0-2-4.2,9.64,9.64,0,0,0-5.7-1.4c-4.2,0-9.1,1.4-14.5,4.2l-4.6-9.3a40.81,40.81,0,0,1,20.1-5.3c5.8,0,10.5,1.4,13.9,4.2a13.81,13.81,0,0,1,5.2,11.2A15.27,15.27,0,0,1,197.5,142.4Z" transform="translate(-97.3 -90.3)"/><path fill="#fff" d="M177.9,168.5a7.85,7.85,0,0,0-5.6,1.8c-1.3,1.2-1.9,3-1.9,5.4a7.09,7.09,0,0,0,2,5.3,7.36,7.36,0,0,0,5.5,1.9,6.74,6.74,0,0,0,7.4-7.2,6.89,6.89,0,0,0-1.9-5.3A7.52,7.52,0,0,0,177.9,168.5Zm16.5-45.4c-3.4-2.8-8.1-4.2-13.9-4.2a40.81,40.81,0,0,0-20.1,5.3l4.6,9.3c5.4-2.8,10.3-4.2,14.5-4.2a9.64,9.64,0,0,1,5.7,1.4,5,5,0,0,1,2,4.2,7.75,7.75,0,0,1-1.4,4.5,25.11,25.11,0,0,1-5.9,5.2,24,24,0,0,0-6.4,6.4,14.62,14.62,0,0,0-1.7,7.1v3.1h11.3v-2.5a7.11,7.11,0,0,1,1.1-4.1,26.29,26.29,0,0,1,5.2-4.6c4-2.8,6.7-5.3,8.1-7.6a15.27,15.27,0,0,0,2.1-8.1A13.81,13.81,0,0,0,194.4,123.1Z" transform="translate(-97.3 -90.3)"/></svg>