<?xml version="1.0" encoding="utf-8"?>
<!-- Generator: Adobe Illustrator 21.0.0, SVG Export Plug-In . SVG Version: 6.00 Build 0)  -->
<svg version="1.1" id="pictogram" xmlns="http://www.w3.org/2000/svg" xmlns:xlink="http://www.w3.org/1999/xlink" x="0px" y="0px"
	 viewBox="0 0 360 330" style="enable-background:new 0 0 360 330;" xml:space="preserve">
<style type="text/css">
	.st0{fill:#B2BBBF;}
	.st1{fill:#FFFFFF;}
</style>
<g>
	<path class="st0" d="M103.8,90.3h152.3c3.6,0,6.5,3.1,6.5,6.9v109.3c0,3.8-2.9,6.9-6.5,6.9h-92.8l-30.2,26.3v-26.3h-29.3
		c-3.6,0-6.5-3.1-6.5-6.9V97.2C97.4,93.4,100.3,90.3,103.8,90.3z"/>
	<path class="st1" d="M171.8,161.2v-3.1c0-2.7,0.6-5.1,1.7-7.1c1.2-2,3.3-4.1,6.4-6.4c3-2.1,4.9-3.8,5.9-5.2
		c0.9-1.3,1.4-2.8,1.4-4.5c0-1.8-0.7-3.2-2-4.2c-1.4-1-3.3-1.4-5.7-1.4c-4.2,0-9.1,1.4-14.5,4.2l-4.6-9.3c6.3-3.5,13-5.3,20.1-5.3
		c5.8,0,10.5,1.4,13.9,4.2s5.2,6.5,5.2,11.2c0,3.1-0.7,5.8-2.1,8.1c-1.4,2.3-4.1,4.8-8.1,7.6c-2.7,2-4.4,3.5-5.2,4.6
		c-0.7,1-1.1,2.4-1.1,4.1v2.5L171.8,161.2L171.8,161.2z M170.4,175.7c0-2.4,0.6-4.2,1.9-5.4s3.1-1.8,5.6-1.8c2.3,0,4.2,0.6,5.5,1.9
		c1.3,1.2,1.9,3,1.9,5.3c0,2.2-0.7,4-2,5.3s-3.1,1.9-5.4,1.9c-2.4,0-4.2-0.6-5.5-1.9C171.1,179.7,170.4,178,170.4,175.7z"/>
</g>
</svg>
