<?xml version="1.0" encoding="utf-8"?>
<!-- Generator: Adobe Illustrator 21.0.0, SVG Export Plug-In . SVG Version: 6.00 Build 0)  -->
<svg version="1.1" id="Layer_3" xmlns="http://www.w3.org/2000/svg" xmlns:xlink="http://www.w3.org/1999/xlink" x="0px" y="0px"
	 viewBox="0 0 360 330" style="enable-background:new 0 0 360 330;" xml:space="preserve">
<style type="text/css">
	.st0{fill:#FFFFFF;}
	.st1{fill:#B2BBBF;}
</style>
<g>
	<circle class="st0" cx="133.3" cy="118.6" r="66.4"/>
	<g>
		<polygon class="st1" points="294.1,257.8 228.2,192.5 253.5,167.3 134.6,119.9 182,238.8 207.2,213.6 273.1,278.8 		"/>
		<g>
			<path class="st1" d="M134.6,147c-14.9,0-27.1-12.2-27.1-27.1s12.2-27.1,27.1-27.1c14.9,0,27.1,12.1,27.1,27.1
				c0,1.2-0.1,2.5-0.3,3.7l8.3,3.3c0.4-2.3,0.7-4.6,0.7-7c0-19.7-16.1-35.8-35.8-35.8s-35.8,16.1-35.8,35.8s16.1,35.8,35.8,35.8
				c2.4,0,4.7-0.2,7-0.7l-3.3-8.3C137,146.9,135.8,147,134.6,147z"/>
			<path class="st1" d="M134.6,179.9c-33.1,0-60-26.9-60-60s26.9-60,60-60s60,26.9,60,60c0,5.5-0.8,10.9-2.2,16l8.1,3.2
				c1.8-6.1,2.8-12.6,2.8-19.2c0-37.9-30.8-68.7-68.7-68.7S65.9,82,65.9,119.9s30.8,68.7,68.7,68.7c6.7,0,13.1-1,19.2-2.8l-3.2-8.1
				C145.5,179.1,140.1,179.9,134.6,179.9z"/>
		</g>
	</g>
</g>
</svg>
