<svg xmlns="http://www.w3.org/2000/svg" width="181" height="214.6" viewBox="0 0 181 214.6"><path d="M195.67,216.66c-1.61,4.49-7.69,7.84-15,7.84-8.51,0-15.4-4.57-15.4-10.2s6.89-10.2,15.4-10.2c5.75,0,10.76,2.09,13.41,5.19,15.31-3.14,33.25-14.38,44.09-44.29-22.7,0-51.7-27.6-51.7-27.6-18,22.6-63,19-63,19s-11.4,83.9,56.5,83.9c44.65,0,55.74-32.56,58.11-54.86C232.65,195.34,220.61,210.11,195.67,216.66Z" transform="translate(-89.5 -57.7)" fill="#fff"/><path d="M180,57.7S89.5,58.3,89.5,161V272.3l51.4-31.8a78.05,78.05,0,0,0,78.2,0l51.4,31.8V161C270.5,58.3,180,57.7,180,57.7Zm0,182.6c-67.9,0-56.5-83.9-56.5-83.9s45,3.6,63-19c0,0,29,27.6,51.7,27.6-10.84,29.91-28.78,41.15-44.09,44.29-2.65-3.1-7.66-5.19-13.41-5.19-8.51,0-15.4,4.57-15.4,10.2s6.89,10.2,15.4,10.2c7.28,0,13.36-3.35,15-7.84,24.94-6.55,37-21.32,42.44-31.22C235.74,207.74,224.65,240.3,180,240.3Z" transform="translate(-89.5 -57.7)" fill="#b2bbbf"/></svg>
