<svg xmlns="http://www.w3.org/2000/svg" width="17" height="16.8" viewBox="0 0 17 16.8"><g id="_27" data-name="27"><path fill="#ebb300" d="M14.8,9.85l1.77-.21a.26.26,0,0,0,.23-.26V7.61a.26.26,0,0,0-.23-.25L14.8,7.15a6.15,6.15,0,0,0-.92-2.22L15,3.53a.29.29,0,0,0,0-.35L13.71,1.93a.26.26,0,0,0-.34,0L12,3a6.35,6.35,0,0,0-2.22-.93L9.54.33A.26.26,0,0,0,9.29.1H7.52a.26.26,0,0,0-.26.23L7.05,2.09A6.43,6.43,0,0,0,4.83,3L3.43,1.91a.26.26,0,0,0-.34,0L1.84,3.18a.27.27,0,0,0,0,.35l1.1,1.4A6.33,6.33,0,0,0,2,7.15L.23,7.36A.26.26,0,0,0,0,7.61V9.38a.26.26,0,0,0,.23.26L2,9.85a6.49,6.49,0,0,0,.92,2.22l-1.1,1.4a.26.26,0,0,0,0,.34l1.25,1.25a.26.26,0,0,0,.34,0L4.83,14a6.41,6.41,0,0,0,2.22.92l.21,1.77a.26.26,0,0,0,.26.23H9.29a.26.26,0,0,0,.25-.23l.21-1.77a6.33,6.33,0,0,0,1.43-.48L9.73,13a4.86,4.86,0,0,1-1.33.19A4.71,4.71,0,1,1,13.11,8.5a4.55,4.55,0,0,1-.18,1.28l1.43,1.39A6,6,0,0,0,14.8,9.85Z" class="hover-fill-dark" transform="translate(0 -0.1)"/><path fill="#ffcd1a" d="M16.57,14.38h0L11.68,9.64A3.5,3.5,0,0,0,7.2,5.36L8.36,6.47a.68.68,0,0,1,0,1L7.26,8.59a.68.68,0,0,1-1,0L5.14,7.5a3.51,3.51,0,0,0,4.5,4.29l4.87,4.73,0,0a1.46,1.46,0,0,0,2.06-.05A1.49,1.49,0,0,0,16.57,14.38Zm-.45,1.74a.48.48,0,0,1-.69-.67.48.48,0,0,1,.69.67Z" class="hover-fill-light" transform="translate(0 -0.1)"/></g></svg>