<svg xmlns="http://www.w3.org/2000/svg" xmlns:xlink="http://www.w3.org/1999/xlink" width="49.38" height="43.5" viewBox="0 0 49.38 43.5"><defs><clipPath id="clip-path" transform="translate(3.81 0)"><circle cx="23.53" cy="21.75" r="21.75" fill="none"/></clipPath></defs><circle cx="27.35" cy="21.75" r="21.75" fill="#80b971"/><g clip-path="url(#clip-path)"><path d="M44.67,9.37H23.37a.94.94,0,0,0-.91,1V25.62a.94.94,0,0,0,.91,1h13l4.22,3.68V26.58h4.11a.94.94,0,0,0,.9-1V10.33A.94.94,0,0,0,44.67,9.37Z" transform="translate(3.81 0)" fill="#425159"/><path d="M44.67,8H23.37a1,1,0,0,0-.91,1V24.29a.94.94,0,0,0,.91,1h13l4.22,3.68V25.26h4.11a.94.94,0,0,0,.9-1V9A1,1,0,0,0,44.67,8Z" transform="translate(3.81 0)" fill="#ced5d8"/><circle cx="33.27" cy="16.95" r="1.4" fill="#b2bbbf"/><circle cx="37.94" cy="16.95" r="1.4" fill="#b2bbbf"/><circle cx="42.61" cy="16.95" r="1.4" fill="#b2bbbf"/><path d="M9.09,15.4h21.3a.93.93,0,0,1,.9,1V31.65a.94.94,0,0,1-.9,1h-13L13.19,36.3V32.62H9.09a1,1,0,0,1-.9-1V16.37A.94.94,0,0,1,9.09,15.4Z" transform="translate(3.81 0)" fill="#425159"/><path d="M9.09,14.08h21.3a.93.93,0,0,1,.9,1V30.33a.93.93,0,0,1-.9,1h-13L13.19,35V31.29H9.09a.94.94,0,0,1-.9-1V15A.94.94,0,0,1,9.09,14.08Z" transform="translate(3.81 0)" fill="#f2f2f2"/><circle cx="28.26" cy="22.98" r="1.4" fill="#425159"/><circle cx="23.59" cy="22.98" r="1.4" fill="#425159"/><circle cx="18.92" cy="22.98" r="1.4" fill="#425159"/></g><line x1="0.65" y1="17.81" y2="18.13" fill="none"/></svg>
