<svg width="17" height="17"><path fill="#FFCD1A" d="M15.08,8.5h0A6.59,6.59,0,0,1,8.5,15.08v-.67a.09.09,0,0,0-.14-.08L6.55,15.58a.08.08,0,0,0,0,.15L8.36,17a.09.09,0,0,0,.14-.07v-.67A7.74,7.74,0,0,0,16.23,8.5ZM8.5,2.59a.09.09,0,0,0,.14.07l1.81-1.24a.08.08,0,0,0,0-.15L8.64,0A.09.09,0,0,0,8.5.09V.76A7.74,7.74,0,0,0,.77,8.5H1.92A6.59,6.59,0,0,1,8.5,1.92Z" class="hover-fill-light" transform="translate(-0.77 0)"/><path fill="#ebb300" d="M13,7.72l-.89-.15a3.9,3.9,0,0,0-.4-1l.52-.74a.33.33,0,0,0,0-.44l-.31-.32-.32-.32a.36.36,0,0,0-.44,0l-.74.53a3.69,3.69,0,0,0-1-.4L9.28,4A.33.33,0,0,0,9,3.7h-.9A.33.33,0,0,0,7.72,4l-.16.89a3.88,3.88,0,0,0-1,.42l-.73-.52a.34.34,0,0,0-.44,0l-.32.32-.32.32a.33.33,0,0,0,0,.44l.53.75a3.46,3.46,0,0,0-.39,1L4,7.76a.33.33,0,0,0-.28.33V9A.34.34,0,0,0,4,9.32l.9.16a4,4,0,0,0,.41,1l-.52.73a.33.33,0,0,0,0,.44l.32.32.31.32a.35.35,0,0,0,.45,0l.75-.53a3.83,3.83,0,0,0,1,.4l.15.88a.35.35,0,0,0,.34.29H9A.34.34,0,0,0,9.31,13l.15-.9a4.13,4.13,0,0,0,.95-.39l.74.52a.33.33,0,0,0,.44,0l.32-.31.32-.32a.35.35,0,0,0,0-.45l-.53-.74a3.43,3.43,0,0,0,.4-1l.9-.15A.34.34,0,0,0,13.32,9V8.06A.34.34,0,0,0,13,7.72ZM9.65,9.62a1.59,1.59,0,1,1,0-2.26A1.59,1.59,0,0,1,9.65,9.62Z" class="hover-fill-dark" transform="translate(-0.77 0)"/></svg>