<svg xmlns="http://www.w3.org/2000/svg" width="47.02" height="43.44" viewBox="0 0 47.02 43.44"><circle cx="21.72" cy="21.72" r="21.72" fill="#ec677a"/><path d="M36,18.93l-6,1.82-5.21,1.58L13.6,18.93,2.6,15.6l22.12-4.94h0L2.45,15.6v2.09L12.9,20.85,10.38,31.16l14.56,4.16,14.41-4.17L36.82,20.77,42.51,19V17h-.24Zm3.29,12.22L30,33.82v-11l6.84-2.07ZM43.38,16.7v2.09L47,17.69V15.6Z" transform="translate(0 -0.01)" fill="#435159"/><path d="M30,22.84v11l9.32-2.67-2.48-10.4ZM43.38,16.6v.1L47,15.6,24.76,10.66h0L2.62,15.6l11,3.33,11.19,3.4L30,20.75l6-1.82,6.3-1.9-15-.16a5.11,5.11,0,0,1-2.43.5c-1.56,0-2.83-.46-2.83-1s1.27-1,2.83-1a4.23,4.23,0,0,1,2.62.63l15.16.16a.41.41,0,0,1,.73.27v.18Z" transform="translate(0 -0.01)" fill="#79888c"/><path d="M44.57,26.35a.55.55,0,0,0-.27-.48.61.61,0,0,1-.42.19H42.25a.48.48,0,0,1-.34-.14.59.59,0,0,0-.19.43l-.58,6a.56.56,0,0,0,.56.56h2.87a.56.56,0,0,0,.57-.55h0ZM27.26,16.87l15,.16h.25v4.74a1.52,1.52,0,0,0-.83,2,1.34,1.34,0,0,0,.17.31.63.63,0,0,1,.37-.12h1.63a.66.66,0,0,1,.45.17,1.53,1.53,0,0,0-.95-2.46V16.42a.41.41,0,0,0-.73-.27L27.51,16a.5.5,0,0,1,.18.36A.78.78,0,0,1,27.26,16.87Z" transform="translate(0 -0.01)" fill="#ced5d8"/><path d="M44.33,24.13a.66.66,0,0,0-.45-.17H42.25a.63.63,0,0,0-.37.12.51.51,0,0,0-.17.4v.95a.7.7,0,0,0,.2.49.48.48,0,0,0,.34.14h1.63a.61.61,0,0,0,.42-.19.65.65,0,0,0,.2-.44v-.95A.47.47,0,0,0,44.33,24.13Zm-19.5-8.8c-1.56,0-2.83.45-2.83,1s1.27,1,2.83,1a5.11,5.11,0,0,0,2.43-.5c.26-.15.41-.33.41-.52a.52.52,0,0,0-.16-.31A4.31,4.31,0,0,0,24.83,15.33Z" transform="translate(0 -0.01)" fill="#afb8ba"/></svg>
