<svg xmlns="http://www.w3.org/2000/svg" xmlns:xlink="http://www.w3.org/1999/xlink" width="52" height="52" viewBox="0 0 52 52"><defs><linearGradient id="a" x1="734" y1="-598.12" x2="734" y2="-736.97" gradientTransform="matrix(0.37, 0, 0, -0.37, -241.12, -216.56)" gradientUnits="userSpaceOnUse"><stop offset="0" stop-color="#00c6ff"/><stop offset="1" stop-color="#0072ff"/></linearGradient><linearGradient id="b" x1="736.69" y1="-598.07" x2="736.69" y2="-736.91" xlink:href="#a"/><linearGradient id="c" x1="734" y1="-598.07" x2="734" y2="-736.91" xlink:href="#a"/><linearGradient id="d" x1="734" y1="-726" x2="734" y2="-734.32" gradientTransform="matrix(0.37, 0, 0, -0.37, -241.12, -216.56)" gradientUnits="userSpaceOnUse"><stop offset="0" stop-color="#70dfff"/><stop offset="1" stop-color="#70afff"/></linearGradient></defs><path d="M55,27.68a2,2,0,0,0,2,0A2,2,0,0,0,58,26V22.87a3,3,0,0,0-1.45-2.58l-23-13.86a3,3,0,0,0-3.1,0l-23,13.86A3,3,0,0,0,6,22.87V26a2,2,0,0,0,3,1.72l1-.59V52a2,2,0,0,0-2,2v2H6v2H58V56H56V54a2,2,0,0,0-2-2V27.09ZM54,56H10V54H54ZM12,48V46h4V44H12V25.89L31.49,14.14a1,1,0,0,1,1,0L52,25.89V44H48v2h4v2H46v2h6v2H38V39a3,3,0,0,0-3-3H29a3,3,0,0,0-3,3V52H12V50h6V48Zm24-9V52H28V39a1,1,0,0,1,1-1h6A1,1,0,0,1,36,39ZM33.55,12.43a3,3,0,0,0-3.1,0L8,26V22.87A1,1,0,0,1,8.48,22l23-13.87a1,1,0,0,1,1,0L55.52,22a1,1,0,0,1,.48.86V26Z" transform="translate(-6 -6)" fill="url(#a)"/><path d="M32,43h2v4H32Z" transform="translate(-6 -6)" fill="url(#b)"/><path d="M26,32H38v2H26Z" transform="translate(-6 -6)" fill="url(#c)"/><path d="M10,54H54v2H10Z" transform="translate(-6 -6)" fill="url(#d)"/></svg>
