<svg xmlns="http://www.w3.org/2000/svg" xmlns:xlink="http://www.w3.org/1999/xlink" width="40" height="52" viewBox="0 0 40 52"><defs><linearGradient id="a" x1="725.97" y1="-606.19" x2="725.97" y2="-633.73" gradientTransform="matrix(0.37, 0, 0, -0.37, -241.12, -216.56)" gradientUnits="userSpaceOnUse"><stop offset="0" stop-color="#d9f7ee"/><stop offset="1" stop-color="#2df19b"/></linearGradient><linearGradient id="b" x1="733.99" y1="-592.08" x2="733.99" y2="-743.26" gradientTransform="matrix(0.37, 0, 0, -0.37, -241.12, -216.56)" gradientUnits="userSpaceOnUse"><stop offset="0" stop-color="#7de3c3"/><stop offset="1" stop-color="#0ba360"/></linearGradient><linearGradient id="c" x1="757.5" y1="-592.08" x2="757.5" y2="-743.26" xlink:href="#b"/><linearGradient id="d" x1="694.45" y1="-592.08" x2="694.45" y2="-743.26" xlink:href="#b"/></defs><path d="M35,16a5.94,5.94,0,0,1-2,4.48A2.59,2.59,0,0,0,33,20c0-.17,0-.33,0-.49v0c0-2-2-3.49-4-3.49s-4,1.52-4,3.49v0c0,.16,0,.32,0,.49a3.91,3.91,0,0,0,.05.48A5.93,5.93,0,0,1,23,16a6,6,0,0,1,12,0Z" transform="translate(-12 -6)" fill="url(#a)"/><path d="M48.21,34a3.88,3.88,0,0,0-2.46.7,3.95,3.95,0,0,0-6.49-1.6,1.74,1.74,0,0,0-.25.29A4,4,0,0,0,36,32a5.4,5.4,0,0,0-2,.56V24.64A10.14,10.14,0,0,0,39,16a10,10,0,0,0-20,0,10.12,10.12,0,0,0,5,8.63V40.5l-3.35-3.14A4.89,4.89,0,0,0,16.94,36a5,5,0,0,0-3.51,1.79l-.27.31a5.1,5.1,0,0,0,.07,6.57l9.91,11.53A5.1,5.1,0,0,0,27,58H46a6,6,0,0,0,6-6V38.17A4.1,4.1,0,0,0,48.21,34ZM21,16a8,8,0,0,1,16,0,7.6,7.6,0,0,1-3,6.23V20a5,5,0,0,0-5-5h0a5,5,0,0,0-5,5v2.21A7.54,7.54,0,0,1,21,16ZM50,52a4,4,0,0,1-4,4H27a3.06,3.06,0,0,1-2.34-1.09L14.75,43.38a3.07,3.07,0,0,1,0-4l.26-.31A2.92,2.92,0,0,1,17.07,38a2.89,2.89,0,0,1,2.22.79L22.65,42a2,2,0,0,0,2.16.38A2,2,0,0,0,26,40.5V20a3,3,0,1,1,6,0V38h2V36h0a2,2,0,1,1,4,0v2h2V36h0a2,2,0,0,1,.62-1.45A1.91,1.91,0,0,1,42.11,34,2.12,2.12,0,0,1,44,36.17V38h2a2,2,0,0,1,.63-1.45A2,2,0,0,1,48.11,36,2.13,2.13,0,0,1,50,38.17Z" transform="translate(-12 -6)" fill="url(#b)"/><path d="M38.48,23.38l1.57,1.24a14,14,0,0,0,0-17.24L38.47,8.61a12,12,0,0,1,0,14.77Z" transform="translate(-12 -6)" fill="url(#c)"/><path d="M19.55,23.38a12,12,0,0,1,0-14.76L18,7.38a14,14,0,0,0,0,17.23Z" transform="translate(-12 -6)" fill="url(#d)"/></svg>
