<svg xmlns="http://www.w3.org/2000/svg" xmlns:xlink="http://www.w3.org/1999/xlink" width="52" height="52" viewBox="0 0 52 52"><defs><linearGradient id="a" x1="734" y1="-592.3" x2="734" y2="-744.18" gradientTransform="matrix(0.37, 0, 0, -0.37, -241.12, -216.56)" gradientUnits="userSpaceOnUse"><stop offset="0" stop-color="#d9e021"/><stop offset="1" stop-color="#fb872b"/></linearGradient><linearGradient id="c" x1="734" y1="-640.68" x2="734" y2="-696.44" gradientTransform="matrix(0.37, 0, 0, -0.37, -241.12, -216.56)" gradientUnits="userSpaceOnUse"><stop offset="0" stop-color="#eaee83"/><stop offset="1" stop-color="#fdc599"/></linearGradient></defs><path d="M32,58A26,26,0,1,1,58,32,26,26,0,0,1,32,58ZM32,8A24,24,0,1,0,56,32,24,24,0,0,0,32,8Z" transform="translate(-6 -6)" fill="url(#a)"/><path d="M32,54A22,22,0,1,1,54,32,22,22,0,0,1,32,54Zm0-42A20,20,0,1,0,52,32,20,20,0,0,0,32,12Z" transform="translate(-6 -6)" fill="url(#a)"/><path d="M41,30H34V23a1,1,0,0,0-1-1H31a1,1,0,0,0-1,1v7H23a1,1,0,0,0-1,1v2a1,1,0,0,0,1,1h7v7a1,1,0,0,0,1,1h2a1,1,0,0,0,1-1V34h7a1,1,0,0,0,1-1V31A1,1,0,0,0,41,30Z" transform="translate(-6 -6)" fill="url(#c)"/></svg>
