<svg xmlns="http://www.w3.org/2000/svg" xmlns:xlink="http://www.w3.org/1999/xlink" width="52" height="46" viewBox="0 0 52 46"><defs><linearGradient id="a" x1="774.31" y1="-689.95" x2="774.31" y2="-709.66" gradientTransform="matrix(0.37, 0, 0, -0.37, -241.12, -216.56)" gradientUnits="userSpaceOnUse"><stop offset="0" stop-color="#fff"/><stop offset="1" stop-color="#ffe1ea"/></linearGradient><linearGradient id="b" x1="720.56" y1="-604.51" x2="720.56" y2="-726.45" gradientTransform="matrix(0.37, 0, 0, -0.37, -241.12, -216.56)" gradientUnits="userSpaceOnUse"><stop offset="0" stop-color="#ffe29f"/><stop offset="1" stop-color="#ff719a"/></linearGradient><linearGradient id="c" x1="774.31" y1="-604.51" x2="774.31" y2="-726.45" xlink:href="#b"/><linearGradient id="g" x1="711.16" y1="-604.51" x2="711.16" y2="-726.45" xlink:href="#b"/></defs><path d="M47,41a3,3,0,1,0,3,3A3,3,0,0,0,47,41Z" transform="translate(-6 -9)" fill="url(#a)"/><path d="M8,42V12a1,1,0,0,1,1-1H45a1,1,0,0,1,1,1V31h2V12a3,3,0,0,0-3-3H9a3,3,0,0,0-3,3V46a3,3,0,0,0,3,3H34V47H9a1,1,0,0,1-1-1V44.82A3,3,0,0,0,9,45H34V43H9A1,1,0,0,1,8,42Z" transform="translate(-6 -9)" fill="url(#b)"/><path d="M56,41h-.48a7,7,0,0,0-.38-.89l.34-.35a2,2,0,0,0,0-2.83l-1.41-1.41a2,2,0,0,0-2.83,0l-.36.36c-.29-.13-.58-.26-.88-.36V35a2,2,0,0,0-2-2H46a2,2,0,0,0-2,2v.52c-.3.1-.59.23-.88.36l-.36-.36a2,2,0,0,0-2.83,0l-1.41,1.41a2,2,0,0,0,0,2.83l.34.35a7,7,0,0,0-.38.89H38a2,2,0,0,0-2,2v2a2,2,0,0,0,2,2h.48a7,7,0,0,0,.38.89l-.34.35a2,2,0,0,0-.59,1.42,2,2,0,0,0,.59,1.41l1.41,1.42a2,2,0,0,0,2.83,0l.36-.36c.29.13.58.25.88.36V53a2,2,0,0,0,2,2h2a2,2,0,0,0,2-2v-.52q.45-.16.87-.36l.37.37a2,2,0,0,0,2.83,0l1.41-1.41a2,2,0,0,0,0-2.83l-.34-.35a7,7,0,0,0,.38-.89H56a2,2,0,0,0,2-2V43A2,2,0,0,0,56,41Zm0,4H53.91l-.16.81a4,4,0,0,1-.63,1.58l-.49.82,1.44,1.45-1.41,1.41-1.44-1.44-.67.39a6.6,6.6,0,0,1-1.8.75L48,51v2H46V51l-.75-.19a6.6,6.6,0,0,1-1.8-.75l-.66-.39-1.45,1.44-1.41-1.41,1.44-1.44-.49-.83a4,4,0,0,1-.63-1.57L40.09,45H38V43h2.09l.16-.81a3.94,3.94,0,0,1,.63-1.58l.49-.82-1.44-1.45,1.41-1.41,1.45,1.44.66-.39a6.6,6.6,0,0,1,1.8-.75L46,37V35h2v2l.75.19a6.9,6.9,0,0,1,1.8.74l.66.4,1.45-1.44,1.41,1.41-1.44,1.44.48.83a3.81,3.81,0,0,1,.64,1.57l.16.82H56Z" transform="translate(-6 -9)" fill="url(#c)"/><path d="M47,40a4,4,0,1,0,4,4A4,4,0,0,0,47,40Zm0,6a2,2,0,1,1,2-2A2,2,0,0,1,47,46Z" transform="translate(-6 -9)" fill="url(#c)"/><path d="M44,18H20.86a4,4,0,0,0-7.72,0H10v2h3.14a4,4,0,0,0,7.72,0H44ZM17,21a2,2,0,1,1,2-2A2,2,0,0,1,17,21Z" transform="translate(-6 -9)" fill="url(#b)"/><path d="M40.86,28H44V26H40.86a4,4,0,0,0-7.72,0H10v2H33.14a4,4,0,0,0,7.72,0ZM35,27a2,2,0,1,1,2,2A2,2,0,0,1,35,27Z" transform="translate(-6 -9)" fill="url(#b)"/><path d="M26,31a4,4,0,0,0-3.86,3H10v2H22.14a4,4,0,0,0,7.72,0H37V34H29.86A4,4,0,0,0,26,31Zm0,6a2,2,0,1,1,2-2A2,2,0,0,1,26,37Z" transform="translate(-6 -9)" fill="url(#g)"/></svg>
