<?xml version="1.0" encoding="utf-8"?>
<svg xmlns="http://www.w3.org/2000/svg" viewBox="0 0 50 50" fill="#ffffff"><path d="M 24.996094 2 A 1.0001 1.0001 0 0 0 24.523438 2.1210938 L 0.5234375 15.121094 A 1.0001 1.0001 0 0 0 0.47070312 16.847656 L 2 17.802734 L 2 31.1875 C 0.84257147 31.604757 0 32.706491 0 34 C 0 34.57803 0.1850925 35.011271 0.39648438 35.492188 C 0.60787623 35.973104 0.87320177 36.462865 1.1347656 36.914062 C 1.6578934 37.816459 2.1777344 38.568359 2.1777344 38.568359 L 3 39.761719 L 3.8222656 38.568359 C 3.8222656 38.568359 4.3421066 37.816459 4.8652344 36.914062 C 5.1267982 36.462865 5.3921238 35.973104 5.6035156 35.492188 C 5.8149075 35.011271 6 34.57803 6 34 C 6 32.706491 5.1574285 31.604757 4 31.1875 L 4 19.052734 L 11.251953 23.585938 C 8.7829536 27.861717 7.9619691 32.737064 8.0019531 39.265625 A 1.0001 1.0001 0 0 0 9 40.259766 C 16.927994 40.261766 22.591718 42.75564 24.128906 45.490234 A 1.0001 1.0001 0 0 0 25.873047 45.490234 C 27.410458 42.755244 33.070053 40.261717 40.998047 40.259766 A 1.0001 1.0001 0 0 0 41.998047 39.265625 C 42.037099 32.737472 41.218745 27.862001 38.75 23.585938 L 49.529297 16.847656 A 1.0001 1.0001 0 0 0 49.476562 15.121094 L 25.476562 2.1210938 A 1.0001 1.0001 0 0 0 24.996094 2 z M 25 4.1367188 L 47.015625 16.0625 L 25 29.820312 L 2.984375 16.0625 L 25 4.1367188 z M 37.056641 24.642578 C 39.158698 28.318125 39.923491 32.520479 39.966797 38.333984 C 32.924371 38.509513 27.553381 40.390203 25 43.550781 C 22.445468 40.390283 17.074111 38.509158 10.03125 38.333984 C 10.074068 32.521569 10.843085 28.319996 12.945312 24.644531 L 24.470703 31.847656 A 1.0001 1.0001 0 0 0 25.529297 31.847656 L 37.056641 24.642578 z M 3 33 C 3.5545455 33 4 33.445455 4 34 C 4 33.97197 3.935093 34.315291 3.7714844 34.6875 C 3.6078762 35.059709 3.3732018 35.498854 3.1347656 35.910156 C 3.0674809 36.026222 3.0660933 36.015482 3 36.125 C 2.9339067 36.015482 2.9325191 36.026222 2.8652344 35.910156 C 2.6267982 35.498854 2.3921238 35.059709 2.2285156 34.6875 C 2.0649075 34.315291 2 33.97197 2 34 C 2 33.445455 2.4454545 33 3 33 z" fill="#ffffff"/></svg>
