<svg xmlns="http://www.w3.org/2000/svg" width="17" height="10.93" viewBox="0 0 17 10.93"><path d="M12,8.44c-.43-.15-1.12-.2-1.43-.31S10.06,8,10,7.82a3.92,3.92,0,0,1-.11-1.06,1.77,1.77,0,0,0,.37-.53,5.66,5.66,0,0,0,.18-1h.06c.08,0,.23,0,.29-.4s.25-.65.21-1-.13-.24-.18-.24h0A2.89,2.89,0,0,0,11,2.2,2.26,2.26,0,0,0,8.5,0,2.26,2.26,0,0,0,6.05,2.2a2.89,2.89,0,0,0,.21,1.4h0c-.06,0-.15,0-.18.24s.12.54.21,1,.21.4.29.4H6.6a5.66,5.66,0,0,0,.18,1,1.77,1.77,0,0,0,.37.53A3.92,3.92,0,0,1,7,7.82a2.19,2.19,0,0,1-.65.31c-.31.11-1,.16-1.43.31a2.55,2.55,0,0,0-1.73,2.47H13.77A2.53,2.53,0,0,0,12,8.44Z" transform="translate(0 0.02)" fill="#eab320"/><path d="M4.25,8a2.61,2.61,0,0,1,.94-.2s.14-.24-.33-.32a3.43,3.43,0,0,1-.73-.26,1.77,1.77,0,0,1,0-.59,2.6,2.6,0,0,0,1.27-.35C4.78,5.35,5.1,4.32,5,3.36A1.62,1.62,0,0,0,3.19,1.8h0A1.6,1.6,0,0,0,1.42,3.36c-.12,1,.23,2.11-.38,2.88a2.42,2.42,0,0,0,1.27.31h0s0,.54,0,.63a1,1,0,0,1-.45.21,9.34,9.34,0,0,0-1,.29A1.65,1.65,0,0,0,0,9.09H3A2.8,2.8,0,0,1,4.25,8Z" transform="translate(0 0.02)" fill="#ffce1c"/><path d="M14,9.09h3a1.69,1.69,0,0,0-.85-1.42,9.34,9.34,0,0,0-1-.29.9.9,0,0,1-.45-.21c-.08-.09,0-.63,0-.63h0A2.36,2.36,0,0,0,16,6.23c-.6-.77-.26-1.91-.38-2.87A1.6,1.6,0,0,0,13.85,1.8h0A1.63,1.63,0,0,0,12,3.36c-.12,1,.19,2-.39,2.87a2.57,2.57,0,0,0,1.26.35s0,.51,0,.6a3.1,3.1,0,0,1-.72.25c-.48.09-.33.32-.33.32a2.36,2.36,0,0,1,.93.21A2.71,2.71,0,0,1,14,9.09Z" transform="translate(0 0.02)" fill="#ffce1c"/></svg>
