<svg xmlns="http://www.w3.org/2000/svg" width="43.5" height="43.5" viewBox="0 0 43.5 43.5"><path d="M22.68,0A21.75,21.75,0,1,0,44.43,21.75,21.75,21.75,0,0,0,22.68,0ZM35.87,32.12H21.05l-1.12,3.4-1.17-3.4H9.49V22.45l-7.4-.7,7.4-.53V11.38H25.42L26.54,8l1.06,3.4h8.27v9.51l7.4.59-7.4.68Z" transform="translate(-0.93)" fill="#79c5d6" class="hover-fill-dark"/><path d="M28.34,13.75l2.08,6.7,3.07.25V13.75Zm-1.87,2-4.63,14H33.49V22.38l-4.82.45Zm-14.6,6.91v7.08h6.07L15.63,23Zm0-8.92V21l5.45-.39,2.57,7.44,4.74-14.34Z" transform="translate(-0.93)" fill="#f2f2f2"/><path d="M27.6,11.38l.45,1.45.29.92h5.15v7l1.13.09,1.25.1V11.38ZM11.87,21V13.75H24.63l.31-.92.48-1.45H9.49v9.84l1.63-.12Zm6.07,8.71H11.87V22.67l-.75-.07-1.63-.15v9.67h9.27l-.67-1.94Zm15.55-7.37v7.37H21.84l-.14.43-.65,1.94H35.87v-10l-1.25.12Z" transform="translate(-0.93)" fill="#23484f" /><polygon points="34.94 20.89 33.69 20.79 32.56 20.7 29.49 20.45 27.41 13.75 27.12 12.83 26.67 11.38 25.61 7.98 24.49 11.38 24.01 12.83 23.7 13.75 18.96 28.09 16.39 20.65 10.94 21.04 10.19 21.1 8.56 21.21 1.16 21.75 8.56 22.45 10.19 22.6 10.94 22.67 14.7 23.03 17.01 29.75 17.16 30.18 17.83 32.12 19 35.52 20.12 32.12 20.77 30.18 20.91 29.75 25.54 15.76 27.74 22.83 32.56 22.38 33.69 22.28 34.94 22.16 42.34 21.48 34.94 20.89" fill="#3fa8b4"/></svg>
