<svg xmlns="http://www.w3.org/2000/svg" width="47.07" height="43.5" viewBox="0 0 47.07 43.5"><path d="M36.75,21.4l6.46-6.46h0l.1-.1A21.75,21.75,0,1,0,8.88,38.56V12h1.56V10.39H12V8.82H29.92l6.83,6.83Zm7.67-.08L36.75,29v9.34a21.7,21.7,0,0,0,7.68-16.59C44.43,21.61,44.43,21.47,44.42,21.32Z" transform="translate(-0.93)" fill="#71cea7" class="hover-fill-dark"/><path d="M33.62,24.53,35,23.11l1.71-1.71V15.65H29.92v-2H18V12.38H29.92V8.82H12V40.7a21.75,21.75,0,0,0,21.61-.15c.49-.28,1-.59,1.42-.9s1.16-.85,1.71-1.31V29L35,30.71l-1.42,1.42-2.73,2.73,0,0-.16-.16,0,.31-3.86,1h0l-.63.17-.7.19h0l.36-1.33h0l.48-1.81H18V32h8.73l.21-.78h.31l-.16-.15,0,0Zm-2.84-4.3V21.5H18V20.23ZM28.93,16.3v1.28H18V16.3Zm-12.66,17H15V32h1.28Zm0-3.92H15V28.08h1.28Zm0-3.93H15V24.16h1.28Zm0-3.93H15V20.23h1.28Zm0-3.92H15V16.3h1.28Zm0-3.93H15V12.38h1.28Zm9.67,15.71H18V28.08h8Zm-8-3.93V24.16h12.8v1.27Z" transform="translate(-0.93)" fill="#f2f2f2"/><path d="M29.92,12.38H18v1.27H29.92ZM15,13.65h1.28V12.38H15ZM28.93,16.3H18v1.28h11ZM15,17.58h1.28V16.3H15Zm3,2.65V21.5h12.8V20.23ZM15,21.5h1.28V20.23H15Zm3,3.93h12.8V24.16H18Zm-3,0h1.28V24.16H15Zm11,2.65H18v1.28h8ZM15,29.36h1.28V28.08H15Zm3,3.92h8.39L26.71,32H18Zm-3,0h1.28V32H15Z" transform="translate(-0.93)" fill="#bac0c2"/><path d="M8.88,38.56q.75.61,1.56,1.17V12H8.88Zm17-3.47h0l-.36,1.33h0l.7-.19.63-.17h0ZM47,18.74l-1-1-1.7,1.7L36.75,27,35,28.72l-4.45,4.45-.72.72.83.83.16.16,0,0,2.73-2.73L35,30.71,36.75,29l7.67-7.68,2.86-2.86ZM27.23,31.24,28,32l.07.07h0L28,32Z" transform="translate(-0.93)" fill="#435159" /><path d="M43.21,14.94,36.75,21.4,35,23.11l-1.42,1.42-6.53,6.53,0,0,.16.15L28,32l.07.07.74-.75,4.82-4.81L35,25.09l1.71-1.7,7-7,.44-.44-.79-.79Zm3.59-.33.15.14h0Z" transform="translate(-0.93)" fill="#afb8ba"/><path d="M10.44,39.73c.51.35,1,.67,1.57,1V10.4H10.44ZM29.92,8.82v6.83h6.83ZM45,16.72l-.78-.78-.44.44-7,7L35,25.09l-1.42,1.43L28.8,31.33l-.74.75,1.2,1.2.61.61.72-.72L35,28.72,36.75,27l7.56-7.56,1.7-1.7Z" transform="translate(-0.93)" fill="#79888c"/><path d="M29.87,33.89l-.61-.61-1.2-1.2L28,32l-.76-.77h-.31l-.21.78-.34,1.27-.48,1.81,1,1,3.86-1,0-.31Zm-4.34,2.53.7-.19-.7.19Zm22.31-20.5a2.22,2.22,0,0,0-.5-.77l-.39-.4-.15-.14a2.22,2.22,0,0,0-.77-.5,2.38,2.38,0,0,0-2.54.55l-.18.18-.1.1.2.21.79.79.78.78,1,1,1,1,.27-.28A2.37,2.37,0,0,0,47.84,15.92Z" transform="translate(-0.93)" fill="#ced5d8"/></svg>
