<svg xmlns="http://www.w3.org/2000/svg" width="14.9" height="17" viewBox="0 0 14.9 17"><path class="hover-fill-light" d="M9.34,14.94H7.64a1.05,1.05,0,0,1-1-1,1,1,0,0,1,1-1h1.7a1.05,1.05,0,0,1,.78.35h2.7a10.6,10.6,0,0,0,.86-4.1c0-7.88-10.32-7.89-10.32,0C3.34,12.92,5.65,17,8.5,17a4.56,4.56,0,0,0,3.59-2.42h-2A1.06,1.06,0,0,1,9.34,14.94Z" transform="translate(-1.05)" fill="#ffcd1a"></path><path class="hover-fill-dark" d="M15.85,6.38c-.13-.43-.23-.85-.38-1.26a6.34,6.34,0,0,0-.55-1.18,6.37,6.37,0,0,0-.75-1.06.2.2,0,0,0-.1-.08.65.65,0,0,0-.17-.56A7.62,7.62,0,0,0,8.49,0,7.7,7.7,0,0,0,3.06,2.24a.62.62,0,0,0-.17.56.35.35,0,0,0-.1.08A6.37,6.37,0,0,0,2,3.94a12.86,12.86,0,0,0-.56,1.18,7.27,7.27,0,0,0-.43,2.55V9.39a.36.36,0,0,0,.1.25s0,0,0,0A2.35,2.35,0,0,0,1.86,11a2.57,2.57,0,0,0,1,.6,1,1,0,0,1,0-.23v-4a1.06,1.06,0,0,1,0-.25,2.19,2.19,0,0,0-1,.6l-.09.08V7.65a7.24,7.24,0,0,1,.11-1.16,4.52,4.52,0,0,1,.31-1.12,4.67,4.67,0,0,1,.5-1.06,5.57,5.57,0,0,1,.66-.95.15.15,0,0,0,0-.08h.07a.61.61,0,0,0,.43-.17,6.45,6.45,0,0,1,9.12,0,.58.58,0,0,0,.42.17h.08s0,.06,0,.08a6.2,6.2,0,0,1,.66.95,8.61,8.61,0,0,1,.5,1.06A10,10,0,0,1,15,6.51a7.36,7.36,0,0,1,.1,1.16v.17A.24.24,0,0,0,15,7.75a2.54,2.54,0,0,0-1-.6,1.06,1.06,0,0,1,0,.25v4a.82.82,0,0,1,0,.23,1.15,1.15,0,0,0,.31-.11v1.31a2,2,0,0,1,0,.39.55.55,0,0,1-.1.23.42.42,0,0,1-.17.11,1,1,0,0,1-.27,0H9.92a.68.68,0,0,0-.6-.36H7.62a.67.67,0,0,0-.66.67.68.68,0,0,0,.68.66h1.7a.7.7,0,0,0,.6-.35h4a1.18,1.18,0,0,0,.39-.08,1.22,1.22,0,0,0,.42-.27,1.44,1.44,0,0,0,.25-.46,2.56,2.56,0,0,0,.08-.6V11.09l.06-.06a2.35,2.35,0,0,0,.67-1.35s0,0,0,0a.39.39,0,0,0,.1-.25V7.67A9.1,9.1,0,0,0,15.85,6.38Z" transform="translate(-1.05)" fill="#ebb300"></path></svg>
