<svg width="17" height="17"><path d="M17,10a4.64,4.64,0,0,0-2.17-3.78A6.16,6.16,0,0,1,15,7.51c0,3.43-2.91,6.29-6.74,6.9a7.12,7.12,0,0,0,2.69.52,7.31,7.31,0,0,0,2.55-.46,9.47,9.47,0,0,0,3,.42,7.19,7.19,0,0,1-1-1.58A4.45,4.45,0,0,0,17,10Z" transform="translate(0 -2.07)" fill="#ebb300" class="hover-fill-dark"></path><path d="M13.38,7.51c0-3-3-5.44-6.69-5.44S0,4.51,0,7.51a5,5,0,0,0,2.12,4A8.21,8.21,0,0,1,.76,13.78a8.5,8.5,0,0,0,4.38-1,7.91,7.91,0,0,0,1.55.15C10.39,12.94,13.38,10.51,13.38,7.51Z" transform="translate(0 -2.07)" fill="#FFCD1A" class="hover-fill-light"></path></svg>
