<svg width="17" height="15"><path d="M16.59,7.52,13,3.94a2.47,2.47,0,0,0-1.72-.73H2a2,2,0,0,0-2,2v6.49a2,2,0,0,0,2,2H2l0,0h9.3A2.45,2.45,0,0,0,13,13.06l3.57-3.57A1.38,1.38,0,0,0,16.59,7.52ZM9.58,8H8.25L7.92,9.06H9.15l-.09,1H7.64L7.08,12H6l.56-1.95H5.66L5.11,12h-1l.54-1.95H3.48l.09-1H4.9L5.23,8H4l.09-1H5.49L6.06,5h1L6.54,7h1L8.05,5h1L8.53,7H9.67Zm5,1.54a1.39,1.39,0,0,1-2-2,1.39,1.39,0,1,1,2,2ZM5.94,9.06h.94L7.21,8H6.27Z" transform="translate(0 -3.21)" fill="#ebb300" class="hover-fill-dark"></path></svg>
