<svg xmlns="http://www.w3.org/2000/svg" width="260" height="71.76" viewBox="0 0 260 71.76"><path fill="#4f5858" d="M113.91,47.4c-6.72,0-11.06-5.42-11.06-11.93s4.34-11.92,11.06-11.92a12.19,12.19,0,0,1,9.32,4.34l6.94-6.51a21.18,21.18,0,0,0-16.26-7.59A21.42,21.42,0,0,0,92.45,35.47a21.42,21.42,0,0,0,21.46,21.69,21.2,21.2,0,0,0,16.48-7.81l-6.72-6.94A11.69,11.69,0,0,1,113.91,47.4Zm37.72-33.61a41.42,41.42,0,0,0-16,3.69l3.47,8.67s6.29-3,12.14-3c10.62,0,10.19,7.15,10.19,7.15v2.39a27.47,27.47,0,0,0-12.79-3c-8.89,0-16,5.85-16,13.66,0,8.89,7.15,13.88,14.74,13.88,9.32,0,13.66-6.29,14.09-6.29v5.42h8.67V29.19C170.5,19.86,163.56,14,151.63,13.79Zm7.59,29.92a11.56,11.56,0,0,1-9.54,4.56c-3.25,0-7.37-.87-7.37-5.21,0-4.55,4.34-5.85,7.59-5.85a19.79,19.79,0,0,1,9.32,2.17ZM196.08,14c-8,0-13,6.29-13,6.29V15.09H174.4V71.47h10.84V51.74c1.08,1.73,4.55,5.2,10.84,5.2,10.19,0,19.08-8.89,19.08-21.47S206.27,14,196.08,14Zm-1.52,33.17a10.86,10.86,0,0,1-9.32-5.63V29a10.86,10.86,0,0,1,9.32-5.64c6.72,0,10.84,5.21,10.84,11.93C205.4,42.2,201.28,47.18,194.56,47.18ZM241,14A15.9,15.9,0,0,0,228.6,20.3V15.09h-8.67V71.47h8.67V51.74c2.6,1.73,6.07,5.2,12.36,5.2,10.19,0,19.08-8.89,19.08-21.47S251.15,14,241,14Zm-.87,33.17a10.86,10.86,0,0,1-9.32-5.63V29a10.86,10.86,0,0,1,9.32-5.64c6.72,0,10.84,5.21,10.84,11.93C250.93,42.2,246.81,47.18,240.09,47.18Z" transform="translate(-0.04 0.08)"/><path fill="#fff" d="M48.87,10.76c-5.64,0-14.75,5-23,18.43-4.55,7.37-6.5,14.74-6.5,18.86a5.6,5.6,0,0,0,.43,2.17c1.3,3.47,8.68,8.24,15,8.24,4.92,0,10.15-2.87,14.41-6.15,1.17-.89,2.26-1.81,3.25-2.71q1-.91,1.86-1.77v-.21a2.38,2.38,0,0,0-.49-1.14,1.83,1.83,0,0,0-1.46-.82c-.22,0-.22,0-.44.22-3.68,3-10.84,6.07-16,6.07-4.56,0-6.29-2.6-6.29-6.07,0-4.77,3-11.27,5.2-14.52C40.63,22.25,48,16.61,50.17,16.61a.47.47,0,0,1,.43.44,1.47,1.47,0,0,1-.08.4,11,11,0,0,1-1,2c-.08.16-.21.38-.37.65s-.54.88-.88,1.41l-.7,1.09-.71,1.12c-.46.72-.87,1.4-1.14,1.9-.07.12-.12.24-.17.34a1.2,1.2,0,0,0-.15.43c0,1.08,5.2,4.33,6.72,4.33,2,0,6.29-10.19,6.29-13C58.19,14.66,53.2,10.76,48.87,10.76Z" transform="translate(-0.04 0.08)"/><path fill="#ec677a" d="M78.57,33.09,61.66,3a5.27,5.27,0,0,0-4.56-3H22.42a4.92,4.92,0,0,0-4.34,2.6L.73,33.31a4.86,4.86,0,0,0,.44,5.63L17.86,68.65a5.27,5.27,0,0,0,4.56,3H57.1a4.92,4.92,0,0,0,4.34-2.6L78.79,38.29A5.55,5.55,0,0,0,78.57,33.09ZM52.12,30.7c-1.52,0-6.72-3.25-6.72-4.33a1.2,1.2,0,0,1,.15-.43c.05-.1.1-.22.17-.34.27-.5.68-1.18,1.14-1.9l.71-1.12.7-1.09c.34-.53.65-1,.88-1.41s.29-.49.37-.65a11,11,0,0,0,1-2,1.47,1.47,0,0,0,.08-.4.47.47,0,0,0-.43-.44c-2.17,0-9.54,5.64-15.4,14.75-2.16,3.25-5.2,9.75-5.2,14.52,0,3.47,1.73,6.07,6.29,6.07,5.2,0,12.36-3,16-6.07.22-.22.22-.22.44-.22a1.83,1.83,0,0,1,1.46.82,3,3,0,0,1,.21.33,2,2,0,0,1,.28.81v.21l-.89.87c-.31.3-.63.6-1,.9-1,.9-2.08,1.82-3.25,2.71-4.26,3.28-9.49,6.15-14.41,6.15-6.28,0-13.66-4.77-15-8.24a5.6,5.6,0,0,1-.43-2.17c0-4.12,1.95-11.49,6.5-18.86,8.24-13.45,17.35-18.43,23-18.43,4.33,0,9.32,3.9,9.54,6.94C58.41,20.51,54.07,30.7,52.12,30.7Z" transform="translate(-0.04 0.08)"/></svg>