<?xml version="1.0" encoding="utf-8"?>
<!-- Generator: Adobe Illustrator 21.0.0, SVG Export Plug-In . SVG Version: 6.00 Build 0)  -->
<svg version="1.1" id="Layer_1" xmlns="http://www.w3.org/2000/svg" xmlns:xlink="http://www.w3.org/1999/xlink" x="0px" y="0px"
	 viewBox="0 0 1366 559" style="enable-background:new 0 0 1366 559;" xml:space="preserve">
<style type="text/css">
	.st0{fill:#FFFFFF;}
</style>
<g>
	<g>
		<path class="st0" d="M64.4,459.4c-4.3-2.3-8.5-3.5-12.7-3.5c-4.8,0-9.2,1.2-13.2,3.6c-4,2.4-7.1,5.7-9.4,10
			c-2.3,4.2-3.4,9-3.4,14.2c0,5.2,1.1,9.9,3.4,14.2c2.3,4.2,5.4,7.6,9.4,10c4,2.4,8.4,3.6,13.2,3.6c3.9,0,8-1,12.3-3
			c4.3-2,8.1-4.7,11.5-8.2l14.6,15.7c-5.2,5.5-11.4,9.8-18.5,13.1c-7.2,3.2-14.2,4.9-21.3,4.9c-9.5,0-18.1-2.2-25.7-6.6
			c-7.7-4.4-13.7-10.3-18.1-17.9c-4.4-7.6-6.6-16-6.6-25.4c0-9.3,2.2-17.7,6.7-25.2s10.6-13.4,18.4-17.6c7.8-4.3,16.5-6.4,26.2-6.4
			c7.1,0,14.1,1.5,21.1,4.4c6.9,3,12.8,7,17.6,12.1l-14.5,17.5C72.4,464.8,68.7,461.7,64.4,459.4z"/>
		<path class="st0" d="M170.1,532l-6.6-17h-41.4l-6.7,17H89.7l41.2-95.9h25.7l40.2,95.9H170.1z M129.7,495.9h26.5l-13.1-34.2
			L129.7,495.9z"/>
		<path class="st0" d="M276,445c6.7,5.9,10.1,14.2,10.1,24.8c0,11.3-3.4,20.1-10.1,26.3c-6.7,6.2-16.2,9.4-28.4,9.4h-17.1V532h-25
			v-95.9h42.1C259.8,436.2,269.2,439.1,276,445z M258.1,481.7c2.8-2.6,4.2-6.2,4.2-11.1c0-4.6-1.4-8.2-4.2-10.7
			c-2.8-2.5-6.7-3.8-11.8-3.8h-15.9v29.4h15.9C251.4,485.5,255.4,484.3,258.1,481.7z"/>
		<path class="st0" d="M369,445c6.7,5.9,10.1,14.2,10.1,24.8c0,11.3-3.4,20.1-10.1,26.3c-6.7,6.2-16.2,9.4-28.4,9.4h-17.1V532h-25
			v-95.9h42.1C352.8,436.2,362.2,439.1,369,445z M351.1,481.7c2.8-2.6,4.2-6.2,4.2-11.1c0-4.6-1.4-8.2-4.2-10.7
			c-2.8-2.5-6.7-3.8-11.8-3.8h-15.9v29.4h15.9C344.4,485.5,348.4,484.3,351.1,481.7z"/>
		<path class="st0" d="M497.3,532l-10.1-23.2h-50.5l-10,23.2h-13.8l42.5-95.7h13.7l42.4,95.7H497.3z M441.9,496.9h40.2l-20.2-46.5
			L441.9,496.9z"/>
		<path class="st0" d="M584.5,459.7v65c0,6.9-1.5,13-4.6,18.2c-3.1,5.2-7.4,9.2-12.9,12c-5.6,2.8-12,4.2-19.4,4.2
			c-10.7,0-20.6-3.4-29.8-10.1l5.6-9.3c3.6,2.9,7.2,5.1,11.1,6.5c3.8,1.4,8,2.1,12.6,2.1c7.5,0,13.4-2.1,17.9-6.3
			c4.5-4.2,6.7-9.8,6.7-16.8v-10.1c-2.6,4.4-6,7.8-10.4,10.2c-4.4,2.4-9.4,3.6-15,3.6c-6.5,0-12.2-1.5-17.2-4.4
			c-5-3-8.8-7.1-11.6-12.4c-2.7-5.3-4.1-11.4-4.1-18.2c0-6.7,1.4-12.7,4.1-17.9s6.6-9.3,11.6-12.2c5-2.9,10.7-4.4,17.2-4.4
			c5.7,0,10.8,1.2,15.1,3.6c4.3,2.4,7.8,5.7,10.3,10.1v-13.3H584.5z M560.6,515.4c3.5-2.1,6.2-5,8.1-8.7c2-3.7,2.9-7.9,2.9-12.5
			c0-4.7-1-9-2.9-12.7c-2-3.7-4.7-6.6-8.1-8.7c-3.5-2.1-7.4-3.1-11.9-3.1c-4.5,0-8.5,1-12,3.1c-3.5,2.1-6.3,5-8.3,8.7
			c-2,3.7-3,7.9-3,12.7c0.1,7.1,2.3,12.9,6.6,17.5c4.3,4.6,9.8,6.8,16.7,6.8C553.2,518.5,557.1,517.5,560.6,515.4z"/>
		<path class="st0" d="M619.7,433.2c1.5,1.6,2.3,3.5,2.3,5.9c0,2.4-0.8,4.3-2.3,5.9c-1.5,1.6-3.4,2.3-5.7,2.3
			c-2.3,0-4.2-0.8-5.7-2.3c-1.5-1.5-2.3-3.5-2.3-5.9c0-2.4,0.8-4.3,2.3-5.9c1.5-1.5,3.4-2.3,5.7-2.3
			C616.4,430.8,618.2,431.6,619.7,433.2z M607.8,459.7h12.7V532h-12.7V459.7z"/>
		<path class="st0" d="M645.9,430.6h12.7V532h-12.7V430.6z"/>
		<path class="st0" d="M738.7,469.2c5.7,6.6,8.6,15.8,8.6,27.6c0,1.8,0,3.2-0.1,4.1H690c1,6.5,3.7,11.6,8.1,15.5
			c4.4,3.8,9.9,5.7,16.3,5.7c4.3,0,8.3-0.8,12-2.3c3.7-1.5,6.9-3.7,9.6-6.6l7,7.2c-3.6,3.8-7.8,6.8-12.9,8.9
			c-5,2.1-10.6,3.1-16.7,3.1c-7.1,0-13.4-1.5-18.9-4.6c-5.5-3.1-9.8-7.4-12.9-12.9c-3.1-5.6-4.6-11.9-4.6-19
			c0-7.1,1.5-13.4,4.6-18.9c3.1-5.5,7.3-9.8,12.8-13c5.5-3.1,11.7-4.7,18.7-4.7C724.4,459.3,732.9,462.6,738.7,469.2z M735.8,491
			c-0.4-6.6-2.6-11.7-6.6-15.5c-4-3.8-9.3-5.7-15.9-5.7c-6.4,0-11.7,1.9-15.9,5.7c-4.2,3.8-6.8,9-7.6,15.5H735.8z"/>
		<path class="st0" d="M801.7,436.3h13.1v83.8h41.9V532h-55V436.3z"/>
		<path class="st0" d="M926.6,469.2c5.7,6.6,8.6,15.8,8.6,27.6c0,1.8,0,3.2-0.1,4.1h-57.2c1,6.5,3.7,11.6,8.1,15.5
			c4.4,3.8,9.9,5.7,16.3,5.7c4.3,0,8.3-0.8,12-2.3c3.7-1.5,6.9-3.7,9.6-6.6l7,7.2c-3.6,3.8-7.8,6.8-12.9,8.9
			c-5,2.1-10.6,3.1-16.7,3.1c-7.1,0-13.4-1.5-18.9-4.6c-5.5-3.1-9.8-7.4-12.9-12.9c-3.1-5.6-4.6-11.9-4.6-19
			c0-7.1,1.5-13.4,4.6-18.9c3.1-5.5,7.3-9.8,12.8-13c5.5-3.1,11.7-4.7,18.7-4.7C912.3,459.3,920.8,462.6,926.6,469.2z M923.7,491
			c-0.4-6.6-2.6-11.7-6.6-15.5c-4-3.8-9.3-5.7-15.9-5.7c-6.4,0-11.7,1.9-15.9,5.7c-4.2,3.8-6.8,9-7.6,15.5H923.7z"/>
		<path class="st0" d="M996.7,532v-10.1c-5.4,7.1-13.8,10.7-25.3,10.7c-5,0-9.4-1-13.2-2.9c-3.8-1.9-6.7-4.6-8.8-7.9
			c-2.1-3.4-3.1-7.2-3.1-11.3c0-6.5,2.4-11.6,7.2-15.4c4.8-3.8,11.5-5.7,20-5.8h23v-3.4c0-5.1-1.6-9-4.7-11.8
			c-3.1-2.8-7.7-4.2-13.7-4.2c-7.3,0-14.7,2.6-22.3,7.8l-5.3-8.8c5.2-3.4,10-5.8,14.4-7.3c4.4-1.5,9.7-2.3,15.8-2.3
			c9,0,16,2.2,20.9,6.6c4.9,4.4,7.4,10.6,7.5,18.5l0.1,47.6H996.7z M989.1,517.8c4.1-2.9,6.6-6.7,7.5-11.4v-7.2h-21.2
			c-5.7,0-10,0.9-12.8,2.6c-2.8,1.7-4.2,4.5-4.2,8.2c0,3.7,1.4,6.7,4.2,8.9s6.6,3.3,11.4,3.3C980,522.1,985,520.6,989.1,517.8z"/>
		<path class="st0" d="M1054.9,463.5c4.4-2.7,9.6-4.1,15.6-4.2v12.3c-7.4-0.3-13.4,1.6-17.9,5.7c-4.6,4.1-7.2,9.6-7.8,16.5V532H1032
			v-72.3h12.7v15.6C1047.1,470.1,1050.5,466.1,1054.9,463.5z"/>
		<path class="st0" d="M1144.4,466.7c4.8,5,7.3,11.8,7.3,20.6V532H1139v-41.3c0-6.1-1.7-10.9-5.1-14.3c-3.4-3.4-8.1-5.1-14.2-5.1
			c-6.5,0.1-11.7,2.2-15.8,6.2c-4.1,4.1-6.4,9.3-6.9,15.8V532h-12.7v-72.3h12.7V475c4.8-10.3,14-15.5,27.5-15.7
			C1133,459.3,1139.6,461.8,1144.4,466.7z"/>
		<path class="st0" d="M1186.4,433.2c1.5,1.6,2.3,3.5,2.3,5.9c0,2.4-0.8,4.3-2.3,5.9c-1.5,1.6-3.4,2.3-5.7,2.3
			c-2.3,0-4.2-0.8-5.7-2.3c-1.5-1.5-2.3-3.5-2.3-5.9c0-2.4,0.8-4.3,2.3-5.9c1.5-1.5,3.4-2.3,5.7-2.3
			C1183,430.8,1184.9,431.6,1186.4,433.2z M1174.4,459.7h12.7V532h-12.7V459.7z"/>
		<path class="st0" d="M1272,466.7c4.8,5,7.3,11.8,7.3,20.6V532h-12.7v-41.3c0-6.1-1.7-10.9-5.1-14.3c-3.4-3.4-8.1-5.1-14.2-5.1
			c-6.5,0.1-11.7,2.2-15.8,6.2c-4.1,4.1-6.4,9.3-6.9,15.8V532h-12.7v-72.3h12.7V475c4.8-10.3,14-15.5,27.5-15.7
			C1260.6,459.3,1267.2,461.8,1272,466.7z"/>
		<path class="st0" d="M1366,459.7v65c0,6.9-1.5,13-4.6,18.2c-3.1,5.2-7.4,9.2-12.9,12c-5.6,2.8-12,4.2-19.4,4.2
			c-10.7,0-20.6-3.4-29.8-10.1l5.6-9.3c3.6,2.9,7.2,5.1,11.1,6.5c3.8,1.4,8,2.1,12.6,2.1c7.5,0,13.5-2.1,17.9-6.3
			c4.5-4.2,6.7-9.8,6.7-16.8v-10.1c-2.6,4.4-6,7.8-10.4,10.2c-4.4,2.4-9.4,3.6-15,3.6c-6.5,0-12.2-1.5-17.2-4.4
			c-5-3-8.8-7.1-11.6-12.4c-2.7-5.3-4.1-11.4-4.1-18.2c0-6.7,1.4-12.7,4.1-17.9c2.7-5.2,6.6-9.3,11.6-12.2c5-2.9,10.7-4.4,17.2-4.4
			c5.7,0,10.8,1.2,15.1,3.6c4.3,2.4,7.8,5.7,10.3,10.1v-13.3H1366z M1342.1,515.4c3.5-2.1,6.2-5,8.1-8.7c2-3.7,2.9-7.9,2.9-12.5
			c0-4.7-1-9-2.9-12.7c-2-3.7-4.7-6.6-8.1-8.7c-3.5-2.1-7.4-3.1-11.9-3.1c-4.5,0-8.5,1-12,3.1c-3.5,2.1-6.3,5-8.3,8.7
			c-2,3.7-3,7.9-3,12.7c0.1,7.1,2.3,12.9,6.6,17.5c4.3,4.6,9.8,6.8,16.7,6.8C1334.6,518.5,1338.6,517.5,1342.1,515.4z"/>
	</g>
	<g>
		<polygon class="st0" points="570.2,307.3 570.2,234.4 507,197.9 507.1,270.8 		"/>
		<path class="st0" d="M672.2,283.1V356l66.8-38.6c0-0.2,0-0.4,0-0.6l0-72.3L672.2,283.1z"/>
		<polygon class="st0" points="570.2,136.9 507,100.5 507,177.6 570.2,214 		"/>
		<polygon class="st0" points="654.6,356 654.6,283.1 587.8,244.6 587.8,317.5 		"/>
		<polygon class="st0" points="756.7,307.3 819.8,270.8 819.8,197.2 756.6,233.7 		"/>
		<polygon class="st0" points="819.8,100.5 756.6,136.9 756.7,213.3 819.8,176.9 		"/>
		<polygon class="st0" points="663.4,0 600.3,36.5 663.4,72.9 726.5,36.4 		"/>
		<polygon class="st0" points="811,85.2 744.2,46.6 681,83.1 747.8,121.7 		"/>
		<polygon class="st0" points="515.9,85.2 579,121.6 645.8,83.1 582.7,46.6 		"/>
		<polygon class="st0" points="730.2,229.3 663.4,190.7 596.6,229.3 663.4,267.9 		"/>
		<polygon class="st0" points="587.8,136.9 587.8,214 654.6,175.5 654.6,98.3 		"/>
		<polygon class="st0" points="672.2,98.3 672.2,175.5 739,214 739,136.9 		"/>
	</g>
</g>
</svg>
