<?xml version="1.0" encoding="utf-8"?>
<!-- Generator: Adobe Illustrator 21.0.0, SVG Export Plug-In . SVG Version: 6.00 Build 0)  -->
<svg version="1.1" id="Layer_1" xmlns="http://www.w3.org/2000/svg" xmlns:xlink="http://www.w3.org/1999/xlink" x="0px" y="0px"
	 viewBox="0 0 120 33" style="enable-background:new 0 0 120 33;" xml:space="preserve">
<style type="text/css">
	.st0{fill:#4F5858;}
	.st1{fill:#EC677A;}
	.st2{fill:#FFFFFF;}
</style>
<g>
	<path class="st0" d="M57.1,19.6l3.1,3.2c0,0-2.6,3.6-7.6,3.6c-5.5,0-9.9-4.4-9.9-10s4.4-10,9.9-10c4.9,0,7.5,3.5,7.5,3.5l-3.2,3
		c0,0-1.5-2-4.3-2c-3.1,0-5.1,2.5-5.1,5.5s2,5.5,5.1,5.5C55.7,21.9,57.1,19.6,57.1,19.6z"/>
	<path class="st0" d="M78.5,13.5V26h-4v-2.5c-0.2,0-2.2,2.9-6.5,2.9c-3.5,0-6.8-2.3-6.8-6.4c0-3.6,3.3-6.3,7.4-6.3
		c3.5,0,5.9,1.4,5.9,1.4V14c0,0,0.2-3.3-4.7-3.3c-2.7,0-5.6,1.4-5.6,1.4l-1.6-4c0,0,3.5-1.7,7.4-1.7C75.5,6.5,78.7,9.2,78.5,13.5z
		 M73.5,20.2v-2c0,0-1.7-1-4.3-1c-1.5,0-3.5,0.6-3.5,2.7c0,2,1.9,2.4,3.4,2.4C72,22.4,73.5,20.2,73.5,20.2z"/>
	<path class="st0" d="M84.5,7v2.4c0,0,2.3-2.9,6-2.9c4.7,0,8.8,4.1,8.8,9.9s-4.1,9.9-8.8,9.9c-2.9,0-4.5-1.6-5-2.4V33h-5V7H84.5z
		 M85.5,19.2c0,0,1.3,2.6,4.3,2.6c3.1,0,5-2.3,5-5.5c0-3.1-1.9-5.5-5-5.5c-3,0-4.3,2.6-4.3,2.6V19.2z"/>
	<path class="st0" d="M105.5,7v2.4c0,0,2-2.9,5.7-2.9c4.7,0,8.8,4.1,8.8,9.9s-4.1,9.9-8.8,9.9c-2.9,0-4.5-1.6-5.7-2.4V33h-4V7H105.5
		z M106.5,19.2c0,0,1.3,2.6,4.3,2.6c3.1,0,5-2.3,5-5.5c0-3.1-1.9-5.5-5-5.5c-3,0-4.3,2.6-4.3,2.6V19.2z"/>
</g>
<g>
	<path class="st1" d="M-27.6,4.9c-2.6,0-6.8,2.3-10.6,8.5c-2.1,3.4-3,6.8-3,8.7c0,0.4,0.1,0.8,0.2,1c0.6,1.6,4,3.8,6.9,3.8
		c3.3,0,6.9-2.8,9-4.9c0,0,0,0,0-0.1c0-0.2-0.3-0.9-0.9-0.9c-0.1,0-0.1,0-0.2,0.1c-1.7,1.4-5,2.8-7.4,2.8c-2.1,0-2.9-1.2-2.9-2.8
		c0-2.2,1.4-5.2,2.4-6.7c2.7-4.2,6.1-6.8,7.1-6.8c0.1,0,0.2,0.1,0.2,0.2c0,0.2-0.2,0.6-0.5,1.1c-0.3,0.6-1.9,2.9-1.9,3.2
		c0,0.5,2.4,2,3.1,2c0.9,0,2.9-4.7,2.9-6C-23.3,6.7-25.6,4.9-27.6,4.9z"/>
</g>
<g>
	<path class="st2" d="M22.6,5C20,5,15.8,7.3,12,13.5c-2.1,3.4-3,6.8-3,8.7c0,0.4,0.1,0.8,0.2,1c0.6,1.6,4,3.8,6.9,3.8
		c3.3,0,6.9-2.8,9-4.9c0,0,0,0,0-0.1c0-0.2-0.3-0.9-0.9-0.9c-0.1,0-0.1,0-0.2,0.1c-1.7,1.4-5,2.8-7.4,2.8c-2.1,0-2.9-1.2-2.9-2.8
		c0-2.2,1.4-5.2,2.4-6.7c2.7-4.2,6.1-6.8,7.1-6.8c0.1,0,0.2,0.1,0.2,0.2c0,0.2-0.2,0.6-0.5,1.1c-0.3,0.6-1.9,2.9-1.9,3.2
		c0,0.5,2.4,2,3.1,2c0.9,0,2.9-4.7,2.9-6C26.9,6.8,24.6,5,22.6,5z"/>
	<path class="st1" d="M28.5,1.4C28.1,0.6,27.3,0,26.4,0h-16c-0.9,0-1.6,0.5-2,1.2l-8,14.2C-0.1,16.3,0,17.3,0.6,18l7.7,13.7
		c0.4,0.8,1.2,1.4,2.1,1.4h16c0.9,0,1.6-0.5,2-1.2l8-14.2c0.3-0.8,0.4-1.6-0.1-2.4L28.5,1.4z M24.1,14.2c-0.7,0-3.1-1.5-3.1-2
		c0-0.3,1.6-2.6,1.9-3.2c0.3-0.5,0.5-0.9,0.5-1.1c0-0.1-0.1-0.2-0.2-0.2c-1,0-4.4,2.6-7.1,6.8c-1,1.5-2.4,4.5-2.4,6.7
		c0,1.6,0.8,2.8,2.9,2.8c2.4,0,5.7-1.4,7.4-2.8c0.1-0.1,0.1-0.1,0.2-0.1c0.6,0,0.9,0.7,0.9,0.9c0,0.1,0,0.1,0,0.1
		c-2.1,2.1-5.7,4.9-9,4.9c-2.9,0-6.3-2.2-6.9-3.8C9.1,23,9,22.6,9,22.2c0-1.9,0.9-5.3,3-8.7C15.8,7.3,20,5,22.6,5
		c2,0,4.3,1.8,4.4,3.2C27,9.5,25,14.2,24.1,14.2z"/>
</g>
</svg>
