<?xml version="1.0" encoding="utf-8"?>
<!-- Generator: Adobe Illustrator 21.0.0, SVG Export Plug-In . SVG Version: 6.00 Build 0)  -->
<svg version="1.1" id="Layer_1" xmlns="http://www.w3.org/2000/svg" xmlns:xlink="http://www.w3.org/1999/xlink" x="0px" y="0px"
	 viewBox="0 0 300 46.3" style="enable-background:new 0 0 300 46.3;" xml:space="preserve">
<style type="text/css">
	.st0{fill:#FFFFFF;}
</style>
<g>
	<g>
		<g>
			<polygon class="st0" points="8.2,40 8.2,30.5 0,25.8 0,35.3 			"/>
			<path class="st0" d="M21.5,36.9v9.5l8.7-5c0,0,0,0,0-0.1l0-9.4L21.5,36.9z"/>
			<polygon class="st0" points="8.2,17.8 0,13.1 0,23.1 8.2,27.9 			"/>
			<polygon class="st0" points="19.2,46.3 19.2,36.9 10.5,31.8 10.5,41.3 			"/>
			<polygon class="st0" points="32.5,40 40.7,35.3 40.7,25.7 32.5,30.4 			"/>
			<polygon class="st0" points="40.7,13.1 32.5,17.8 32.5,27.8 40.7,23 			"/>
			<polygon class="st0" points="20.4,0 12.1,4.7 20.4,9.5 28.6,4.7 			"/>
			<polygon class="st0" points="39.6,11.1 30.9,6.1 22.6,10.8 31.3,15.8 			"/>
			<polygon class="st0" points="1.1,11.1 9.4,15.8 18.1,10.8 9.8,6.1 			"/>
			<polygon class="st0" points="29,29.8 20.4,24.8 11.7,29.8 20.4,34.9 			"/>
			<polygon class="st0" points="10.5,17.8 10.5,27.9 19.2,22.8 19.2,12.8 			"/>
			<polygon class="st0" points="21.5,12.8 21.5,22.8 30.2,27.9 30.2,17.8 			"/>
		</g>
	</g>
	<g>
		<path class="st0" d="M64.9,29.1c1.8,0,3.3-0.7,4.5-2.2l2.4,2.5c-1.9,2.1-4.1,3.2-6.7,3.2c-2.6,0-4.7-0.8-6.4-2.4
			c-1.7-1.6-2.5-3.7-2.5-6.2c0-2.5,0.8-4.6,2.5-6.2c1.7-1.7,3.8-2.5,6.2-2.5c2.7,0,5,1,6.9,3.1l-2.3,2.6c-1.2-1.5-2.6-2.2-4.4-2.2
			c-1.4,0-2.6,0.5-3.6,1.4c-1,0.9-1.5,2.2-1.5,3.7s0.5,2.8,1.4,3.7C62.4,28.6,63.5,29.1,64.9,29.1z"/>
		<path class="st0" d="M86.5,32.4l-1.6-3.6h-7l-1.6,3.6h-4l7.2-16.7h3.6l7.2,16.7H86.5z M81.5,20.7l-2.1,4.9h4.2L81.5,20.7z"/>
		<path class="st0" d="M103.9,17.2c1.2,1,1.8,2.5,1.8,4.6c0,2.1-0.6,3.6-1.8,4.5c-1.2,1-3,1.4-5.5,1.4h-2.2v4.7h-3.7V15.7h5.9
			C100.9,15.7,102.8,16.2,103.9,17.2z M101.2,23.8c0.4-0.5,0.7-1.2,0.7-2.2c0-1-0.3-1.7-0.9-2.1c-0.6-0.4-1.5-0.6-2.7-0.6h-2.1v5.6
			h2.5C99.9,24.5,100.7,24.3,101.2,23.8z"/>
		<path class="st0" d="M120.1,17.2c1.2,1,1.8,2.5,1.8,4.6c0,2.1-0.6,3.6-1.8,4.5c-1.2,1-3,1.4-5.5,1.4h-2.2v4.7h-3.7V15.7h5.9
			C117.1,15.7,119,16.2,120.1,17.2z M117.4,23.8c0.4-0.5,0.7-1.2,0.7-2.2c0-1-0.3-1.7-0.9-2.1c-0.6-0.4-1.5-0.6-2.7-0.6h-2.1v5.6
			h2.5C116.1,24.5,116.9,24.3,117.4,23.8z"/>
		<path class="st0" d="M133.8,28.6l-1.7,3.8h-3l7.4-16.7h3l7.4,16.7h-3l-1.7-3.8H133.8z M141,26l-3-6.9l-3,6.9H141z"/>
		<path class="st0" d="M160.5,19.7v11.1c0,2.2-0.6,3.9-1.8,5.1c-1.2,1.1-2.8,1.7-4.7,1.7c-1.9,0-3.6-0.6-5.2-1.8l1.3-2
			c1.2,0.9,2.5,1.4,3.8,1.4c1.3,0,2.3-0.3,3-1c0.7-0.7,1.1-1.7,1.1-3.1v-1.6c-0.4,0.8-1,1.3-1.7,1.8c-0.7,0.4-1.6,0.7-2.5,0.7
			c-1.7,0-3.1-0.6-4.2-1.8c-1.1-1.2-1.6-2.6-1.6-4.4c0-1.8,0.5-3.2,1.6-4.4c1.1-1.2,2.5-1.8,4.2-1.8c1.7,0,3.1,0.7,4.1,2.1v-1.9
			H160.5z M150.6,25.6c0,1,0.3,1.9,1,2.7c0.6,0.8,1.5,1.1,2.6,1.1c1.1,0,2-0.4,2.7-1.1c0.7-0.7,1-1.6,1-2.7c0-1.1-0.3-2-1-2.8
			c-0.7-0.8-1.6-1.1-2.7-1.1c-1.1,0-2,0.4-2.6,1.2C150.9,23.6,150.6,24.5,150.6,25.6z"/>
		<path class="st0" d="M164.6,17.1c-0.3-0.3-0.5-0.7-0.5-1.2c0-0.5,0.2-0.9,0.5-1.2c0.3-0.3,0.7-0.5,1.2-0.5c0.5,0,0.9,0.2,1.2,0.5
			c0.3,0.3,0.5,0.7,0.5,1.2c0,0.5-0.2,0.9-0.5,1.2c-0.3,0.3-0.7,0.5-1.2,0.5C165.3,17.7,164.9,17.5,164.6,17.1z M167.1,32.4h-2.7
			V19.7h2.7V32.4z"/>
		<path class="st0" d="M173.7,32.4H171V14.7h2.7V32.4z"/>
		<path class="st0" d="M189.4,27.2h-10c0.1,0.9,0.5,1.7,1.3,2.2c0.8,0.6,1.7,0.8,2.7,0.8c1.6,0,2.8-0.5,3.6-1.5l1.5,1.7
			c-1.4,1.4-3.2,2.1-5.4,2.1c-1.8,0-3.3-0.6-4.6-1.8c-1.3-1.2-1.9-2.8-1.9-4.8c0-2,0.6-3.6,1.9-4.8c1.3-1.2,2.8-1.8,4.5-1.8
			c1.7,0,3.2,0.5,4.4,1.6c1.2,1,1.8,2.5,1.8,4.3V27.2z M179.4,25.1h7.3c0-1.1-0.3-1.9-1-2.5c-0.7-0.6-1.5-0.9-2.5-0.9
			c-1,0-1.9,0.3-2.6,0.9C179.8,23.3,179.4,24.1,179.4,25.1z"/>
		<path class="st0" d="M199.3,32.4V15.7h2.8v14h7.6v2.7H199.3z"/>
		<path class="st0" d="M224.3,27.2h-10c0.1,0.9,0.5,1.7,1.3,2.2c0.8,0.6,1.7,0.8,2.7,0.8c1.6,0,2.8-0.5,3.6-1.5l1.5,1.7
			c-1.4,1.4-3.2,2.1-5.4,2.1c-1.8,0-3.3-0.6-4.6-1.8c-1.3-1.2-1.9-2.8-1.9-4.8c0-2,0.6-3.6,1.9-4.8c1.3-1.2,2.8-1.8,4.5-1.8
			c1.7,0,3.2,0.5,4.4,1.6c1.2,1,1.8,2.5,1.8,4.3V27.2z M214.3,25.1h7.3c0-1.1-0.3-1.9-1-2.5c-0.7-0.6-1.5-0.9-2.5-0.9
			c-1,0-1.9,0.3-2.6,0.9C214.7,23.3,214.3,24.1,214.3,25.1z"/>
		<path class="st0" d="M237.5,32.4h-2.4v-1.7c-1.1,1.3-2.5,1.9-4.2,1.9c-1.3,0-2.4-0.4-3.3-1.1c-0.9-0.7-1.3-1.8-1.3-3
			c0-1.3,0.5-2.2,1.4-2.8c0.9-0.6,2.2-0.9,3.8-0.9h3.5v-0.5c0-1.7-0.9-2.5-2.8-2.5c-1.2,0-2.4,0.4-3.7,1.3l-1.2-1.7
			c1.5-1.2,3.3-1.8,5.3-1.8c1.5,0,2.7,0.4,3.7,1.1c0.9,0.8,1.4,2,1.4,3.6V32.4z M234.8,27.7v-1.1h-3c-1.9,0-2.9,0.6-2.9,1.8
			c0,0.6,0.2,1.1,0.7,1.4c0.5,0.3,1.1,0.5,2,0.5c0.9,0,1.6-0.2,2.2-0.7C234.5,29.1,234.8,28.5,234.8,27.7z"/>
		<path class="st0" d="M247.9,22.2c-1.3,0-2.3,0.4-3,1.3c-0.7,0.9-1,2-1,3.5v5.5h-2.7V19.7h2.7v2.6c0.4-0.8,1-1.5,1.8-2
			c0.7-0.5,1.5-0.8,2.4-0.8l0,2.7C248,22.2,248,22.2,247.9,22.2z"/>
		<path class="st0" d="M253.4,25.5v6.9h-2.7V19.7h2.7V22c0.4-0.8,1-1.4,1.8-1.8c0.8-0.4,1.6-0.7,2.5-0.7c1.4,0,2.6,0.4,3.5,1.3
			c0.9,0.9,1.3,2.1,1.3,3.8v7.8h-2.7v-7c0-2.3-1-3.5-2.9-3.5c-0.9,0-1.7,0.3-2.4,0.9C253.8,23.4,253.4,24.3,253.4,25.5z"/>
		<path class="st0" d="M266.4,17.1c-0.3-0.3-0.5-0.7-0.5-1.2c0-0.5,0.2-0.9,0.5-1.2c0.3-0.3,0.7-0.5,1.2-0.5c0.5,0,0.9,0.2,1.2,0.5
			c0.3,0.3,0.5,0.7,0.5,1.2c0,0.5-0.2,0.9-0.5,1.2c-0.3,0.3-0.7,0.5-1.2,0.5C267.1,17.7,266.7,17.5,266.4,17.1z M268.9,32.4h-2.7
			V19.7h2.7V32.4z"/>
		<path class="st0" d="M275.4,25.5v6.9h-2.7V19.7h2.7V22c0.4-0.8,1-1.4,1.8-1.8c0.8-0.4,1.6-0.7,2.5-0.7c1.4,0,2.6,0.4,3.5,1.3
			c0.9,0.9,1.3,2.1,1.3,3.8v7.8h-2.7v-7c0-2.3-1-3.5-2.9-3.5c-0.9,0-1.7,0.3-2.4,0.9C275.8,23.4,275.4,24.3,275.4,25.5z"/>
		<path class="st0" d="M300,19.7v11.1c0,2.2-0.6,3.9-1.8,5.1c-1.2,1.1-2.8,1.7-4.7,1.7c-1.9,0-3.6-0.6-5.2-1.8l1.3-2
			c1.2,0.9,2.5,1.4,3.8,1.4s2.3-0.3,3-1c0.7-0.7,1.1-1.7,1.1-3.1v-1.6c-0.4,0.8-1,1.3-1.7,1.8c-0.7,0.4-1.6,0.7-2.5,0.7
			c-1.7,0-3.1-0.6-4.2-1.8c-1.1-1.2-1.6-2.6-1.6-4.4c0-1.8,0.5-3.2,1.6-4.4c1.1-1.2,2.5-1.8,4.2-1.8c1.7,0,3.1,0.7,4.1,2.1v-1.9H300
			z M290.1,25.6c0,1,0.3,1.9,1,2.7c0.6,0.8,1.5,1.1,2.6,1.1c1.1,0,2-0.4,2.7-1.1c0.7-0.7,1-1.6,1-2.7c0-1.1-0.3-2-1-2.8
			c-0.7-0.8-1.6-1.1-2.7-1.1c-1.1,0-2,0.4-2.6,1.2C290.4,23.6,290.1,24.5,290.1,25.6z"/>
	</g>
</g>
</svg>
