<svg xmlns="http://www.w3.org/2000/svg" width="280" height="77.28" viewBox="0 0 280 77.28"><path fill="#fff" d="M122.67,51c-7.24,0-11.91-5.84-11.91-12.84s4.67-12.84,11.91-12.84a13.13,13.13,0,0,1,10,4.67l7.47-7a22.8,22.8,0,0,0-17.51-8.17A23.07,23.07,0,0,0,99.55,38.2a23.07,23.07,0,0,0,23.12,23.35,22.81,22.81,0,0,0,17.74-8.41l-7.23-7.47A12.58,12.58,0,0,1,122.67,51ZM163.3,14.85a44.63,44.63,0,0,0-17.28,4l3.73,9.34s6.77-3.27,13.08-3.27c11.44,0,11,7.71,11,7.71v2.56A29.67,29.67,0,0,0,160,31.9c-9.58,0-17.28,6.3-17.28,14.71,0,9.57,7.7,14.94,15.88,14.94,10,0,14.71-6.77,15.17-6.77v5.83h9.34V31.43C183.61,21.39,176.14,15.08,163.3,14.85Zm8.17,32.22A12.45,12.45,0,0,1,161.19,52c-3.5,0-7.93-.94-7.93-5.61,0-4.9,4.67-6.3,8.17-6.3a21.4,21.4,0,0,1,10,2.33Zm39.69-32c-8.64,0-14,6.78-14,6.78V16.25h-9.34V77h11.68V55.71c1.16,1.87,4.9,5.61,11.67,5.61,11,0,20.55-9.58,20.55-23.12S222.13,15.08,211.16,15.08Zm-1.63,35.73c-7,0-10-6.07-10-6.07V31.2s3-6.08,10-6.08c7.23,0,11.67,5.61,11.67,12.85C221.2,45.44,216.76,50.81,209.53,50.81Zm50-35.73a17.11,17.11,0,0,0-13.31,6.78V16.25h-9.34V77h9.34V55.71c2.81,1.87,6.54,5.61,13.31,5.61,11,0,20.55-9.58,20.55-23.12S270.47,15.08,259.49,15.08Zm-.93,35.73c-7,0-10-6.07-10-6.07V31.2s3-6.08,10-6.08c7.24,0,11.67,5.61,11.67,12.85C270.23,45.44,265.8,50.81,258.56,50.81ZM53.8,20.09c-.14.26-.3.54-.48.83s-.54.95-1,1.66c-.33.54-.72,1.13-1.1,1.74-.26.4-.52.8-.77,1.2a13.44,13.44,0,0,0-1.57,2.87c0,1.17,5.6,4.67,7.23,4.67,2.11,0,6.78-11,6.78-14-.24-3.27-5.61-7.47-10.28-7.47-6.07,0-15.88,5.37-24.75,19.85-4.9,7.94-7,15.88-7,20.31a6,6,0,0,0,.46,2.34C22.74,57.81,30.67,63,37.45,63c7.7,0,16.11-6.54,21-11.44v-.23c0-.47-.7-2.11-2.1-2.11-.24,0-.24,0-.47.24-4,3.27-11.67,6.53-17.28,6.53-4.9,0-6.77-2.8-6.77-6.53,0-5.14,3.27-12.14,5.61-15.65.39-.61.79-1.21,1.19-1.79.81-1.17,1.64-2.27,2.48-3.31.41-.52.83-1,1.25-1.51.83-1,1.66-1.89,2.48-2.72,4.07-4.17,7.71-6.54,9.17-6.54a.5.5,0,0,1,.47.46,1.65,1.65,0,0,1-.08.44A8.31,8.31,0,0,1,53.8,20.09Z" transform="translate(-0.04 0.09)"/><path fill="#ec677a" d="M84.61,35.63,66.4,3.18A5.67,5.67,0,0,0,61.49-.09H24.14a5.3,5.3,0,0,0-4.67,2.8L.79,35.86a5.25,5.25,0,0,0,.46,6.08l18,32a5.67,5.67,0,0,0,4.91,3.27H61.49a5.3,5.3,0,0,0,4.67-2.8L84.84,41.24A6,6,0,0,0,84.61,35.63ZM56.12,33.06c-1.63,0-7.23-3.5-7.23-4.67a13.44,13.44,0,0,1,1.57-2.87c.25-.4.51-.8.77-1.2.38-.61.77-1.2,1.1-1.74.45-.71.82-1.31,1-1.66s.34-.57.48-.83a8.31,8.31,0,0,0,.61-1.3,1.65,1.65,0,0,0,.08-.44.5.5,0,0,0-.47-.46c-1.46,0-5.1,2.37-9.17,6.54-.82.83-1.65,1.74-2.48,2.72-.42.48-.84,1-1.25,1.51-.84,1-1.67,2.14-2.48,3.31-.4.58-.8,1.18-1.19,1.79-2.34,3.51-5.61,10.51-5.61,15.65,0,3.73,1.87,6.53,6.77,6.53,5.61,0,13.31-3.26,17.28-6.53.23-.24.23-.24.47-.24,1.4,0,2.1,1.64,2.1,2.11v.23C53.56,56.41,45.15,63,37.45,63c-6.78,0-14.71-5.14-16.12-8.87a6,6,0,0,1-.46-2.34c0-4.43,2.1-12.37,7-20.31C36.74,17,46.55,11.58,52.62,11.58c4.67,0,10,4.2,10.28,7.47C62.9,22.09,58.23,33.06,56.12,33.06Z" transform="translate(-0.04 0.09)"/></svg>