<svg xmlns="http://www.w3.org/2000/svg" width="355.01" height="237" viewBox="0 0 355.01 237"><path fill="#fff" d="M222.34,497.34c0-11.56,8.57-19.45,19.28-19.45a17,17,0,0,1,14.93,7.95l-4.79,2.54a11.9,11.9,0,0,0-10.14-5.47c-7.61,0-13.47,6-13.47,14.43s5.86,14.43,13.47,14.43a11.92,11.92,0,0,0,10.14-5.47l4.79,2.54a17.06,17.06,0,0,1-14.93,7.94C230.91,516.78,222.34,508.89,222.34,497.34Z" transform="translate(-222.34 -281.42)"/><path fill="#fff" d="M285.75,508.33H267.32l-3,7.78h-6.2L273,478.51h7.05L295,516.11h-6.2Zm-16.8-5h15.16l-7.6-19.89Z" transform="translate(-222.34 -281.42)"/><path fill="#fff" d="M299.5,478.51h15.84c7.72,0,12,5.3,12,11.56s-4.34,11.55-12,11.55h-10.2v14.49H299.5Zm15.1,5h-9.46v13.19h9.46c4.06,0,6.94-2.65,6.94-6.59S318.66,483.47,314.6,483.47Z" transform="translate(-222.34 -281.42)"/><path fill="#fff" d="M333.14,478.51H349c7.72,0,12,5.3,12,11.56s-4.34,11.55-12,11.55h-10.2v14.49h-5.64Zm15.11,5h-9.47v13.19h9.47c4.06,0,6.93-2.65,6.93-6.59S352.31,483.47,348.25,483.47Z" transform="translate(-222.34 -281.42)"/><path fill="#fff" d="M413.34,510.64l2.77,3.21-5.58,4.57-3-3.55a21.08,21.08,0,0,1-9,1.91c-11.33,0-19.61-8.11-19.61-19.44s8.28-19.45,19.61-19.45,19.67,8.12,19.67,19.45A19.75,19.75,0,0,1,413.34,510.64ZM402.52,509l-4.11-4.79,5.52-4.56,4.17,4.85a13.47,13.47,0,0,0,1.92-7.16c0-7-4.51-12.35-11.44-12.35s-11.39,5.3-11.39,12.35,4.46,12.34,11.39,12.34A11.12,11.12,0,0,0,402.52,509Z" transform="translate(-222.34 -281.42)"/><path fill="#fff" d="M442.09,512.67a12.76,12.76,0,0,1-9.58,4.11c-6,0-8.79-3.27-8.79-8.56V488.88h7.15V505.4c0,3.77,2,5,5,5a8,8,0,0,0,6.2-3.1V488.88h7.16v27.23h-7.16Z" transform="translate(-222.34 -281.42)"/><path fill="#fff" d="M455.62,481.67A4.28,4.28,0,1,1,459.9,486,4.31,4.31,0,0,1,455.62,481.67Zm.73,7.21h7.16v27.23h-7.16Z" transform="translate(-222.34 -281.42)"/><path fill="#fff" d="M469.42,510.75l12.29-15.61H469.42v-6.26h22v5.19L479,509.85h12.68v6.26H469.42Z" transform="translate(-222.34 -281.42)"/><path fill="#fff" d="M496.42,510.75l12.29-15.61H496.42v-6.26h22v5.19L506,509.85h12.68v6.26H496.42Z" transform="translate(-222.34 -281.42)"/><path fill="#fff" d="M536.94,488.21c8.12,0,13.64,6.08,13.64,15v1.58H530.35c.45,3.44,3.21,6.31,7.83,6.31a11.12,11.12,0,0,0,7.27-2.71l3.16,4.63c-2.71,2.48-7,3.77-11.21,3.77-8.29,0-14.54-5.58-14.54-14.31C522.86,494.58,528.66,488.21,536.94,488.21Zm-6.7,11.72h13.41a6.31,6.31,0,0,0-6.71-6A6.54,6.54,0,0,0,530.24,499.93Z" transform="translate(-222.34 -281.42)"/><path fill="#fff" d="M556.5,507.54a15.57,15.57,0,0,0,9.41,3.72c3.1,0,4.57-1.24,4.57-2.93,0-1.86-2.48-2.37-5.47-2.93-4.68-.9-10.71-2.09-10.71-8.63,0-4.56,4-8.56,11.16-8.56a17.39,17.39,0,0,1,11,3.72l-2.87,4.9a11.49,11.49,0,0,0-8.06-3.16c-2.59,0-4.29,1.19-4.29,2.71s2.15,2,5.19,2.65c4.68.9,10.93,2.2,10.93,9,0,5-4.22,8.73-11.78,8.73-4.73,0-9.3-1.58-12.17-4.23Z" transform="translate(-222.34 -281.42)"/><path fill="#4091ce" d="M446.7,287.75l36.88,64.13a10.87,10.87,0,0,1,.08,10.64h0l-37.46,65.26h0a10.75,10.75,0,0,1-9.32,5.43H362a10.75,10.75,0,0,1-9.8-6.36L316.09,364a10.85,10.85,0,0,1-.81-12l37.44-65.12h0a10.75,10.75,0,0,1,9.33-5.42h74.86A10.74,10.74,0,0,1,446.7,287.75Z" transform="translate(-222.34 -281.42)"/><path fill="#fff" fill-rule="evenodd" d="M445,429.43a10.68,10.68,0,0,1-8.1,3.72H398.26l-24.93-14.39a13.29,13.29,0,0,1,13.29-23Zm26.66-46L458.4,406.48l-58.48-33.76a13.29,13.29,0,0,1,13.29-23Zm12.95-23.22L426.5,326.67a13.29,13.29,0,0,1,13.3-23l24.07,13.9,19.71,34.27A10.85,10.85,0,0,1,484.59,360.21Z" transform="translate(-222.34 -281.42)"/></svg>