<svg xmlns="http://www.w3.org/2000/svg" width="260.01" height="71.65" viewBox="0 0 260.01 71.65"><path fill="#ec677a" d="M48.83,10.84c-5.64,0-14.75,5-23,18.43-4.55,7.37-6.5,14.74-6.5,18.86a5.6,5.6,0,0,0,.43,2.17c1.3,3.47,8.68,8.24,15,8.24,4.92,0,10.15-2.87,14.41-6.15,1.17-.89,2.26-1.81,3.25-2.71q1-.91,1.86-1.77V47.7a2.38,2.38,0,0,0-.49-1.14,1.84,1.84,0,0,0-1.46-.82c-.22,0-.22,0-.44.22C48.21,49,41.05,52,35.89,52c-4.56,0-6.29-2.6-6.29-6.07,0-4.77,3-11.27,5.2-14.52C40.59,22.33,48,16.69,50.13,16.69a.47.47,0,0,1,.43.44,1.35,1.35,0,0,1-.08.4,10.68,10.68,0,0,1-1,2c-.08.16-.21.38-.37.65s-.54.88-.88,1.41l-.7,1.09-.71,1.12c-.46.72-.87,1.4-1.14,1.9-.07.12-.12.24-.17.34a1.11,1.11,0,0,0-.15.43c0,1.08,5.2,4.33,6.72,4.33,2,0,6.29-10.19,6.29-13C58.15,14.74,53.16,10.84,48.83,10.84Z" transform="translate(0.01 -0.08)"/><path fill="#fff" d="M113.87,47.48c-6.72,0-11.06-5.42-11.06-11.93s4.34-11.92,11.06-11.92A12.18,12.18,0,0,1,123.19,28l6.94-6.51A21.38,21.38,0,0,0,92.41,35.25v.3a21.42,21.42,0,0,0,21.15,21.69h.31a21.23,21.23,0,0,0,16.48-7.81l-6.72-6.94A11.68,11.68,0,0,1,113.87,47.48Zm37.72-33.61a41.31,41.31,0,0,0-16,3.69l3.47,8.67s6.29-3,12.14-3c10.62,0,10.19,7.15,10.19,7.15v2.39a27.47,27.47,0,0,0-12.79-3c-8.89,0-16,5.85-16,13.66,0,8.89,7.15,13.88,14.74,13.88,9.32,0,13.66-6.29,14.09-6.29v5.42h8.67V29.27C170.46,19.94,163.52,14.08,151.59,13.87Zm7.59,29.92a11.56,11.56,0,0,1-9.54,4.56c-3.25,0-7.37-.87-7.37-5.21,0-4.55,4.34-5.85,7.59-5.85a19.83,19.83,0,0,1,9.32,2.17ZM241,14.08a15.9,15.9,0,0,0-12.4,6.3V15.17h-8.67V71.55h8.67V51.82c2.6,1.73,6.07,5.2,12.36,5.2C251.11,57,260,48.13,260,35.55S251.11,14.08,241,14.08Zm-.91,33.18h0a10.86,10.86,0,0,1-9.32-5.63V29.08a10.87,10.87,0,0,1,9.32-5.64c6.72,0,10.84,5.21,10.84,11.93C250.89,42.28,246.77,47.26,240.05,47.26ZM196,14.08c-8,0-13,6.29-13,6.29v-5.2h-8.68V71.55H185.2V51.82c1.08,1.73,4.55,5.2,10.84,5.2,10.19,0,19.08-8.89,19.08-21.47S206.23,14.08,196,14.08Zm-1.52,33.18h0a10.86,10.86,0,0,1-9.32-5.63V29.08a10.87,10.87,0,0,1,9.32-5.64c6.72,0,10.84,5.21,10.84,11.93C205.36,42.28,201.24,47.26,194.52,47.26ZM61.62,3.08a5.26,5.26,0,0,0-4.56-3H22.38A4.92,4.92,0,0,0,18,2.68L.69,33.39A4.87,4.87,0,0,0,1.13,39L17.82,68.73a5.26,5.26,0,0,0,4.56,3H57.06a4.92,4.92,0,0,0,4.34-2.6L78.75,38.37a5.57,5.57,0,0,0-.22-5.2Zm-9.54,27.7c-1.52,0-6.72-3.25-6.72-4.33a1.11,1.11,0,0,1,.15-.43c.05-.1.1-.22.17-.34.27-.5.68-1.18,1.14-1.9l.71-1.12.7-1.09c.34-.53.65-1,.88-1.41s.29-.49.37-.65a10.68,10.68,0,0,0,1-2,1.35,1.35,0,0,0,.08-.4.47.47,0,0,0-.43-.44c-2.17,0-9.54,5.64-15.4,14.75-2.16,3.25-5.2,9.75-5.2,14.52,0,3.47,1.73,6.07,6.29,6.07,5.2,0,12.36-3,16-6.07.22-.22.22-.22.44-.22a1.84,1.84,0,0,1,1.46.82,3,3,0,0,1,.21.33,2,2,0,0,1,.28.81v.21l-.89.87c-.31.3-.63.6-1,.9-1,.9-2.08,1.82-3.25,2.71-4.26,3.28-9.49,6.15-14.41,6.15-6.28,0-13.66-4.77-15-8.24a5.6,5.6,0,0,1-.43-2.17c0-4.12,1.95-11.49,6.5-18.86C34,15.8,43.08,10.82,48.73,10.82c4.33,0,9.32,3.9,9.54,6.94C58.37,20.59,54,30.78,52.08,30.78Z" transform="translate(0.01 -0.08)"/></svg>