<svg xmlns="http://www.w3.org/2000/svg" width="230" height="95.78" viewBox="0 0 230 95.78"><path fill="#fff" d="M87.87,30.78l10.93,6.4V23.72L87.87,17.45Zm0,16.27L98.8,53.32V40.65L87.87,34.38ZM126,6.25,115.06,0,104,6.25l11.07,6.4ZM100.93,8.11l-11.6,6.67,11.06,6.27L112,14.38Zm.94,15.61V37.18l11.6-6.8V17.05Zm0,31.33,11.6,6.67V49.18l-11.6-6.8ZM129.06,8.11,118,14.38l11.6,6.67,11.07-6.27Zm-2.53,31.61-11.47-6.67-11.6,6.67,11.6,6.79Zm4.66-2.67,10.94-6.4V17.45l-10.94,6.27Zm-14.66,24.8,11.6-6.67V42.51l-11.6,6.67Zm25.6-27.6-10.94,6.26V53.32l10.94-6.27Zm-25.6-3.87,11.6,6.8V23.72l-11.6-6.67ZM22,75.11,15.2,90.86H19l1.52-3.4h6.6l1.51,3.4h3.58L25.39,75.11Zm-.09,9.33,2-4.62,2,4.62Zm17.92-9.33H34.26V90.86h3.49V86.43h2.07c2.36,0,4.06-.38,5.19-1.32a5.1,5.1,0,0,0,1.7-4.25A5.27,5.27,0,0,0,45,76.53,8,8,0,0,0,39.82,75.11Zm2.64,7.64a3.18,3.18,0,0,1-2.35.66H37.75V78.13h2a4.62,4.62,0,0,1,2.55.56,2.21,2.21,0,0,1,.85,2,3.19,3.19,0,0,1-.68,2.08ZM55.1,75.11H49.54V90.86H53V86.43H55.1c2.36,0,4.06-.38,5.19-1.32A5.1,5.1,0,0,0,62,80.86a5.27,5.27,0,0,0-1.7-4.33A8,8,0,0,0,55.1,75.11Zm2.64,7.64a3.18,3.18,0,0,1-2.35.66H53V78.13h2a4.62,4.62,0,0,1,2.55.56,2.21,2.21,0,0,1,.85,2,3.18,3.18,0,0,1-.67,2.08ZM8.4,78h0a5,5,0,0,1,4.15,2.09l2.16-2.45a8.45,8.45,0,0,0-6.51-2.93,8,8,0,0,0-5.84,2.37,8.42,8.42,0,0,0,0,11.69,8.42,8.42,0,0,0,6,2.27,8.28,8.28,0,0,0,6.32-3l-2.26-2.35a5.2,5.2,0,0,1-4.25,2.07,4.41,4.41,0,0,1-3.29-1.41A4.86,4.86,0,0,1,3.6,82.84,4.52,4.52,0,0,1,5,79.36,5,5,0,0,1,8.4,78Zm181.68.68a5,5,0,0,0-2.35.66,3.69,3.69,0,0,0-1.7,1.7V78.88h-2.55v12H186V84.37a3.18,3.18,0,0,1,1-2.55,3.39,3.39,0,0,1,2.27-.85c1.79,0,2.74,1.13,2.74,3.3v6.6h2.55V83.5a4.71,4.71,0,0,0-1.22-3.58A4.47,4.47,0,0,0,190.08,78.71Zm-13,2.62V78.88h-2.54V91h2.54V85.78a5.13,5.13,0,0,1,1-3.3,3.37,3.37,0,0,1,2.83-1.23H181V78.71a3.86,3.86,0,0,0-2.27.75A4.65,4.65,0,0,0,177.07,81.33Zm-10.66-2.55a7.91,7.91,0,0,0-5,1.7l1.13,1.61A6.06,6.06,0,0,1,166,80.86c1.79,0,2.64.75,2.64,2.36v.47h-3.3a6.54,6.54,0,0,0-3.59.85,3,3,0,0,0-1.33,2.66A3.49,3.49,0,0,0,161.69,90a5.25,5.25,0,0,0,7.08-.75v1.59h2.45V83.22a4.35,4.35,0,0,0-1.32-3.4A6,6,0,0,0,166.41,78.78Zm2.08,7.65a2,2,0,0,1-1,1.79,3,3,0,0,1-2.07.66,3.59,3.59,0,0,1-1.89-.47,1.42,1.42,0,0,1-.66-1.32c0-1.13,1-1.7,2.74-1.7h2.83Zm42.35-7.72a5.13,5.13,0,0,0-2.36.66,3.69,3.69,0,0,0-1.7,1.7V78.88h-2.55v12h2.55V84.37a3.19,3.19,0,0,1,1-2.55,3.39,3.39,0,0,1,2.27-.85c1.79,0,2.73,1.13,2.73,3.3v6.6h2.54V83.5a4.71,4.71,0,0,0-1.22-3.58A4.44,4.44,0,0,0,210.84,78.71Zm-44.43.07ZM198.1,90.87h2.55v-12H198.1ZM230,89.37V79l-2.46,0v1.8a4.51,4.51,0,0,0-3.86-2,5.14,5.14,0,0,0-4,1.7,6.43,6.43,0,0,0,0,8.3,5.12,5.12,0,0,0,4,1.7,4.9,4.9,0,0,0,2.36-.66,4.74,4.74,0,0,0,1.6-1.7v1.51a3.92,3.92,0,0,1-1,2.92,3.81,3.81,0,0,1-2.83,1,6,6,0,0,1-3.59-1.32L219,94.09a8,8,0,0,0,4.9,1.69,6.4,6.4,0,0,0,4.44-1.6A6.51,6.51,0,0,0,230,89.37ZM226.59,87h0A3.47,3.47,0,0,1,224,88a2.81,2.81,0,0,1-2.45-1,3.73,3.73,0,0,1-.94-2.55,3.44,3.44,0,0,1,.94-2.55A2.92,2.92,0,0,1,224,80.79a3.12,3.12,0,0,1,2.55,1,3.77,3.77,0,0,1,.94,2.64A3.43,3.43,0,0,1,226.59,87Zm-27-13.29h-.22a1.6,1.6,0,0,0-1.13,2.73,1.08,1.08,0,0,0,1.13.48,1.61,1.61,0,0,0,.22-3.21ZM108.31,90.86h2.54V74.16h-2.54ZM156.7,80a6,6,0,0,0-4.16-1.5,6.08,6.08,0,0,0-4.24,1.69,6.63,6.63,0,0,0,0,9.06,6.21,6.21,0,0,0,4.35,1.7,6.88,6.88,0,0,0,5.09-2l-1.42-1.6a4.72,4.72,0,0,1-5.94.66A2.71,2.71,0,0,1,149.15,86h9.25V84.07A5.1,5.1,0,0,0,156.7,80Zm-7.55,4a3,3,0,0,1,1.13-2.37,3.77,3.77,0,0,1,2.46-.84,3.48,3.48,0,0,1,2.35.84A2.87,2.87,0,0,1,156,84Zm-47.07,6.88h2.55v-12h-2.55ZM103.4,73.7a1.6,1.6,0,0,0-1.13,2.73,1.06,1.06,0,0,0,1.13.47,1.6,1.6,0,1,0,0-3.2ZM98.4,79H96v1.8a4.58,4.58,0,0,0-3.87-2,5.15,5.15,0,0,0-4,1.7,6.47,6.47,0,0,0,0,8.31,5.15,5.15,0,0,0,4,1.7,5,5,0,0,0,2.36-.66,4.85,4.85,0,0,0,1.61-1.7v1.51a3.94,3.94,0,0,1-1,2.92,3.82,3.82,0,0,1-2.83,1,6,6,0,0,1-3.59-1.33l-1.22,1.89a7.83,7.83,0,0,0,4.9,1.69,6.27,6.27,0,0,0,4.43-1.6,6.49,6.49,0,0,0,1.7-4.81ZM95,87h0a3.49,3.49,0,0,1-2.55,1A2.84,2.84,0,0,1,90,87a3.82,3.82,0,0,1-.94-2.56A3.41,3.41,0,0,1,90,81.9a2.92,2.92,0,0,1,2.46-1.13,3.19,3.19,0,0,1,2.55,1A3.88,3.88,0,0,1,96,84.44,3.47,3.47,0,0,1,95,87ZM75.76,75.11l-7,15.75h2.83l1.61-3.59h7.92l1.61,3.59h2.83l-7-15.75Zm-1.41,9.72,2.83-6.51L80,84.83ZM123.78,80a6,6,0,0,0-4.15-1.5,6.06,6.06,0,0,0-4.25,1.69,6.63,6.63,0,0,0,0,9.06,6.2,6.2,0,0,0,4.34,1.7,6.86,6.86,0,0,0,5.09-2l-1.41-1.6a4.73,4.73,0,0,1-5.94.66A2.68,2.68,0,0,1,116.23,86h9.25V84.07A5.1,5.1,0,0,0,123.78,80Zm-7.55,4a3,3,0,0,1,1.13-2.37,3.79,3.79,0,0,1,2.46-.84,3.48,3.48,0,0,1,2.35.84,2.88,2.88,0,0,1,.94,2.37Zm36.31-5.47Zm-14.89-3.4H135V90.86h9.81V88.31h-7.17Z" transform="translate(0 0)"/></svg>