<svg xmlns="http://www.w3.org/2000/svg" width="557.75" height="245.12" viewBox="0 0 557.75 245.12"><path d="M0,216c0-11.56,8.57-19.45,19.28-19.45a17,17,0,0,1,14.93,7.95L29.42,207a11.92,11.92,0,0,0-10.14-5.46c-7.61,0-13.47,6-13.47,14.43s5.86,14.43,13.47,14.43a11.9,11.9,0,0,0,10.14-5.47l4.79,2.54a17.06,17.06,0,0,1-14.93,7.94C8.57,235.42,0,227.53,0,216Z" transform="translate(0 0)" fill="#fff"/><path d="M63.47,227H45l-3,7.78h-6.2l14.94-37.6h7.05l14.93,37.6h-6.2Zm-16.8-5H61.84l-7.61-19.9Z" transform="translate(0 0)" fill="#fff"/><path d="M77.22,197.15H93.06c7.72,0,12,5.3,12,11.56s-4.34,11.55-12,11.55H82.86v14.49H77.22Zm15.11,5H82.86V215.3h9.47c4.06,0,6.93-2.65,6.93-6.59S96.39,202.11,92.33,202.11Z" transform="translate(0 0)" fill="#fff"/><path d="M110.87,197.15h15.84c7.72,0,12,5.3,12,11.56s-4.34,11.55-12,11.55h-10.2v14.49h-5.64Zm15.11,5h-9.47V215.3H126c4.06,0,6.93-2.65,6.93-6.59S130,202.11,126,202.11Z" transform="translate(0 0)" fill="#fff"/><path d="M156.65,216c0-11.56,8.73-19.45,20-19.45a17.21,17.21,0,0,1,15.72,9.19l-6.87,3.38a10.2,10.2,0,0,0-8.85-5.47c-6.82,0-11.78,5.24-11.78,12.35s5,12.34,11.78,12.34a10.09,10.09,0,0,0,8.85-5.47l6.87,3.33c-2.7,4.68-7.44,9.24-15.72,9.24C165.38,235.42,156.65,227.53,156.65,216Z" transform="translate(0 0)" fill="#fff"/><path d="M195.26,221.11c0-7.73,5.41-14.26,14.37-14.26s14.43,6.53,14.43,14.26-5.41,14.31-14.43,14.31S195.26,228.88,195.26,221.11Zm21.36,0c0-4.23-2.54-7.89-7-7.89s-6.93,3.66-6.93,7.89,2.48,7.94,6.93,7.94S216.62,225.39,216.62,221.11Z" transform="translate(0 0)" fill="#fff"/><path d="M263.12,217.56c0-2.54-1.12-4.34-4.05-4.34a7.23,7.23,0,0,0-5.64,3.15v18.38h-7.22V217.56c0-2.54-1.12-4.34-4.05-4.34a7.31,7.31,0,0,0-5.64,3.21v18.32h-7.16V207.52h7.16v3.55a11.91,11.91,0,0,1,8.9-4.22c4,0,6.54,1.86,7.56,5a11.54,11.54,0,0,1,9.35-5c5,0,8,2.64,8,8.22v19.68h-7.22Z" transform="translate(0 0)" fill="#fff"/><path d="M277.38,245.12v-37.6h7.16V211a10.53,10.53,0,0,1,8.4-4.11c7,0,12.06,5.18,12.06,14.26s-5.07,14.31-12.06,14.31a10.41,10.41,0,0,1-8.4-4.17v13.87Zm13.31-31.9a8,8,0,0,0-6.15,3.1V226a8.19,8.19,0,0,0,6.15,3.1c4.11,0,6.87-3.21,6.87-7.94S294.8,213.22,290.69,213.22Z" transform="translate(0 0)" fill="#fff"/><path d="M310.36,197.15h7.16v37.6h-7.16Z" transform="translate(0 0)" fill="#fff"/><path d="M323.89,200.31a4.28,4.28,0,1,1,4.28,4.28A4.32,4.32,0,0,1,323.89,200.31Zm.73,7.21h7.16v27.23h-7.16Z" transform="translate(0 0)" fill="#fff"/><path d="M355.23,231.93a11.27,11.27,0,0,1-8.63,3.49c-4.34,0-9.47-2.93-9.47-9,0-6.36,5.13-8.68,9.47-8.68,3.61,0,6.82,1.13,8.63,3.33v-3.78c0-2.76-2.37-4.56-6-4.56a11.48,11.48,0,0,0-7.95,3.21l-2.7-4.79a17.85,17.85,0,0,1,11.89-4.28c6.2,0,11.9,2.48,11.9,10.31v17.59h-7.16Zm0-7.1a7.17,7.17,0,0,0-5.75-2.37c-2.82,0-5.13,1.46-5.13,4.11s2.31,4,5.13,4a7.17,7.17,0,0,0,5.75-2.37Z" transform="translate(0 0)" fill="#fff"/><path d="M387.86,218.29c0-3.78-2-5.07-5-5.07a7.73,7.73,0,0,0-6.2,3.21v18.32h-7.16V207.52h7.16v3.55a12.46,12.46,0,0,1,9.52-4.22c6,0,8.85,3.38,8.85,8.68v19.22h-7.16Z" transform="translate(0 0)" fill="#fff"/><path d="M414.81,206.85c5.58,0,9,2.42,10.76,4.9l-4.68,4.4a6.57,6.57,0,0,0-5.74-2.93c-4.34,0-7.39,3.15-7.39,7.89s3.05,7.94,7.39,7.94a6.83,6.83,0,0,0,5.74-2.93l4.68,4.34c-1.8,2.54-5.18,5-10.76,5-8.4,0-14.43-5.91-14.43-14.31S406.41,206.85,414.81,206.85Z" transform="translate(0 0)" fill="#fff"/><path d="M442.6,206.85c8.11,0,13.64,6.08,13.64,15v1.58H436c.45,3.44,3.21,6.31,7.84,6.31a11.15,11.15,0,0,0,7.27-2.7l3.16,4.62c-2.71,2.48-7,3.77-11.22,3.77-8.29,0-14.54-5.58-14.54-14.31C428.51,213.22,434.31,206.85,442.6,206.85Zm-6.71,11.72H449.3a6.3,6.3,0,0,0-6.7-6A6.54,6.54,0,0,0,435.89,218.57Z" transform="translate(0 0)" fill="#fff"/><path d="M499.64,228.38H483.52l-2.37,6.37H472l14.54-37.6h10l14.48,37.6H502Zm-13.92-7h11.72l-5.86-16.18Z" transform="translate(0 0)" fill="#fff"/><path d="M514.58,197.15h17.58c8.18,0,12.63,5.52,12.63,12.12s-4.51,12.12-12.63,12.12h-9.58v13.36h-8Zm16.51,7h-8.51v10.14h8.51c3.16,0,5.53-2,5.53-5.07S534.25,204.2,531.09,204.2Z" transform="translate(0 0)" fill="#fff"/><path d="M549.75,197.15h8v37.6h-8Z" transform="translate(0 0)" fill="#fff"/><path d="M326.72,6.4,363.6,70.54a10.83,10.83,0,0,1,.08,10.63v0l-37.46,65.26h0a10.75,10.75,0,0,1-9.33,5.44H242a10.76,10.76,0,0,1-9.79-6.36l-36.09-62.9a10.84,10.84,0,0,1-.81-12L232.73,5.47h0A10.75,10.75,0,0,1,242.07.06h74.87a10.73,10.73,0,0,1,9.78,6.34" transform="translate(0 0)" fill="#e1ab32"/><path d="M299.61,0H242.06a10.74,10.74,0,0,0-9.32,5.42h0L195.28,70.54a10.85,10.85,0,0,0,.81,12l27.84,48.52,15-26a1.47,1.47,0,0,1,2-.54l36.68,21.18a11.52,11.52,0,1,0,11.52-20L252.46,84.62a1.48,1.48,0,0,1-.54-2l19.07-33a1.47,1.47,0,0,1,2-.54l36.68,21.18a11.52,11.52,0,0,0,11.52-20L284.53,29.07a1.46,1.46,0,0,1-.54-2Z" transform="translate(0 0)" fill="#fff" fill-rule="evenodd"/></svg>
