<svg xmlns="http://www.w3.org/2000/svg" width="240" height="49.88" viewBox="0 0 240 49.88"><title>Defacto Software</title><path class="word-mark" d="M80.24,8.12c9.7,0,13.08,4.91,13.08,10.6V36.94c0,5.62-3.38,10.59-13.08,10.59H65.57V8.12ZM73,41h6.45c5,0,6.39-2,6.39-5.8V20.49c0-3.78-1.36-5.8-6.39-5.8H73Zm37.61,1.24a30.08,30.08,0,0,0,8.81-1.36l1.13,5.44A30.84,30.84,0,0,1,110,48.12c-9,0-12.19-4.2-12.19-11.12V29.36c0-6.09,2.73-11.24,12-11.24S121,23.51,121,29.72v6.15H105v1.48C105,40.84,106.25,42.2,110.63,42.2ZM105,30.07h9.17V28.65c0-2.72-.83-4.61-4.38-4.61S105,25.93,105,28.65Zm37.75-17.92a20.82,20.82,0,0,0-4.14-.48c-2.84,0-3.25,1.25-3.25,3.44v3.61h7.33l-.41,5.73h-6.92V47.53h-7.22V24.45h-4.61V18.72h4.61v-4c0-6,2.78-8.93,9.17-8.93a22.53,22.53,0,0,1,6.21.83Zm24.7,35.38h-5.92l-.53-2a15.79,15.79,0,0,1-8.58,2.54c-5.26,0-7.51-3.61-7.51-8.58,0-5.86,2.54-8.1,8.4-8.1h6.92v-3c0-3.2-.89-4.32-5.5-4.32a39.67,39.67,0,0,0-8,.89l-.89-5.51a37.61,37.61,0,0,1,9.88-1.36c9.06,0,11.72,3.2,11.72,10.41v19Zm-7.22-10.89h-5.32c-2.37,0-3,.65-3,2.84,0,2,.65,2.9,2.9,2.9a11.33,11.33,0,0,0,5.44-1.48Zm11.49.42V29.19c0-7.75,3.38-11.07,12.43-11.07a24.83,24.83,0,0,1,7,1.07l-.89,5.92a25.83,25.83,0,0,0-6-.78c-4.15,0-5.39,1.25-5.39,4.8v8c0,3.54,1.24,4.79,5.39,4.79a24.46,24.46,0,0,0,6-.77l.89,5.92a23.75,23.75,0,0,1-7,1.06C175.11,48.12,171.73,44.81,171.73,37.06ZM212.29,47A20.07,20.07,0,0,1,206,48.12c-5.26,0-7.93-2.49-7.93-7.63v-16h-4.32V18.72H198V11.56l7.22-1v8.17h7.4l-.48,5.73h-6.92V39.54a2.28,2.28,0,0,0,2.6,2.55,13.67,13.67,0,0,0,3.61-.6l.83,5.51Zm15.17,1.12c-9.88,0-12.55-5.44-12.55-11.36V29.48c0-5.92,2.66-11.36,12.55-11.36S240,23.56,240,29.48v7.28C240,42.68,237.34,48.12,227.46,48.12Zm0-23.84c-3.85,0-5.33,1.71-5.33,5V37c0,3.25,1.48,5,5.33,5s5.32-1.72,5.32-5V29.25C232.78,26,231.3,24.28,227.46,24.28Z" transform="translate(0 -2)" fill="#FFF"/><path class="brand-mark" d="M34.2,2H47.89V16.25H34.2ZM17.1,19.81H30.79V34.07H17.1Zm0,17.82H30.79V51.88H17.1ZM0,37.63H13.68V51.88H0ZM0,2H13.68V16.25H0ZM34.2,37.63H47.89V51.88H34.2ZM0,19.81H13.68V34.07H0ZM17.1,2H30.79V16.25H17.1ZM34.2,19.81H47.89V34.07H34.2Z" transform="translate(0 -2)" fill="#ebb300"/></svg>
