<svg xmlns="http://www.w3.org/2000/svg" width="230" height="94.82" viewBox="0 0 230 94.82"><path fill="#fff" d="M0,94.23H3.87V73.79H0ZM15.13,73.79H10.74L4.42,83.89l6.69,10.34h4.44L8.68,83.89Zm16.75,15.5-2.95-10H25l-3,10-1.84-10h-3.5l2.76,15h4.33L27,83.49l3.16,10.74h4.32l2.76-15H33.72ZM44.76,79a19.43,19.43,0,0,0-5.12.7l.46,2.86a20.59,20.59,0,0,1,4.14-.46c2.39,0,2.85.58,2.85,2.24v1.56H43.5c-3,0-4.35,1.17-4.35,4.2,0,2.58,1.16,4.45,3.89,4.45a8.16,8.16,0,0,0,4.45-1.32l.28,1h3.07V84.38C50.84,80.63,49.46,79,44.76,79Zm2.33,11.81a5.83,5.83,0,0,1-2.82.77c-1.17,0-1.5-.46-1.5-1.51s.33-1.47,1.56-1.47h2.76Zm7.73,3.44h3.75V72.66l-3.75.52Zm8-17.06H66.6V72.84H62.86Zm0,17.06H66.6v-15H62.86Zm15.92-12,.25-3H75.19V75.05l-3.74.52v3.71H69.21v3h2.24v8.31c0,2.67,1.38,4,4.11,4A10.37,10.37,0,0,0,78.85,94l-.43-2.85a7.4,7.4,0,0,1-1.88.3,1.18,1.18,0,0,1-1.35-1.32V82.26ZM87.31,79c-4.78,0-6.2,2.67-6.2,5.83v4c0,3.59,1.63,5.77,6.33,5.77a15.9,15.9,0,0,0,5.49-1l-.59-2.82a15.6,15.6,0,0,1-4.57.7c-2.27,0-2.91-.7-2.91-2.51v-.77h8.31V85C93.17,81.77,92.1,79,87.31,79Zm2.3,6.19H84.86v-.73c0-1.41.64-2.39,2.48-2.39s2.27,1,2.27,2.39Zm6.94-8h3.74V72.84H96.55Zm0,17.06h3.74v-15H96.55Zm15.92-12,.25-3h-3.84V75.05l-3.74.52v3.71H102.9v3h2.24v8.31c0,2.67,1.38,4,4.11,4a10.31,10.31,0,0,0,3.28-.58l-.43-2.85a7.33,7.33,0,0,1-1.87.3,1.18,1.18,0,0,1-1.35-1.32V82.26Zm8.47,2.88c-2-.52-2.12-.61-2.12-1.81,0-.92.28-1.28,1.9-1.28a25.57,25.57,0,0,1,4.11.43l.37-3a19.54,19.54,0,0,0-4.48-.52c-4.26,0-5.58,1.32-5.58,4.32s.43,3.81,4.08,4.7c2.42.58,2.61,1,2.61,2,0,1.14-.25,1.5-1.91,1.5a16.57,16.57,0,0,1-4.44-.64L115,93.67a17.65,17.65,0,0,0,5.16.86c4.51,0,5.4-1.78,5.4-4.66C125.51,86.8,125.11,86.25,120.94,85.14ZM147.23,79a14.64,14.64,0,0,0-6,1.59A2.86,2.86,0,0,0,138.39,79a14.94,14.94,0,0,0-6,1.56L132,79.28h-2.85v15h3.74V83.86a10.27,10.27,0,0,1,3.9-1.26c.86,0,1.19.4,1.19,1.19V94.23h3.75V83.86a9.77,9.77,0,0,1,3.89-1.26c.86,0,1.2.4,1.2,1.19V94.23h3.74V83.4C150.6,80.73,149.71,79,147.23,79Zm13.34,0c-5.12,0-6.5,2.82-6.5,5.89v3.77c0,3.07,1.38,5.89,6.5,5.89s6.51-2.82,6.51-5.89V84.87C167.08,81.8,165.7,79,160.57,79Zm2.76,9.78c0,1.69-.76,2.58-2.76,2.58s-2.76-.89-2.76-2.58v-4c0-1.69.77-2.58,2.76-2.58s2.76.89,2.76,2.58ZM179.9,79a14.94,14.94,0,0,0-6,1.56l-.37-1.26H170.7v15h3.74V83.86a10.27,10.27,0,0,1,3.9-1.26c.85,0,1.19.4,1.19,1.19V94.23h3.75V83.4C183.28,80.73,182.39,79,179.9,79Zm7.52-1.81h3.74V72.84h-3.74Zm0,17.06h3.74v-15h-3.74Zm15.92-12,.25-3h-3.84V75.05l-3.74.52v3.71h-2.24v3H196v8.31c0,2.67,1.38,4,4.11,4A10.31,10.31,0,0,0,203.4,94L203,91.1a7.33,7.33,0,0,1-1.87.3,1.18,1.18,0,0,1-1.35-1.32V82.26ZM212.18,79c-5.13,0-6.51,2.82-6.51,5.89v3.77c0,3.07,1.38,5.89,6.51,5.89s6.5-2.82,6.5-5.89V84.87C218.68,81.8,217.3,79,212.18,79Zm2.76,9.78c0,1.69-.77,2.58-2.76,2.58s-2.77-.89-2.77-2.58v-4c0-1.69.77-2.58,2.77-2.58s2.76.89,2.76,2.58ZM229.63,79a16.94,16.94,0,0,0-3.93,2l-.24-1.66H222.3v15H226V84.59a30,30,0,0,1,4-2.18ZM82,60.18h23.23l2.92,8.49,2.82-8.49H148v-25l18.54-1.71L148,32V8.21H127.32l-2.64-8.5-2.82,8.5H82V32.85L63.42,34.19,82,35.94Zm60.13-46v17.4l-7.71-.62-5.21-16.78Zm-17.59,5,5.5,17.7,12.09-1.11V54.23H112.9Zm-36.59-5h32L108,50.08l-6.42-18.64-13.67,1Zm0,22.34,9.43.89,5.8,16.84H87.91Z" transform="translate(0 0.29)"/></svg>