<svg xmlns="http://www.w3.org/2000/svg" width="300" height="300" viewBox="0 0 300 300"><path fill="#ebb300" d="M267.65,57.05a25.11,25.11,0,0,1-10,9.31A135.42,135.42,0,0,1,286.47,150c0,75.13-61.22,136.26-136.47,136.26S13.53,225.13,13.53,150,74.75,13.74,150,13.74A135.84,135.84,0,0,1,223.17,35a24.93,24.93,0,0,1,8.36-10.88A149.11,149.11,0,0,0,150,0C67.29,0,0,67.29,0,150S67.29,300,150,300s150-67.29,150-150A149.34,149.34,0,0,0,267.65,57.05Z"/><path fill="#212062" d="M64.29,229.58h6.18V213.33h8v-5.62h-8V195.85H80.65v-5.62H64.29Zm19.33,0h16.87V224H89.8V212.43h8.49v-5.62H89.8v-11h10.69v-5.62H83.62Zm20.69,0h16.86V224H110.49V212.43H119v-5.62h-8.49v-11h10.68v-5.62H104.31Zm30.46-39.35H125v39.35h9.78c6.18,0,9.22-3.43,9.22-9.73V200C144,193.66,141,190.23,134.77,190.23Zm3,29.9c0,2.81-1.18,3.82-3.14,3.82h-3.49v-28.1h3.49c2,0,3.14,1,3.14,3.82Zm24.62-11.52c2.76-1.29,4-3.88,4-7.93v-1.4c0-6.07-2.75-9.05-9.16-9.05h-9.33v39.35h9.73c6.18,0,9.38-3.26,9.38-9.34V217C167,212.88,165.74,209.9,162.42,208.61Zm-8.32-12.76h3c2.19,0,3.15,1.24,3.15,4.05v2.19c0,3.15-1.4,4.16-3.71,4.16H154.1Zm6.75,24.23c0,2.92-1.13,3.87-3.2,3.87H154.1V211.87h2.76c2.81,0,4,1.12,4,4.78Zm14.55-29.85-6.29,39.35h5.67l1.07-7.14h7.59l1.07,7.14h6.24l-6.3-39.35Zm1.24,26.87,3-19.9,3,19.9Zm25.63-27.32c-6.07,0-9.22,3.6-9.22,9.89v20.46c0,6.3,3.15,9.89,9.22,9.89s9.22-3.59,9.22-9.89V214.9h-5.85v5.63c0,2.81-1.23,3.82-3.2,3.82s-3.21-1-3.21-3.82V199.28c0-2.81,1.24-3.88,3.21-3.88s3.2,1.07,3.2,3.88v4.21h5.85v-3.82C211.49,193.38,208.34,189.78,202.27,189.78Zm27.26.45-8.1,17.14V190.23h-6.18v39.35h6.18V217.49l1.92-3.6,6,15.68h6.35l-8.6-21.8,8.6-17.54ZM89.33,179.28c16.48,0,25-9.77,25-26.87V144c0-10.84-3.36-18.77-11.75-22.44,8.09-3.36,11.75-10.53,11.75-22V96.84c0-17.1-8.55-26.87-25-26.87s-25,9.77-25,26.87v5.8H80.17V95.77c0-7.63,3.36-10.53,8.7-10.53s8.7,2.6,8.7,12.21h0v6c0,8.55-3.82,11.3-10.08,11.3H80.93V130h5.65c7.63,0,11,3.66,11,13.58V152c0,9.46-3.36,12.06-8.7,12.06s-8.7-2.9-8.7-10.53v-9.93H64.29v8.86C64.29,169.51,72.84,179.28,89.33,179.28Zm86.24-46.41c0-15.73-6.26-24.43-18.62-24.43-7.49,0-12.67,3.36-15.57,9.47V98.37c0-10.23,3.35-13.13,9.3-13.13,5.35,0,8.71,2.9,8.71,10.53v3.82h15.87V96.84c0-17.1-8.54-26.87-25-26.87-17.4,0-25.65,9.77-25.65,27.79v54.65c0,17.1,9,26.87,25.5,26.87s25.49-9.77,25.49-26.87Zm-16.79,20.61c0,7.63-3.36,10.38-8.7,10.38s-8.7-2.75-8.7-10.38V134.24c0-7.63,3.35-10.53,8.7-10.53s8.7,2.9,8.7,10.53ZM210.22,70c-16.49,0-25.49,9.77-25.49,26.87v55.57c0,17.1,9,26.87,25.49,26.87s25.49-9.77,25.49-26.87V96.84C235.71,79.74,226.71,70,210.22,70Zm8.7,83.51c0,7.63-3.36,10.53-8.7,10.53s-8.7-2.9-8.7-10.53V95.77c0-7.63,3.36-10.53,8.7-10.53s8.7,2.9,8.7,10.53ZM246.33,22a22.17,22.17,0,1,0,22.21,22.17A22.22,22.22,0,0,0,246.33,22Zm0,33.45A11.29,11.29,0,1,1,257.6,44.18,11.29,11.29,0,0,1,246.33,55.46Z"/></svg>