<svg xmlns="http://www.w3.org/2000/svg" width="400" height="61.87" viewBox="0 0 400 61.87"><path fill="#fff" d="M43.32,37.05l10.94-6.4V17.45L43.32,23.72Zm0,16.27,10.94-6.27V34.25L43.32,40.51ZM0,30.78l10.93,6.4V23.72L0,17.45ZM38.12,6.25,27.19,0,16.12,6.25l11.07,6.4ZM28.66,30.38l11.6,6.8V23.72l-11.6-6.67ZM14,37.18l11.6-6.8V17.05L14,23.72ZM28.66,61.85l11.6-6.67V42.51l-11.6,6.67ZM13.06,8.11,1.46,14.78l11.06,6.27,11.6-6.67ZM14,55.05l11.6,6.67V49.18L14,42.38ZM41.19,8.11,30.12,14.38l11.6,6.67,11.07-6.27Zm-14,24.94-11.6,6.67,11.6,6.79,11.47-6.79ZM0,47.05l10.93,6.27V40.65L0,34.38Zm86.8-22A7.08,7.08,0,0,1,92.66,28l3.06-3.47a11.92,11.92,0,0,0-9.2-4.13,11.23,11.23,0,0,0-8.26,3.34A10.83,10.83,0,0,0,74.92,32a10.86,10.86,0,0,0,3.34,8.27,11.88,11.88,0,0,0,8.53,3.2,11.68,11.68,0,0,0,8.93-4.27l-3.2-3.33a7.32,7.32,0,0,1-6,2.93,6.26,6.26,0,0,1-4.66-2A6.84,6.84,0,0,1,80,31.85a6.42,6.42,0,0,1,2-4.93A7,7,0,0,1,86.79,25.05ZM106,20.92l-9.6,22.26h5.33l2.14-4.8h9.33l2.13,4.8h5.07l-9.6-22.26Zm-.13,13.19,2.8-6.53,2.8,6.53Zm25.33-13.19h-7.87V43.18h4.94V36.92h2.93c3.33,0,5.73-.54,7.33-1.87s2.4-3.2,2.4-6-.8-4.8-2.4-6.13S134.52,20.92,131.19,20.92Zm3.73,10.8c-.66.66-1.73.93-3.33.93h-3.33V25.18h2.8a6.58,6.58,0,0,1,3.6.8,3.11,3.11,0,0,1,1.2,2.8A4.52,4.52,0,0,1,134.92,31.72Zm17.87-10.8h-7.87V43.18h4.94V36.92h2.93c3.33,0,5.73-.54,7.33-1.87s2.4-3.2,2.4-6-.8-4.8-2.4-6.13S156.12,20.92,152.79,20.92Zm3.73,10.8c-.66.66-1.73.93-3.33.93h-3.33V25.18h2.8a6.58,6.58,0,0,1,3.6.8,3.11,3.11,0,0,1,1.2,2.8A4.52,4.52,0,0,1,156.52,31.72ZM182,20.92l-9.87,22.26h4l2.27-5.07h11.2l2.27,5.07h4L186,20.92Zm-2,13.73,4-9.2,4,9.2Zm30.53-5.73a6.41,6.41,0,0,0-5.46-2.81,7.28,7.28,0,0,0-5.6,2.4,8.17,8.17,0,0,0-2.14,5.87,8.17,8.17,0,0,0,2.14,5.87,7.25,7.25,0,0,0,5.6,2.4,6.94,6.94,0,0,0,3.33-.93,6.7,6.7,0,0,0,2.27-2.4v2.13a5.55,5.55,0,0,1-1.47,4.13,5.4,5.4,0,0,1-4,1.34,8.52,8.52,0,0,1-5.07-1.87l-1.73,2.67a11.21,11.21,0,0,0,6.93,2.39,9,9,0,0,0,6.27-2.26,9.2,9.2,0,0,0,2.4-6.8V26.38h-3.47Zm-1.33,8.8a4.92,4.92,0,0,1-3.6,1.46,4,4,0,0,1-3.47-1.46,5.29,5.29,0,0,1-1.33-3.61,4.86,4.86,0,0,1,1.33-3.6,4.14,4.14,0,0,1,3.47-1.59,4.47,4.47,0,0,1,3.6,1.46,5.38,5.38,0,0,1,1.33,3.73A4.87,4.87,0,0,1,209.19,37.72Zm11.87-18.8a2.26,2.26,0,0,0-1.6,3.86,1.52,1.52,0,0,0,1.6.67,2.22,2.22,0,0,0,1.6-.67,2.26,2.26,0,0,0-1.6-3.86Zm-1.87,24.26h3.6V26.25h-3.6Zm8.8,0h3.6V19.58H228Zm16-17.46a8.56,8.56,0,0,0-6,2.39,8.28,8.28,0,0,0-2.53,6.4A8.27,8.27,0,0,0,238,40.92a8.7,8.7,0,0,0,6.13,2.4,9.72,9.72,0,0,0,7.2-2.81l-2-2.26a6.69,6.69,0,0,1-8.4.93,3.81,3.81,0,0,1-1.73-2.93h13.07V33.58a7.15,7.15,0,0,0-2.4-5.73A8.37,8.37,0,0,0,244,25.72Zm-4.8,7.73a4.23,4.23,0,0,1,1.6-3.34,5.26,5.26,0,0,1,3.47-1.19,4.91,4.91,0,0,1,3.33,1.19,4.08,4.08,0,0,1,1.33,3.34Zm30.27-12.53h-3.74V43.18h13.87v-3.6H269.46Zm21.06,4.8a8.6,8.6,0,0,0-6,2.39,8.28,8.28,0,0,0-2.53,6.4,8.27,8.27,0,0,0,2.53,6.41,8.74,8.74,0,0,0,6.14,2.4,9.75,9.75,0,0,0,7.2-2.81l-2-2.26a5.8,5.8,0,0,1-4.8,2,5.71,5.71,0,0,1-3.6-1.07,3.82,3.82,0,0,1-1.74-2.93h13.07V33.58a7.15,7.15,0,0,0-2.4-5.73A8.37,8.37,0,0,0,290.52,25.72Zm-4.8,7.73a4.26,4.26,0,0,1,1.6-3.34,5.29,5.29,0,0,1,3.47-1.19,4.91,4.91,0,0,1,3.33,1.19,4.06,4.06,0,0,1,1.34,3.34Zm24.4-7.34a11.11,11.11,0,0,0-7.06,2.4l1.6,2.27a8.51,8.51,0,0,1,4.93-1.73c2.53,0,3.73,1.06,3.73,3.33v.67h-4.66a9.18,9.18,0,0,0-5.07,1.2A4.17,4.17,0,0,0,301.72,38a4.89,4.89,0,0,0,1.74,4,7.4,7.4,0,0,0,10-1.06v2.26h3.46V32.38a6.13,6.13,0,0,0-1.86-4.8A8.38,8.38,0,0,0,310.12,26.11Zm2.94,10.81a2.89,2.89,0,0,1-1.34,2.53,4.33,4.33,0,0,1-2.93.93,5,5,0,0,1-2.67-.66,2,2,0,0,1-.93-1.87c0-1.6,1.33-2.4,3.87-2.4h4Zm12.13-7.2V26.25h-3.6V43.32h3.6V36a7.18,7.18,0,0,1,1.33-4.66,4.71,4.71,0,0,1,4-1.74h.27V26a5.4,5.4,0,0,0-3.2,1.07A6.55,6.55,0,0,0,325.19,29.72ZM343.59,26a7.26,7.26,0,0,0-3.33.94,5.17,5.17,0,0,0-2.4,2.4V26.25h-3.6V43.18h3.6V34a4.52,4.52,0,0,1,1.46-3.6,4.79,4.79,0,0,1,3.2-1.2c2.54,0,3.87,1.6,3.87,4.67v9.33H350V32.78a6.67,6.67,0,0,0-1.73-5.06A6.3,6.3,0,0,0,343.59,26Zm11.33,17.2h3.6V26.25h-3.6Zm1.87-24.26a2.26,2.26,0,0,0-1.6,3.86,1.52,1.52,0,0,0,1.6.67,2.27,2.27,0,1,0,0-4.53ZM372.92,26a7.29,7.29,0,0,0-3.33.94,5.17,5.17,0,0,0-2.4,2.4V26.25h-3.6V43.18h3.6V34a4.5,4.5,0,0,1,1.47-3.6,4.77,4.77,0,0,1,3.2-1.2c2.53,0,3.86,1.6,3.86,4.67v9.33h3.6V32.78a6.67,6.67,0,0,0-1.73-5.06A6.3,6.3,0,0,0,372.92,26Zm23.6.4v2.54a6.41,6.41,0,0,0-5.46-2.81,7.28,7.28,0,0,0-5.6,2.4,8.17,8.17,0,0,0-2.14,5.87,8.17,8.17,0,0,0,2.14,5.87,7.25,7.25,0,0,0,5.6,2.4,6.94,6.94,0,0,0,3.33-.93,6.7,6.7,0,0,0,2.27-2.4v2.13a5.55,5.55,0,0,1-1.47,4.13,5.4,5.4,0,0,1-4,1.34,8.52,8.52,0,0,1-5.07-1.87l-1.73,2.67a11.21,11.21,0,0,0,6.93,2.39,9,9,0,0,0,6.27-2.26,9.2,9.2,0,0,0,2.4-6.8V26.38Zm-1.33,11.34a4.92,4.92,0,0,1-3.6,1.46,4,4,0,0,1-3.47-1.46,5.29,5.29,0,0,1-1.33-3.61,4.86,4.86,0,0,1,1.33-3.6,4.14,4.14,0,0,1,3.47-1.59,4.47,4.47,0,0,1,3.6,1.46,5.38,5.38,0,0,1,1.33,3.73A4.87,4.87,0,0,1,395.19,37.72Z" transform="translate(0.01 0.02)"/></svg>