<svg xmlns="http://www.w3.org/2000/svg" width="250" height="102.01" viewBox="0 0 250 102.01"><path d="M118.87,51.41l-10.32,2.75V10.51l17.7,7.57V47.4l3.71,1V14L101.53.1V62.91l24.22-8.63ZM131.1,13.57l10.41-3.93V53.29L124,47.7V18.13l-3.68-1.4V51.11l28.2,11.24V0L125.18,10.62Zm-66,64H69V73.06H65.13Zm25.33,1.87c-4.95,0-6.41,2.77-6.41,6v4.1c0,3.72,1.68,6,6.55,6a16.82,16.82,0,0,0,5.69-1l-.61-2.93a16.2,16.2,0,0,1-4.74.73c-2.35,0-3-.73-3-2.61V89h8.62V85.64C96.54,82.3,95.43,79.41,90.46,79.41Zm2.39,6.42H87.92v-.76c0-1.46.67-2.48,2.58-2.48s2.35,1,2.35,2.48ZM65.13,95.21H69V79.73H65.13ZM15.67,74H11.13L4.58,84.49l6.93,10.72h4.61L9,84.49ZM0,95.21H4V74H0Zm33-5.12L30,79.73h-4L22.86,90.09,21,79.73H17.32l2.86,15.48h4.49l3.27-11.13,3.28,11.13H35.7l2.86-15.48H34.93ZM46.38,79.41a20,20,0,0,0-5.31.74l.48,2.95a22,22,0,0,1,4.29-.48c2.48,0,3,.61,3,2.33v1.62H45.08c-3.15,0-4.52,1.2-4.52,4.35,0,2.67,1.2,4.61,4,4.61a8.48,8.48,0,0,0,4.61-1.37l.29,1h3.17V85C52.67,81.13,51.24,79.41,46.38,79.41ZM48.8,91.65a6.17,6.17,0,0,1-2.93.8c-1.21,0-1.56-.48-1.56-1.56s.35-1.53,1.62-1.53H48.8Zm8,3.56h3.88V72.86l-3.88.55ZM81.63,82.82l.26-3.09h-4V75.34L74,75.88v3.85H71.71v3.09H74v8.61c0,2.77,1.43,4.1,4.26,4.1a10.85,10.85,0,0,0,3.41-.61l-.45-3a7.44,7.44,0,0,1-1.94.31,1.22,1.22,0,0,1-1.4-1.36v-8.1Zm122-3.41c-5.31,0-6.74,2.93-6.74,6.11v3.91c0,3.18,1.43,6.1,6.74,6.1s6.74-2.92,6.74-6.1V85.52C210.33,82.34,208.9,79.41,203.59,79.41Zm2.86,10.14c0,1.75-.79,2.68-2.86,2.68s-2.86-.93-2.86-2.68V85.39c0-1.75.79-2.67,2.86-2.67s2.86.92,2.86,2.67ZM189,79.41a8.2,8.2,0,0,0-4.9,1.62l-.38-1.3h-3.08V102l3.88-.54V95.08a21,21,0,0,0,4.13.45c3.59,0,5.12-2,5.12-5.47V84.79C193.74,81.26,192.08,79.41,189,79.41Zm.88,10.75c0,1.39-.53,2.07-1.93,2.07a17.31,17.31,0,0,1-3.43-.42V84.12a5.42,5.42,0,0,1,3.46-1.4c1.43,0,1.9.7,1.9,2ZM172.06,85.8c-2.1-.54-2.19-.63-2.19-1.88,0-1,.28-1.33,2-1.33a27.47,27.47,0,0,1,4.25.45l.39-3.09a20.38,20.38,0,0,0-4.64-.54c-4.42,0-5.79,1.37-5.79,4.48s.45,3.94,4.23,4.87c2.51.6,2.7,1.08,2.7,2,0,1.18-.25,1.56-2,1.56a17.43,17.43,0,0,1-4.61-.67l-.54,3a18.21,18.21,0,0,0,5.34.89c4.67,0,5.6-1.85,5.6-4.83C176.8,87.52,176.38,87,172.06,85.8Zm48.06-6.39c-5.31,0-6.74,2.93-6.74,6.11v3.91c0,3.18,1.43,6.1,6.74,6.1s6.74-2.92,6.74-6.1V85.52C226.86,82.34,225.43,79.41,220.12,79.41ZM223,89.55c0,1.75-.79,2.68-2.86,2.68s-2.86-.93-2.86-2.68V85.39c0-1.75.79-2.67,2.86-2.67s2.86.92,2.86,2.67Zm11.16-8.1-.26-1.72h-3.27V95.21h3.88v-10a30.37,30.37,0,0,1,4.1-2.26l-.38-3.56A17.35,17.35,0,0,0,234.14,81.45Zm13.28,10.83a1.22,1.22,0,0,1-1.4-1.36v-8.1h3.72l.26-3.09h-4V75.34l-3.87.54v3.85h-2.32v3.09h2.32v8.61c0,2.77,1.42,4.1,4.26,4.1a10.79,10.79,0,0,0,3.4-.61l-.45-3A7.37,7.37,0,0,1,247.42,92.28ZM156,79.41a20.11,20.11,0,0,0-5.32.74l.49,2.95a22,22,0,0,1,4.28-.48c2.49,0,3,.61,3,2.33v1.62h-3.72c-3.14,0-4.51,1.2-4.51,4.35,0,2.67,1.21,4.61,4,4.61a8.46,8.46,0,0,0,4.61-1.37l.29,1h3.18V85C162.27,81.13,160.84,79.41,156,79.41Zm2.41,12.24a6.13,6.13,0,0,1-2.92.8c-1.21,0-1.56-.48-1.56-1.56s.35-1.53,1.62-1.53h2.86ZM100,77.54h3.88V73.06H100Zm16.5,5.28.25-3.09h-4V75.34l-3.88.54v3.85h-2.32v3.09h2.32v8.61c0,2.77,1.43,4.1,4.26,4.1a10.74,10.74,0,0,0,3.4-.61l-.44-3a7.5,7.5,0,0,1-1.94.31,1.22,1.22,0,0,1-1.4-1.36v-8.1ZM100,95.21h3.88V79.73H100ZM125.3,85.8c-2.1-.54-2.19-.63-2.19-1.88,0-1,.28-1.33,2-1.33a27.34,27.34,0,0,1,4.25.45l.39-3.09a20.38,20.38,0,0,0-4.64-.54c-4.42,0-5.78,1.37-5.78,4.48s.44,3.94,4.22,4.87c2.51.6,2.7,1.08,2.7,2,0,1.18-.25,1.56-2,1.56a17.43,17.43,0,0,1-4.61-.67l-.54,3a18.22,18.22,0,0,0,5.35.89c4.67,0,5.59-1.85,5.59-4.83C130,87.52,129.63,87,125.3,85.8Zm16.91-6.39A8.15,8.15,0,0,0,137.32,81l-.38-1.3h-3.09V102l3.88-.54V95.08a20.9,20.9,0,0,0,4.13.45c3.6,0,5.12-2,5.12-5.47V84.79C147,81.26,145.32,79.41,142.21,79.41Zm.89,10.75c0,1.39-.54,2.07-1.93,2.07a17.41,17.41,0,0,1-3.44-.42V84.12a5.45,5.45,0,0,1,3.47-1.4c1.42,0,1.9.7,1.9,2Z" transform="translate(0 0)" fill="#fff"/></svg>
