<svg xmlns="http://www.w3.org/2000/svg" width="250" height="99.89" viewBox="0 0 250 99.89"><path fill="#fff" d="M85.56,76.69q0-4.43-1.54-6.57C83,68.69,81.23,68,78.72,68s-4.27.72-5.3,2.15-1.54,3.61-1.54,6.56.51,5.11,1.53,6.48,2.79,2.06,5.31,2.06a4.73,4.73,0,0,0,1.07-.07L82,88.75,85,87.3,83,84Q85.56,82.13,85.56,76.69ZM81.4,81A3.46,3.46,0,0,1,76,81a9.41,9.41,0,0,1-.71-4.32,10.06,10.06,0,0,1,.72-4.41,3.29,3.29,0,0,1,5.34,0,10,10,0,0,1,.73,4.41A9.38,9.38,0,0,1,81.4,81Zm13.89.83-.32.1a5.81,5.81,0,0,1-2,.34q-1.12,0-1.41-.66a7.16,7.16,0,0,1-.29-2.48V72.68H88V79.1a9.43,9.43,0,0,0,.87,4.71c.58.94,1.72,1.41,3.4,1.41a6.44,6.44,0,0,0,3-1v.69h3.23V72.68H95.29Zm15.54-.24V76.5a4.17,4.17,0,0,0-1-3.14,4.79,4.79,0,0,0-3.37-1,18.81,18.81,0,0,0-4.93.71l.09,2.28,4.56-.19a1.68,1.68,0,0,1,1.09.28,1.29,1.29,0,0,1,.34,1v.76l-2.59.19a5.78,5.78,0,0,0-3.2,1,3.33,3.33,0,0,0-1.05,2.78c0,2.68,1.26,4,3.76,4a8,8,0,0,0,3.57-.86,4.42,4.42,0,0,0,1.49.69,9.37,9.37,0,0,0,2,.17l.09-2.47a.89.89,0,0,1-.6-.34A2,2,0,0,1,110.83,81.6Zm-3.25.56-.36.1a8.05,8.05,0,0,1-2,.29c-.8,0-1.19-.45-1.19-1.35a1.32,1.32,0,0,1,1.36-1.47l2.2-.19Zm6.5,2.77h3.25V67.78h-3.25Zm6.41,0h3.25V72.68h-3.25Zm0-13.82h3.25V67.78h-3.25Zm11,11.17a1,1,0,0,1-.72-.22.9.9,0,0,1-.27-.53c0-.2,0-.55,0-1v-5h3V72.68h-3V69.27h-3.25v3.41H125.8v2.79h1.43v5.1a6,6,0,0,0,.8,3.66,3.68,3.68,0,0,0,3,1,12,12,0,0,0,2.48-.37l-.15-2.62Zm13.36-.68V76.5a4.17,4.17,0,0,0-1-3.14,4.81,4.81,0,0,0-3.37-1,18.88,18.88,0,0,0-4.94.71l.1,2.28,4.56-.19a1.7,1.7,0,0,1,1.09.28,1.29,1.29,0,0,1,.34,1v.76l-2.59.19a5.84,5.84,0,0,0-3.21,1,3.36,3.36,0,0,0-1,2.78q0,4,3.76,4a8.08,8.08,0,0,0,3.57-.86,4.34,4.34,0,0,0,1.49.69,9.33,9.33,0,0,0,2,.17l.1-2.47a.91.91,0,0,1-.61-.34A2,2,0,0,1,144.86,81.6Zm-3.25.56-.36.1a8.06,8.06,0,0,1-2,.29c-.79,0-1.18-.45-1.18-1.35a1.32,1.32,0,0,1,1.35-1.47l2.21-.19Zm-6-11.83h3.11V67.09h-3.11Zm5.24,0H144V67.09h-3.11Zm11.84,12a1,1,0,0,1-.72-.22.84.84,0,0,1-.26-.53,8.41,8.41,0,0,1,0-1v-5h3V72.68h-3V69.27h-3.25v3.41H147v2.79h1.43v5.1a6.1,6.1,0,0,0,.8,3.66,3.68,3.68,0,0,0,3,1,12,12,0,0,0,2.48-.37l-.15-2.62Zm9.57-4.81a19.76,19.76,0,0,1-2.43-.54.68.68,0,0,1-.47-.66.78.78,0,0,1,.35-.7,3.38,3.38,0,0,1,1.55-.22,38.36,38.36,0,0,1,4.21.39l.05-2.72-.8-.15a22.35,22.35,0,0,0-3.91-.46,5.46,5.46,0,0,0-3.37,1,3.46,3.46,0,0,0-1.31,2.94,3.38,3.38,0,0,0,.92,2.71,6,6,0,0,0,2.81,1.07,12.58,12.58,0,0,1,2.32.54.73.73,0,0,1,.45.69.76.76,0,0,1-.42.7,3.82,3.82,0,0,1-1.6.23,38.54,38.54,0,0,1-4.19-.39l-.09,2.74.77.15a21.36,21.36,0,0,0,3.88.44q4.88,0,4.88-4a3.55,3.55,0,0,0-.83-2.62A5.23,5.23,0,0,0,162.29,77.47Zm19.15-5.09a9.13,9.13,0,0,0-4.08,1.15,4,4,0,0,0-3-1.15,6,6,0,0,0-2.86,1v-.68h-3.23V84.93h3.25V75.76l.29-.09a5.34,5.34,0,0,1,1.87-.35,1.33,1.33,0,0,1,1.38.75,7.25,7.25,0,0,1,.32,2.56v6.3h3.25V78.58c0-.64,0-1.57-.1-2.79l.36-.12a6.7,6.7,0,0,1,1.9-.35,1.32,1.32,0,0,1,1.35.75,5.86,5.86,0,0,1,.34,2.32v6.54h3.25V78.29a8.39,8.39,0,0,0-.93-4.5A3.69,3.69,0,0,0,181.44,72.38Zm12.1,0c-2,0-3.44.56-4.3,1.68A7.66,7.66,0,0,0,188,78.78q0,6.43,5.58,6.44t5.58-6.44a7.59,7.59,0,0,0-1.29-4.72Q196.54,72.38,193.54,72.38Zm1.78,9.17a2.25,2.25,0,0,1-3.57,0,5.91,5.91,0,0,1-.49-2.77,5.76,5.76,0,0,1,.49-2.75,2.3,2.3,0,0,1,3.57,0,5.74,5.74,0,0,1,.5,2.75A5.89,5.89,0,0,1,195.32,81.55Zm12.43-9.17a6.06,6.06,0,0,0-3,1v-.68h-3.23V84.93h3.25V75.76l.29-.09a5.48,5.48,0,0,1,1.92-.35,1.47,1.47,0,0,1,1.46.75,5.63,5.63,0,0,1,.36,2.32v6.54H212V78.29a8.51,8.51,0,0,0-.92-4.46A3.66,3.66,0,0,0,207.75,72.38Zm7.16,12.55h3.25V72.68h-3.25Zm0-13.82h3.25V67.78h-3.25Zm11,11.17a1,1,0,0,1-.72-.22.84.84,0,0,1-.26-.53,8.41,8.41,0,0,1,0-1v-5h3V72.68h-3V69.27h-3.25v3.41h-1.43v2.79h1.43v5.1a6.1,6.1,0,0,0,.8,3.66,3.68,3.68,0,0,0,3,1,12,12,0,0,0,2.48-.37l-.15-2.62Zm9-9.9q-3,0-4.29,1.68a7.59,7.59,0,0,0-1.29,4.72q0,6.43,5.58,6.44t5.58-6.44a7.59,7.59,0,0,0-1.29-4.72Q237.94,72.38,234.94,72.38Zm1.78,9.17a2.24,2.24,0,0,1-3.56,0,5.76,5.76,0,0,1-.5-2.77,5.62,5.62,0,0,1,.5-2.75,2.29,2.29,0,0,1,3.56,0,5.74,5.74,0,0,1,.5,2.75A5.89,5.89,0,0,1,236.72,81.55Zm9.4-7.57v-1.3h-3.23V84.93h3.25V76.72l.49-.17c.94-.3,2.06-.58,3.37-.86V72.38A12.34,12.34,0,0,0,246.12,74ZM88.53,28.28c1.7-1.26,2.54-3.7,2.54-7.33,0-2.95-.51-5.15-1.54-6.57s-2.79-2.15-5.3-2.15S80,13,78.93,14.38,77.39,18,77.39,20.94s.51,5.11,1.53,6.48,2.79,2.06,5.31,2.06a4.53,4.53,0,0,0,1.07-.08L87.48,33l3.06-1.45Zm-1.62-3a3.46,3.46,0,0,1-5.36,0A9.54,9.54,0,0,1,80.84,21a9.89,9.89,0,0,1,.73-4.41,3.28,3.28,0,0,1,5.33,0A9.89,9.89,0,0,1,87.63,21,9.38,9.38,0,0,1,86.91,25.27Zm10.88,4.21a6.44,6.44,0,0,0,3-1v.68h3.23V16.94H100.8V26.1l-.32.1a6.06,6.06,0,0,1-2,.34q-1.11,0-1.41-.66a7.16,7.16,0,0,1-.29-2.48V16.94H93.52v6.41a9.32,9.32,0,0,0,.88,4.72Q95.27,29.48,97.79,29.48Zm19.26,0,.1-2.48a.87.87,0,0,1-.61-.33,1.88,1.88,0,0,1-.19-.82V20.76a4.19,4.19,0,0,0-1-3.14,4.84,4.84,0,0,0-3.38-1,18.81,18.81,0,0,0-4.93.71l.1,2.28,4.56-.2a1.69,1.69,0,0,1,1.09.29,1.31,1.31,0,0,1,.34,1v.76l-2.6.19a5.8,5.8,0,0,0-3.2,1,3.32,3.32,0,0,0-1,2.78q0,4,3.76,4a8,8,0,0,0,3.56-.86,4.63,4.63,0,0,0,1.49.69A9.51,9.51,0,0,0,117.05,29.48Zm-4-3.06-.37.09a7.6,7.6,0,0,1-2,.3c-.79,0-1.19-.45-1.19-1.35A1.32,1.32,0,0,1,110.89,24l2.21-.2ZM122.85,12H119.6V29.18h3.25Zm6.4,4.9H126V29.18h3.25Zm0-4.9H126v3.33h3.25ZM139,29.11l-.15-2.62-1.84.05a1.07,1.07,0,0,1-.72-.22.84.84,0,0,1-.26-.53,8.41,8.41,0,0,1,0-1v-5h3V16.94h-3V13.53h-3.25v3.41h-1.43v2.79h1.43v5.09a6.13,6.13,0,0,0,.8,3.67,3.7,3.7,0,0,0,3,1A11.92,11.92,0,0,0,139,29.11Zm5.26-17.76h-3.1v3.23h3.1Zm5.24,0h-3.1v3.23h3.1Zm-5,10.36a5.78,5.78,0,0,0-3.2,1,3.32,3.32,0,0,0-1.05,2.78c0,2.68,1.26,4,3.76,4a8,8,0,0,0,3.57-.86,4.63,4.63,0,0,0,1.49.69,9.37,9.37,0,0,0,2,.17l.09-2.48a.87.87,0,0,1-.6-.33,2,2,0,0,1-.2-.82V20.76a4.15,4.15,0,0,0-1-3.14,4.79,4.79,0,0,0-3.37-1,18.81,18.81,0,0,0-4.93.71l.09,2.28,4.56-.2a1.67,1.67,0,0,1,1.09.29,1.27,1.27,0,0,1,.34,1v.76Zm2.59,4.71-.36.09a7.66,7.66,0,0,1-2,.3c-.8,0-1.19-.45-1.19-1.35A1.32,1.32,0,0,1,144.92,24l2.2-.2Zm13.1,2.69-.14-2.62-1.85.05a1,1,0,0,1-.71-.22.8.8,0,0,1-.27-.53c0-.2,0-.55,0-1v-5h3V16.94h-3V13.53H154v3.41h-1.43v2.79H154v5.09a6.13,6.13,0,0,0,.8,3.67,3.7,3.7,0,0,0,3,1A11.92,11.92,0,0,0,160.22,29.11Zm11.18-3.6a3.55,3.55,0,0,0-.82-2.62,5.35,5.35,0,0,0-2.78-1.17,16.43,16.43,0,0,1-2.43-.54.66.66,0,0,1-.47-.66.76.76,0,0,1,.35-.69,3.46,3.46,0,0,1,1.56-.22A38.24,38.24,0,0,1,171,20l.05-2.72-.8-.15a22.36,22.36,0,0,0-3.9-.46,5.42,5.42,0,0,0-3.37,1,3.44,3.44,0,0,0-1.31,2.94,3.31,3.31,0,0,0,.92,2.7,5.89,5.89,0,0,0,2.8,1.08,11.2,11.2,0,0,1,2.33.54.73.73,0,0,1,.45.69.77.77,0,0,1-.43.7,3.82,3.82,0,0,1-1.6.23,38.42,38.42,0,0,1-4.18-.39l-.1,2.74.78.15a21.27,21.27,0,0,0,3.88.44Q171.41,29.48,171.4,25.51Zm5.6,3.77.3,0a10.63,10.63,0,0,0,1.72.15,5.53,5.53,0,0,0,4.22-1.39q1.27-1.38,1.28-4.93t-1.16-5a4.31,4.31,0,0,0-3.61-1.48,5.51,5.51,0,0,0-2.77,1v-.66h-3.23V34.33H177Zm0-9.21.3-.12a4.76,4.76,0,0,1,1.81-.37c1.41,0,2.11,1.13,2.11,3.38a5.61,5.61,0,0,1-.52,2.84,2.07,2.07,0,0,1-1.92.84,13.65,13.65,0,0,1-1.78-.15Zm16.47,8.55a4.63,4.63,0,0,0,1.49.69,9.51,9.51,0,0,0,2,.17L197,27a.87.87,0,0,1-.61-.33,1.88,1.88,0,0,1-.19-.82V20.76a4.19,4.19,0,0,0-1-3.14,4.81,4.81,0,0,0-3.37-1,18.83,18.83,0,0,0-4.94.71l.1,2.28,4.56-.2a1.69,1.69,0,0,1,1.09.29,1.31,1.31,0,0,1,.34,1v.76l-2.6.19a5.8,5.8,0,0,0-3.2,1,3.35,3.35,0,0,0-1,2.78q0,4,3.76,4A8,8,0,0,0,193.47,28.62Zm-4.05-3.16A1.32,1.32,0,0,1,190.78,24l2.21-.2v2.63l-.37.09a7.6,7.6,0,0,1-2,.3C189.82,26.81,189.42,26.36,189.42,25.46Zm19,.05a3.55,3.55,0,0,0-.83-2.62,5.31,5.31,0,0,0-2.77-1.17,16.1,16.1,0,0,1-2.43-.54.65.65,0,0,1-.47-.66.74.74,0,0,1,.35-.69,3.38,3.38,0,0,1,1.55-.22,38.57,38.57,0,0,1,4.21.39l0-2.72-.8-.15a22.35,22.35,0,0,0-3.91-.46,5.44,5.44,0,0,0-3.37,1,3.46,3.46,0,0,0-1.31,2.94,3.34,3.34,0,0,0,.92,2.7,5.94,5.94,0,0,0,2.8,1.08,11,11,0,0,1,2.33.54.73.73,0,0,1,.45.69.76.76,0,0,1-.42.7,3.85,3.85,0,0,1-1.6.23,38.54,38.54,0,0,1-4.19-.39l-.09,2.74.77.15a21.27,21.27,0,0,0,3.88.44Q208.44,29.48,208.44,25.51Zm7.84-3.79a15.84,15.84,0,0,1-2.42-.54.66.66,0,0,1-.48-.66.75.75,0,0,1,.36-.69,3.38,3.38,0,0,1,1.55-.22,38.57,38.57,0,0,1,4.21.39l0-2.72-.8-.15a22.36,22.36,0,0,0-3.9-.46,5.42,5.42,0,0,0-3.37,1,3.46,3.46,0,0,0-1.31,2.94,3.34,3.34,0,0,0,.92,2.7,5.89,5.89,0,0,0,2.8,1.08,11.2,11.2,0,0,1,2.33.54.73.73,0,0,1,.45.69.75.75,0,0,1-.43.7,3.79,3.79,0,0,1-1.6.23,38.42,38.42,0,0,1-4.18-.39l-.1,2.74.78.15a21.27,21.27,0,0,0,3.88.44q4.88,0,4.87-4a3.55,3.55,0,0,0-.82-2.62A5.35,5.35,0,0,0,216.28,21.72ZM53.76,61.52H40.61l-1.67-5.41-1.8,5.41H11.81V77.18L0,78l11.81,1.11V94.55H26.57l1.86,5.39,1.79-5.39H53.76V78.66l11.78-1.09-11.78-.93ZM15.57,90.78l0-11.27,6,.56,3.69,10.71Zm12.77-2.65L24.25,76.28l-8.68.64,0-11.61H35.93ZM50,90.77H31.45l7.4-22.28,3.49,11.25L50,79Zm0-14.4L45.13,76,41.82,65.31H50ZM45.39,36.48l-7.31,1.94V7.5l12.53,5.36V33.63l2.63.71V10L33.1.13V44.62l17.16-6.11ZM54.05,9.67l7.37-2.78V37.81l-12.4-4v-21l-2.61-1V36.26l20,8V.06L49.86,7.58Z" transform="translate(0 -0.06)"/></svg>