<svg xmlns="http://www.w3.org/2000/svg" width="218.56" height="102.01" viewBox="0 0 218.56 102.01"><path fill="#fff" d="M115.38,13.57l10.41-3.93V53.29L108.28,47.7V18.13l-3.68-1.4V51.11l28.2,11.24V0L109.46,10.62ZM103.15,51.41,92.83,54.16V10.51l17.7,7.57V47.4l3.71,1V14L85.81.1V62.91L110,54.28ZM18.05,84.54c0-3.86-.68-6.73-2-8.59s-3.69-2.8-7-2.8-5.63.93-7,2.8-2,4.72-2,8.57S.67,91.19,2,93s3.68,2.68,7,2.68a6.64,6.64,0,0,0,1.41-.09l2.88,4.7,4-1.89-2.65-4.28Q18.05,91.64,18.05,84.54Zm-5.49,5.63c-.63,1.11-1.81,1.66-3.54,1.66s-2.9-.55-3.53-1.66-1-3-1-5.63a12.83,12.83,0,0,1,1-5.76A3.63,3.63,0,0,1,9,77a3.62,3.62,0,0,1,3.52,1.79,12.83,12.83,0,0,1,1,5.76Q13.5,88.5,12.56,90.17Zm18.32,1.09-.42.13a8,8,0,0,1-2.65.44c-1,0-1.6-.28-1.86-.86a9.25,9.25,0,0,1-.38-3.23V79.29H21.28v8.38c0,2.88.38,4.94,1.15,6.16s2.26,1.84,4.48,1.84a8.46,8.46,0,0,0,4-1.28v.9h4.26v-16H30.88Zm20.51-.32V84.28A5.38,5.38,0,0,0,50,80.19c-.91-.86-2.39-1.28-4.45-1.28a25.21,25.21,0,0,0-6.51.92l.13,3,6-.26a2.3,2.3,0,0,1,1.44.37,1.73,1.73,0,0,1,.44,1.36v1l-3.42.26a7.73,7.73,0,0,0-4.22,1.26,4.35,4.35,0,0,0-1.38,3.64c0,3.5,1.65,5.24,5,5.24a10.57,10.57,0,0,0,4.7-1.12,5.86,5.86,0,0,0,2,.9,12.12,12.12,0,0,0,2.61.22l.13-3.23a1.17,1.17,0,0,1-.8-.43A2.46,2.46,0,0,1,51.39,90.94Zm-4.29.73-.48.13a10.18,10.18,0,0,1-2.65.39c-1,0-1.57-.59-1.57-1.76a1.73,1.73,0,0,1,1.79-1.92l2.91-.26Zm8.58,3.62H60V72.89H55.68Zm8.45-18.05h4.28V72.89H64.13Zm0,18.05h4.28v-16H64.13Zm14.52-3.46a1.34,1.34,0,0,1-.94-.28,1.12,1.12,0,0,1-.35-.69,13.59,13.59,0,0,1,0-1.36V82.94h3.94V79.29H77.31V74.84H73v4.45H71.13v3.65H73v6.65c0,2.33.35,3.92,1.06,4.79s2,1.29,3.93,1.29a16.31,16.31,0,0,0,3.27-.48l-.19-3.42Zm11.78-.19h-.74L86.78,79.29H82.56l3.93,16h3L87.74,102h4.19l5.64-22.72H93.34Zm18-18.11h-8V95.29h4.42V89h3.59a7.66,7.66,0,0,0,5.77-2,8.06,8.06,0,0,0,2-5.84Q116.16,73.54,108.42,73.53Zm0,11.65h-3.55V77.31h3.55a3.22,3.22,0,0,1,2.5.88,4.25,4.25,0,0,1,.8,2.89Q111.68,85.18,108.38,85.18Zm17-6.27q-4,0-5.67,2.19a9.86,9.86,0,0,0-1.69,6.16q0,8.42,7.36,8.41t7.36-8.41a9.86,9.86,0,0,0-1.7-6.16Q129.38,78.91,125.41,78.91Zm2.35,12a3,3,0,0,1-4.71,0,7.66,7.66,0,0,1-.65-3.61,7.54,7.54,0,0,1,.65-3.59,3,3,0,0,1,4.71,0,7.54,7.54,0,0,1,.65,3.59A7.66,7.66,0,0,1,127.76,90.87Zm12.4-11.58H135.9v16h4.29V84.57l.64-.22c1.24-.39,2.72-.76,4.45-1.12V78.91A16.2,16.2,0,0,0,140.16,81Zm13.92,12.54a1.37,1.37,0,0,1-1-.28,1.12,1.12,0,0,1-.35-.69,13.59,13.59,0,0,1-.05-1.36V82.94h3.94V79.29h-3.94V74.84h-4.28v4.45h-1.89v3.65h1.89v6.65c0,2.33.35,3.92,1.05,4.79s2,1.29,3.94,1.29a16.33,16.33,0,0,0,3.26-.48l-.19-3.42Zm10.81-19.32c-1.75,0-3,.43-3.64,1.31s-1,2.46-1,4.77v.7h-1.73v3.65h1.73V95.29h4.29V82.94h3.87V79.29h-3.87v-.67a3.56,3.56,0,0,1,.32-1.76,1.4,1.4,0,0,1,1.28-.51q1,0,2.37.06l.06-3.49-.67-.09A17.33,17.33,0,0,0,164.89,72.51Zm12.39,6.4q-4,0-5.67,2.19a9.86,9.86,0,0,0-1.69,6.16q0,8.42,7.36,8.41t7.36-8.41a9.86,9.86,0,0,0-1.7-6.16Q181.25,78.91,177.28,78.91Zm2.35,12a3,3,0,0,1-4.7,0,7.52,7.52,0,0,1-.66-3.61,7.4,7.4,0,0,1,.66-3.59,3,3,0,0,1,4.7,0,7.4,7.4,0,0,1,.66,3.59A7.52,7.52,0,0,1,179.63,90.87ZM188,95.29h4.28V72.89H188Zm8.44-18.05h4.29V72.89h-4.29Zm0,18.05h4.29v-16h-4.29ZM216.86,81.1q-1.7-2.19-5.66-2.19t-5.67,2.19a9.86,9.86,0,0,0-1.69,6.16q0,8.42,7.36,8.41t7.36-8.41A9.86,9.86,0,0,0,216.86,81.1Zm-3.31,9.77a3,3,0,0,1-4.71,0,7.66,7.66,0,0,1-.65-3.61,7.54,7.54,0,0,1,.65-3.59,3,3,0,0,1,4.71,0,7.42,7.42,0,0,1,.65,3.59A7.53,7.53,0,0,1,213.55,90.87Z" transform="translate(0 0)"/></svg>