<svg xmlns="http://www.w3.org/2000/svg" width="548.63" height="622.44" viewBox="0 0 548.63 622.44"><path fill="#2e2f38" d="M42.37,495.14l37-36.88c17.85-17.8-10.09-45.73-28-27.9l-37,36.88C-3.45,485,24.49,513,42.37,495.14Zm128.5-351.33,55.47-55.33c17.85-17.8-10.09-45.73-28-27.9L142.9,115.91C125.06,133.71,153,161.64,170.87,143.81Zm38.61,352-9.25,9.22c-7.25,7.23-7.77,20.58.12,27.78s20.08,7.87,27.85.12l9.25-9.22c7.25-7.23,7.77-20.58-.12-27.78s-20.07-7.87-27.85-.12ZM337.75,88.94l55.47-55.33c17.85-17.8-10.09-45.72-28-27.9L309.78,61C291.94,78.85,319.87,106.77,337.75,88.94Zm113,389.38-55.47,55.33c-17.85,17.8,10.09,45.72,28,27.9l55.47-55.33c17.84-17.81-10.1-45.73-28-27.9ZM349.09,579.75,339.84,589c-7.25,7.23-7.77,20.58.12,27.78s20.08,7.87,27.85.12l9.25-9.22c7.25-7.23,7.77-20.58-.12-27.78S356.86,572,349.09,579.75ZM14.87,578.36l-9.25,9.22c-7.25,7.23-7.77,20.58.12,27.78s20.08,7.87,27.85.12l9.25-9.22c7.25-7.23,7.77-20.58-.12-27.78S22.64,570.6,14.87,578.36ZM459.57,358l-9.25,9.22c-17.88,17.83-45.82-10.1-28-27.9l64.72-64.55c17.85-17.8-10.09-45.72-28-27.9l-18.49,18.44c-17.88,17.83-45.82-10.1-28-27.9L431.13,219l18.49-18.44c17.85-17.8-10.09-45.72-28-27.9l-27.74,27.66c-17.88,17.83-45.81-10.1-28-27.9l9.25-9.22c17.85-17.8-10.09-45.72-28-27.9l-55.47,55.33c-17.88,17.83-45.82-10.1-28-27.9s-10.09-45.73-28-27.9L97.13,273.1c-17.85,17.8,10.09,45.72,28,27.9l18.49-18.44c17.88-17.83,45.82,10.1,28,27.9l-37,36.88-37,36.88c-17.85,17.8,10.09,45.72,28,27.9l37-36.88c17.88-17.83,45.82,10.1,28,27.9L125.8,467.69l-74,73.77c-17.85,17.8,10.09,45.72,28,27.9L209.24,440.27l18.49-18.44c17.88-17.83,45.82,10.09,28,27.9s10.09,45.72,28,27.9L311.41,450c17.88-17.83,45.82,10.09,28,27.9l-9.25,9.22c-17.85,17.8,10.09,45.72,28,27.9l129.43-129.1c17.85-17.81-10.09-45.74-28-27.91Zm83.32-55.21c-7.91-7.22-20.08-7.87-27.85-.12l-9.25,9.22c-7.25,7.24-7.77,20.58.12,27.78s20.08,7.87,27.85.12l9.25-9.22C550.26,323.31,550.78,310,542.89,302.77Z" transform="translate(0 0.01)"/></svg>