<svg xmlns="http://www.w3.org/2000/svg" width="834" height="834" viewBox="0 0 834 834"><rect width="834" height="834" fill="none"/><path fill="#f0e5ff" d="M197,182.61c-238.4,147-201.35,266.08-49.78,440.77s269.65,148.65,446.1,103S875.5,413.61,762,217,435.41,35.61,197,182.61Z" opacity=".67" transform="translate(0.09 -0.36)"/><path fill="#303c80" d="M577.31,456.41c8.77-47.33,17.6-103.12,25.77-151.28,8.26-48.65,15.74-88.78,21.8-106l-15.74-5.54c-6.64,18.91-14.36,60.79-22.5,108.76-8.23,48.44-17,103.85-25.73,151ZM375.21,598.75a27.07,27.07,0,0,0,9.59,21c5.88,5.05,13.73,7.88,22.24,9,17,2.26,39-2,61.25-12.94,44.9-22.13,92.92-72.5,109-159.46l-16.4-3c-15.17,81.92-59.94,127.8-100,147.54-20.2,10-38.79,13.07-51.67,11.36-6.43-.85-10.88-2.83-13.57-5.13a10.42,10.42,0,0,1-3.78-8.39Zm291.89,12.1c-1.32-26.25-23.69-42.24-50.4-51.36-27.27-9.3-62.61-12.84-97.25-12.24s-69.5,5.39-95.87,13.26c-13.13,3.92-24.66,8.74-33.1,14.53-8.17,5.61-15.27,13.46-15.27,23.71h16.68c0-1.9,1.36-5.38,8-10,6.41-4.39,16.08-8.61,28.43-12.3,24.58-7.34,57.81-12,91.39-12.56s66.84,2.91,91.57,11.35c25.28,8.62,38.36,21.06,39.13,36.4ZM199.77,771.39c21.73-22.21,60.77-38.21,108.94-50.64,47.83-12.33,103-20.77,155.6-28.88C516.61,683.81,566.73,676,603.48,665c18.33-5.52,34.12-12.09,45.33-20.42,11.38-8.47,19-19.55,18.29-33.68l-16.66.83c.33,6.66-2.88,13-11.58,19.46-8.88,6.61-22.47,12.5-40.2,17.84-35.38,10.67-84.17,18.28-136.89,26.41C409.36,683.46,353.34,692,304.55,704.6,256.09,717.1,213,734,187.85,759.72ZM624.88,199.12a8.34,8.34,0,1,0-15.74-5.54ZM569.11,454.89l8.2,1.52ZM187.85,759.72a8.34,8.34,0,1,0,11.92,11.67Z" transform="translate(0.09 -0.36)"/><path fill="#303c80" d="M579,294.84a8.34,8.34,0,0,1,10.47-7.37l25,6.7a8.34,8.34,0,0,1,5.38,11.62l-12.68,26.82a8.35,8.35,0,0,1-9.7,4.49l-14.75-4a8.34,8.34,0,0,1-6.16-8.74Z" transform="translate(0.09 -0.36)"/><path fill="#4c5fcb" d="M541.17,134.49a25,25,0,0,1,30.64-17.69l145,38.85a25,25,0,0,1,17.69,30.64l-6,22.32-50.4,89.85a25,25,0,0,1-28.29,11.93l-97.38-26.1a25,25,0,0,1-18.55-24.47l1.28-103Z" transform="translate(0.09 -0.36)"/><rect width="58.38" height="183.48" x="605.41" y="80.74" fill="#b380ff" opacity=".4" rx="20.85" transform="translate(303.85 740.46) rotate(-75)"/><path fill="#abb1ba" d="M692.86,181.6l30.72-84.4-23.51-8.56L669.35,173Zm30.72-84.4a12.51,12.51,0,0,0-23.51-8.56ZM669.35,173a12.51,12.51,0,0,0,23.51,8.56Z" transform="translate(0.09 -0.36)"/><path fill="#abb1ba" d="M603.76,157.72l15.59-88.45-24.64-4.34-15.59,88.44Zm15.59-88.45a12.51,12.51,0,0,0-24.64-4.34Zm-40.23,84.1a12.51,12.51,0,1,0,24.64,4.35Z" transform="translate(0.09 -0.36)"/></svg>