<svg xmlns="http://www.w3.org/2000/svg" width="834" height="834" viewBox="0 0 834 834"><rect width="834" height="834" fill="none"/><path d="M813.16,295.37c-30.28-251.09-177-263.93-444-202.3S67.25,262,22.29,424.76,206.21,772.64,476.41,750.52,843.43,546.45,813.16,295.37Z" fill="#efb400" opacity="0.1"/><path d="M595.31,533.3a7.42,7.42,0,1,0-7.34-7.42A7.38,7.38,0,0,0,595.31,533.3Zm-26-7.42a7.34,7.34,0,1,1-7.34-7.41A7.38,7.38,0,0,1,569.29,525.88Zm-40.7,7.88a7.42,7.42,0,1,0-7.34-7.41A7.38,7.38,0,0,0,528.59,533.76ZM506.74,495.3a7.34,7.34,0,1,1-7.34-7.41A7.38,7.38,0,0,1,506.74,495.3Zm-7.84-25.94a7.42,7.42,0,1,0-7.34-7.42A7.38,7.38,0,0,0,498.9,469.36Zm.5-33.36a7.42,7.42,0,1,0-7.34-7.42A7.38,7.38,0,0,0,499.4,436Z" fill="#efb400" fill-rule="evenodd" opacity="0.5"/><path d="M658.65,531.44a7,7,0,1,0-6.88-7A6.91,6.91,0,0,0,658.65,531.44Zm0,13.9A20.85,20.85,0,1,0,638,524.49,20.74,20.74,0,0,0,658.65,545.34Z" fill="#efb400" fill-rule="evenodd" opacity="0.5"/><path d="M380.35,259.93a7.44,7.44,0,0,1,7.46-7.41h79a37.18,37.18,0,0,1,37.31,37.06v71.36a22.31,22.31,0,0,0,22.39,22.24h58.16a7.41,7.41,0,1,1,0,14.82H526.52a37.18,37.18,0,0,1-37.31-37.06V289.58a22.32,22.32,0,0,0-22.39-22.24h-79A7.44,7.44,0,0,1,380.35,259.93Z" fill="#4c5fcb"/><path d="M595.43,267.34a7.41,7.41,0,1,0-7.46-7.41A7.44,7.44,0,0,0,595.43,267.34Zm-25.9-7.41a7.46,7.46,0,1,1-7.46-7.41A7.44,7.44,0,0,1,569.53,259.93Zm-33.36,0a7.46,7.46,0,1,1-7.46-7.41A7.44,7.44,0,0,1,536.17,259.93Z" fill="#efb400" fill-rule="evenodd" opacity="0.5"/><path d="M659,265.49a7,7,0,1,0-7-6.95A7,7,0,0,0,659,265.49Zm0,13.9a20.85,20.85,0,1,0-21-20.85A20.91,20.91,0,0,0,659,279.39Z" fill="#efb400" fill-rule="evenodd" opacity="0.5"/><circle cx="658.86" cy="391.98" r="45.87" fill="#4c5fcb"/><polygon points="679.71 379.89 649.28 410.16 646.95 408.09 633.84 395.47 638.16 391.15 649.22 401.69 675.2 375.72 679.71 379.89" fill="#fff"/><path d="M263.9,447.86s-10.33,41.46-51.65,41.46-51.66-41.46-51.66-41.46S47,468.44,47,582.61h330.6C377.55,468.85,263.9,447.86,263.9,447.86Z" fill="#4fc3f7"/><path d="M212.25,510.05c-51.66,0-51.66-62.19-51.66-62.19V385.67H263.9v62.19S263.9,510.05,212.25,510.05Z" fill="#ff9800"/><path d="M139.93,323.47a20.66,20.66,0,1,0-20.66,20.73A20.7,20.7,0,0,0,139.93,323.47Zm186,0a20.66,20.66,0,1,1-20.66-20.73A20.68,20.68,0,0,1,325.89,323.47Z" fill="#ffa726"/><path d="M305.23,261.28c0-79.14-186-51.53-186,0v72.56c0,51.52,41.61,93.29,93,93.29s93-41.77,93-93.29Z" fill="#ffb74d"/><path d="M212.25,168c-62.76,0-103.31,51.06-103.31,114v23.7l20.66,17.76V271.65l124-41.47,41.33,41.47v51.82l20.66-18.05V282c0-41.72-10.72-83.09-62-93.29L243.24,168Z" fill="#424242"/><path d="M160.59,323.47a10.34,10.34,0,1,0,10.33-10.36A10.36,10.36,0,0,0,160.59,323.47Zm82.65,0a10.33,10.33,0,1,1,10.33,10.37A10.36,10.36,0,0,1,243.24,323.47Z" fill="#784719"/><path d="M212.25,510.05c51.65,0,69.68-40.74,71.8-56.26a137.68,137.68,0,0,0-20.15-5.93s-10.33,41.46-51.65,41.46-51.66-41.46-51.66-41.46a137.36,137.36,0,0,0-20.16,5.86C142.53,469.22,160.59,510.05,212.25,510.05Z" fill="#01579b"/></svg>
