<svg xmlns="http://www.w3.org/2000/svg" xmlns:xlink="http://www.w3.org/1999/xlink" width="834" height="834" viewBox="0 0 200 200"><defs><clipPath id="a"><rect width="200" height="200" fill="none"/></clipPath><linearGradient id="b" x1="61.61" y1="57.06" x2="108.34" y2="57.06" gradientUnits="userSpaceOnUse"><stop offset="0" stop-color="#a1dbff" stop-opacity="0"/><stop offset="0.15" stop-color="#a1dbff" stop-opacity="0.01"/><stop offset="0.28" stop-color="#a1dbff" stop-opacity="0.05"/><stop offset="0.4" stop-color="#a1dbff" stop-opacity="0.12"/><stop offset="0.52" stop-color="#a1dbff" stop-opacity="0.22"/><stop offset="0.63" stop-color="#a1dbff" stop-opacity="0.34"/><stop offset="0.74" stop-color="#a1dbff" stop-opacity="0.5"/><stop offset="0.85" stop-color="#a1dbff" stop-opacity="0.68"/><stop offset="0.95" stop-color="#a1dbff" stop-opacity="0.89"/><stop offset="1" stop-color="#a1dbff"/></linearGradient><linearGradient id="c" x1="61.61" y1="94.05" x2="108.34" y2="94.05" xlink:href="#b"/><linearGradient id="d" x1="61.61" y1="131.05" x2="108.34" y2="131.05" xlink:href="#b"/></defs><g clip-path="url(#a)"><rect width="200" height="200" fill="#fff"/><path d="M56.42,168.48c54.37,30.27,140.14-.06,133.58-59.7-2.86-26-14.66-40.1-33.1-58.49C119,12.46,67,12.34,25.78,27.38S2.06,138.21,56.42,168.48Z" fill="#009cff" opacity="0.1"/><path d="M169.29,111.4s-2.48,9.94-12.39,9.94-12.39-9.94-12.39-9.94-27.25,4.94-27.25,32.31h79.28C196.54,116.43,169.29,111.4,169.29,111.4Z" fill="#4fc3f7"/><path d="M156.9,126.31c-12.39,0-12.39-14.91-12.39-14.91V96.49h24.78V111.4S169.29,126.31,156.9,126.31Z" fill="#ff9800"/><path d="M139.56,81.57a5,5,0,1,0-5,5A5,5,0,0,0,139.56,81.57Zm44.59,0a5,5,0,1,1-5-5A5,5,0,0,1,184.15,81.57Z" fill="#ffa726"/><path d="M179.2,66.66c0-19-44.6-12.36-44.6,0v17.4a22.3,22.3,0,1,0,44.6,0Z" fill="#ffb74d"/><path d="M156.9,44.29c-15.05,0-24.78,12.24-24.78,27.34v5.68l5,4.26V69.14l29.73-9.94,9.91,9.94V81.57l4.95-4.33V71.63c0-10-2.57-19.93-14.86-22.37l-2.48-5Z" fill="#424242"/><path d="M144.51,81.57A2.48,2.48,0,1,0,147,79.09,2.49,2.49,0,0,0,144.51,81.57Zm19.82,0a2.48,2.48,0,1,1,2.48,2.49A2.48,2.48,0,0,1,164.33,81.57Z" fill="#784719"/><path d="M156.9,126.31c12.39,0,16.71-9.76,17.22-13.49a33.94,33.94,0,0,0-4.83-1.42s-2.48,9.94-12.39,9.94-12.39-9.94-12.39-9.94a32.54,32.54,0,0,0-4.83,1.41C140.18,116.52,144.51,126.31,156.9,126.31Z" fill="#01579b"/><polygon points="34 66 30 60.5 30 55 38 55 38 60.5 34 66" fill="#ff9800"/><ellipse cx="41.77" cy="49.88" rx="1.73" ry="1.77" fill="#ffa726"/><ellipse cx="26.23" cy="49.88" rx="1.73" ry="1.77" fill="#ffa726"/><path d="M42,44.37c0-6.95-16-4.58-16,0v6.4a8,8,0,1,0,16,0Z" fill="#ffb74d"/><path d="M34,37c-5.49,0-9,4.25-9,9.53v2L26.8,50V45.67L37.6,42.2l3.6,3.47V50L43,48.53v-2c0-3.46-.9-6.93-5.4-7.8L36.7,37Z" fill="#ff5722"/><path d="M37.45,50.76a.89.89,0,1,0-.86-.88A.88.88,0,0,0,37.45,50.76Z" fill="#784719"/><path d="M30.55,50.76a.89.89,0,1,0-.87-.88A.88.88,0,0,0,30.55,50.76Z" fill="#784719"/><path d="M38.38,60,34,60.92,29.62,60S20,61.85,20,72H48C48,61.85,38.38,60,38.38,60Z" fill="#cfd8dc"/><polygon points="33 63.75 32 72 36 72 35 63.75 36 62.83 34 61 32 62.83 33 63.75" fill="#3f51b5"/><path d="M38.51,101c0-2.91,2.71-5.26,6.06-5.26s6.06,2.35,6.06,5.26Z" fill="#2196f3"/><path d="M46.08,94.23h-3v2.25s.25.75,1.49.75a1.55,1.55,0,0,0,1.54-.75Z" fill="#ef8d3c"/><ellipse cx="47.22" cy="92.35" rx="1.14" ry="1.13" fill="#ef8d3c"/><ellipse cx="41.92" cy="92.35" rx="1.14" ry="1.13" fill="#ef8d3c"/><path d="M47.6,89.88c0-1.66-1.36-1.67-3-1.67s-3,0-3,1.67v2.84a3,3,0,0,0,6.06,0Z" fill="#ffb74d"/><path d="M44.4,86.71a3.88,3.88,0,0,0-3.62,4.19V92l.76.75V90.47l4.78-1.66,1.28,1.66v2.25l.76-.75v-.9c0-1.82-.11-3.16-2.28-3.61l-.36-.75Z" fill="#424242"/><path d="M16.61,101c0-2.91,2.72-5.26,6.06-5.26s6.07,2.35,6.07,5.26Z" fill="#2196f3"/><path d="M24.19,94.23h-3v2.25s.25.75,1.48.75,1.55-.75,1.55-.75Z" fill="#ef8d3c"/><ellipse cx="25.33" cy="92.35" rx="1.14" ry="1.13" fill="#ef8d3c"/><ellipse cx="20.02" cy="92.35" rx="1.14" ry="1.13" fill="#ef8d3c"/><path d="M25.7,89.88c0-1.66-1.35-1.67-3-1.67s-3,0-3,1.67v2.84a3,3,0,0,0,6.06,0Z" fill="#ffb74d"/><path d="M22.51,86.71a3.87,3.87,0,0,0-3.62,4.19V92l.75.75V90.47l4.78-1.66,1.28,1.66v2.25l.76-.75v-.9c0-1.82-.1-3.16-2.27-3.61l-.37-.75Z" fill="#424242"/><path d="M29.83,90.09a1.14,1.14,0,1,0-1.13,1.13A1.14,1.14,0,0,0,29.83,90.09Zm9.85,0A1.14,1.14,0,1,1,38.55,89,1.14,1.14,0,0,1,39.68,90.09Z" fill="#ffa726"/><path d="M36.65,96.48a3,3,0,0,1-6.06,0" fill="#ff9800"/><path d="M36.46,96.48l-2.84.58-2.84-.58s-6.25,1.15-6.25,7.51H42.71C42.71,97.65,36.46,96.48,36.46,96.48Z" fill="#4fc3f7"/><path d="M33.62,99.49a3,3,0,0,1-3-3v-3h6.06v3A3,3,0,0,1,33.62,99.49Z" fill="#ff9800"/><path d="M38.93,87.22c0-4.42-10.61-2.88-10.61,0v3.3a5.31,5.31,0,0,0,10.61,0Z" fill="#ffb74d"/><path d="M33.62,101A4.53,4.53,0,0,0,38.13,97a9.64,9.64,0,0,0-1.48-.52,3,3,0,0,1-6.06,0,9.64,9.64,0,0,0-1.48.52A4.54,4.54,0,0,0,33.62,101Z" fill="#01579b"/><path d="M33.62,81.45a6.19,6.19,0,0,0-6.06,6.14V89l1.51,1.51v-3l7-2.25,2.12,2.25v3L39.68,89v-.6c0-2.42-.63-5.12-3.63-5.71l-.61-1.2Z" fill="#795548"/><path d="M30.59,89.72a.76.76,0,1,0,.76-.76A.76.76,0,0,0,30.59,89.72Zm4.55,0a.76.76,0,1,1,.75.75A.76.76,0,0,1,35.14,89.72Z" fill="#784719"/><rect x="29.68" y="134.17" width="8.63" height="13.92" fill="#ff9800"/><path d="M43.49,129a1.73,1.73,0,1,0-1.72,1.74A1.73,1.73,0,0,0,43.49,129ZM28,129a1.73,1.73,0,1,1-1.73-1.74A1.73,1.73,0,0,1,28,129Z" fill="#ffa726"/><path d="M41.77,123.73c0-6.64-15.54-4.32-15.54,0v6.09a7.77,7.77,0,1,0,15.54,0Z" fill="#ffb74d"/><path d="M29.68,129a.87.87,0,1,0,.87-.87A.87.87,0,0,0,29.68,129Zm6.91,0a.87.87,0,1,1,.86.87A.87.87,0,0,1,36.59,129Z" fill="#784719"/><path d="M34,115.9c-5.24,0-8.63,4.29-8.63,9.57v2L27.1,129V124.6l10.35-3.48,3.45,3.48V129l1.73-1.52v-2c0-3.5-.89-7-5.18-7.83l-.86-1.74Z" fill="#424242"/><path d="M47.81,150.7H20.19c0-9.58,9.49-11.31,9.49-11.31L34,147.22l4.32-7.83S47.81,141.15,47.81,150.7Zm-6-33.93S40.15,115,34.22,115s-8,1.74-8,1.74a67.93,67.93,0,0,0-.86,8.7A50,50,0,0,1,34,124.6a50,50,0,0,1,8.63.87A67.93,67.93,0,0,0,41.77,116.77Z" fill="#00acc1"/><ellipse cx="27.96" cy="147.22" rx="2.59" ry="2.61" fill="#263238"/><path d="M43.49,149H41.77v1.74h1.72Zm-5.17,0H36.59v1.74h1.73ZM27.1,147.22a.86.86,0,1,1,.86.87A.86.86,0,0,1,27.1,147.22Z" fill="#cfd8dc"/><path d="M29.68,139.39v-2.93A11.2,11.2,0,0,0,28,139.11a17.29,17.29,0,0,0-.9,6.37.86.86,0,1,0,1.72,0,15.48,15.48,0,0,1,.82-5.82l.09-.2Z" fill="#37474f"/><path d="M40.89,144.72a21.6,21.6,0,0,0-.91-5.64,14,14,0,0,0-1.66-3.23v3.54l0,.07c0,.07,0,.14.08.2a20.09,20.09,0,0,1,.8,5.06c-2,.54-2.57,2.91-2.57,4.24h1.73c0-.1,0-2.61,1.72-2.61s1.73,2.51,1.73,2.61h1.72C43.49,147.63,42.92,145.24,40.89,144.72Z" fill="#37474f"/></g><path d="M101.06,49.78a1.5,1.5,0,0,0-2.12,2.12l3.65,3.66h-41v3h41l-3.65,3.65a1.49,1.49,0,0,0,0,2.12,1.5,1.5,0,0,0,2.12,0l7.28-7.27Z" fill="url(#b)"/><path d="M101.06,86.78a1.5,1.5,0,0,0-2.12,2.12l3.65,3.65h-41v3h41l-3.65,3.66a1.49,1.49,0,0,0,0,2.12,1.5,1.5,0,0,0,2.12,0l7.28-7.28Z" fill="url(#c)"/><path d="M101.06,123.77a1.51,1.51,0,0,0-2.12,0,1.49,1.49,0,0,0,0,2.12l3.65,3.66h-41v3h41l-3.65,3.65a1.49,1.49,0,0,0,0,2.12,1.5,1.5,0,0,0,2.12,0l7.28-7.27Z" fill="url(#d)"/></svg>
