<svg xmlns="http://www.w3.org/2000/svg" width="216.22" height="48.48" viewBox="0 0 216.22 48.48"><path d="M104.17,18.45H96.92v31h7.25v-31ZM1.89,49.43h22V42.58H9.54V2.9H1.89V49.43ZM49.48,30.76H34.05A7.08,7.08,0,0,1,36.31,25,8.41,8.41,0,0,1,42,23.11a7.11,7.11,0,0,1,7.51,7.65m7,2.75c0-.74,0-1.36,0-1.9,0-.25,0-.51,0-.77a13.23,13.23,0,0,0-1-4.74,13.41,13.41,0,0,0-3.07-4.42,14.4,14.4,0,0,0-10.19-4,16.53,16.53,0,0,0-6.51,1.23,12.85,12.85,0,0,0-4.78,3.43,15.32,15.32,0,0,0-3,5.17,19.56,19.56,0,0,0-1,6.45,20.3,20.3,0,0,0,.26,3.35,19,19,0,0,0,.71,3,14.48,14.48,0,0,0,2.89,5.18A13.94,13.94,0,0,0,35.56,49a17.14,17.14,0,0,0,6.81,1.25,16.1,16.1,0,0,0,5.37-.84,14,14,0,0,0,4.18-2.23,11.56,11.56,0,0,0,2.89-3.22,10.47,10.47,0,0,0,1.43-3.82h-7.3a7.37,7.37,0,0,1-2,2.86,6.89,6.89,0,0,1-4.52,1.2,9.93,9.93,0,0,1-3.79-.64,6.54,6.54,0,0,1-2.48-1.73,7.37,7.37,0,0,1-1.44-2.57,12.5,12.5,0,0,1-.59-3.13H56.2a19.73,19.73,0,0,0,.28-2.58m30.66-6.38,4-8.68H83.3l-3.92,9.34L74.66,39.06,70.42,28.77,66.16,18.45H58.37l5,11.27,8.8,19.69h4.84Zm17.19-16.22a5.15,5.15,0,0,0,1.55-3.76,5.35,5.35,0,1,0-10.69,0,5.17,5.17,0,0,0,1.55,3.76,5.42,5.42,0,0,0,7.59,0m31.61,23a11.1,11.1,0,0,1-.65,3.79,9.59,9.59,0,0,1-1.86,3.12,8.76,8.76,0,0,1-6.65,2.93,8.42,8.42,0,0,1-3.72-.8,9,9,0,0,1-4.7-5.25,11.51,11.51,0,0,1,0-7.57A9.35,9.35,0,0,1,120.19,27a6.38,6.38,0,0,1,.52-.52,8.93,8.93,0,0,1,2.35-1.62,8.55,8.55,0,0,1,3.72-.79A8.67,8.67,0,0,1,133.43,27l.12.15a9.65,9.65,0,0,1,1.74,3,11.08,11.08,0,0,1,.65,3.78m0,15.49h7.25v-31h-7.25v4.19A10.08,10.08,0,0,0,131.78,19a12.33,12.33,0,0,0-5.41-1.33A16.06,16.06,0,0,0,119.91,19a14.79,14.79,0,0,0-5,3.57,16.71,16.71,0,0,0-2.65,3.82c-.22.46-.44.91-.62,1.39a17.48,17.48,0,0,0,0,12.47,16,16,0,0,0,3.27,5.17,15.07,15.07,0,0,0,5,3.57,16.06,16.06,0,0,0,6.46,1.29,12.06,12.06,0,0,0,5.41-1.33,9.94,9.94,0,0,0,4.16-3.67v4.2Zm38.87-15.49a10.87,10.87,0,0,1-.66,3.79,9.74,9.74,0,0,1-1.85,3.12A9,9,0,0,1,169.41,43a8.62,8.62,0,0,1-3.76.8,8.43,8.43,0,0,1-3.73-.8,9,9,0,0,1-2.86-2.13,8.84,8.84,0,0,1-1.83-3.12,11.51,11.51,0,0,1,0-7.57c0-.1.07-.22.11-.32a9,9,0,0,1,4.56-4.94,8.57,8.57,0,0,1,3.73-.79,8.76,8.76,0,0,1,3.76.79A9,9,0,0,1,172.28,27a9.74,9.74,0,0,1,1.85,3.12,10.23,10.23,0,0,1,.62,2.81,7.77,7.77,0,0,1,.06,1m0,15.49h7.24v-31h-7.24v4.19A10.11,10.11,0,0,0,170.64,19a12.33,12.33,0,0,0-5.41-1.33A16,16,0,0,0,158.78,19a14.83,14.83,0,0,0-5,3.57,16.5,16.5,0,0,0-3.26,5.21c-.14.36-.26.74-.38,1.12a17.13,17.13,0,0,0,.36,11.37,16.32,16.32,0,0,0,3.26,5.17,15.25,15.25,0,0,0,5,3.57,16,16,0,0,0,6.45,1.29,12.06,12.06,0,0,0,5.41-1.33,10,10,0,0,0,4.17-3.67v4.18Zm43.3,0V31a26.33,26.33,0,0,0-.44-5.32,11.72,11.72,0,0,0-1.55-3.86,9.28,9.28,0,0,0-3.63-3.07,12.81,12.81,0,0,0-5.67-1.13,13.54,13.54,0,0,0-6,1.29,9.42,9.42,0,0,0-4.06,3.82V18.43h-7.25v31h7.25v-16a11.65,11.65,0,0,1,1.83-6.69,7.27,7.27,0,0,1,8.84-1.95,5.87,5.87,0,0,1,2.07,1.95,8.37,8.37,0,0,1,1.09,3,19.89,19.89,0,0,1,.34,3.73v16Z" transform="translate(-1.89 -1.77)" fill="#0079c2"/></svg>
