<svg xmlns="http://www.w3.org/2000/svg" width="256.02" height="64" viewBox="0 0 256.02 64"><path d="M49.2,58.7c-7.1,0-10.7-3.5-10.7-10.4,0-6.5,4.2-10.8,10.6-10.8a12.65,12.65,0,0,1,5.4.9l.4.1v4.4H53.5c-.7-1.9-1.7-3.5-4.6-3.5-4.8,0-7.6,3.1-7.6,8.4s3,8.4,8.2,8.4a13.24,13.24,0,0,0,4.7-1.1l.7,1.7C55,56.9,52.8,58.7,49.2,58.7Z" fill="#003c7d"/><path d="M23.8,26.3H8.1A7.57,7.57,0,0,1,8,24.8l2-.5a1.66,1.66,0,0,0,1.2-1.7l.1-4.3V9.2a2.2,2.2,0,0,0-.9-1.9l-2-.5a4.87,4.87,0,0,1,.1-1.2h7.7a5.7,5.7,0,0,1,.1,1.3l-1.4.4c-.9,0-1.2.1-1.2,1.1v9.9l.1,6,5.5-.1a3.73,3.73,0,0,0,3.5-2.9l1.3.3Z" fill="#003c7d"/><path d="M32,0V32H64V0ZM57.1,7.5c-.4.1-.7.3-.7,1.2v9.9c0,6-4.4,8.1-8.1,8.1-3.9,0-8.1-1.5-8.1-7.3V8.9a1.46,1.46,0,0,0-.9-1.5l-1.8-.7a5.28,5.28,0,0,1,.1-1.2h7.8a2.85,2.85,0,0,1,0,1.3l-1.7.4a.8.8,0,0,0-.7.9V18.8a5.09,5.09,0,0,0,5.4,5.5c3.1,0,5.2-1.6,5.2-6.3V9.2a1.88,1.88,0,0,0-1.6-2l-1.3-.4V5.6h7.6a4.87,4.87,0,0,1,.1,1.2Z" fill="#003c7d"/><path d="M0,32V64H32V32ZM27.4,58H20.6c0-.4-.1-.9-.1-1.2l1.2-.4c.9-.3,1-1.1,1-2a4.1,4.1,0,0,0-.1-1.1l-.3-9.5-.1-1.5H22l-5.7,12H14.5L9.4,42.1h.1v1.5l-1,11.3q-.15.75.3.9l2.6.8a5.28,5.28,0,0,1-.1,1.3h-7a4.82,4.82,0,0,1,0-1.2l1-.5a3.08,3.08,0,0,0,1.4-2.1L8,41.4a1.75,1.75,0,0,0-.7-1.6l-1.7-.5a5.28,5.28,0,0,1,.1-1.2h5.2l5,12.7h.3l5.7-12.7h5a4.1,4.1,0,0,1,.1,1.1l-1.3.5a2.07,2.07,0,0,0-1,2.3l1,12.8a2.05,2.05,0,0,0,1,1.5l1.2.7C27.6,56.9,27.6,57.7,27.4,58Z" fill="#003c7d"/><path d="M177.5,52.3c-4.8,0-7.2-2.4-7.2-6.9s2.8-7.2,7.1-7.2a7.52,7.52,0,0,1,3.6.7l.3.1v2.9h-.9a3,3,0,0,0-3.1-2.4c-3.2,0-5.1,2-5.1,5.6s2,5.6,5.5,5.6a7.8,7.8,0,0,0,3.1-.7l.5,1.2A5.81,5.81,0,0,1,177.5,52.3Z" fill="#003c7d"/><path d="M103.9,46.9c.1,3.5,1.7,3.9,3.9,3.9a12.41,12.41,0,0,0,2.7-.3l.3,1.1a7.86,7.86,0,0,1-3.5.8c-3.3,0-5.2-.9-5.2-5.3,0-3.2,1.9-5.7,4.8-5.7s4,2,4,5.1V47l-7-.1Zm2.9-4.5c-1.5,0-2.7,1.2-2.9,3.5H109C109,43.6,108.4,42.4,106.8,42.4Z" fill="#003c7d"/><path d="M120.8,52.3c-.9,0-1.1-.9-1.1-1.6a4,4,0,0,1-3.1,1.6c-2,0-4.1-1.1-4.1-5.1,0-3.6,2.3-5.9,5.1-5.9a5.84,5.84,0,0,1,2.1.3V38.5h-2v-.9a22.58,22.58,0,0,1,2.9-.4c.5,0,.8.1.8.7v8.9l.1,3.9h2l.1.8A7.24,7.24,0,0,1,120.8,52.3Zm-.9-9.5a9.82,9.82,0,0,0-2.3-.3c-2.5,0-3.1,2-3.1,4.7,0,2.5,1.1,3.3,2.9,3.3a5.27,5.27,0,0,0,2.4-.8l.1-3.1V42.8Z" fill="#003c7d"/><path d="M130.6,52.1H125c0-.3-.1-.7,0-.8l1.2-.4a1.44,1.44,0,0,0,.7-1.1V42.6h-2v-.9a22.58,22.58,0,0,1,2.9-.4c.5,0,.8.1.8.7v8.4c0,.3.1.4.3.4l1.7.3A1.7,1.7,0,0,1,130.6,52.1Z" fill="#003c7d"/><path d="M135.6,52.3a8.69,8.69,0,0,1-3.5-.7l.1-3.1h.9a2.58,2.58,0,0,0,2.5,2.7c1.2,0,2.3-.4,2.3-1.5,0-.9-.8-1.3-2.5-2-1.5-.5-3.1-1.5-3.1-3.5s1.7-2.9,3.7-2.9a8.24,8.24,0,0,1,3.1.7l-.3,2.7-.7-.1a2.31,2.31,0,0,0-2.4-2c-1.2,0-1.9.7-1.9,1.3,0,1.2,1.2,1.6,2.4,2.1,1.5.7,3.2,1.5,3.2,3.3C139.8,51.6,137.6,52.3,135.6,52.3Z" fill="#003c7d"/><path d="M148.8,44.1a4.25,4.25,0,0,0-2.5-1.5c-2.1,0-3.1,1.1-3.1,4.1,0,2.4.7,4.1,3.6,4.1a11.87,11.87,0,0,0,2.4-.4l.3,1.1a5.68,5.68,0,0,1-3.2.8c-3.9,0-4.9-1.6-4.9-5.6a5.27,5.27,0,0,1,5.1-5.5c.9,0,3.2,0,3.2,1.3A1.49,1.49,0,0,1,148.8,44.1Z" fill="#003c7d"/><path d="M163.8,52.1H159c0-.3-.1-.7,0-.9l.8-.4c.3-.1.5-.5.5-1.2V45.2c0-1.7-.3-2.4-2.3-2.4a6.52,6.52,0,0,0-3.3.9v3.2l.1,3.5c0,.5,0,.5.4.7l1.9.3a2.77,2.77,0,0,1-.1.9h-5.5c0-.3-.1-.7,0-.8l.9-.4c.4-.1.7-.7.7-1.3V38.7h-2v-.9a22.58,22.58,0,0,1,2.9-.4c.5,0,.8.1.8.7v4.7a7.13,7.13,0,0,1,4-1.5c2.9,0,3.2,1.5,3.2,3.6v5.6c0,.3.1.4.4.4l1.5.3C163.8,51.2,163.8,51.9,163.8,52.1Z" fill="#003c7d"/><path d="M184.7,46.9c.1,3.5,1.7,3.9,3.9,3.9a12.41,12.41,0,0,0,2.7-.3l.3,1.1a7.86,7.86,0,0,1-3.5.8c-3.3,0-5.2-.9-5.2-5.3,0-3.2,1.9-5.7,4.8-5.7s4,2,4,5.1V47l-7-.1Zm2.9-4.5c-1.5,0-2.7,1.2-2.9,3.5h5.1C189.8,43.6,189.2,42.4,187.6,42.4Z" fill="#003c7d"/><path d="M205.9,52.1h-4.7c0-.3-.1-.7,0-.9l.5-.4a1.27,1.27,0,0,0,.5-1.1V45.2c0-1.7-.3-2.4-2.3-2.4a6.42,6.42,0,0,0-3.2.9v6.8c0,.3,0,.4.3.5l1.7.3a2.77,2.77,0,0,1-.1.9h-5.2c0-.3-.1-.7,0-.8l.9-.4c.4-.1.7-.8.7-1.2V42.9h-2V42a22.58,22.58,0,0,1,2.9-.4c.5,0,.7.1.7.7v.4a6.77,6.77,0,0,1,3.9-1.5c2.9,0,3.2,1.5,3.2,3.6v2l.1,3.7c0,.3,0,.3.3.3l1.6.3C205.9,51.3,205.9,51.9,205.9,52.1Z" fill="#003c7d"/><path d="M213.7,52a5.56,5.56,0,0,1-2.3.4c-2.5,0-3.6-.7-3.5-3.1V42.8h-1.6v-.7l3.1-2.8h.3v2.1h3.6v1.3h-3.6v6.5c0,1.5.7,1.7,2,1.7a5.08,5.08,0,0,0,1.7-.3Z" fill="#003c7d"/><path d="M222.5,43.2a3.5,3.5,0,0,0-1.2-.3,4.07,4.07,0,0,0-2.8.8v2.9l.1,3.6c0,.3,0,.5.3.5l2,.3a2.77,2.77,0,0,1-.1.9h-5.6c0-.3-.1-.7-.1-.8l.9-.5a1.64,1.64,0,0,0,.7-1.5V42.6h-2v-.9a22.58,22.58,0,0,1,2.9-.4c.5,0,.8.1.8.7v.8a3.79,3.79,0,0,1,3.1-1.6c.7,0,1.1.1,1.3.1Z" fill="#003c7d"/><path d="M235.8,51.5a5.4,5.4,0,0,1-2.7.8c-.7,0-1.3-.3-1.5-1.5a4.55,4.55,0,0,1-3.6,1.6c-2.8,0-3.1-1.3-3.1-3.2V42.7h-1.7v-.9a20.93,20.93,0,0,1,2.8-.4c.5,0,.8.1.8.7v6.6c0,1.2.1,2.3,1.7,2.3a5.3,5.3,0,0,0,3.1-1.5l.1-2.7v-4h-2v-.9a22.58,22.58,0,0,1,2.9-.4c.5,0,.8.1.8.7v8.6h2.1Z" fill="#003c7d"/><path d="M255.9,52.1h-4.8a3.08,3.08,0,0,1-.1-.9l.7-.4c.3-.1.5-.5.5-1.1V45.2c0-1.7-.1-2.4-2.1-2.4a7.07,7.07,0,0,0-3.1.8v6.9c0,.3.1.4.3.4l1.7.3a4.91,4.91,0,0,1-.1,1.1H244c0-.3-.1-.7-.1-.9l.7-.4c.3-.1.4-.5.5-.8V45.4c0-1.7-.1-2.4-2.1-2.4a6.33,6.33,0,0,0-3.1.9v3.2l.1,3.5c0,.3,0,.5.3.5l1.6.3a4.91,4.91,0,0,1-.1,1.1h-5.1a2.81,2.81,0,0,1-.1-.8l.8-.4a1.15,1.15,0,0,0,.8-1.2V43.2h-2v-.9a22.58,22.58,0,0,1,2.9-.4c.5,0,.8.1.8.7v.3a6.37,6.37,0,0,1,3.7-1.5c1.7,0,2.5.5,2.8,1.3a6.84,6.84,0,0,1,3.9-1.3c2.9,0,3.2,1.5,3.2,3.6v2l.1,3.6c0,.4,0,.4.4.4l1.5.3A.48.48,0,0,1,255.9,52.1Z" fill="#003c7d"/><circle cx="127.6" cy="38" r="1.2" fill="#003c7d"/><path d="M99.8,50.8a1.11,1.11,0,0,1-.7-.9L97.9,41a1.65,1.65,0,0,1,.7-1.6l.9-.3a2.2,2.2,0,0,0-.1-.8H95.7L92,47.9h-.1l-3.6-9.5H84.4c0,.3-.1.7-.1.8l1.2.4a.85.85,0,0,1,.5,1.1l-1.3,8.7a1.92,1.92,0,0,1-1.1,1.5l-.6.3a2.2,2.2,0,0,0,.1.8h5.1a3.44,3.44,0,0,0,.1-.9l-2-.4c-.3,0-.3-.3-.3-.7l1.2-7.9v-.9h.1l3.6,9.9,1.3-.4,3.7-9.3H96v1.1l.8,6.5v.8c0,.7-.1,1.2-.8,1.5l-.8.3a2.2,2.2,0,0,0,.1.8h5.1c0-.3.1-.7.1-.9Z" fill="#003c7d"/><path d="M93.6,26.9H83.7c0-.3-.1-.7-.1-.9l1.2-.4c.5-.1.7-.7.7-1.1V15.6c0-.5-.1-1.1-.5-1.2L83.8,14a2.81,2.81,0,0,1,.1-.8H89c0,.3.1.7.1.8l-.9.3c-.5.1-.8.1-.8.8v6.5l.1,4,3.2-.1a2.68,2.68,0,0,0,2.4-1.9l.9.1Z" fill="#003c7d"/><path d="M96.8,21.7c.1,3.5,1.7,3.9,3.9,3.9a12.41,12.41,0,0,0,2.7-.3l.3,1.1a7.86,7.86,0,0,1-3.5.8c-3.3,0-5.2-.9-5.2-5.3,0-3.2,1.9-5.7,4.8-5.7s4,2,4,5.1v.5C103.8,21.7,96.8,21.7,96.8,21.7Zm3-4.5c-1.5,0-2.7,1.2-2.8,3.3h5.1C101.9,18.4,101.4,17.2,99.8,17.2Z" fill="#003c7d"/><path d="M105.6,26.1l1.2-.4a1.44,1.44,0,0,0,.7-1.1V17.7h-2v-.9a22.58,22.58,0,0,1,2.9-.4c.5,0,.8.1.8.7v8.4c0,.3.1.4.3.4l1.7.3a2.77,2.77,0,0,1-.1.9h-5.5Z" fill="#003c7d"/><path d="M120.8,27.1c-.9,0-1.1-.9-1.1-1.6a4,4,0,0,1-3.1,1.6c-2,0-4.1-1.1-4.1-5.1,0-3.6,2.3-5.9,4.9-5.9a5.84,5.84,0,0,1,2.1.3V13.3h-2v-.8a22.58,22.58,0,0,1,2.9-.4c.5,0,.8.1.8.7v8.8l.1,3.9h2l.1.8A5.24,5.24,0,0,1,120.8,27.1Zm-.9-9.4a9.82,9.82,0,0,0-2.3-.3c-2.5,0-3.1,2-3.1,4.7,0,2.5,1.1,3.3,2.9,3.3a5.27,5.27,0,0,0,2.4-.8l.1-2.9v-4Z" fill="#003c7d"/><path d="M128.4,27.1a8.69,8.69,0,0,1-3.5-.7l.1-3.1h.9a2.41,2.41,0,0,0,2.5,2.5c1.2,0,2.3-.4,2.3-1.5,0-.9-.8-1.3-2.5-2-1.5-.5-3.1-1.5-3.1-3.5S127,16,129,16a8.24,8.24,0,0,1,3.1.7l-.3,2.5-.7-.1a2.31,2.31,0,0,0-2.4-2c-1.2,0-1.9.7-1.9,1.3,0,1.2,1.2,1.6,2.4,2.1,1.5.7,3.2,1.5,3.2,3.3C132.4,26.4,130.4,27.1,128.4,27.1Z" fill="#003c7d"/><path d="M152,14.3c-.3.1-.5.1-.5.8v6.7a5.17,5.17,0,0,1-5.5,5.5c-2.7,0-5.5-.9-5.5-4.9V15.5a1.88,1.88,0,0,0-.5-1.1l-1.2-.4a2.81,2.81,0,0,1,.1-.8h5.2v.9l-1.1.3c-.4.1-.5.3-.5.7v7.2a3.37,3.37,0,0,0,3.6,3.7c2.1,0,3.6-1.1,3.6-4.1V15.8c0-.7-.1-1.1-1.1-1.3l-.8-.3v-.8h5.1v.8Z" fill="#003c7d"/><path d="M166.6,26.9h-4.7c0-.3-.1-.7,0-.9l.5-.4a1.27,1.27,0,0,0,.5-1.1V20c0-1.7-.3-2.4-2.1-2.4a6.42,6.42,0,0,0-3.2.9v6.8c0,.3,0,.4.3.5l1.7.3a2.77,2.77,0,0,1-.1.9h-5.2c0-.3-.1-.7,0-.8l.9-.4c.4-.1.7-.8.7-1.1V17.8h-2v-.9a22.58,22.58,0,0,1,2.9-.4c.5,0,.7.1.7.7v.5a6.77,6.77,0,0,1,3.9-1.5c2.9,0,3.2,1.5,3.2,3.6v2l.1,3.7c0,.3,0,.3.3.3l1.6.3C166.7,26.1,166.7,26.7,166.6,26.9Z" fill="#003c7d"/><path d="M168,26.1l1.2-.4a1.44,1.44,0,0,0,.7-1.1V17.7h-2v-.9a22.58,22.58,0,0,1,2.9-.4c.5,0,.8.1.8.7v8.4c0,.3.1.4.3.4l1.7.3a2.77,2.77,0,0,1-.1.9H168Z" fill="#003c7d"/><path d="M175.4,18.4c-.1-.4-.7-.9-1.1-1.2v-.9h4.3a4.1,4.1,0,0,1-.1,1.1h-1.3l2.5,7.6,2.4-6.1c.1-.1.1-.4.1-.5,0-.4-.1-.7-.5-.8l-.5-.3a2.48,2.48,0,0,1,.1-.9h3.5v.8a3.19,3.19,0,0,0-1.2,1.6l-3.3,8.3-1.3.4Z" fill="#003c7d"/><path d="M187.1,21.7c.1,3.5,1.7,3.9,3.9,3.9a12.41,12.41,0,0,0,2.7-.3l.3,1.1a7.86,7.86,0,0,1-3.5.8c-3.3,0-5.2-.9-5.2-5.3,0-3.2,1.9-5.7,4.8-5.7s4,2,4,5.1v.5C194,21.7,187.1,21.7,187.1,21.7Zm2.8-4.5c-1.5,0-2.7,1.2-2.8,3.3h5.1C192.2,18.4,191.6,17.2,189.9,17.2Z" fill="#003c7d"/><path d="M203.3,18a3.5,3.5,0,0,0-1.2-.3,4.07,4.07,0,0,0-2.8.8v2.9l.1,3.5c0,.3,0,.5.3.5l2,.3a2.77,2.77,0,0,1-.1.9H196c0-.3-.1-.7-.1-.8l.9-.5a1.64,1.64,0,0,0,.7-1.5V17.3h-2v-.9a22.58,22.58,0,0,1,2.9-.4c.5,0,.8.1.8.7v.8a3.79,3.79,0,0,1,3.1-1.6c.7,0,1.1.1,1.3.1Z" fill="#003c7d"/><path d="M208.1,27.1a8.69,8.69,0,0,1-3.5-.7l.1-3.1h.9a2.41,2.41,0,0,0,2.5,2.5c1.2,0,2.3-.4,2.3-1.5,0-.9-.8-1.3-2.5-2-1.5-.5-3.1-1.5-3.1-3.5s1.7-2.9,3.7-2.9a8.24,8.24,0,0,1,3.1.7l-.3,2.5-.7-.1a2.31,2.31,0,0,0-2.4-2c-1.2,0-1.9.7-1.9,1.3,0,1.2,1.2,1.6,2.4,2.1,1.5.7,3.2,1.5,3.2,3.3C212.1,26.4,210.1,27.1,208.1,27.1Z" fill="#003c7d"/><path d="M213.9,26.1l1.2-.4a1.44,1.44,0,0,0,.7-1.1V17.7h-2v-.9a22.58,22.58,0,0,1,2.9-.4c.5,0,.8.1.8.7v8.4c0,.3.1.4.3.4l1.7.3a2.77,2.77,0,0,1-.1.9h-5.5Z" fill="#003c7d"/><path d="M228.2,26.8a5.56,5.56,0,0,1-2.3.4c-2.5,0-3.5-.7-3.5-3.1V17.7h-1.6V17l3.1-2.8h.3v2.1h3.6v1.3h-3.6V24c0,1.5.7,1.7,2,1.7a5.08,5.08,0,0,0,1.7-.3Z" fill="#003c7d"/><path d="M236.9,27.1c-1.3,0-1.5-.9-1.5-1.6a5.27,5.27,0,0,1-3.7,1.7,2.26,2.26,0,0,1-2.5-2.5c0-2.1,1.9-3.1,3.7-3.3,1.2-.1,2.5-.3,2.5-.3V19.5c0-1.6-.8-2-2.7-2a6.57,6.57,0,0,0-2.5.4l-.3-1.1a10.29,10.29,0,0,1,3.3-.7c1.5,0,3.9,0,3.9,2.8v2.7l.1,3.9h2.1l.1.8A8.17,8.17,0,0,1,236.9,27.1ZM235.4,22a12.26,12.26,0,0,0-2.4.4c-1.3.3-2,.9-2,1.9,0,.5.4,1.2,1.5,1.2a8,8,0,0,0,2.9-.9Z" fill="#003c7d"/><path d="M240.5,26.1l1.2-.4a1.44,1.44,0,0,0,.7-1.1V17.7h-2v-.9a22.58,22.58,0,0,1,2.9-.4c.5,0,.8.1.8.7v8.4c0,.3.1.4.3.4l1.7.3a2.77,2.77,0,0,1-.1.9h-5.5A3.33,3.33,0,0,0,240.5,26.1Z" fill="#003c7d"/><path d="M255.1,18a3.5,3.5,0,0,0-1.2-.3,4.07,4.07,0,0,0-2.8.8v2.9l.1,3.5c0,.3,0,.5.3.5l2,.3a2.77,2.77,0,0,1-.1.9h-5.6c0-.3-.1-.7-.1-.8l.9-.5a1.64,1.64,0,0,0,.7-1.5V17.3h-2v-.9a22.58,22.58,0,0,1,2.9-.4c.5,0,.8.1.8.7v.8a3.79,3.79,0,0,1,3.1-1.6c.7,0,1.1.1,1.3.1Z" fill="#003c7d"/><circle cx="108.3" cy="13.1" r="1.3" fill="#003c7d"/><circle cx="170.7" cy="13.1" r="1.3" fill="#003c7d"/><circle cx="216.6" cy="13.1" r="1.3" fill="#003c7d"/><circle cx="243.3" cy="13.1" r="1.3" fill="#003c7d"/></svg>
