<svg xmlns="http://www.w3.org/2000/svg" width="204.37" height="64" viewBox="0 0 204.37 64"><path d="M108.06,14.19l-1.28,6.63a101.86,101.86,0,0,1,14.46,1.81l-9.69,3.66-4,21H117.7l6.43-33.69a112.49,112.49,0,0,0-16,.6" fill="#3caebe" fill-rule="evenodd"/><path d="M28.35,14.19l-1.28,6.63a102.54,102.54,0,0,1,14.6,1.81s-4.75,1.9-9.89,3.92l-4,20.73H38l6.43-33.69a112.49,112.49,0,0,0-16,.6" fill="#3caebe" fill-rule="evenodd"/><path d="M98.29,47.28H88.14l4-20.84c.68-3.38.2-4.66-1.36-4.66-3.11,0-8.8,8.25-10.29,16.3l-1.76,9.21H68.65l4-20.85c.67-3.38.2-4.66-1.36-4.66-3.11,0-8.8,8.25-10.28,16.3l-1.76,9.21H49.1L54,21.5c-1.89-.32-3.78-.54-5.69-.67l1.29-6.64a107.88,107.88,0,0,1,15.56-.61,56,56,0,0,1-2.57,8.67h.13c3-5.21,7.11-9.41,13.06-9.41,4,0,6.91,2.1,6.91,6.63a13.74,13.74,0,0,1-.54,3.05l.07.07c3.11-5.62,7.3-9.75,13.26-9.75,6.56,0,8.46,4.74,7.24,11L98.29,47.29" fill="#3caebe" fill-rule="evenodd"/><path d="M158,47.28H147.81l4-20.84c.68-3.38.14-4.66-1.42-4.66-3.38,0-9,8.86-10.36,16.3l-1.75,9.21H128.12l4.94-25.79a57.11,57.11,0,0,0-5.68-.67l1.29-6.64a107.88,107.88,0,0,1,15.56-.61,59.5,59.5,0,0,1-2.57,8.67h.13c3.05-5.21,7.25-9.41,13.27-9.41,6.63,0,8.52,4.74,7.3,11L158,47.29" fill="#3caebe" fill-rule="evenodd"/><path d="M31.74,9H21.05L13.37,47.29H3.08L10.69,9H0L1.69,0H33.43L31.74,9" fill="#3caebe" fill-rule="evenodd"/><path d="M188.25,23.39c-1.73,6.15-6.65,16-10.53,16-1.39,0-2-1.18-2-3.82,0-6.38,3-13.5,9.58-14.62,1.38-.24,3.74-.35,3.74-.35s-.42,1.72-.77,2.79m-.74-10.48h-.18c-14.75,0-21.93,11.57-21.93,24.5,0,7.24,2.85,10.69,8.19,10.69,5.75,0,10.15-4.67,13.06-9.48l.14.07a45.62,45.62,0,0,0-3,9.27c-1,5-4.33,7.31-10.28,7.31a21.59,21.59,0,0,1-9.41-2.1l-2.37,9.34A34.55,34.55,0,0,0,171.9,64c13.33,0,19.62-5.21,21.59-15.22l5.62-28.92,3.78-.28,1.48-6.67H187.51" fill="#3caebe" fill-rule="evenodd"/></svg>
