<svg xmlns="http://www.w3.org/2000/svg" width="144" height="64" viewBox="0 0 277 122.59"><path fill="#6c207e" d="M3.2,120.05A21.85,21.85,0,0,1,0,109.75a21.85,21.85,0,0,1,3.2-10.3l1.54.14c-2.18,4.25-2.81,6.83-2.81,10.16s.62,5.91,2.81,10.16Z" transform="translate(0 0)"/><path fill="#6c207e" d="M9.58,102.53H5.91v-1.75h9.38v1.75H11.61v14.3h-2Z" transform="translate(0 0)"/><path fill="#6c207e" d="M16.71,99.59h1.93v7.13h0A3.17,3.17,0,0,1,21.51,105c2,0,3.42,1.17,3.42,3.75v8.14H23.06v-7.56c0-1.86-.69-2.67-1.93-2.67-1.52,0-2.48,1.06-2.48,3.17v7.06H16.71Z" transform="translate(0 0)"/><path fill="#6c207e" d="M36.52,114.3c0,.85.07,1.7.09,2.53H34.75l-.07-1.75h0a3,3,0,0,1-3,1.91c-2,0-3.43-1.17-3.43-3.75V105.1h1.93v7.57c0,1.86.69,2.67,1.93,2.67,1.52,0,2.48-1.06,2.48-3.17v-7.06h1.93Z" transform="translate(0 0)"/><path fill="#6c207e" d="M42,100.28v2.3H39.87v-2.3Zm-2,4.83h1.9v11.73H40Z" transform="translate(0 0)"/><path fill="#6c207e" d="M44.84,114.56a5.32,5.32,0,0,0,2.76.87c1.47,0,2.23-.76,2.23-1.66s-.41-1.36-1.49-1.84L47,111.36c-1.68-.76-2.3-1.52-2.3-3A3.44,3.44,0,0,1,48.18,105h.29a7.25,7.25,0,0,1,2.48.41l0,1.63a5.71,5.71,0,0,0-2.3-.51c-1.26,0-1.93.69-1.93,1.61s.69,1.47,2,2l.69.28a3.19,3.19,0,0,1,2.32,3c0,2-1.08,3.63-3.77,3.63a7,7,0,0,1-3.17-.69Z" transform="translate(0 0)"/><path fill="#6c207e" d="M53.2,119.91c2.18-4.25,2.81-6.83,2.81-10.16s-.62-5.91-2.81-10.16l1.54-.14a21.85,21.85,0,0,1,3.2,10.3,21.85,21.85,0,0,1-3.2,10.3Z" transform="translate(0 0)"/><path fill="#6c207e" d="M67.87,105.11v1.75l-5.43,8.32H68v1.66H60.47v-1.75l5.43-8.32H60.65v-1.66Z" transform="translate(0 0)"/><path fill="#6c207e" d="M74.69,105c3.1,0,4.71,2.34,4.71,6s-1.61,6-4.71,6S70,114.65,70,111,71.59,105,74.69,105Zm0,10.48c1.84,0,2.69-1.52,2.69-4.46s-.85-4.46-2.69-4.46S72,108,72,111,72.85,115.43,74.69,115.43Z" transform="translate(0 0)"/><path fill="#6c207e" d="M82.09,107.63c0-.85-.07-1.7-.09-2.53h1.86l.07,1.84h0a3.15,3.15,0,0,1,3.33-2v1.91a3.64,3.64,0,0,0-.74-.07c-1.49,0-2.55,1.29-2.55,3.84v6.21H82.09Z" transform="translate(0 0)"/><path fill="#6c207e" d="M97.79,117.34c0,3.24-2.44,4.6-5,4.6a11.53,11.53,0,0,1-3.43-.71l.09-2a6.48,6.48,0,0,0,3.22,1c2.37,0,3.29-1.4,3.29-3.43V115h0a3.41,3.41,0,0,1-3.08,2c-2.41,0-4-2-4-6s1.63-6,4.25-6A3.4,3.4,0,0,1,96,106.86h0l.07-1.7h1.86c0,.69-.09,1.43-.09,2.14Zm-4.51-1.91c1.77,0,2.57-1.52,2.57-4.46s-.8-4.46-2.57-4.46S90.71,108,90.71,111,91.51,115.43,93.28,115.43Z" transform="translate(0 0)"/><path fill="#6c207e" d="M107.12,99.59h1.75v23h-1.75Z" transform="translate(0 0)"/><path fill="#6c207e" d="M115.92,100.78H118l2.62,13h0l2.87-13h2.58l2.87,13h0l2.81-13h1.93l-3.49,16H127.8l-3-13.75h0l-3,13.75h-2.39Z" transform="translate(0 0)"/><path fill="#6c207e" d="M139.6,105c3.1,0,4.71,2.34,4.71,6s-1.61,6-4.71,6-4.71-2.34-4.71-6S136.49,105,139.6,105Zm0,10.48c1.84,0,2.69-1.52,2.69-4.46s-.85-4.46-2.69-4.46-2.69,1.52-2.69,4.46S137.76,115.43,139.6,115.43Z" transform="translate(0 0)"/><path fill="#6c207e" d="M147,107.63c0-.85-.07-1.7-.09-2.53h1.86l.07,1.75h0a3,3,0,0,1,3-1.91c2,0,3.43,1.17,3.43,3.75v8.14h-1.93v-7.56c0-1.86-.69-2.67-1.93-2.67-1.52,0-2.48,1.06-2.48,3.17v7.06H147Z" transform="translate(0 0)"/><path fill="#6c207e" d="M160,111.54c0,2.71,1.06,4,3.2,4a5,5,0,0,0,2.69-1l.09,1.75a7.93,7.93,0,0,1-3.29.69c-3.1,0-4.71-2.34-4.71-6s1.61-6,4.53-6c2.64,0,4.11,2.11,4.11,5.56v1Zm4.69-1.47c0-2.44-.76-3.66-2.3-3.66-1.24,0-2.35.92-2.39,3.66Z" transform="translate(0 0)"/><path fill="#6c207e" d="M169.19,107.63c0-.85-.07-1.7-.09-2.53H171l.07,1.75h0a3,3,0,0,1,3-1.91c2,0,3.43,1.17,3.43,3.75v8.14h-1.93v-7.56c0-1.86-.69-2.67-1.93-2.67-1.52,0-2.48,1.06-2.48,3.17v7.06h-1.93Z" transform="translate(0 0)"/><path fill="#6c207e" d="M188.16,111.54c0,2.71,1.06,4,3.2,4a5,5,0,0,0,2.69-1l.09,1.75a7.93,7.93,0,0,1-3.29.69c-3.1,0-4.71-2.34-4.71-6s1.61-6,4.53-6c2.64,0,4.11,2.11,4.11,5.56v1Zm4.69-1.47c0-2.44-.76-3.66-2.3-3.66-1.24,0-2.35.92-2.39,3.66Z" transform="translate(0 0)"/><path fill="#6c207e" d="M197.37,107.63c0-.85-.07-1.7-.09-2.53h1.86l.07,1.75h0a3,3,0,0,1,3-1.91c2,0,3.43,1.17,3.43,3.75v8.14h-1.93v-7.56c0-1.86-.69-2.67-1.93-2.67-1.52,0-2.48,1.06-2.48,3.17v7.06h-1.93Z" transform="translate(0 0)"/><path fill="#6c207e" d="M212.42,100.78h2.12l2.62,13h0l2.87-13h2.58l2.87,13h0l2.8-13h1.93l-3.49,16h-2.39l-3-13.75h0l-3,13.75h-2.39Z" transform="translate(0 0)"/><path fill="#6c207e" d="M233.41,111.54c0,2.71,1.06,4,3.19,4a5,5,0,0,0,2.69-1l.09,1.75a7.93,7.93,0,0,1-3.29.69c-3.1,0-4.71-2.34-4.71-6s1.61-6,4.53-6c2.64,0,4.12,2.11,4.12,5.56v1Zm4.69-1.47c0-2.44-.76-3.66-2.3-3.66-1.24,0-2.35.92-2.39,3.66Z" transform="translate(0 0)"/><path fill="#6c207e" d="M242.81,99.59h1.93v17.24h-1.93Z" transform="translate(0 0)"/><path fill="#6c207e" d="M254.9,105.11v1.75l-5.43,8.32H255v1.66h-7.5v-1.75l5.43-8.32h-5.24v-1.66Z" transform="translate(0 0)"/><path fill="#6c207e" d="M259.79,100.28v2.3h-2.12v-2.3Zm-2,4.83h1.93v11.73h-1.93Z" transform="translate(0 0)"/><path fill="#6c207e" d="M261.47,120.16a4.05,4.05,0,0,0,.85.12c.8,0,1-.35,1-1.54V105.11h1.93V119c0,2-.57,2.94-2.69,2.94a2.81,2.81,0,0,1-1.11-.21Zm3.88-19.89v2.3h-2.11v-2.3Z" transform="translate(0 0)"/><path fill="#6c207e" d="M268.71,107.63c0-.85-.07-1.7-.09-2.53h1.86l.07,1.75h0a3,3,0,0,1,3-1.91c2,0,3.43,1.17,3.43,3.75v8.14h-1.93v-7.56c0-1.86-.69-2.67-1.93-2.67-1.52,0-2.48,1.06-2.48,3.17v7.06h-1.93Z" transform="translate(0 0)"/><path fill="#00bce4" d="M265.32,0h-1.67A4.28,4.28,0,0,0,261,1.31a4.57,4.57,0,0,0-1.06,1.88,4.55,4.55,0,0,0-.2,1.27V41.52h0L235,14.77l-1.57,24.36L260.86,69Z" transform="translate(0 0)"/><path fill="#00bce4" d="M206.59,65.93a4.58,4.58,0,0,0,1.27,3.16,4.28,4.28,0,0,0,3,1.3h8.65a4.26,4.26,0,0,0,3.06-1.3,4.58,4.58,0,0,0,1.27-3.16V47.44l-17.3-1.12Z" transform="translate(0 0)"/><polygon fill="#00bce4" points="85.48 46.52 102.78 47.64 102.78 28.88 102.78 18.3 85.48 17.19 85.48 46.52"/><path fill="#00bce4" d="M14.77,42,1.39,54.29A4.24,4.24,0,0,0,0,57.42v8.65a4.29,4.29,0,0,0,1.31,3.05,4.58,4.58,0,0,0,3.16,1.27H17l1.82-28.18Z" transform="translate(0 0)"/><path fill="#00bce4" d="M4.47,0A4.54,4.54,0,0,0,1.31,1.27,4.31,4.31,0,0,0,0,4.33v7.34L20.7,13l29.21,1.88L50.87,0Z" transform="translate(0 0)"/><polygon fill="#00bce4" points="165.21 31.26 163.9 51.58 192.08 53.4 192.08 24.07 174.78 22.95 174.78 41.69 165.21 31.26"/><path fill="#00bce4" d="M137.81,1.4h0A4.26,4.26,0,0,0,134.66,0H126a4.27,4.27,0,0,0-3,1.31,4.58,4.58,0,0,0-1.27,3.15V19.52l14.89,1Z" transform="translate(0 0)"/><polygon fill="#007fb2" points="233.46 39.13 234.77 18.81 206.59 17 206.59 46.33 223.89 47.44 223.89 28.71 233.46 39.13"/><path fill="#007fb2" d="M260.86,69h0A4.25,4.25,0,0,0,264,70.39h8.65a4.31,4.31,0,0,0,3.06-1.31A4.56,4.56,0,0,0,277,65.93V50.87l-14.89-1Z" transform="translate(0 0)"/><path fill="#007fb2" d="M85.48,65.93a4.58,4.58,0,0,0,1.27,3.15,4.31,4.31,0,0,0,3.06,1.31h8.65a4.31,4.31,0,0,0,3.06-1.31,4.58,4.58,0,0,0,1.27-3.15V47.64l-17.3-1.12Z" transform="translate(0 0)"/><path fill="#007fb2" d="M65.92,70.39a4.58,4.58,0,0,0,3.16-1.27,4.28,4.28,0,0,0,1.3-3.05V57.42a4.26,4.26,0,0,0-1.3-3.06,4.58,4.58,0,0,0-3.16-1.27H47.44l-1.12,17.3Z" transform="translate(0 0)"/><path fill="#007fb2" d="M0,11.67v1.68A4.28,4.28,0,0,0,1.31,16a4.48,4.48,0,0,0,1.88,1.1,4.55,4.55,0,0,0,1.27.2H41.52L14.77,42l24.36,1.57L69,16.12Z" transform="translate(0 0)"/><path fill="#007fb2" d="M163.64,55.62,176,69a4.24,4.24,0,0,0,3.13,1.39h8.65a4.29,4.29,0,0,0,3.05-1.31,4.58,4.58,0,0,0,1.27-3.16V53.4l-28.2-1.82Z" transform="translate(0 0)"/><path fill="#007fb2" d="M121.69,65.93A4.54,4.54,0,0,0,123,69.08a4.27,4.27,0,0,0,3,1.31h7.34l1.34-20.69,1.88-29.21-14.89-1Z" transform="translate(0 0)"/><path fill="#6c207e" d="M277,4.47a4.58,4.58,0,0,0-1.27-3.15A4.28,4.28,0,0,0,272.66,0h-7.34L262.1,49.9l14.89,1Z" transform="translate(0 0)"/><path fill="#6c207e" d="M235,14.77,222.7,1.39A4.24,4.24,0,0,0,219.57,0h-8.65a4.29,4.29,0,0,0-3,1.31,4.58,4.58,0,0,0-1.27,3.16V17l28.18,1.82Z" transform="translate(0 0)"/><path fill="#6c207e" d="M89.81,0a4.31,4.31,0,0,0-3.06,1.31,4.58,4.58,0,0,0-1.27,3.15V17.19l17.3,1.12V0Z" transform="translate(0 0)"/><polygon fill="#6c207e" points="39.13 43.53 18.81 42.22 16.99 70.39 46.33 70.39 47.44 53.09 28.71 53.09 39.13 43.53"/><path fill="#6c207e" d="M69,16.12h0A4.26,4.26,0,0,0,70.39,13V4.33a4.31,4.31,0,0,0-1.31-3.06A4.58,4.58,0,0,0,65.93,0H50.87l-1,14.89Z" transform="translate(0 0)"/><path fill="#6c207e" d="M192.08,4.47a4.58,4.58,0,0,0-1.27-3.16A4.31,4.31,0,0,0,187.75,0H179.1A4.3,4.3,0,0,0,176,1.31a4.58,4.58,0,0,0-1.27,3.16V23L192,24.12Z" transform="translate(0 0)"/><path fill="#6c207e" d="M133.35,70.39H135a4.23,4.23,0,0,0,2.71-1.27A4.85,4.85,0,0,0,139,65.93V28.87h0l24.65,26.75,1.57-24.36-8.71-9.49L137.81,1.4Z" transform="translate(0 0)"/></svg>