<svg xmlns="http://www.w3.org/2000/svg" width="252.73" height="52" viewBox="0 0 252.73 52"><path fill="#e41819" d="M-28.17,15.83h0c-2.16-1.61-4.85-2.42-9.16-3.5a4.75,4.75,0,0,0-1.62-.27V14h-8.62L-48.65,15v8.63h-1.88a5.74,5.74,0,0,0,.27,1.61c.8,4.31,1.88,7,3.77,8.89h0c.54.54,1.08,1.08,1.34,1.08,1.62.27,2.7-3.23,2.43-8.35,3.23,4.85,6.2,7.54,7.54,7s.27-4.58-2.42-9.16c4.85,2.43,8.62,3.51,9.16,2.43.54-1.35-2.16-4.31-7-7.55,5.12.27,8.63-.8,8.36-2.42-.27-.27-.54-.81-1.08-1.35" transform="translate(79.36 16.5)"/><path fill="#f08a01" d="M-56.73,7.48l1.08-1.08V-2.49h1.88A4.59,4.59,0,0,0-54-4.38c-1.88-6.19-4.31-10.5-6.73-12.12-1.08,2.69-.54,8.62,1.35,14.55,0,.54.53,1.08.53,1.62L-60-1.41C-64.27-6-69.39-9.23-72.36-9.49c.27,3,3.51,8.08,7.82,12.39.27.27,1.07.81,1.07,1.08a3.56,3.56,0,0,1-1.34-.81C-70.74,1.55-76.67,1-79.36,2.09c1.61,2.43,5.92,4.85,12.12,6.74a6.35,6.35,0,0,0,2.16.54V7.48Z" transform="translate(79.36 16.5)"/><path fill="#e41774" d="M-48.92,6.13l1.08,1.08h8.62V9.1c1.08-.27,2.16-.54,3.5-.81,5.12-2.16,8.09-5.66,8.63-9.7-2.7-2.16-8.89-1.08-13.47.27,1.34-4.58,2.69-10.51.53-13.47-4,.53-7.27,3.23-10,8.35a16.83,16.83,0,0,0-1.08,3.77h1.88V6.13Z" transform="translate(79.36 16.5)"/><path fill="#6c1f7f" d="M-55.38,15.29l-1.08-1.07h-8.62V12.33h-.27c-5.12.54-9.16,2.42-11.32,6.2,2.43,3,7,2.69,7,2.69-2.16,3.23-3.51,7.54-3,10.24,2.7.54,6.47-.27,9.7-2.43a7.73,7.73,0,0,0,3.24,6.47c3.77-2.16,5.65-6.2,6.19-11.32v-.27h-1.88Z" transform="translate(79.36 16.5)"/><polygon points="66.28 7.81 68.97 7.81 68.97 24.79 77.86 24.79 77.86 27.21 66.28 27.21 66.28 7.81"/><path d="M2.27,5.05c0,2.16,2.16,3.78,4.32,3.78a4.21,4.21,0,0,0,3.5-1.89L12,8.29A6.44,6.44,0,0,1,6.32,11,6.5,6.5,0,0,1-.42,4.25,6.67,6.67,0,0,1,6.32-2.49c4.58,0,6.46,3.5,6.46,7v.8H2.27Zm7.82-1.88A3.53,3.53,0,0,0,6.32-.6,4.1,4.1,0,0,0,2.27,3.17Z" transform="translate(79.36 16.5)"/><rect width="2.42" height="20.75" x="94.84" y="6.47"/><path d="M23-9a1.85,1.85,0,0,1,1.89,1.89A1.85,1.85,0,0,1,23-5.18a1.85,1.85,0,0,1-1.89-1.89A2,2,0,0,1,23-9M21.67-2.22H24.1V10.71H21.67Z" transform="translate(79.36 16.5)"/><path d="M29.76,5.05c0,2.16,2.15,3.78,4.31,3.78a4.21,4.21,0,0,0,3.5-1.89l1.89,1.35A6.47,6.47,0,0,1,33.8,11a6.51,6.51,0,0,1-6.74-6.73A6.67,6.67,0,0,1,33.8-2.49c4.58,0,6.46,3.5,6.46,7v.8H29.76Zm7.81-1.88A3.53,3.53,0,0,0,33.8-.6a4.09,4.09,0,0,0-4,3.77Z" transform="translate(79.36 16.5)"/><polygon points="127.17 25.06 134.45 16.17 127.44 16.17 127.44 14.28 137.41 14.28 137.41 16.43 130.13 25.06 137.95 25.06 137.95 27.21 127.17 27.21 127.17 25.06"/><path d="M67.21-2.76a6.9,6.9,0,0,1,7,6.74,6.73,6.73,0,0,1-7,6.73A6.9,6.9,0,0,1,60.2,4a7.29,7.29,0,0,1,7-6.74m0,11.59c2.69,0,4.31-1.89,4.31-4.58S69.9-.33,67.21-.33,62.9,1.55,62.9,4.25c.27,2.69,1.88,4.58,4.31,4.58" transform="translate(79.36 16.5)"/><path d="M77.18-2.22H79.6V-.33h0a4.23,4.23,0,0,1,3.77-2.43,1.62,1.62,0,0,1,1.08.27V.2a1.67,1.67,0,0,0-1.08-.26C81-.06,79.6,1.28,79.6,4.25v6.46H77.18Z" transform="translate(79.36 16.5)"/><path d="M99.54,10.44c0,4-3,6.74-7,6.74a8.47,8.47,0,0,1-6.46-2.43l1.61-2.15a6.17,6.17,0,0,0,4.58,2.15c3.78,0,4.58-2.42,4.58-4.58V8.56h0A5,5,0,0,1,92.26,11a6.66,6.66,0,0,1-6.73-6.73,6.5,6.5,0,0,1,6.73-6.74A5.73,5.73,0,0,1,96.84-.33h0V-2.22h2.43V10.44ZM88.49,4.25a4.31,4.31,0,0,0,8.62,0c0-2.7-1.61-4.58-4.31-4.58s-4.31,1.88-4.31,4.58" transform="translate(79.36 16.5)"/><path d="M116,10.44c0,4-3,6.74-7,6.74a8.49,8.49,0,0,1-6.47-2.43l1.62-2.15a6.15,6.15,0,0,0,4.58,2.15c3.77,0,4.58-2.42,4.58-4.58V8.56h0A5,5,0,0,1,108.7,11,6.67,6.67,0,0,1,102,4.25a6.51,6.51,0,0,1,6.74-6.74,5.75,5.75,0,0,1,4.58,2.16h0V-2.22h2.42V10.44Zm-11-6.19a4.31,4.31,0,0,0,8.62,0c0-2.7-1.62-4.58-4.31-4.58s-4.31,1.88-4.31,4.58" transform="translate(79.36 16.5)"/><path d="M119.21-2.22h2.42V-.33h0a4.23,4.23,0,0,1,3.77-2.43,1.62,1.62,0,0,1,1.08.27L126.75.2c-.54,0-.81-.26-1.08-.26-2.42,0-3.77,1.34-3.77,4.31v6.46h-2.42V-2.22Z" transform="translate(79.36 16.5)"/><path d="M135.1-2.76a6.9,6.9,0,0,1,7,6.74,7,7,0,0,1-14,0,6.9,6.9,0,0,1,7-6.74m0,11.59c2.7,0,4.31-1.89,4.31-4.58S137.8-.33,135.1-.33s-4.31,1.88-4.31,4.58,1.62,4.58,4.31,4.58" transform="translate(79.36 16.5)"/><path d="M146.42,5.05c0,2.16,2.16,3.78,4.31,3.78a4.2,4.2,0,0,0,3.5-1.89l2.16,1.35A6.46,6.46,0,0,1,150.73,11,6.51,6.51,0,0,1,144,4.25a6.67,6.67,0,0,1,6.74-6.74c4.58,0,6.47,3.5,6.47,7v.8H146.42Zm7.81-1.88A3.53,3.53,0,0,0,150.46-.6a4.1,4.1,0,0,0-4,3.77Z" transform="translate(79.36 16.5)"/><path d="M159.62-2.22h2.43V-.33h0a5.73,5.73,0,0,1,4.58-2.16,6.5,6.5,0,0,1,6.73,6.74A6.5,6.5,0,0,1,166.63,11a5.39,5.39,0,0,1-4.58-2.15h0v9.7h-2.43Zm2.43,6.47c0,2.69,1.61,4.58,4.31,4.58s4.31-1.89,4.31-4.58-1.62-4.58-4.31-4.58-4.31,1.88-4.31,4.58" transform="translate(79.36 16.5)"/></svg>