<svg xmlns="http://www.w3.org/2000/svg" width="64" height="64" viewBox="0 0 64 64"><title>calendar-background</title><rect width="64" height="64" fill="#fff"/><path d="M12.5,40A3.5,3.5,0,0,0,16,43.5H48A3.5,3.5,0,0,0,51.5,40V17h-39Z" fill="#fff"/><path d="M12,15V40a4,4,0,0,0,4,4H48a4,4,0,0,0,4-4V15ZM51.5,40A3.5,3.5,0,0,1,48,43.5H16A3.5,3.5,0,0,1,12.5,40V17h39Z" fill="#d3d2d2"/><path d="M48,4H47v7a2,2,0,0,1-4,0V4H22v7a2,2,0,0,1-4,0V4H16a4,4,0,0,0-4,4v7H52V8A4,4,0,0,0,48,4Z" fill="#ec677a"/><path d="M20,11a2,2,0,0,1-2-2v2a2,2,0,0,0,4,0V9A2,2,0,0,1,20,11Zm25,0a2,2,0,0,1-2-2v2a2,2,0,0,0,4,0V9A2,2,0,0,1,45,11Z" fill="#b93447"/><path d="M20,0a2,2,0,0,0-2,2V9a2,2,0,0,0,4,0V2A2,2,0,0,0,20,0ZM45,0a2,2,0,0,0-2,2V9a2,2,0,0,0,4,0V2A2,2,0,0,0,45,0Z" fill="#e0e0d1"/></svg>
