<?xml version="1.0" encoding="utf-8"?>
<!-- Generator: Adobe Illustrator 22.1.0, SVG Export Plug-In . SVG Version: 6.00 Build 0)  -->
<svg version="1.1" id="Layer_1" xmlns="http://www.w3.org/2000/svg" xmlns:xlink="http://www.w3.org/1999/xlink" x="0px" y="0px"
	 viewBox="0 0 64 64" style="enable-background:new 0 0 64 64;" xml:space="preserve">
<style type="text/css">
	.st0{fill:#FFFFFF;}
	.st1{fill:#D3D2D2;}
	.st2{fill:#EC677A;}
	.st3{opacity:0.2;}
	.st4{fill:#231F20;}
	.st5{fill:#E0E0D1;}
</style>
<g>
	<g>
		<g>
			<path class="st0" d="M16,43.8c-2.1,0-3.8-1.7-3.8-3.8V15.2h39.5V40c0,2.1-1.7,3.8-3.8,3.8H16z"/>
			<path class="st1" d="M51.5,15.5V40c0,1.9-1.6,3.5-3.5,3.5H16c-1.9,0-3.5-1.6-3.5-3.5V15.5H51.5 M52,15H12v25c0,2.2,1.8,4,4,4h32
				c2.2,0,4-1.8,4-4V15L52,15z"/>
		</g>
	</g>
	<g>
		<path class="st1" d="M48,6H16c-2.2,0-4,1.8-4,4v7h40v-7C52,7.8,50.2,6,48,6z"/>
	</g>
	<g>
		<path class="st2" d="M48,4H16c-2.2,0-4,1.8-4,4v7h40V8C52,5.8,50.2,4,48,4z"/>
	</g>
	<g class="st3">
		<path class="st4" d="M20,13c-1.1,0-2-0.9-2-2V4c0-1.1,0.9-2,2-2l0,0c1.1,0,2,0.9,2,2v7C22,12.1,21.1,13,20,13L20,13z"/>
	</g>
	<g class="st3">
		<path class="st4" d="M45,13c-1.1,0-2-0.9-2-2V4c0-1.1,0.9-2,2-2l0,0c1.1,0,2,0.9,2,2v7C47,12.1,46.1,13,45,13L45,13z"/>
	</g>
	<g>
		<path class="st5" d="M20,11c-1.1,0-2-0.9-2-2V2c0-1.1,0.9-2,2-2l0,0c1.1,0,2,0.9,2,2v7C22,10.1,21.1,11,20,11L20,11z"/>
	</g>
	<g>
		<path class="st5" d="M45,11c-1.1,0-2-0.9-2-2V2c0-1.1,0.9-2,2-2l0,0c1.1,0,2,0.9,2,2v7C47,10.1,46.1,11,45,11L45,11z"/>
	</g>
	<g id="Layer_2_1_">
	</g>
</g>
</svg>
